<svg width="136" height="20" viewBox="0 0 136 20" fill="none" xmlns="http://www.w3.org/2000/svg">
<path d="M13.8049 7.42144C13.7953 7.39756 13.7858 7.37369 13.7762 7.34981C13.7762 7.33549 13.7523 7.28774 13.7093 7.21133C13.6568 7.13971 13.6186 7.10628 13.59 7.11106C13.5756 7.11106 13.5613 7.13016 13.5422 7.16836C13.5231 7.20656 13.4992 7.24476 13.4754 7.28296C13.461 7.30684 13.4419 7.33071 13.4181 7.36414C13.3894 7.39756 13.3751 7.42144 13.3703 7.44531C13.356 7.47397 13.3417 7.50739 13.3178 7.54559C13.2939 7.58379 13.2748 7.61244 13.2653 7.63632C13.2557 7.67452 13.2414 7.70795 13.2271 7.7366C13.2127 7.76525 13.1984 7.79867 13.1841 7.83687C13.1841 7.84642 13.1745 7.86075 13.1602 7.89418C13.1459 7.92283 13.1411 7.95625 13.1411 7.98968C13.1411 8.00878 13.1411 8.03265 13.1363 8.05653C13.1316 8.0804 13.1316 8.10428 13.1316 8.12338L13.1459 8.26663C13.1459 8.26663 13.1459 8.30006 13.1554 8.31916C13.1602 8.33826 13.1698 8.34781 13.1841 8.34781C13.2509 8.33826 13.3226 8.30961 13.399 8.25708C13.4419 8.22366 13.4754 8.19501 13.504 8.17113C13.5374 8.13293 13.5709 8.09951 13.5995 8.06608C13.6282 8.03265 13.6616 7.98968 13.695 7.94193C13.6998 7.93238 13.7141 7.92283 13.738 7.89895C13.7571 7.87985 13.7714 7.86075 13.7762 7.84642C13.7762 7.84165 13.7762 7.82255 13.7953 7.80345C13.8096 7.77957 13.8144 7.76525 13.8144 7.76047L13.8383 7.67452C13.8478 7.63632 13.8574 7.61244 13.8526 7.59334C13.8526 7.57902 13.8526 7.55037 13.8478 7.51694C13.8478 7.51217 13.8383 7.47874 13.8192 7.42621L13.8049 7.42144Z" fill="white"/>
<path d="M17.0185 0.425899H11.3027C11.3266 0.430674 11.3504 0.425899 11.3791 0.430674C11.5558 0.4641 11.7325 0.540501 11.9044 0.655104C12.0285 0.736281 12.1527 0.89386 12.2768 1.12307C12.315 1.21379 12.3532 1.29974 12.3866 1.3857C12.4248 1.47165 12.463 1.5576 12.4965 1.64833C12.5299 1.7104 12.5538 1.76771 12.5681 1.81546C12.5776 1.86321 12.5967 1.91096 12.6158 1.96349C12.6349 2.01601 12.6493 2.08764 12.6588 2.18314C12.6684 2.27864 12.6732 2.34549 12.6779 2.3837C12.6827 2.45055 12.6875 2.51262 12.6827 2.56515C12.6827 2.62245 12.6827 2.67975 12.6875 2.7466L12.697 2.87076C12.7161 2.93761 12.7114 3.04266 12.6827 3.19069C12.654 3.33872 12.6349 3.44377 12.6254 3.5154C12.6254 3.54405 12.6254 3.63 12.6254 3.77325C12.6254 3.91651 12.6254 4.00723 12.6254 4.05021C12.6349 4.14571 12.6254 4.22211 12.6015 4.28897C12.5776 4.35104 12.5681 4.40357 12.5729 4.44654C12.5776 4.49907 12.5729 4.57547 12.5633 4.67097C12.549 4.76648 12.5347 4.85243 12.5108 4.92405C12.5108 4.93838 12.5108 4.99091 12.4917 5.08163C12.4774 5.17236 12.4726 5.22489 12.4726 5.23921C12.4487 5.31084 12.4392 5.37769 12.4487 5.44454C12.4535 5.51139 12.4487 5.57347 12.4248 5.63077C12.401 5.7024 12.3771 5.77403 12.3484 5.84565C12.3198 5.91728 12.3007 5.98891 12.2911 6.05576C12.2816 6.11306 12.2768 6.17991 12.2768 6.26109C12.2768 6.34226 12.2673 6.42822 12.2434 6.50939C12.2434 6.53804 12.2434 6.57147 12.2338 6.61444C12.2243 6.65742 12.2195 6.68607 12.2195 6.7004C12.2195 6.72905 12.2195 6.74815 12.2195 6.77202C12.2147 6.79112 12.2147 6.815 12.2195 6.84365C12.2195 6.89618 12.2195 6.99168 12.2004 7.13016C12.1909 7.15881 12.1861 7.18746 12.1861 7.21611L12.1956 7.29729C12.1956 7.29729 11.8327 9.37446 11.403 11.848C12.4678 11.4182 14.4161 10.6303 14.4543 10.6064C14.4686 10.5873 14.8793 10.4202 15.2469 10.277C15.4809 10.1576 15.8868 9.97612 16.3786 9.85197C16.4073 9.83765 16.4359 9.82332 16.455 9.81855C16.4789 9.81377 16.498 9.82332 16.5171 9.82332C16.9326 9.73259 17.391 9.64664 17.835 9.74692C17.9162 9.76602 18.0117 9.78512 18.1168 9.81855C18.2218 9.85197 18.3078 9.8663 18.3794 9.87107C18.4367 9.87107 18.494 9.8854 18.5465 9.90927C18.6038 9.93315 18.6611 9.95702 18.7328 9.98568C18.7757 10 18.8235 10.0287 18.876 10.0621C18.9285 10.0955 18.9906 10.1385 19.0575 10.1815C19.0909 10.2053 19.1196 10.2197 19.153 10.2388V6.94393C19.1387 6.98213 19.1291 7.0251 19.1148 7.06331C19.0909 7.13971 19.0718 7.22566 19.067 7.31639C19.0575 7.36891 19.0384 7.44054 19.0097 7.54082C18.9811 7.63632 18.9524 7.70795 18.919 7.76047L18.8808 7.84642C18.8569 7.90373 18.833 7.97058 18.8092 8.0422C18.7853 8.11383 18.7566 8.17591 18.7232 8.21888C18.7089 8.23321 18.6946 8.25231 18.685 8.27618C18.6707 8.30006 18.6611 8.31916 18.6468 8.33349C18.6277 8.35259 18.5991 8.36691 18.5704 8.38124C18.5418 8.39556 18.5227 8.40989 18.5083 8.42421C18.4797 8.43376 18.451 8.44331 18.4272 8.45286C18.4033 8.46241 18.3603 8.47674 18.303 8.49106C18.2314 8.50061 18.1693 8.51016 18.1263 8.52449C18.0834 8.53882 18.0261 8.55314 17.964 8.55792C17.8159 8.55792 17.7491 8.51494 17.7586 8.41466C17.7539 8.36214 17.7586 8.31916 17.7682 8.29051C17.7825 8.26186 17.7921 8.22366 17.8016 8.18068C17.8112 8.14248 17.8207 8.10906 17.8255 8.07563C17.8255 8.0422 17.8398 8.00878 17.8494 7.98013C17.8589 7.9276 17.8685 7.87985 17.8685 7.83687C17.8685 7.78912 17.8828 7.74137 17.8971 7.67929C17.9019 7.60289 17.9114 7.52649 17.9258 7.45009C17.9353 7.37369 17.9449 7.30206 17.9544 7.22088C17.964 7.16358 17.9687 7.11106 17.964 7.06331C17.8923 7.10628 17.835 7.14448 17.7921 7.17791C17.7491 7.21133 17.7013 7.23998 17.6584 7.25909C17.6106 7.31161 17.5533 7.35936 17.4865 7.39279C17.4196 7.42621 17.348 7.46919 17.2811 7.51217C17.2668 7.52172 17.2382 7.53127 17.1952 7.55037C17.1522 7.56469 17.1188 7.58379 17.0997 7.59812C17.0328 7.61722 16.9899 7.63154 16.966 7.62677C16.9421 7.62677 16.9182 7.63632 16.8896 7.65064C16.8179 7.69362 16.7606 7.7175 16.7177 7.72227C16.6508 7.74615 16.6031 7.76047 16.5696 7.76525C16.5362 7.77002 16.4932 7.77957 16.4312 7.78435L16.0778 7.82732C16.0778 7.82732 16.011 7.82732 15.9489 7.8321C15.8868 7.8321 15.8247 7.8321 15.7626 7.82255C15.6146 7.82255 15.4809 7.76525 15.3663 7.66019C15.3186 7.62199 15.2804 7.58857 15.2565 7.54559C15.2469 7.52649 15.2374 7.50262 15.2278 7.47397C15.2183 7.44531 15.2135 7.42144 15.2087 7.40234C15.2087 7.38801 15.2087 7.36891 15.2231 7.33549C15.2374 7.30684 15.2469 7.29251 15.2613 7.28774C15.2804 7.24953 15.3042 7.22088 15.3329 7.19701C15.3615 7.17313 15.3854 7.15403 15.4045 7.13493C15.4379 7.11106 15.4857 7.09196 15.5382 7.08718C15.5907 7.08241 15.6385 7.08241 15.6671 7.09196C15.6815 7.09673 15.7149 7.09673 15.7626 7.09196C15.8104 7.09196 15.8438 7.09196 15.8677 7.08241C15.8964 7.08241 15.9298 7.07286 15.9728 7.05853C16.011 7.04898 16.0396 7.03465 16.0539 7.02988C16.1208 7.00123 16.1829 6.97258 16.2402 6.94393C16.2975 6.91528 16.3643 6.87708 16.4264 6.82932C16.455 6.80545 16.498 6.7768 16.5505 6.74337C16.6078 6.71472 16.6699 6.6813 16.732 6.6431C16.7941 6.60967 16.8609 6.57147 16.923 6.53804C16.9851 6.50462 17.0376 6.47119 17.0806 6.43777C17.1236 6.41867 17.1665 6.39956 17.2095 6.37569C17.2525 6.35181 17.3002 6.33271 17.348 6.31361C17.4148 6.28496 17.4817 6.25631 17.5581 6.23244C17.6345 6.20379 17.7013 6.17513 17.7586 6.14171C17.7921 6.12261 17.8398 6.09396 17.9019 6.05098C17.9592 6.00801 18.0117 5.95548 18.0499 5.89818C18.0834 5.85043 18.1025 5.80745 18.112 5.76925C18.1216 5.73105 18.1311 5.67852 18.1454 5.61167C18.1836 5.48274 18.198 5.33949 18.1836 5.18669C18.1836 5.18191 18.1836 5.15326 18.1741 5.11028C18.1741 5.06731 18.1645 5.01956 18.155 4.97181C18.1454 4.92406 18.1407 4.88108 18.1359 4.8381C18.1359 4.79513 18.1311 4.76648 18.1263 4.75693C18.1025 4.6853 18.0929 4.628 18.0881 4.5898C18.0881 4.5516 18.0834 4.52295 18.0786 4.50384C18.0595 4.47997 18.0499 4.44654 18.0404 4.40357C18.0308 4.36059 18.0213 4.32717 18.0022 4.30329C17.9926 4.28896 17.9831 4.26986 17.9687 4.24599C17.9544 4.22211 17.9449 4.18869 17.9401 4.15526C17.9305 4.12184 17.9305 4.08841 17.9305 4.05976C17.9305 4.02633 17.9449 3.99768 17.9735 3.97381C18.0308 3.92606 18.0834 3.89741 18.1311 3.88786C18.1836 3.87831 18.2218 3.86876 18.2505 3.85921C18.2935 3.84488 18.3555 3.8401 18.4272 3.84488C18.4988 3.84488 18.5561 3.84488 18.5943 3.84488C18.6325 3.84488 18.6611 3.84488 18.6898 3.85921C18.7184 3.87353 18.7375 3.88786 18.7566 3.89741C18.8139 3.94038 18.8569 3.99291 18.8951 4.05976C18.9094 4.07886 18.9285 4.11229 18.9476 4.16004C18.9667 4.21256 18.9811 4.24121 18.9906 4.25554C18.9906 4.26031 18.9954 4.28419 19.0049 4.31762C19.0145 4.35104 19.024 4.39402 19.0288 4.44177C19.0431 4.47042 19.0622 4.5134 19.0766 4.58502C19.0909 4.65187 19.1052 4.72828 19.1196 4.80945C19.1196 4.82855 19.1196 4.84288 19.1291 4.86198V2.5556C19.1578 1.39047 18.1932 0.425899 17.0185 0.425899ZM14.6166 7.49307C14.6071 7.54082 14.5975 7.59812 14.5927 7.65064C14.588 7.70795 14.5736 7.76047 14.545 7.813C14.5307 7.8703 14.5068 7.91805 14.4781 7.95625C14.4543 7.99445 14.4208 8.0422 14.3922 8.10428L14.2537 8.30006C14.1821 8.40034 14.0532 8.51017 13.8717 8.62954C13.8431 8.64864 13.7953 8.67252 13.7284 8.7155C13.6616 8.7537 13.6091 8.78235 13.5756 8.7919C13.4754 8.82055 13.3894 8.83487 13.3226 8.84442C13.2557 8.85397 13.208 8.86352 13.1793 8.87307C13.0552 8.90172 12.9453 8.90172 12.8451 8.87307C12.7973 8.8492 12.7591 8.82055 12.7257 8.78712C12.6922 8.7537 12.6684 8.72027 12.6493 8.68684C12.6302 8.65342 12.6206 8.60567 12.6111 8.53882C12.6063 8.47196 12.5967 8.41466 12.592 8.35736C12.592 8.33826 12.592 8.25231 12.6015 8.10428C12.592 8.07085 12.5967 8.0231 12.6158 7.95625C12.6349 7.8894 12.654 7.84165 12.6731 7.80345C12.697 7.73182 12.7161 7.66497 12.7305 7.60289C12.7448 7.54082 12.7639 7.49307 12.783 7.45486C12.826 7.38801 12.8642 7.33071 12.888 7.27819C12.9119 7.23043 12.9453 7.17791 12.9835 7.11583C13.0026 7.08718 13.0217 7.05853 13.0361 7.02988C13.0552 7.00123 13.0838 6.95825 13.1316 6.90095C13.1507 6.88663 13.1745 6.86275 13.1984 6.82932C13.2223 6.80067 13.2414 6.7768 13.2509 6.76247C13.2653 6.7386 13.2796 6.71472 13.3035 6.69085C13.3226 6.66697 13.3417 6.63832 13.3608 6.60012C13.4181 6.52372 13.4515 6.45209 13.4515 6.39001C13.4563 6.36136 13.4706 6.33271 13.4897 6.30884C13.5088 6.28019 13.5279 6.26109 13.5422 6.24676C13.5565 6.23244 13.5756 6.22289 13.6043 6.22289C13.6329 6.22289 13.6568 6.22289 13.6711 6.22289C13.6711 6.23244 13.6711 6.23244 13.6807 6.23244H13.7141C13.7714 6.20856 13.824 6.21334 13.8717 6.24199C13.9051 6.26586 13.9338 6.28974 13.9577 6.30884C13.9815 6.33271 13.9959 6.34704 13.9959 6.36136C13.9863 6.41867 13.9768 6.46164 13.9672 6.49029C13.9577 6.51894 13.9481 6.55237 13.9386 6.58579C13.9481 6.59057 13.9672 6.60489 13.9959 6.62399C14.0293 6.6431 14.0627 6.66697 14.0961 6.69562C14.1343 6.72427 14.1678 6.74815 14.1964 6.77202C14.2298 6.7959 14.2489 6.81022 14.2585 6.815C14.3301 6.87708 14.3874 6.94393 14.4256 7.0251L14.4781 7.11106C14.5116 7.13971 14.5402 7.18746 14.5641 7.25431C14.588 7.31639 14.6023 7.36414 14.6071 7.40234C14.6071 7.41666 14.6071 7.43099 14.6071 7.45009C14.6071 7.46919 14.6071 7.48352 14.6023 7.49784L14.6166 7.49307ZM17.2429 5.42067C17.2429 5.42067 17.2286 5.44454 17.2191 5.45409C17.2095 5.46364 17.1952 5.47319 17.1856 5.48752C17.1713 5.50184 17.157 5.52094 17.1474 5.54004C17.1331 5.55914 17.1092 5.57825 17.0758 5.59735C16.9994 5.6642 16.9087 5.70717 16.7988 5.73582C16.7463 5.7406 16.6747 5.77402 16.5744 5.8361C16.541 5.8552 16.5076 5.86953 16.4837 5.88863C16.4598 5.90295 16.4312 5.92205 16.4025 5.94115C16.3548 5.96025 16.3118 5.97936 16.2736 6.00323C16.2402 6.02711 16.2067 6.04143 16.1781 6.05098L16.0157 6.11306C15.9298 6.14648 15.8534 6.18468 15.7913 6.23244C15.7292 6.27541 15.648 6.30884 15.543 6.33749C15.5 6.35181 15.4666 6.36136 15.4475 6.37091C15.4284 6.38046 15.3997 6.38524 15.3711 6.39001C15.3329 6.39001 15.2995 6.39956 15.266 6.40911C15.2326 6.41389 15.204 6.41867 15.1849 6.40911C15.1801 6.40911 15.1658 6.40911 15.1514 6.40911C15.1371 6.40911 15.1228 6.40911 15.118 6.40911C15.1085 6.40911 15.0941 6.40911 15.075 6.40911C15.0512 6.40911 15.0368 6.40911 15.0321 6.40911C15.0082 6.40911 14.9843 6.40911 14.9604 6.40911C14.9366 6.40911 14.9127 6.40911 14.8984 6.40911C14.8554 6.40911 14.8076 6.38046 14.7551 6.33271C14.7455 6.32794 14.7408 6.31839 14.7312 6.30406C14.7217 6.28974 14.7121 6.28019 14.7073 6.27541C14.6739 6.23244 14.6644 6.17513 14.6787 6.10351C14.693 6.07486 14.7026 6.05098 14.7073 6.03666C14.7121 6.02233 14.7312 5.99846 14.7551 5.9698L14.7646 5.95548C14.7646 5.95548 14.7981 5.92205 14.822 5.89818C14.8458 5.8743 14.8697 5.84565 14.8984 5.80745C14.9366 5.74537 14.97 5.69762 14.9986 5.65942C15.0225 5.62122 15.0559 5.5878 15.0989 5.56392C15.118 5.54959 15.1371 5.53527 15.1562 5.53049C15.1753 5.52572 15.1992 5.51139 15.2231 5.49707C15.2565 5.47319 15.2947 5.45409 15.3377 5.43499C15.3806 5.42067 15.4236 5.40157 15.4666 5.38247C15.4905 5.37292 15.5096 5.36337 15.5239 5.34904C15.543 5.33471 15.5621 5.32516 15.5812 5.31561C15.6098 5.30606 15.6337 5.29651 15.6528 5.29174C15.6719 5.28696 15.691 5.27741 15.7101 5.26786C15.7674 5.24876 15.8247 5.22489 15.882 5.20579C15.9393 5.18669 15.9966 5.16281 16.0539 5.14371C16.0969 5.12461 16.1351 5.11028 16.1733 5.10073C16.2115 5.09118 16.2736 5.07208 16.3691 5.04343C16.4264 5.02433 16.4598 5.01478 16.4741 5.01478C16.4837 5.01478 16.5123 5.01001 16.5553 4.99091C16.5983 4.97181 16.6413 4.97181 16.689 4.99568L16.7606 5.02911C16.7606 5.02911 16.7988 5.03388 16.8466 5.02911C16.8943 5.02433 16.923 5.02433 16.9278 5.02911C16.9373 5.04343 16.9564 5.05776 16.9851 5.07208C17.0137 5.08641 17.0281 5.10073 17.0376 5.11028C17.0472 5.12461 17.0663 5.13416 17.0901 5.13893C17.1188 5.14371 17.1379 5.15804 17.1522 5.16759C17.1761 5.18669 17.1952 5.20101 17.2095 5.21056C17.2238 5.22489 17.2429 5.24399 17.262 5.27741C17.2811 5.32516 17.2764 5.37292 17.2429 5.42544V5.42067Z" fill="white"/>
<path d="M10.2808 7.24953C10.2808 7.18746 10.2856 7.12061 10.2951 7.05376C10.3142 6.9678 10.3238 6.88185 10.3142 6.78635C10.3047 6.67652 10.3047 6.58102 10.3095 6.49029C10.3142 6.39956 10.3142 6.32316 10.3095 6.25631C10.2522 6.28974 10.2044 6.31839 10.1519 6.34704C10.1041 6.37091 10.0516 6.40434 9.99909 6.43777C9.92746 6.47119 9.86061 6.50462 9.79853 6.53327C9.73646 6.56192 9.67438 6.59057 9.62185 6.62399C9.52157 6.6622 9.43562 6.7004 9.35922 6.7386C9.28282 6.7768 9.21119 6.81022 9.13957 6.84843C9.06794 6.88663 9.02019 6.90573 8.99154 6.90573C8.96289 6.90573 8.91991 6.92005 8.86261 6.93915C8.81963 6.95825 8.78143 6.9678 8.74801 6.97258C8.70981 6.97258 8.68116 6.9869 8.6525 7.006C8.56655 7.0442 8.50448 7.06331 8.4615 7.06808C8.38987 7.09196 8.31825 7.11583 8.2514 7.14448C8.17977 7.17313 8.11769 7.19223 8.06039 7.19701C8.03174 7.19701 7.97921 7.21133 7.89804 7.23521C7.81686 7.25909 7.69271 7.27819 7.5208 7.30206C7.49215 7.30206 7.4444 7.31639 7.38232 7.33071C7.31547 7.34504 7.1961 7.35459 7.02419 7.36414C6.95256 7.36414 6.87139 7.35459 6.78544 7.34981C6.69948 7.34981 6.61831 7.34026 6.5419 7.33549C6.52758 7.33549 6.5037 7.33549 6.47505 7.33549C6.4464 7.33549 6.42253 7.33549 6.4082 7.33549C6.36523 7.34026 6.31747 7.33549 6.26495 7.33549C6.21242 7.32594 6.17422 7.32116 6.1408 7.30684C6.08349 7.30206 6.01187 7.27341 5.92591 7.23043C5.83996 7.18746 5.77789 7.15403 5.73014 7.13016C5.62508 7.07286 5.54868 7.03466 5.51048 7.00123C5.47228 6.97258 5.42453 6.8914 5.36723 6.76247C5.32903 6.65742 5.30993 6.57624 5.30993 6.52372C5.30993 6.46642 5.32903 6.39956 5.36723 6.31361C5.38155 6.28496 5.40543 6.25631 5.4484 6.22289C5.49138 6.18946 5.52003 6.16081 5.54868 6.12738C5.62508 6.03666 5.72536 5.9889 5.83996 5.9889C5.86861 5.99846 5.90204 6.01756 5.94024 6.03666C5.97844 6.06053 6.01187 6.07486 6.04529 6.08441C6.12169 6.10351 6.2745 6.09873 6.5037 6.07008C6.64696 6.04143 6.78066 5.99846 6.90959 5.9507C7.03374 5.90295 7.12924 5.86475 7.18177 5.84565C7.26772 5.80745 7.36322 5.76447 7.47783 5.71672C7.58765 5.66897 7.72136 5.61645 7.87894 5.55437C7.93624 5.52094 7.99831 5.48752 8.06517 5.44932C8.13202 5.41589 8.19887 5.38724 8.2514 5.36337C8.3087 5.34426 8.37555 5.31561 8.4615 5.27741C8.54268 5.23921 8.6143 5.20579 8.66683 5.17236C8.75278 5.11983 8.83873 5.07208 8.93901 5.01956C9.03451 4.96703 9.13002 4.90018 9.22552 4.819C9.26849 4.78558 9.31147 4.7426 9.364 4.69007C9.41652 4.63755 9.46427 4.58025 9.50247 4.51817C9.51202 4.48952 9.54068 4.43222 9.58365 4.34627C9.62663 4.26031 9.6696 4.16481 9.7078 4.06453C9.75078 3.96426 9.78898 3.86876 9.82241 3.7828C9.85583 3.69685 9.87971 3.63 9.89403 3.5918C9.92746 3.49152 9.96566 3.36737 9.99909 3.21934C10.0373 3.07131 10.0659 2.95671 10.085 2.87076C10.0946 2.82778 10.0994 2.75138 10.0946 2.632C10.0946 2.5174 10.0898 2.43622 10.085 2.39802C10.0612 2.31684 10.0468 2.24522 10.0421 2.17837L10.0182 1.93483C10.0039 1.91096 9.98476 1.84888 9.97044 1.75816C9.95611 1.66265 9.94656 1.60535 9.94178 1.5767C9.92268 1.5385 9.90836 1.47642 9.90358 1.39525C9.89881 1.3284 9.90358 1.27587 9.92268 1.23767C9.94179 1.19947 9.96089 1.16127 9.98954 1.11829C9.99909 1.08964 10.0182 1.06099 10.0373 1.02756C10.0564 0.998912 10.0755 0.951161 10.0994 0.874759C10.1232 0.803133 10.1614 0.750606 10.214 0.70763C10.2665 0.669429 10.3238 0.631229 10.3811 0.593028C10.4336 0.559602 10.467 0.530951 10.4814 0.511851C10.4957 0.487975 10.5196 0.4641 10.5626 0.430674C10.5864 0.421124 10.6294 0.416349 10.6581 0.411573H2.14403C0.969348 0.425899 0.00477511 1.39047 0.00477511 2.56515V4.48474C0.0477511 4.47042 0.105052 4.44654 0.143253 4.43222C0.21488 4.40834 0.262631 4.40357 0.296057 4.41312C0.324708 4.42267 0.372459 4.42267 0.42976 4.41312C0.544363 4.39879 0.64464 4.39879 0.725817 4.41312C0.806994 4.42267 0.916822 4.45132 1.05052 4.48474C1.07918 4.47042 1.09828 4.46087 1.1126 4.46564C1.12693 4.47042 1.14603 4.45609 1.17468 4.42744C1.23198 4.39402 1.27973 4.36537 1.32271 4.33672C1.36568 4.31284 1.42776 4.27941 1.50894 4.24121C1.57579 4.19346 1.66174 4.14571 1.77157 4.10751C1.87662 4.06931 1.97212 4.03111 2.05807 3.99291C2.08672 3.97858 2.19655 3.94038 2.38756 3.88308C2.57856 3.82578 2.70749 3.77803 2.77912 3.7446C2.91759 3.6873 3.06085 3.6491 3.2041 3.63477C3.24708 3.63 3.29483 3.61567 3.34258 3.59657C3.39033 3.57747 3.46196 3.57747 3.54791 3.59657C3.60521 3.60135 3.66251 3.60612 3.71026 3.60612C3.76279 3.60612 3.82487 3.60612 3.89649 3.61567C4.01109 3.61567 4.15435 3.65865 4.32625 3.74938C4.40265 3.81145 4.49338 3.88786 4.58888 3.98336C4.63663 4.03111 4.67484 4.09796 4.70826 4.18391C4.73691 4.26986 4.73691 4.39402 4.70826 4.56115C4.68916 4.6853 4.68916 4.80945 4.69871 4.92883C4.70826 5.04821 4.70826 5.16759 4.68916 5.27741C4.69871 5.35859 4.69871 5.43499 4.68916 5.51139C4.68439 5.5878 4.67484 5.65942 4.66529 5.73105C4.66051 5.81223 4.65574 5.89818 4.65574 5.97935C4.65574 6.06053 4.64618 6.14648 4.62231 6.22766C4.61276 6.28496 4.60798 6.37091 4.60321 6.48552C4.60321 6.60489 4.59366 6.69085 4.58411 6.74337C4.56978 6.88185 4.55546 7.04421 4.54113 7.23043C4.52681 7.41666 4.53636 7.55514 4.56023 7.64587C4.55546 7.72705 4.55546 7.813 4.56023 7.90373C4.56978 7.98968 4.56023 8.07085 4.53636 8.14248C4.57933 8.12338 4.62231 8.10428 4.67484 8.08518C4.72259 8.06608 4.76079 8.04698 4.78944 8.03265C4.86107 7.99923 4.93269 7.99445 5.00909 8.02788C5.0855 8.0613 5.13325 8.12816 5.15712 8.23321C5.2001 8.36691 5.181 8.49584 5.1046 8.62954C5.08072 8.68684 5.05207 8.74415 5.01864 8.7919C4.98522 8.84442 4.94702 8.89217 4.88972 8.93993C4.84674 8.97335 4.79899 9.00678 4.73691 9.0402C4.67484 9.07363 4.62231 9.10705 4.58411 9.14048C4.51248 9.17868 4.44563 9.21688 4.374 9.25986C4.30715 9.30283 4.22598 9.36491 4.13047 9.44131C4.07317 9.47474 3.99677 9.51771 3.89172 9.56069C3.78666 9.60844 3.71504 9.64664 3.67206 9.68007C3.60044 9.71349 3.54313 9.74214 3.49538 9.76124C3.44286 9.78034 3.39988 9.79945 3.3569 9.81855C3.32825 9.83765 3.27573 9.86152 3.19933 9.89017C3.12292 9.91882 3.04652 9.95225 2.97967 9.99045C2.66929 10.0955 2.44486 10.1815 2.30638 10.2531C2.23475 10.2865 2.15835 10.3199 2.06285 10.3438C1.97212 10.3677 1.89094 10.3916 1.81932 10.4154C1.70472 10.4584 1.60921 10.4918 1.53281 10.5205C1.45641 10.5491 1.33703 10.573 1.17945 10.5921C1.10783 10.6017 1.02665 10.5969 0.935922 10.5826C0.845195 10.5682 0.773568 10.5348 0.706717 10.4871C0.630315 10.4298 0.573014 10.3772 0.539588 10.3438C0.506162 10.3199 0.00955023 8.76325 0 8.74892V17.4396C0 18.6191 0.964573 19.5789 2.13925 19.5789H8.29915L9.27804 13.5813C9.09659 13.6434 8.93424 13.6959 8.80053 13.7294C8.66683 13.7628 8.54268 13.8058 8.42807 13.844C8.35645 13.8822 8.27527 13.9108 8.17499 13.9347C8.07472 13.9586 7.98876 13.9777 7.91714 13.9872L7.78821 14.0015C7.70226 14.0111 7.61153 14.035 7.5208 14.0732C7.43008 14.1114 7.33457 14.1352 7.2343 14.1496C7.19132 14.1543 7.14357 14.1639 7.09582 14.1782C7.04329 14.1925 7.00032 14.2021 6.95734 14.2069L6.87139 14.2164C6.75678 14.2594 6.63263 14.2833 6.49893 14.3024C6.36045 14.3167 6.2363 14.3358 6.1217 14.3501L5.82086 14.3883C5.70626 14.4027 5.60121 14.3931 5.51048 14.3645C5.4484 14.3454 5.40065 14.331 5.36245 14.3215C5.32425 14.3119 5.28605 14.2976 5.2383 14.2737C5.09982 14.1925 4.98044 14.0875 4.88017 13.949C4.75124 13.801 4.65574 13.6291 4.58888 13.4333C4.56978 13.3665 4.55068 13.3044 4.53636 13.2423C4.52203 13.185 4.51248 13.1181 4.50771 13.0513L4.49338 12.8889C4.49338 12.8603 4.49338 12.8316 4.49338 12.7982C4.49338 12.7648 4.49338 12.6932 4.48383 12.5833C4.48383 12.5404 4.48383 12.4687 4.50771 12.3541L4.54591 12.0437C4.54591 12.0437 4.56501 12.0055 4.56023 11.9817C4.55546 11.9291 4.56023 11.8862 4.56978 11.8575C4.59366 11.7859 4.61276 11.7095 4.62708 11.6235C4.64141 11.5424 4.66051 11.4564 4.67961 11.3705C4.70349 11.3132 4.71781 11.2606 4.72259 11.2129C4.72259 11.1651 4.73691 11.1126 4.76079 11.0553C4.77034 11.0266 4.77989 10.998 4.78466 10.9693C4.78944 10.9407 4.79899 10.912 4.80854 10.8834C4.82764 10.7974 4.86584 10.7115 4.91359 10.6255C4.93747 10.5682 4.97567 10.5205 5.03297 10.4775C5.0855 10.4393 5.14757 10.3916 5.2192 10.3438C5.24785 10.3152 5.29083 10.2865 5.3529 10.2674C5.41498 10.2483 5.47228 10.2388 5.51526 10.2483C5.54391 10.2483 5.60121 10.2483 5.67761 10.2579C5.75879 10.2674 5.81609 10.2722 5.84474 10.2674C5.87339 10.277 5.92114 10.277 5.98799 10.2674C6.05484 10.2579 6.10259 10.2579 6.13124 10.2674C6.1599 10.277 6.20765 10.2913 6.26495 10.3104C6.32702 10.3295 6.37478 10.382 6.4082 10.4584C6.43208 10.5635 6.43685 10.6685 6.41775 10.764V10.7831C6.41775 10.8118 6.41775 10.8452 6.4082 10.8882C6.39865 10.9311 6.38433 10.9646 6.37478 10.9932C6.36045 11.0219 6.3509 11.0553 6.34135 11.0983C6.3318 11.1413 6.32702 11.1699 6.32702 11.1842C6.30315 11.2559 6.2936 11.3179 6.28882 11.3752C6.28882 11.4325 6.2745 11.4803 6.24585 11.5233C6.20765 11.5949 6.18855 11.7143 6.19332 11.8766C6.18377 11.9435 6.18377 12.0246 6.18377 12.1106C6.18377 12.2013 6.18377 12.2921 6.179 12.3876L6.18855 12.5117C6.19332 12.5786 6.20765 12.6311 6.22675 12.6693C6.24585 12.7075 6.2554 12.7457 6.26017 12.7887C6.26017 12.8269 6.28405 12.8746 6.31747 12.9271C6.33658 12.951 6.3509 12.9749 6.37 12.994C6.38433 13.0131 6.40343 13.037 6.41775 13.0608C6.4846 13.1754 6.59921 13.2232 6.75678 13.2041C6.82841 13.1946 6.89526 13.1898 6.95256 13.1898C7.00987 13.1898 7.07672 13.1802 7.14834 13.1563C7.21997 13.1325 7.30592 13.1181 7.4062 13.1038C7.50648 13.0895 7.58765 13.0895 7.64496 13.0943C7.65451 13.0656 7.73091 13.0417 7.86939 13.0274C8.00786 13.0131 8.10814 12.9844 8.17977 12.951C8.19409 12.951 8.2705 12.9271 8.4042 12.8937C8.5379 12.8555 8.6143 12.8364 8.62863 12.8364C8.69548 12.7982 8.79098 12.7648 8.91514 12.7314C9.03451 12.6979 9.13002 12.6741 9.20642 12.6645C9.27804 12.6454 9.3449 12.6168 9.40697 12.5881C9.4213 12.5833 9.4404 12.5833 9.45472 12.5738L10.2951 7.43099C10.2904 7.36414 10.2856 7.29729 10.2856 7.23998L10.2808 7.24953ZM5.26695 4.29374C5.26217 4.22689 5.2574 4.16481 5.26217 4.11229C5.26217 4.05498 5.29083 3.99291 5.34335 3.91651C5.38155 3.8592 5.41498 3.79235 5.44363 3.72073C5.47228 3.6491 5.52003 3.58225 5.58688 3.52017C5.69193 3.41034 5.82086 3.29097 5.96889 3.15726C6.11692 3.02356 6.27927 2.91373 6.46073 2.82301C6.55623 2.7848 6.66128 2.73705 6.77589 2.68453C6.88571 2.632 6.98599 2.58425 7.07194 2.54605C7.08627 2.54605 7.12924 2.52695 7.1961 2.4983C7.26772 2.46965 7.3298 2.45055 7.3871 2.44577C7.4444 2.441 7.53035 2.41712 7.64496 2.37414C7.71658 2.34072 7.78343 2.32162 7.85984 2.32639C7.93146 2.33117 8.00786 2.32639 8.07472 2.30252C8.11769 2.30252 8.16067 2.28819 8.20364 2.27864C8.24662 2.26909 8.2896 2.25954 8.33257 2.25477L8.52835 2.23089C8.64773 2.24522 8.76233 2.24522 8.87693 2.24044C8.99154 2.23567 9.11092 2.24044 9.23029 2.26909C9.39265 2.29297 9.52635 2.36937 9.62663 2.50785C9.66005 2.53172 9.67915 2.57947 9.68393 2.64633C9.69348 2.75615 9.67915 2.85643 9.63618 2.95193C9.5932 3.04744 9.54545 3.12861 9.4977 3.20501C9.46905 3.23367 9.44995 3.26709 9.4404 3.29574C9.42607 3.32439 9.40697 3.35304 9.3831 3.38647C9.35445 3.41512 9.3258 3.44377 9.29237 3.46765C9.25894 3.49152 9.20642 3.51062 9.13002 3.5154C9.10137 3.5154 9.06794 3.5345 9.02496 3.55837C8.98199 3.58225 8.93424 3.60135 8.87693 3.60612C8.80531 3.63 8.73846 3.64432 8.6716 3.6491C8.60475 3.65865 8.5379 3.67298 8.46627 3.69208C8.4233 3.71118 8.37077 3.72073 8.30392 3.72073C8.23707 3.72073 8.18932 3.72073 8.16544 3.7255C8.15112 3.7255 8.11769 3.73505 8.06994 3.7446C8.02219 3.75893 7.98876 3.7637 7.97444 3.76848C7.81686 3.8019 7.71658 3.821 7.67361 3.82578C7.63063 3.83055 7.59243 3.83533 7.56378 3.8401C7.44918 3.88308 7.33935 3.91173 7.22475 3.93083C7.11014 3.94993 6.99554 3.98336 6.88571 4.02156C6.81409 4.04543 6.75201 4.05498 6.70426 4.06453C6.65173 4.06931 6.59921 4.08841 6.54668 4.12184L6.44163 4.17436C6.37 4.21256 6.31747 4.24599 6.2745 4.27464C6.2363 4.30807 6.1981 4.33194 6.17422 4.34627C6.1599 4.34627 6.13124 4.36059 6.08827 4.38924C6.04529 4.41312 6.01187 4.43699 5.98322 4.45132C5.91159 4.48952 5.85906 4.52772 5.82086 4.57547L5.72059 4.69007C5.69193 4.71873 5.65851 4.7426 5.61553 4.75215C5.57256 4.7617 5.53436 4.75693 5.50571 4.73305C5.47228 4.70918 5.43885 4.67097 5.39588 4.62322C5.3529 4.5707 5.3338 4.53727 5.32903 4.50862C5.32903 4.47997 5.3147 4.44654 5.2956 4.39879C5.2765 4.35104 5.26695 4.31762 5.26217 4.28897L5.26695 4.29374Z" fill="white"/>
<path d="M16.7654 15.2049C16.8466 15.0282 16.9278 14.8467 17.0137 14.6605C17.0137 14.608 17.0424 14.5555 17.0806 14.5029C17.1188 14.4504 17.1427 14.3979 17.1474 14.3454C17.1474 14.331 17.1618 14.2976 17.1904 14.2355C17.2191 14.1782 17.2286 14.14 17.2334 14.1257C17.2716 14.0302 17.3098 13.9442 17.3528 13.8678C17.3957 13.7867 17.4339 13.7055 17.4721 13.61C17.4865 13.5813 17.5008 13.5527 17.5103 13.5097C17.5199 13.4715 17.5342 13.4285 17.5533 13.3903C17.5533 13.3378 17.5724 13.2662 17.6011 13.1802C17.6297 13.0943 17.6584 13.0322 17.6918 12.994C17.7109 12.9558 17.7348 12.8842 17.773 12.7743C17.8112 12.6836 17.8303 12.5929 17.8398 12.5069C17.8494 12.421 17.8637 12.3207 17.8876 12.2157C17.8876 12.1727 17.8971 12.1345 17.9067 12.0963C17.9162 12.0581 17.9258 12.0103 17.9305 11.9578C17.921 11.9053 17.921 11.8384 17.9353 11.7668C17.9496 11.6952 17.9449 11.6235 17.921 11.5519C17.9114 11.5089 17.9019 11.466 17.9019 11.4087C17.9019 11.3561 17.878 11.2988 17.8398 11.2463L17.7634 11.1651L17.7873 10.7354C17.3862 10.5969 16.9134 10.6542 16.4837 10.7736C16.4741 10.7736 16.4598 10.7879 16.455 10.7879C16.4359 10.7879 16.4073 10.8022 16.3834 10.8165C16.3404 10.8213 16.2927 10.8404 16.2354 10.8738C16.2211 10.8738 16.1685 10.8977 16.0778 10.9359C16.0444 10.9502 15.8534 11.0266 15.6194 11.1174C15.5812 11.1365 15.5334 11.1604 15.5048 11.1795L15.4952 11.1651C15.0989 11.3227 14.6357 11.5042 14.5736 11.5376C14.4877 11.571 12.2911 12.4544 11.2358 12.8842C10.7774 15.5439 10.2856 18.3946 10.085 19.5837H14.8076C14.8363 19.5216 14.8602 19.4595 14.8745 19.3926C14.8888 19.321 14.9079 19.2637 14.9413 19.2255C15.0082 19.1205 15.0559 19.0059 15.0894 18.8769C15.1228 18.748 15.1705 18.6477 15.2326 18.5713C15.2326 18.5427 15.2613 18.4758 15.3138 18.3708C15.3663 18.2657 15.4332 18.1463 15.5143 18.0174C15.5478 17.9506 15.5764 17.8837 15.5955 17.8169C15.6146 17.75 15.6337 17.6832 15.6528 17.6163C15.6719 17.5351 15.7149 17.454 15.7674 17.368C15.8247 17.282 15.8725 17.2009 15.9059 17.1197C15.9202 17.091 15.9489 17.0242 15.9871 16.9191C16.0253 16.8141 16.0683 16.6995 16.1112 16.5801C16.159 16.4607 16.202 16.3557 16.2449 16.2649C16.2879 16.1742 16.3261 16.1217 16.3548 16.1074C16.3739 16.0262 16.3977 15.9641 16.4216 15.9211C16.4455 15.8734 16.4789 15.8209 16.5123 15.754C16.5983 15.5678 16.6842 15.3863 16.7606 15.2096L16.7654 15.2049Z" fill="white"/>
<path d="M3.30915 5.30606C3.3187 5.23444 3.32348 5.16759 3.33303 5.10073C3.34258 5.02911 3.34735 4.94316 3.35213 4.83333C3.34735 4.76648 3.3378 4.71395 3.32825 4.68052C3.3187 4.6471 3.30438 4.61845 3.28528 4.59457C3.11337 4.61367 2.95102 4.66142 2.79822 4.73783C2.78389 4.73783 2.74569 4.75215 2.67884 4.7808C2.61676 4.80945 2.54514 4.8381 2.46873 4.86675C2.39233 4.8954 2.3207 4.92883 2.25863 4.95271C2.19655 4.98136 2.15835 4.99568 2.14403 4.99568C1.98645 5.05298 1.84319 5.12461 1.71427 5.20101C1.58056 5.27741 1.44208 5.35382 1.28928 5.42544C1.30838 5.47797 1.32748 5.54959 1.34181 5.63555C1.35613 5.7215 1.36568 5.7979 1.37523 5.86953C1.38001 5.93638 1.38956 6.00323 1.39433 6.07486C1.39911 6.14171 1.41343 6.20856 1.43731 6.27541C1.45163 6.29929 1.46596 6.35181 1.47073 6.42344C1.48028 6.49984 1.49461 6.58102 1.51849 6.67175C1.54236 6.75292 1.55669 6.82932 1.57579 6.9105C1.59011 6.99168 1.59966 7.04421 1.59966 7.07286C1.61399 7.09673 1.64741 7.18746 1.69039 7.34981C1.73337 7.50739 1.75724 7.60289 1.76202 7.62677C1.80977 7.79867 1.83842 7.97535 1.85752 8.15681C1.87184 8.33826 1.89094 8.42899 1.90527 8.42899C1.91482 8.52449 1.92437 8.61044 1.9387 8.69162C1.95302 8.7728 1.97212 8.84442 1.99122 8.91127C2.01032 8.94948 2.01987 8.9829 2.01987 9.01155C2.01987 9.0402 2.02942 9.06408 2.04852 9.08795C2.07717 9.07363 2.14403 9.0402 2.25863 9.002C2.36846 8.95903 2.48306 8.92083 2.59766 8.87785C2.71226 8.83487 2.80777 8.80145 2.88417 8.7728C2.96057 8.74415 3.0131 8.72027 3.04175 8.70117C3.15635 8.67252 3.29005 8.62477 3.44286 8.54837L3.32825 8.27618C3.29483 8.21411 3.2614 8.08995 3.23753 7.9085C3.21365 7.72705 3.19933 7.60289 3.18978 7.53604C3.185 7.46919 3.17545 7.39756 3.16112 7.32594C3.1468 7.25431 3.1468 7.15881 3.1659 7.04898C3.185 6.93915 3.19455 6.82933 3.18978 6.7195C3.18978 6.60967 3.18978 6.49984 3.21365 6.39001L3.27573 6.11783C3.27573 6.11783 3.27573 6.08918 3.2805 6.06531C3.28528 6.04143 3.28528 6.01278 3.2805 5.97458C3.2805 5.86475 3.2805 5.7788 3.2805 5.71672C3.27573 5.65465 3.2805 5.57825 3.2996 5.47797C3.2996 5.43977 3.2996 5.38247 3.30438 5.31561L3.30915 5.30606Z" fill="white"/>
<path d="M19.067 13.1468L18.9524 13.333L18.8617 13.3808L18.8187 13.61L18.7566 13.6816L18.7328 13.7914L18.7041 13.906L18.642 14.0302L18.5609 14.1639L18.5465 14.331L18.58 14.374H18.642L18.6182 14.417L18.5609 14.5984H18.537L18.4845 14.8754L18.4606 14.8897L18.4224 14.9375H18.3746L18.2409 15.2478L18.2791 15.2765L18.1741 15.5296L18.0834 15.4866L18.0261 15.606L18.0547 15.711L17.9735 15.8065L17.9926 15.8256L17.9114 16.0453L17.9019 16.1456C17.9019 16.1981 17.8398 16.2554 17.7395 16.3127C17.6345 16.37 17.582 16.4321 17.5724 16.4989L17.6297 16.5801L17.5629 16.8809L17.4339 17.1388C17.4339 17.1674 17.4148 17.2104 17.3814 17.2677C17.348 17.3298 17.3241 17.368 17.3098 17.3966L17.2811 17.4587L17.1761 17.4348L17.1474 17.516L17.2525 17.5399V17.559C17.2525 17.5829 17.2382 17.6163 17.2238 17.6593C17.2047 17.6975 17.1856 17.7405 17.1713 17.7787L17.0663 17.9935L17.0042 17.9744L17.0663 17.7357H17.0233L16.8609 18.1511L16.7702 18.2466L16.7606 18.366L16.6842 18.5045L16.6508 18.6621L16.5219 18.9008L16.5601 18.9629L16.6699 18.9056H16.7988L16.7893 19.0106H16.7463C16.7463 19.0106 16.7081 19.0202 16.6795 19.0488C16.646 19.0727 16.6269 19.0918 16.6126 19.1061L16.5744 19.3067L16.5171 19.4881V19.5072C16.5171 19.5407 16.5076 19.5598 16.5028 19.5884H17.0376C18.2123 19.5884 19.1769 18.6239 19.1769 17.4492V13.0847L19.1482 13.1611H19.0861L19.067 13.1468ZM16.732 19.3067L16.689 19.3258L16.6986 19.1825L16.7654 19.1443L16.732 19.3067ZM16.7941 18.8435H16.7081L16.7606 18.7003L16.8227 18.7241L16.7893 18.8435H16.7941ZM16.8896 18.5666C16.88 18.6048 16.8609 18.6239 16.8323 18.6239C16.8323 18.5952 16.8418 18.557 16.8514 18.5045C16.8609 18.4519 16.8848 18.4233 16.9134 18.4281L16.9517 18.4711C16.923 18.4997 16.8991 18.5284 16.8896 18.5713V18.5666ZM17.0281 18.3469H16.9421L16.923 18.323L16.9755 18.2418H17.0376L17.0281 18.3469ZM17.0424 18.1845H16.9994L17.0281 18.0843L17.071 18.1081L17.0424 18.1893V18.1845ZM17.7252 16.604L17.7061 16.561V16.5419L17.73 16.5037L17.7777 16.4655L17.7968 16.5085L17.7252 16.6088V16.604ZM17.7395 16.4416L17.7013 16.4178L17.7921 16.3414L17.8112 16.3843L17.7395 16.4416ZM17.878 16.3461L17.8398 16.3031L17.9114 16.2267L17.9305 16.2697L17.8828 16.3509L17.878 16.3461ZM18.112 15.8543L18.0643 15.9116H18.0213L18.0308 15.8304L18.0977 15.7731H18.1407L18.112 15.8543ZM18.1025 15.6919L18.0643 15.6108L18.0881 15.5726L18.1502 15.5964L18.0977 15.6967L18.1025 15.6919ZM18.6802 14.183L18.6277 14.3024L18.5847 14.3215L18.5943 14.2021L18.6946 14.0445L18.7375 14.0254L18.6802 14.183ZM19.067 13.4285L19.024 13.4476L18.9906 13.5861L18.9429 13.6625L18.9142 13.7437H18.8712L18.7614 13.758L18.7901 13.7007L18.8808 13.6434L18.8999 13.4429L18.9476 13.4047H18.9954L19.0527 13.3092H19.11L19.0766 13.4285H19.067Z" fill="white"/>
<path d="M72.2475 17.2343H71.7461V19.5216H72.2475V17.2343Z" fill="white"/>
<path d="M73.8805 18.2036L73.2025 17.2391H72.7202V19.5263H73.2025V18.6095C73.2025 18.4185 73.2025 18.2036 73.1977 18.0413H73.2025C73.3075 18.1989 73.4221 18.366 73.5367 18.5284L73.8662 19.0011L74.2005 18.5331C74.3151 18.3708 74.4297 18.2036 74.5347 18.0461H74.5395C74.5395 18.2132 74.5347 18.4281 74.5347 18.6191V19.5359H75.0361V17.2486H74.5634L73.8853 18.2132L73.8805 18.2036Z" fill="white"/>
<path d="M76.6692 18.2084L75.9911 17.2438H75.5089V19.5311H75.9911V18.6143C75.9911 18.4233 75.9911 18.2084 75.9864 18.0461H75.9911C76.0962 18.2036 76.2108 18.3708 76.3254 18.5331L76.6549 19.0059L76.9891 18.5379C77.1037 18.3755 77.2183 18.2084 77.3234 18.0508H77.3282C77.3282 18.218 77.3234 18.4328 77.3234 18.6239V19.5407H77.8248V17.2534H77.352L76.674 18.218L76.6692 18.2084Z" fill="white"/>
<path d="M79.7826 18.4185C79.7826 18.6573 79.7539 18.8149 79.6823 18.9247C79.6059 19.0393 79.477 19.1157 79.2764 19.1157C79.0615 19.1157 78.9278 19.025 78.861 18.9151C78.7941 18.8053 78.775 18.6573 78.775 18.4185V17.2486H78.2736V18.4376C78.2736 18.7623 78.3214 19.0106 78.4408 19.1969C78.6031 19.4356 78.8992 19.5693 79.2621 19.5693C79.6298 19.5693 79.9211 19.4356 80.0834 19.2016C80.2123 19.0202 80.2601 18.7671 80.2601 18.4233V17.2438H79.7778V18.4185H79.7826Z" fill="white"/>
<path d="M82.2991 18.0938C82.2991 18.3135 82.2991 18.5379 82.3038 18.7528H82.2991C82.1558 18.557 82.0173 18.366 81.8693 18.1654L81.1865 17.2438H80.7137V19.5311H81.196V18.6812C81.196 18.4615 81.196 18.2371 81.1912 18.0222H81.196C81.3393 18.218 81.4777 18.409 81.6258 18.6095L82.3086 19.5311H82.7814V17.2438H82.2991V18.0938Z" fill="white"/>
<path d="M83.7555 18.5522H84.5386V18.1368L83.7555 18.132V17.6879H84.6627V17.2486H83.2541L83.2493 19.5311H84.6962V19.0966L83.7555 19.0918V18.5522Z" fill="white"/>
<path d="M87.3702 18.132H86.3818V17.2486H85.8804V19.5359H86.3818V18.5713H87.3702V19.5359H87.8716V17.2486H87.3702V18.132Z" fill="white"/>
<path d="M89.4379 17.2152C88.7598 17.2152 88.2441 17.7261 88.2441 18.3899C88.2441 19.0536 88.755 19.5693 89.4379 19.5693C90.1159 19.5693 90.6316 19.0584 90.6316 18.3946C90.6316 17.7261 90.1159 17.2152 89.4379 17.2152ZM89.4331 19.1157C89.0368 19.1157 88.7407 18.7958 88.7407 18.3899C88.7407 17.984 89.0368 17.6688 89.4331 17.6688C89.8294 17.6688 90.1255 17.9888 90.1255 18.3946C90.1255 18.8005 89.8294 19.1157 89.4331 19.1157Z" fill="white"/>
<path d="M91.9018 18.1845C91.6249 18.0938 91.4148 18.0747 91.4148 17.8742C91.4148 17.7214 91.5389 17.6593 91.7108 17.6593C91.8875 17.6593 92.1692 17.7309 92.4128 17.8789V17.3823C92.2122 17.2725 91.94 17.22 91.7156 17.2152C91.2333 17.2152 90.9134 17.4778 90.9134 17.9076C90.9134 18.3039 91.1951 18.4615 91.5103 18.5666C91.8015 18.6621 92.0164 18.6812 92.0164 18.8913C92.0164 19.0632 91.8779 19.1348 91.6965 19.1348C91.515 19.1348 91.2094 19.0632 90.9659 18.896V19.4022C91.1808 19.512 91.4625 19.5693 91.6869 19.5693C92.1788 19.5693 92.5178 19.3019 92.5178 18.8578C92.5178 18.4519 92.2409 18.2944 91.897 18.1798L91.9018 18.1845Z" fill="white"/>
<path d="M94.2321 17.3775C94.0506 17.282 93.8262 17.2582 93.554 17.2582H92.8759V19.5455H93.3773V18.7289H93.5349C93.8692 18.7289 94.0984 18.6907 94.275 18.5857C94.4661 18.471 94.6045 18.2705 94.6045 17.9888C94.6045 17.6784 94.4326 17.4826 94.2368 17.3775H94.2321ZM93.9551 18.2609C93.8692 18.3087 93.7546 18.3182 93.5588 18.3182H93.3773V17.6975H93.5492C93.7259 17.6975 93.8501 17.7023 93.9408 17.7452C94.0458 17.793 94.1031 17.8837 94.1031 18.0126C94.1031 18.1272 94.0506 18.2132 93.9599 18.2609H93.9551Z" fill="white"/>
<path d="M95.445 17.2582H94.9436V19.5455H95.445V17.2582Z" fill="white"/>
<path d="M97.737 17.2582H95.7553V17.6975H96.4955L96.4907 19.5455H96.9969V17.6975H97.737V17.2582Z" fill="white"/>
<path d="M98.4867 17.2582L97.5556 19.5407H98.0713L98.2575 19.0632H99.1791L99.3605 19.5455H99.8954L98.969 17.2582H98.4819H98.4867ZM98.4151 18.6716L98.5058 18.4281C98.5774 18.2371 98.6634 18.0079 98.7207 17.836H98.7255C98.7875 18.0079 98.8687 18.2371 98.9356 18.4185L99.0311 18.6764H98.4151V18.6716Z" fill="white"/>
<path d="M100.674 17.2629H100.172V19.5455L101.676 19.5502V19.1109H100.674V17.2629Z" fill="white"/>
<path d="M103.405 17.9315C103.162 17.9315 102.951 18.027 102.803 18.1845C102.636 18.3612 102.546 18.6095 102.546 18.8387C102.546 19.2733 102.856 19.555 103.276 19.555C103.52 19.555 103.73 19.4595 103.878 19.3019C104.045 19.1252 104.136 18.8769 104.136 18.6477C104.136 18.2132 103.825 17.9315 103.405 17.9315ZM103.677 19.1348C103.582 19.2398 103.448 19.2971 103.3 19.2971C102.999 19.2971 102.832 19.087 102.832 18.8196C102.832 18.6477 102.899 18.4711 103.009 18.3517C103.104 18.2466 103.238 18.1893 103.386 18.1893C103.687 18.1893 103.854 18.3994 103.854 18.6668C103.854 18.8387 103.787 19.0154 103.677 19.1348Z" fill="white"/>
<path d="M105.057 17.1913C104.967 17.2629 104.895 17.3919 104.861 17.5877L104.795 17.9649H104.551L104.508 18.218H104.752L104.522 19.5168H104.804L105.033 18.218H105.42L105.463 17.9649H105.076L105.138 17.6306C105.162 17.4874 105.201 17.4301 105.243 17.3919C105.291 17.3489 105.353 17.3298 105.43 17.3298C105.501 17.3298 105.568 17.3441 105.635 17.3728L105.678 17.1149C105.602 17.091 105.516 17.0719 105.434 17.0719C105.291 17.0719 105.158 17.1054 105.057 17.1913Z" fill="white"/>
<path d="M108.452 17.2629H107.86L107.063 18.2753L107.053 18.2705V17.2629H106.552V19.5502L107.053 19.5455V18.409L107.063 18.4042L107.913 19.5455H108.529L107.593 18.323L108.452 17.2629Z" fill="white"/>
<path d="M109.746 17.2247C109.068 17.2247 108.553 17.7357 108.553 18.4042C108.553 19.0679 109.068 19.5789 109.746 19.5789C110.424 19.5789 110.94 19.0679 110.94 18.3994C110.94 17.7309 110.424 17.2247 109.746 17.2247ZM109.746 19.1252C109.35 19.1252 109.054 18.8053 109.054 18.4042C109.054 17.9983 109.35 17.6832 109.746 17.6784C110.143 17.6784 110.439 17.9983 110.439 18.3994C110.439 18.8053 110.143 19.1205 109.746 19.1252Z" fill="white"/>
<path d="M113.013 17.9458C113.013 17.6832 112.903 17.5113 112.736 17.411C112.554 17.2964 112.296 17.2582 112.024 17.2582H111.308V19.5455H111.809V18.643H112.034L112.611 19.5455H113.189L112.545 18.5809C112.845 18.4806 113.008 18.2418 113.008 17.9506L113.013 17.9458ZM112.382 18.2084C112.306 18.2466 112.201 18.2609 112.067 18.2609H111.814V17.6927H112.005C112.177 17.6927 112.301 17.7118 112.382 17.75C112.473 17.7978 112.511 17.8646 112.511 17.9744C112.511 18.0843 112.468 18.1607 112.382 18.2036V18.2084Z" fill="white"/>
<path d="M113.925 19.1014V18.5618L114.708 18.557V18.1416H113.925V17.6927H114.837L114.832 17.2534L113.423 17.2582V19.5407H114.87V19.1014H113.925Z" fill="white"/>
<path d="M115.978 17.2534L115.052 19.5407H115.567L115.754 19.0584H116.675L116.857 19.5359H117.391L116.46 17.2486H115.973L115.978 17.2534ZM115.906 18.6668L115.997 18.4233C116.069 18.2323 116.15 18.0031 116.212 17.8312H116.217C116.279 18.0031 116.36 18.2323 116.427 18.4137L116.522 18.6716H115.906V18.6668Z" fill="white"/>
<path d="M119.254 17.2534V18.1034C119.254 18.323 119.254 18.5475 119.263 18.7623H119.258C119.115 18.5666 118.977 18.3755 118.829 18.175L118.141 17.2534H117.668V19.5407H118.151V18.6907C118.151 18.471 118.151 18.2466 118.146 18.0317H118.151C118.294 18.2275 118.432 18.4185 118.58 18.6191L119.268 19.5407H119.741V17.2534H119.254Z" fill="white"/>
<path d="M122.697 17.2486L122.018 18.2132L121.34 17.2486H120.858V19.5359H121.34V18.6191C121.34 18.4281 121.34 18.2132 121.336 18.0508H121.34C121.45 18.2084 121.56 18.3755 121.675 18.5379L122.004 19.0059L122.334 18.5331C122.448 18.3708 122.563 18.2036 122.668 18.0413H122.673C122.673 18.2084 122.668 18.4233 122.668 18.6143V19.5311H123.169V17.2438H122.692L122.697 17.2486Z" fill="white"/>
<path d="M124.148 19.0918V18.5522H124.931L124.927 18.132H124.148V17.6879L125.055 17.6832V17.2438L123.642 17.2486L123.647 19.5311H125.089V19.0918H124.148Z" fill="white"/>
<path d="M127.071 17.4731C126.832 17.3107 126.517 17.2438 126.111 17.2438H125.471V19.5311H126.092C126.569 19.5311 126.899 19.4404 127.133 19.2494C127.376 19.0488 127.51 18.7432 127.51 18.3851C127.51 17.9935 127.352 17.6736 127.071 17.4778V17.4731ZM126.789 18.9104C126.646 19.0345 126.44 19.0918 126.111 19.0918H125.972V17.6832H126.106C126.364 17.6832 126.579 17.707 126.741 17.8216C126.913 17.941 127.008 18.1416 127.008 18.3851C127.008 18.6143 126.923 18.7958 126.789 18.9104Z" fill="white"/>
<path d="M128.369 17.2438H127.868V19.5311H128.369V17.2438Z" fill="white"/>
<path d="M130.007 19.1109C129.534 19.1109 129.243 18.791 129.243 18.3803C129.243 17.9649 129.544 17.6593 129.988 17.6545C130.222 17.6545 130.451 17.7405 130.618 17.8551V17.3489C130.437 17.2629 130.213 17.2056 129.983 17.2056C129.248 17.2056 128.742 17.7261 128.742 18.3899C128.742 19.0536 129.253 19.5646 129.988 19.5646C130.217 19.5646 130.461 19.5168 130.657 19.4117V18.9008C130.466 19.0297 130.246 19.1109 130.007 19.1109Z" fill="white"/>
<path d="M131.54 17.2391H131.039V19.5263H131.54V17.2391Z" fill="white"/>
<path d="M133.598 17.2391V18.089C133.598 18.3087 133.598 18.5331 133.608 18.748H133.603C133.46 18.5522 133.321 18.3612 133.173 18.1607L132.486 17.2391H132.013V19.5263H132.495V18.6764C132.495 18.4567 132.495 18.2323 132.49 18.0174H132.495C132.638 18.2132 132.777 18.4042 132.925 18.6048L133.612 19.5263H134.085V17.2391H133.598Z" fill="white"/>
<path d="M135.055 19.0823V18.5427L135.838 18.5379V18.1225H135.055V17.6736H135.962V17.2343L134.553 17.2391V19.5216H136V19.0823H135.055Z" fill="white"/>
<path d="M46.3998 0.425899H43.0285V2.88508H39.8626L39.8865 1.78203C39.9056 0.683755 39.1512 0.425899 38.2964 0.425899H27.9392V10.4011C27.9392 10.7115 28.2018 10.9646 28.5265 10.9646H39.3135L39.4663 8.52927H43.0285V12.8173C43.0285 12.9749 43.1575 13.099 43.3198 13.099H46.6911V0.70763C46.6911 0.550052 46.5621 0.425899 46.3998 0.425899ZM36.181 8.61522H32.1986C31.8023 8.52927 31.6017 8.33826 31.6017 7.95148V2.75615H35.7035C36.0235 2.84211 36.181 2.99491 36.181 3.30052V8.61522ZM43.0285 6.66697H39.6191L39.7671 4.75215H43.0285V6.66697Z" fill="white"/>
<path d="M46.4093 17.0863H33.1727C32.7095 17.0863 32.4803 16.8762 32.4803 16.4942L32.4708 13.1038H28.8083V17.9267C28.8083 19.0297 29.3956 19.5837 30.575 19.5837H46.7006V17.3728C46.7006 17.2152 46.5765 17.091 46.4141 17.091L46.4093 17.0863Z" fill="white"/>
<path d="M98.31 1.16127C98.3243 0.760157 97.9662 0.425899 97.5174 0.425899H95.4975V2.7466H92.1883V0.425899H89.3567V6.78635C89.3567 7.54082 89.9822 7.99445 90.7319 7.99445H98.31V1.16127ZM92.7375 6.31361C92.3746 6.31361 92.1931 6.15603 92.1931 5.84088V4.31284H95.5023V6.31361H92.7375Z" fill="white"/>
<path d="M101.17 10.1337C100.11 9.52726 98.6682 9.22643 96.8393 9.22643C95.0104 9.22643 93.597 9.52249 92.5512 10.1146C91.5055 10.7067 90.9802 11.4755 90.9802 12.421C90.9802 13.3665 91.5055 14.1352 92.5512 14.7226C93.597 15.3099 95.0247 15.6012 96.8393 15.6012C98.6538 15.6012 100.11 15.3052 101.17 14.7083C102.187 14.1305 102.698 13.3665 102.698 12.421C102.698 11.4755 102.187 10.7115 101.17 10.1337ZM99.0311 13.7103C98.4676 14.0302 97.7322 14.1925 96.8345 14.1925C95.9368 14.1925 95.2062 14.0302 94.6523 13.7103C94.0984 13.3856 93.8214 12.9558 93.8214 12.4162C93.8214 11.8766 94.0984 11.4421 94.6523 11.1174C95.2062 10.7879 95.9368 10.6255 96.8345 10.6255C97.7322 10.6255 98.4676 10.7879 99.0311 11.1174C99.5945 11.4469 99.881 11.8766 99.881 12.4162C99.881 12.9558 99.5993 13.3856 99.0311 13.7103Z" fill="white"/>
<path d="M100.091 7.99445H102.698V6.40434H104.618V5.03866H102.698V0.631229C102.698 0.516626 102.598 0.425899 102.469 0.425899H99.8619V7.78912C99.8619 7.90373 99.9622 7.99445 100.091 7.99445Z" fill="white"/>
<path d="M113.605 9.22166C111.79 9.22166 110.362 9.51771 109.317 10.1098C108.271 10.7019 107.746 11.4707 107.746 12.4162C107.746 13.3617 108.271 14.1305 109.317 14.7178C110.362 15.3052 111.79 15.5964 113.605 15.5964C115.419 15.5964 116.876 15.3004 117.936 14.7035C118.953 14.1257 119.464 13.3617 119.464 12.4162C119.464 11.4707 118.953 10.7067 117.936 10.1289C116.876 9.52249 115.434 9.22166 113.605 9.22166ZM115.796 13.7103C115.233 14.0302 114.498 14.1925 113.6 14.1925C112.702 14.1925 111.972 14.0302 111.418 13.7103C110.864 13.3856 110.582 12.9558 110.582 12.4162C110.582 11.8766 110.859 11.4421 111.418 11.1174C111.972 10.7879 112.702 10.6255 113.6 10.6255C114.498 10.6255 115.233 10.7879 115.796 11.1174C116.36 11.4469 116.646 11.8766 116.646 12.4162C116.646 12.9558 116.365 13.3856 115.796 13.7103Z" fill="white"/>
<path d="M114.292 7.99445V6.40434H116.651V7.7939C116.651 7.9085 116.752 7.99923 116.88 7.99923H119.488V0.631229C119.488 0.516626 119.387 0.425899 119.258 0.425899H116.651V2.58903H114.292V1.16127C114.307 0.760157 113.949 0.425899 113.5 0.425899H111.48V2.7466H108.4V0.425899H105.668V6.78635C105.668 7.54082 106.294 7.99445 107.039 7.99445H114.292ZM114.292 3.94038H116.651V5.03866H114.292V3.94038ZM108.405 4.31284H111.485V6.31361H108.949C108.586 6.31361 108.405 6.15603 108.405 5.84088V4.31284Z" fill="white"/>
<path d="M64.889 0.425899V2.86121H60.8015L60.8731 1.6913C60.9352 0.664654 60.4291 0.425899 59.3451 0.425899H49.8904V2.47442H56.5087C56.905 2.47442 57.1056 2.6893 57.1056 3.11906V4.75215H49.7949V8.70117C49.7949 10.3772 50.6162 11.146 52.0153 11.3705C52.8557 11.5042 53.6484 11.6426 54.7944 11.6092C58.371 11.5089 60.2858 10.1337 60.4959 9.67052V8.63909C58.8867 9.38879 55.3961 9.25986 54.4411 9.0593C53.8442 8.93515 53.4335 8.61044 53.4335 8.19978V6.7577H60.4959L60.6392 4.73305H64.8938V6.7768H60.5007V8.64387H64.8938V11.2463C64.8938 11.4039 65.0227 11.528 65.1851 11.528H68.5563V0.717181C68.5563 0.550052 68.4274 0.425899 68.265 0.425899H64.889Z" fill="white"/>
<path d="M66.7847 13.1038H50.6639L50.6544 15.3147C50.6544 15.4723 50.7833 15.5964 50.9457 15.5964H64.1823C64.6455 15.5964 64.8747 15.7874 64.8747 16.1742L64.8842 19.5837H68.5467V14.7608C68.5467 13.6577 67.9594 13.1038 66.7799 13.1038H66.7847Z" fill="white"/>
<path d="M125.418 11.1604H128.217V8.67729C131.846 8.67729 133.164 7.72227 133.164 7.72227V9.809H130.322V11.1604H133.164V11.528C133.164 11.6426 133.264 11.7334 133.393 11.7334H136V0.631229C136 0.516626 135.9 0.425899 135.771 0.425899H133.164V6.03666C133.164 7.17313 131.454 7.13971 125.628 7.13971H121.675V8.69162H125.418V11.1604Z" fill="white"/>
<path d="M123.27 5.65942C124.086 6.25154 125.218 6.54759 126.669 6.54759C128.121 6.54759 129.267 6.25154 130.069 5.65942C130.824 5.11028 131.201 4.37969 131.201 3.4772C131.201 2.5747 130.824 1.84888 130.069 1.29497C129.262 0.717181 128.131 0.425899 126.669 0.425899C125.208 0.425899 124.086 0.717181 123.27 1.29974C122.501 1.85366 122.114 2.57947 122.114 3.48197C122.114 4.38447 122.501 5.11028 123.27 5.6642V5.65942ZM125.461 2.30252C125.762 2.00646 126.163 1.86321 126.669 1.86321C127.176 1.86321 127.577 2.01124 127.878 2.30252C128.174 2.59858 128.326 2.99013 128.326 3.48197C128.326 3.97381 128.178 4.36537 127.878 4.66142C127.577 4.95748 127.176 5.10551 126.669 5.10551C126.163 5.10551 125.762 4.95748 125.461 4.66142C125.165 4.36537 125.012 3.97381 125.012 3.48197C125.012 2.99013 125.16 2.59858 125.461 2.30252Z" fill="white"/>
<path d="M135.78 13.1134H125.939C125.595 13.1134 125.418 12.9797 125.418 12.7123V11.1651H122.572V13.7055C122.572 14.4791 123.012 14.8658 123.895 14.8658H135.995V13.3187C135.995 13.2089 135.895 13.1229 135.776 13.1229L135.78 13.1134Z" fill="white"/>
<path d="M72.5196 6.00323C72.5196 7.04421 72.8873 7.88463 73.6179 8.51972C74.3963 9.20733 75.4754 9.54636 76.8554 9.54636C78.2354 9.54636 79.3289 9.20256 80.093 8.51972C80.814 7.88463 81.1721 7.04421 81.1721 6.00323C81.1721 4.96226 80.814 4.12184 80.093 3.48197C79.8924 3.30529 79.668 3.15249 79.4245 3.02356H81.9505V1.35227H78.4217V0.425899H75.3704V1.35227H71.7508V3.02356H74.3008C74.0572 3.15249 73.828 3.30529 73.6227 3.48197C72.8921 4.12184 72.5244 4.95748 72.5244 6.00323H72.5196ZM75.6235 4.61367C75.9291 4.26509 76.3397 4.09319 76.8554 4.09319C77.3712 4.09319 77.7818 4.26509 78.0874 4.61367C78.393 4.96226 78.5458 5.42544 78.5458 6.00323C78.5458 6.58102 78.393 7.04421 78.0874 7.39756C77.7818 7.74615 77.3712 7.91805 76.8554 7.91805C76.3397 7.91805 75.9291 7.74615 75.6235 7.39756C75.3179 7.04898 75.165 6.58579 75.165 6.00323C75.165 5.42067 75.3179 4.95748 75.6235 4.61367Z" fill="white"/>
<path d="M86.2576 0.631229C86.2576 0.516626 86.1574 0.425899 86.0284 0.425899H83.4021V10.2865C83.4021 10.4011 83.5024 10.4918 83.6313 10.4918H86.2576V6.40434H87.991V5.03866H86.2576V0.631229Z" fill="white"/>
<path d="M75.5948 12.7075L75.5853 10.4966H72.8348V13.6959C72.8348 14.4695 73.2741 14.8563 74.1575 14.8563H86.2481L86.2576 13.3092C86.2576 13.1993 86.1574 13.1134 86.038 13.1134H76.1105C75.7667 13.1134 75.59 12.9797 75.59 12.7123L75.5948 12.7075Z" fill="white"/>
</svg>
