<svg width="130" height="19" viewBox="0 0 130 19" fill="none" xmlns="http://www.w3.org/2000/svg">
<path d="M13.1958 6.70061C13.1867 6.67778 13.1776 6.65496 13.1684 6.63214C13.1684 6.61845 13.1456 6.5728 13.1045 6.49977C13.0543 6.4313 13.0178 6.39935 12.9904 6.40392C12.9767 6.40392 12.963 6.42218 12.9448 6.45869C12.9265 6.49521 12.9037 6.53172 12.8809 6.56824C12.8672 6.59106 12.8489 6.61388 12.8261 6.64583C12.7987 6.67778 12.785 6.70061 12.7804 6.72343C12.7668 6.75082 12.7531 6.78277 12.7302 6.81928C12.7074 6.8558 12.6892 6.88318 12.68 6.90601C12.6709 6.94252 12.6572 6.97447 12.6435 7.00186C12.6298 7.02925 12.6161 7.0612 12.6024 7.09771C12.6024 7.10684 12.5933 7.12054 12.5796 7.15249C12.5659 7.17987 12.5614 7.21182 12.5614 7.24378C12.5614 7.26203 12.5614 7.28486 12.5568 7.30768C12.5522 7.3305 12.5522 7.35332 12.5522 7.37158L12.5659 7.50851C12.5659 7.50851 12.5659 7.54047 12.5751 7.55872C12.5796 7.57698 12.5887 7.58611 12.6024 7.58611C12.6663 7.57698 12.7348 7.54959 12.8078 7.49939C12.8489 7.46743 12.8809 7.44005 12.9083 7.41722C12.9402 7.38071 12.9722 7.34876 12.9995 7.31681C13.0269 7.28486 13.0589 7.24378 13.0908 7.19813C13.0954 7.189 13.1091 7.17987 13.1319 7.15705C13.1502 7.13879 13.1639 7.12054 13.1684 7.10684C13.1684 7.10228 13.1684 7.08402 13.1867 7.06576C13.2004 7.04294 13.2049 7.02925 13.2049 7.02468L13.2278 6.94252C13.2369 6.90601 13.246 6.88318 13.2415 6.86493C13.2415 6.85123 13.2415 6.82385 13.2369 6.7919C13.2369 6.78733 13.2278 6.75538 13.2095 6.70517L13.1958 6.70061Z" fill="#20345F"/>
<path d="M16.2677 0.0136933H10.804C10.8269 0.0182578 10.8497 0.0136933 10.8771 0.0182578C11.046 0.0502089 11.2148 0.12324 11.3792 0.232787C11.4978 0.310382 11.6165 0.461009 11.7352 0.680102C11.7717 0.766827 11.8082 0.848987 11.8402 0.931147C11.8767 1.01331 11.9132 1.09547 11.9452 1.18219C11.9771 1.24153 11.9999 1.2963 12.0136 1.34195C12.0228 1.38759 12.041 1.43324 12.0593 1.48345C12.0775 1.53365 12.0912 1.60212 12.1003 1.69341C12.1095 1.7847 12.114 1.8486 12.1186 1.88512C12.1232 1.94902 12.1277 2.00836 12.1232 2.05857C12.1232 2.11334 12.1232 2.16811 12.1277 2.23201L12.1369 2.35069C12.1551 2.41459 12.1506 2.51501 12.1232 2.65651C12.0958 2.79801 12.0775 2.89842 12.0684 2.96689C12.0684 2.99428 12.0684 3.07644 12.0684 3.21337C12.0684 3.3503 12.0684 3.43703 12.0684 3.47811C12.0775 3.5694 12.0684 3.64243 12.0456 3.70633C12.0228 3.76567 12.0136 3.81588 12.0182 3.85696C12.0228 3.90717 12.0182 3.9802 12.0091 4.07149C11.9954 4.16278 11.9817 4.24494 11.9588 4.3134C11.9588 4.3271 11.9588 4.3773 11.9406 4.46403C11.9269 4.55075 11.9223 4.60096 11.9223 4.61466C11.8995 4.68312 11.8904 4.74702 11.8995 4.81093C11.9041 4.87483 11.8995 4.93417 11.8767 4.98894C11.8539 5.05741 11.831 5.12587 11.8037 5.19434C11.7763 5.26281 11.758 5.33127 11.7489 5.39518C11.7398 5.44995 11.7352 5.51385 11.7352 5.59145C11.7352 5.66904 11.7261 5.7512 11.7032 5.8288C11.7032 5.85618 11.7032 5.88814 11.6941 5.92922C11.685 5.9703 11.6804 5.99768 11.6804 6.01138C11.6804 6.03876 11.6804 6.05702 11.6804 6.07984C11.6759 6.0981 11.6759 6.12092 11.6804 6.14831C11.6804 6.19852 11.6804 6.28981 11.6622 6.42218C11.653 6.44956 11.6485 6.47695 11.6485 6.50434L11.6576 6.58193C11.6576 6.58193 11.3107 8.56747 10.8999 10.9318C11.9178 10.521 13.7801 9.76791 13.8166 9.74509C13.8303 9.72684 14.2228 9.56708 14.5743 9.43015C14.7979 9.31603 15.1859 9.14259 15.6561 9.02391C15.6834 9.01022 15.7108 8.99652 15.7291 8.99196C15.7519 8.9874 15.7702 8.99652 15.7884 8.99652C16.1855 8.9098 16.6237 8.82764 17.0482 8.92349C17.1258 8.94175 17.2171 8.96001 17.3175 8.99196C17.4179 9.02391 17.5001 9.0376 17.5686 9.04217C17.6233 9.04217 17.6781 9.05586 17.7283 9.07868C17.7831 9.10151 17.8379 9.12433 17.9063 9.15172C17.9474 9.16541 17.993 9.19279 18.0433 9.22475C18.0935 9.2567 18.1528 9.29778 18.2167 9.33886C18.2487 9.36168 18.276 9.37537 18.308 9.39363V6.24416C18.2943 6.28068 18.2852 6.32176 18.2715 6.35827C18.2487 6.4313 18.2304 6.51346 18.2258 6.60019C18.2167 6.6504 18.1984 6.71886 18.1711 6.81472C18.1437 6.90601 18.1163 6.97447 18.0843 7.02468L18.0478 7.10684C18.025 7.16162 18.0022 7.22552 17.9794 7.29398C17.9565 7.36245 17.9291 7.42179 17.8972 7.46287C17.8835 7.47656 17.8698 7.49482 17.8607 7.51764C17.847 7.54047 17.8379 7.55872 17.8242 7.57242C17.8059 7.59067 17.7785 7.60437 17.7511 7.61806C17.7237 7.63175 17.7055 7.64545 17.6918 7.65914C17.6644 7.66827 17.637 7.6774 17.6142 7.68653C17.5914 7.69566 17.5503 7.70935 17.4955 7.72304C17.4271 7.73217 17.3677 7.7413 17.3266 7.75499C17.2856 7.76869 17.2308 7.78238 17.1714 7.78695C17.0299 7.78695 16.966 7.74587 16.9752 7.65001C16.9706 7.5998 16.9752 7.55872 16.9843 7.53134C16.998 7.50395 17.0071 7.46743 17.0163 7.42635C17.0254 7.38984 17.0345 7.35789 17.0391 7.32594C17.0391 7.29399 17.0528 7.26203 17.0619 7.23465C17.071 7.18444 17.0802 7.13879 17.0802 7.09771C17.0802 7.05207 17.0939 7.00642 17.1075 6.94709C17.1121 6.87406 17.1212 6.80102 17.1349 6.72799C17.1441 6.65496 17.1532 6.5865 17.1623 6.5089C17.1714 6.45413 17.176 6.40392 17.1714 6.35827C17.103 6.39935 17.0482 6.43587 17.0071 6.46782C16.966 6.49977 16.9204 6.52716 16.8793 6.54542C16.8337 6.59562 16.7789 6.64127 16.715 6.67322C16.6511 6.70517 16.5826 6.74625 16.5187 6.78733C16.505 6.79646 16.4777 6.80559 16.4366 6.82385C16.3955 6.83754 16.3635 6.8558 16.3453 6.86949C16.2814 6.88775 16.2403 6.90144 16.2175 6.89688C16.1947 6.89688 16.1718 6.90601 16.1444 6.9197C16.076 6.96078 16.0212 6.9836 15.9801 6.98817C15.9162 7.01099 15.8706 7.02468 15.8386 7.02925C15.8067 7.03381 15.7656 7.04294 15.7063 7.0475L15.3685 7.08858C15.3685 7.08858 15.3046 7.08858 15.2453 7.09315C15.1859 7.09315 15.1266 7.09315 15.0672 7.08402C14.9257 7.08402 14.7979 7.02925 14.6884 6.92883C14.6427 6.89231 14.6062 6.86036 14.5834 6.81928C14.5743 6.80102 14.5651 6.7782 14.556 6.75082C14.5469 6.72343 14.5423 6.70061 14.5378 6.68235C14.5378 6.66866 14.5378 6.6504 14.5515 6.61845C14.5651 6.59106 14.5743 6.57737 14.588 6.5728C14.6062 6.53629 14.629 6.5089 14.6564 6.48608C14.6838 6.46326 14.7066 6.445 14.7249 6.42674C14.7569 6.40392 14.8025 6.38566 14.8527 6.3811C14.9029 6.37653 14.9486 6.37653 14.9759 6.38566C14.9896 6.39022 15.0216 6.39022 15.0672 6.38566C15.1129 6.38566 15.1448 6.38566 15.1677 6.37653C15.195 6.37653 15.227 6.3674 15.2681 6.35371C15.3046 6.34458 15.332 6.33089 15.3457 6.32632C15.4096 6.29894 15.4689 6.27155 15.5237 6.24416C15.5785 6.21678 15.6424 6.18026 15.7017 6.13462C15.7291 6.11179 15.7702 6.08441 15.8204 6.05246C15.8751 6.02507 15.9345 5.99312 15.9938 5.9566C16.0532 5.92465 16.1171 5.88814 16.1764 5.85618C16.2357 5.82423 16.2859 5.79228 16.327 5.76033C16.3681 5.74207 16.4092 5.72382 16.4503 5.70099C16.4913 5.67817 16.537 5.65991 16.5826 5.64166C16.6465 5.61427 16.7104 5.58688 16.7835 5.56406C16.8565 5.53667 16.9204 5.50929 16.9752 5.47734C17.0071 5.45908 17.0528 5.43169 17.1121 5.39061C17.1669 5.34953 17.2171 5.29932 17.2536 5.24455C17.2856 5.1989 17.3038 5.15782 17.3129 5.12131C17.3221 5.08479 17.3312 5.03458 17.3449 4.97068C17.3814 4.84744 17.3951 4.71051 17.3814 4.56445C17.3814 4.55988 17.3814 4.5325 17.3723 4.49142C17.3723 4.45034 17.3632 4.40469 17.354 4.35905C17.3449 4.3134 17.3403 4.27232 17.3358 4.23124C17.3358 4.19016 17.3312 4.16277 17.3266 4.15365C17.3038 4.08518 17.2947 4.03041 17.2901 3.99389C17.2901 3.95737 17.2856 3.92999 17.281 3.91173C17.2627 3.88891 17.2536 3.85696 17.2445 3.81588C17.2353 3.7748 17.2262 3.74285 17.208 3.72002C17.1988 3.70633 17.1897 3.68807 17.176 3.66525C17.1623 3.64243 17.1532 3.61048 17.1486 3.57853C17.1395 3.54657 17.1395 3.51462 17.1395 3.48724C17.1395 3.45529 17.1532 3.4279 17.1806 3.40508C17.2353 3.35943 17.2856 3.33205 17.3312 3.32292C17.3814 3.31379 17.4179 3.30466 17.4453 3.29553C17.4864 3.28184 17.5457 3.27727 17.6142 3.28184C17.6827 3.28184 17.7374 3.28184 17.774 3.28184C17.8105 3.28184 17.8379 3.28184 17.8652 3.29553C17.8926 3.30922 17.9109 3.32292 17.9291 3.33205C17.9839 3.37313 18.025 3.42333 18.0615 3.48724C18.0752 3.50549 18.0935 3.53745 18.1117 3.58309C18.13 3.6333 18.1437 3.66069 18.1528 3.67438C18.1528 3.67894 18.1574 3.70177 18.1665 3.73372C18.1756 3.76567 18.1848 3.80675 18.1893 3.85239C18.203 3.87978 18.2213 3.92086 18.235 3.98933C18.2487 4.05323 18.2624 4.12626 18.276 4.20386C18.276 4.22211 18.276 4.23581 18.2852 4.25406V2.04944C18.3126 0.935712 17.3905 0.0136933 16.2677 0.0136933ZM13.9718 6.76907C13.9626 6.81472 13.9535 6.86949 13.9489 6.9197C13.9444 6.97447 13.9307 7.02468 13.9033 7.07489C13.8896 7.12966 13.8668 7.17531 13.8394 7.21182C13.8166 7.24834 13.7846 7.29399 13.7572 7.35332L13.6249 7.54047C13.5564 7.63632 13.4332 7.7413 13.2597 7.85541C13.2323 7.87367 13.1867 7.89649 13.1228 7.93757C13.0589 7.97409 13.0087 8.00147 12.9767 8.0106C12.8809 8.03799 12.7987 8.05168 12.7348 8.06081C12.6709 8.06994 12.6253 8.07907 12.5979 8.0882C12.4792 8.11559 12.3742 8.11559 12.2784 8.0882C12.2327 8.06538 12.1962 8.03799 12.1642 8.00604C12.1323 7.97409 12.1095 7.94214 12.0912 7.91019C12.073 7.87823 12.0638 7.83259 12.0547 7.76869C12.0501 7.70479 12.041 7.65001 12.0364 7.59524C12.0364 7.57698 12.0364 7.49482 12.0456 7.35332C12.0364 7.32137 12.041 7.27573 12.0593 7.21182C12.0775 7.14792 12.0958 7.10228 12.114 7.06576C12.1369 6.9973 12.1551 6.93339 12.1688 6.87406C12.1825 6.81472 12.2008 6.76907 12.219 6.73256C12.2601 6.66866 12.2966 6.61388 12.3194 6.56367C12.3423 6.51803 12.3742 6.46782 12.4107 6.40848C12.429 6.3811 12.4472 6.35371 12.4609 6.32632C12.4792 6.29894 12.5066 6.25786 12.5522 6.20308C12.5705 6.18939 12.5933 6.16657 12.6161 6.13462C12.639 6.10723 12.6572 6.08441 12.6663 6.07071C12.68 6.04789 12.6937 6.02507 12.7165 6.00225C12.7348 5.97942 12.7531 5.95204 12.7713 5.91552C12.8261 5.84249 12.858 5.77402 12.858 5.71469C12.8626 5.6873 12.8763 5.65991 12.8946 5.63709C12.9128 5.6097 12.9311 5.59145 12.9448 5.57775C12.9585 5.56406 12.9767 5.55493 13.0041 5.55493C13.0315 5.55493 13.0543 5.55493 13.068 5.55493C13.068 5.56406 13.068 5.56406 13.0771 5.56406H13.1091C13.1639 5.54124 13.2141 5.5458 13.2597 5.57319C13.2917 5.59601 13.3191 5.61883 13.3419 5.63709C13.3647 5.65991 13.3784 5.67361 13.3784 5.6873C13.3693 5.74207 13.3601 5.78315 13.351 5.81054C13.3419 5.83793 13.3327 5.86988 13.3236 5.90183C13.3327 5.90639 13.351 5.92009 13.3784 5.93834C13.4103 5.9566 13.4423 5.97942 13.4742 6.00681C13.5108 6.0342 13.5427 6.05702 13.5701 6.07984C13.6021 6.10266 13.6203 6.11636 13.6294 6.12092C13.6979 6.18026 13.7527 6.24416 13.7892 6.32176L13.8394 6.40392C13.8714 6.4313 13.8987 6.47695 13.9216 6.54085C13.9444 6.60019 13.9581 6.64583 13.9626 6.68235C13.9626 6.69604 13.9626 6.70974 13.9626 6.72799C13.9626 6.74625 13.9626 6.75994 13.9581 6.77364L13.9718 6.76907ZM16.4822 4.7881C16.4822 4.7881 16.4685 4.81093 16.4594 4.82006C16.4503 4.82918 16.4366 4.83831 16.4274 4.85201C16.4137 4.8657 16.4001 4.88396 16.3909 4.90222C16.3772 4.92047 16.3544 4.93873 16.3225 4.95699C16.2494 5.02089 16.1627 5.06197 16.0577 5.08936C16.0075 5.09392 15.939 5.12587 15.8432 5.18521C15.8112 5.20347 15.7793 5.21716 15.7565 5.23542C15.7336 5.24911 15.7063 5.26737 15.6789 5.28563C15.6332 5.30389 15.5921 5.32214 15.5556 5.34497C15.5237 5.36779 15.4917 5.38148 15.4643 5.39061L15.3092 5.44995C15.227 5.4819 15.154 5.51842 15.0946 5.56406C15.0353 5.60514 14.9577 5.63709 14.8573 5.66448C14.8162 5.67817 14.7842 5.6873 14.766 5.69643C14.7477 5.70556 14.7203 5.71012 14.693 5.71469C14.6564 5.71469 14.6245 5.72382 14.5925 5.73294C14.5606 5.73751 14.5332 5.74207 14.5149 5.73294C14.5104 5.73294 14.4967 5.73294 14.483 5.73294C14.4693 5.73294 14.4556 5.73294 14.451 5.73294C14.4419 5.73294 14.4282 5.73294 14.41 5.73294C14.3871 5.73294 14.3734 5.73294 14.3689 5.73294C14.3461 5.73294 14.3232 5.73294 14.3004 5.73294C14.2776 5.73294 14.2548 5.73294 14.2411 5.73294C14.2 5.73294 14.1543 5.70556 14.1041 5.65991C14.095 5.65535 14.0904 5.64622 14.0813 5.63253C14.0722 5.61883 14.0631 5.6097 14.0585 5.60514C14.0265 5.56406 14.0174 5.50929 14.0311 5.44082C14.0448 5.41343 14.0539 5.39061 14.0585 5.37692C14.0631 5.36322 14.0813 5.3404 14.1041 5.31301L14.1133 5.29932C14.1133 5.29932 14.1452 5.26737 14.168 5.24455C14.1909 5.22173 14.2137 5.19434 14.2411 5.15782C14.2776 5.09849 14.3095 5.05284 14.3369 5.01633C14.3597 4.97981 14.3917 4.94786 14.4328 4.92504C14.451 4.91134 14.4693 4.89765 14.4876 4.89309C14.5058 4.88852 14.5286 4.87483 14.5515 4.86114C14.5834 4.83831 14.6199 4.82006 14.661 4.8018C14.7021 4.7881 14.7432 4.76985 14.7842 4.75159C14.8071 4.74246 14.8253 4.73333 14.839 4.71964C14.8573 4.70594 14.8755 4.69682 14.8938 4.68769C14.9212 4.67856 14.944 4.66943 14.9623 4.66486C14.9805 4.6603 14.9988 4.65117 15.017 4.64204C15.0718 4.62378 15.1266 4.60096 15.1813 4.5827C15.2361 4.56445 15.2909 4.54162 15.3457 4.52337C15.3867 4.50511 15.4233 4.49142 15.4598 4.48229C15.4963 4.47316 15.5556 4.4549 15.6469 4.42751C15.7017 4.40926 15.7336 4.40013 15.7473 4.40013C15.7565 4.40013 15.7839 4.39556 15.8249 4.3773C15.866 4.35905 15.9071 4.35905 15.9527 4.38187L16.0212 4.41382C16.0212 4.41382 16.0577 4.41838 16.1034 4.41382C16.149 4.40926 16.1764 4.40926 16.181 4.41382C16.1901 4.42751 16.2083 4.44121 16.2357 4.4549C16.2631 4.46859 16.2768 4.48229 16.2859 4.49142C16.2951 4.50511 16.3133 4.51424 16.3362 4.5188C16.3635 4.52337 16.3818 4.53706 16.3955 4.54619C16.4183 4.56445 16.4366 4.57814 16.4503 4.58727C16.464 4.60096 16.4822 4.61922 16.5005 4.65117C16.5187 4.69682 16.5142 4.74246 16.4822 4.79267V4.7881Z" fill="#20345F"/>
<path d="M9.82725 6.53629C9.82725 6.47695 9.83182 6.41305 9.84095 6.34914C9.8592 6.26698 9.86833 6.18482 9.8592 6.09354C9.85008 5.98855 9.85008 5.89726 9.85464 5.81054C9.8592 5.72382 9.8592 5.65078 9.85464 5.58688C9.79987 5.61883 9.75422 5.64622 9.70401 5.67361C9.65837 5.69643 9.60816 5.72838 9.55795 5.76033C9.48948 5.79228 9.42558 5.82423 9.36624 5.85162C9.30691 5.87901 9.24757 5.90639 9.19736 5.93834C9.10151 5.97486 9.01935 6.01138 8.94632 6.04789C8.87328 6.08441 8.80482 6.11636 8.73635 6.15287C8.66788 6.18939 8.62224 6.20765 8.59485 6.20765C8.56747 6.20765 8.52639 6.22134 8.47161 6.2396C8.43053 6.25786 8.39402 6.26698 8.36207 6.27155C8.32555 6.27155 8.29816 6.28524 8.27078 6.3035C8.18862 6.34002 8.12928 6.35827 8.0882 6.36284C8.01973 6.38566 7.95127 6.40848 7.88736 6.43587C7.8189 6.46326 7.75956 6.48151 7.70479 6.48608C7.6774 6.48608 7.62719 6.49977 7.54959 6.52259C7.472 6.54542 7.35332 6.56367 7.189 6.5865C7.16162 6.5865 7.11597 6.60019 7.05663 6.61388C6.99273 6.62758 6.87862 6.6367 6.7143 6.64583C6.64583 6.64583 6.56824 6.6367 6.48608 6.63214C6.40392 6.63214 6.32632 6.62301 6.25329 6.61845C6.2396 6.61845 6.21678 6.61845 6.18939 6.61845C6.162 6.61845 6.13918 6.61845 6.12549 6.61845C6.08441 6.62301 6.03876 6.61845 5.98855 6.61845C5.93834 6.60932 5.90183 6.60475 5.86988 6.59106C5.8151 6.5865 5.74664 6.55911 5.66448 6.51803C5.58232 6.47695 5.52298 6.445 5.47734 6.42218C5.37692 6.3674 5.30389 6.33089 5.26737 6.29894C5.23086 6.27155 5.18521 6.19395 5.13044 6.07071C5.09392 5.9703 5.07566 5.8927 5.07566 5.84249C5.07566 5.78772 5.09392 5.72382 5.13044 5.64166C5.14413 5.61427 5.16695 5.58688 5.20803 5.55493C5.24911 5.52298 5.2765 5.49559 5.30389 5.46364C5.37692 5.37692 5.47277 5.33127 5.58232 5.33127C5.6097 5.3404 5.64166 5.35866 5.67817 5.37692C5.71469 5.39974 5.74664 5.41343 5.77859 5.42256C5.85162 5.44082 5.99768 5.43625 6.21678 5.40887C6.35371 5.38148 6.48151 5.3404 6.60475 5.29476C6.72343 5.24911 6.81472 5.2126 6.86493 5.19434C6.94709 5.15782 7.03838 5.11674 7.14792 5.0711C7.25291 5.02545 7.38071 4.97525 7.53134 4.91591C7.58611 4.88396 7.64545 4.85201 7.70935 4.81549C7.77325 4.78354 7.83715 4.75615 7.88736 4.73333C7.94214 4.71507 8.00604 4.68769 8.0882 4.65117C8.16579 4.61466 8.23426 4.5827 8.28447 4.55075C8.36663 4.50054 8.44879 4.4549 8.54464 4.40469C8.63593 4.35448 8.72722 4.29058 8.81851 4.21298C8.85959 4.18103 8.90067 4.13995 8.95088 4.08974C9.00109 4.03954 9.04673 3.98476 9.08325 3.92542C9.09238 3.89804 9.11976 3.84326 9.16084 3.7611C9.20192 3.67894 9.243 3.58765 9.27952 3.4918C9.3206 3.39595 9.35711 3.30466 9.38907 3.2225C9.42102 3.14034 9.44384 3.07644 9.45753 3.03992C9.48948 2.94407 9.526 2.82539 9.55795 2.68389C9.59447 2.5424 9.62185 2.43285 9.64011 2.35069C9.64924 2.30961 9.6538 2.23658 9.64924 2.12247C9.64924 2.01292 9.64468 1.93533 9.64011 1.89881C9.61729 1.82121 9.6036 1.75275 9.59903 1.68885L9.57621 1.45606C9.56252 1.43324 9.54426 1.3739 9.53057 1.28717C9.51687 1.19588 9.50774 1.14111 9.50318 1.11372C9.48492 1.07721 9.47123 1.01787 9.46666 0.940276C9.4621 0.876374 9.46666 0.826165 9.48492 0.789649C9.50318 0.753134 9.52144 0.716618 9.54882 0.675538C9.55795 0.648151 9.57621 0.620765 9.59447 0.588814C9.61272 0.561427 9.63098 0.515782 9.6538 0.442751C9.67663 0.374285 9.71314 0.324076 9.76335 0.282996C9.81356 0.24648 9.86833 0.209965 9.92311 0.173449C9.97332 0.141498 10.0053 0.114111 10.019 0.0958534C10.0327 0.0730311 10.0555 0.0502089 10.0966 0.0182578C10.1194 0.00912889 10.1605 0.00456445 10.1878 0H2.04944C0.926583 0.0136933 0.00456445 0.935712 0.00456445 2.05857V3.89347C0.0456445 3.87978 0.100418 3.85696 0.136933 3.84326C0.2054 3.82044 0.251045 3.81588 0.282996 3.82501C0.310382 3.83413 0.356027 3.83413 0.4108 3.82501C0.520347 3.81131 0.6162 3.81131 0.693796 3.82501C0.771391 3.83413 0.876374 3.86152 1.00418 3.89347C1.03156 3.87978 1.04982 3.87065 1.06352 3.87521C1.07721 3.87978 1.09547 3.86609 1.12285 3.8387C1.17763 3.80675 1.22327 3.77936 1.26435 3.75197C1.30543 3.72915 1.36477 3.6972 1.44237 3.66069C1.50627 3.61504 1.58843 3.5694 1.69341 3.53288C1.79383 3.49637 1.88512 3.45985 1.96728 3.42333C1.99466 3.40964 2.09965 3.37313 2.28222 3.31835C2.4648 3.26358 2.58804 3.21793 2.65651 3.18598C2.78888 3.13121 2.92581 3.09469 3.06274 3.081C3.10382 3.07644 3.14947 3.06274 3.19511 3.04449C3.24076 3.02623 3.30922 3.02623 3.39138 3.04449C3.44616 3.04905 3.50093 3.05361 3.54658 3.05361C3.59678 3.05361 3.65612 3.05361 3.72459 3.06274C3.83414 3.06274 3.97107 3.10382 4.13539 3.19055C4.20842 3.24989 4.29514 3.32292 4.38643 3.41421C4.43208 3.45985 4.46859 3.52375 4.50054 3.60591C4.52793 3.68807 4.52793 3.80675 4.50054 3.9665C4.48229 4.08518 4.48229 4.20386 4.49142 4.31797C4.50054 4.43208 4.50054 4.54619 4.48229 4.65117C4.49142 4.72877 4.49142 4.8018 4.48229 4.87483C4.47772 4.94786 4.46859 5.01633 4.45946 5.08479C4.4549 5.16239 4.45034 5.24455 4.45034 5.32214C4.45034 5.39974 4.44121 5.4819 4.41838 5.55949C4.40926 5.61427 4.40469 5.69643 4.40013 5.80598C4.40013 5.92009 4.391 6.00225 4.38187 6.05246C4.36818 6.18482 4.35448 6.34002 4.34079 6.51803C4.3271 6.69604 4.33622 6.82841 4.35905 6.91514C4.35448 6.99273 4.35448 7.07489 4.35905 7.16162C4.36818 7.24378 4.35905 7.32137 4.33622 7.38984C4.3773 7.37158 4.41838 7.35332 4.46859 7.33507C4.51424 7.31681 4.55075 7.29855 4.57814 7.28486C4.64661 7.2529 4.71507 7.24834 4.7881 7.28029C4.86114 7.31224 4.90678 7.37615 4.9296 7.47656C4.97068 7.60437 4.95242 7.72761 4.87939 7.85541C4.85657 7.91019 4.82918 7.96496 4.79723 8.0106C4.76528 8.06081 4.72877 8.10646 4.67399 8.1521C4.63291 8.18405 4.58727 8.216 4.52793 8.24796C4.46859 8.27991 4.41838 8.31186 4.38187 8.34381C4.3134 8.38032 4.2495 8.41684 4.18103 8.45792C4.11713 8.499 4.03954 8.55834 3.94825 8.63137C3.89347 8.66332 3.82044 8.7044 3.72002 8.74548C3.61961 8.79112 3.55114 8.82764 3.51006 8.85959C3.44159 8.89154 3.38682 8.91893 3.34117 8.93719C3.29097 8.95544 3.24989 8.9737 3.20881 8.99196C3.18142 9.01022 3.13121 9.03304 3.05818 9.06043C2.98515 9.08781 2.91212 9.11976 2.84821 9.15628C2.55153 9.2567 2.337 9.33886 2.20463 9.40732C2.13616 9.43927 2.06313 9.47123 1.97184 9.49405C1.88512 9.51687 1.80752 9.53969 1.73905 9.56252C1.62951 9.60359 1.53822 9.63555 1.46519 9.66293C1.39216 9.69032 1.27805 9.71314 1.12742 9.7314C1.05895 9.74053 0.981356 9.73596 0.894632 9.72227C0.807907 9.70858 0.73944 9.67663 0.675538 9.63098C0.602507 9.57621 0.547734 9.526 0.515782 9.49405C0.483831 9.47123 0.00912889 7.98322 0 7.96952V16.2768C0 17.4042 0.922018 18.3217 2.04487 18.3217H7.93301L8.86872 12.5887C8.69527 12.6481 8.54008 12.6983 8.41228 12.7302C8.28447 12.7622 8.16579 12.8033 8.05625 12.8398C7.98778 12.8763 7.91019 12.9037 7.81433 12.9265C7.71848 12.9493 7.63632 12.9676 7.56785 12.9767L7.44461 12.9904C7.36245 12.9995 7.27573 13.0224 7.189 13.0589C7.10228 13.0954 7.01099 13.1182 6.91514 13.1319C6.87406 13.1365 6.82841 13.1456 6.78277 13.1593C6.73256 13.173 6.69148 13.1821 6.6504 13.1867L6.56824 13.1958C6.45869 13.2369 6.34002 13.2597 6.21221 13.278C6.07984 13.2917 5.96117 13.3099 5.85162 13.3236L5.56406 13.3601C5.45451 13.3738 5.3541 13.3647 5.26737 13.3373C5.20803 13.3191 5.16239 13.3054 5.12587 13.2962C5.08936 13.2871 5.05284 13.2734 5.0072 13.2506C4.87483 13.173 4.76072 13.0726 4.66486 12.9402C4.54162 12.7987 4.45034 12.6344 4.38643 12.4472C4.36818 12.3833 4.34992 12.324 4.33622 12.2647C4.32253 12.2099 4.3134 12.146 4.30884 12.0821L4.29514 11.9269C4.29514 11.8995 4.29514 11.8721 4.29514 11.8402C4.29514 11.8082 4.29514 11.7398 4.28602 11.6348C4.28602 11.5937 4.28602 11.5252 4.30884 11.4157L4.34535 11.119C4.34535 11.119 4.36361 11.0825 4.35905 11.0597C4.35448 11.0094 4.35905 10.9684 4.36818 10.941C4.391 10.8725 4.40926 10.7995 4.42295 10.7173C4.43664 10.6397 4.4549 10.5576 4.47316 10.4754C4.49598 10.4206 4.50967 10.3704 4.51424 10.3248C4.51424 10.2791 4.52793 10.2289 4.55075 10.1742C4.55988 10.1468 4.56901 10.1194 4.57358 10.092C4.57814 10.0646 4.58727 10.0372 4.5964 10.0098C4.61466 9.92767 4.65117 9.84551 4.69682 9.76335C4.71964 9.70858 4.75615 9.66293 4.81093 9.62185C4.86114 9.58534 4.92047 9.53969 4.98894 9.49405C5.01633 9.46666 5.05741 9.43928 5.11674 9.42102C5.17608 9.40276 5.23086 9.39363 5.27194 9.40276C5.29932 9.40276 5.3541 9.40276 5.42713 9.41189C5.50472 9.42102 5.5595 9.42558 5.58688 9.42102C5.61427 9.43015 5.65991 9.43015 5.72382 9.42102C5.78772 9.41189 5.83336 9.41189 5.86075 9.42102C5.88814 9.43015 5.93378 9.44384 5.98855 9.4621C6.04789 9.48036 6.09354 9.53056 6.12549 9.60359C6.14831 9.70401 6.15287 9.80443 6.13462 9.89572V9.91398C6.13462 9.94136 6.13462 9.97332 6.12549 10.0144C6.11636 10.0555 6.10266 10.0874 6.09354 10.1148C6.07984 10.1422 6.07071 10.1742 6.06159 10.2152C6.05246 10.2563 6.04789 10.2837 6.04789 10.2974C6.02507 10.3659 6.01594 10.4252 6.01138 10.48C6.01138 10.5347 5.99768 10.5804 5.9703 10.6215C5.93378 10.6899 5.91552 10.804 5.92009 10.9592C5.91096 11.0231 5.91096 11.1007 5.91096 11.1829C5.91096 11.2696 5.91096 11.3563 5.90639 11.4476L5.91552 11.5663C5.92009 11.6302 5.93378 11.6804 5.95204 11.7169C5.9703 11.7534 5.97943 11.79 5.98399 11.831C5.98399 11.8676 6.00681 11.9132 6.03876 11.9634C6.05702 11.9862 6.07071 12.0091 6.08897 12.0273C6.10266 12.0456 6.12092 12.0684 6.13462 12.0912C6.19852 12.2008 6.30807 12.2464 6.45869 12.2282C6.52716 12.219 6.59106 12.2145 6.64583 12.2145C6.70061 12.2145 6.76451 12.2053 6.83298 12.1825C6.90144 12.1597 6.9836 12.146 7.07946 12.1323C7.17531 12.1186 7.25291 12.1186 7.30768 12.1232C7.31681 12.0958 7.38984 12.073 7.52221 12.0593C7.65458 12.0456 7.75043 12.0182 7.8189 11.9862C7.83259 11.9862 7.90562 11.9634 8.03343 11.9315C8.16123 11.8949 8.23426 11.8767 8.24795 11.8767C8.31186 11.8402 8.40315 11.8082 8.52182 11.7763C8.63593 11.7443 8.72722 11.7215 8.80025 11.7124C8.86872 11.6941 8.93262 11.6667 8.99196 11.6393C9.00565 11.6348 9.02391 11.6348 9.0376 11.6256L9.84095 6.70974C9.83638 6.64583 9.83182 6.58193 9.83182 6.52716L9.82725 6.53629ZM5.03458 3.71089C5.03002 3.64699 5.02546 3.58765 5.03002 3.53745C5.03002 3.48267 5.05741 3.42333 5.10762 3.3503C5.14413 3.29553 5.17608 3.23163 5.20347 3.16316C5.23086 3.09469 5.2765 3.03079 5.3404 2.97145C5.44082 2.86647 5.56406 2.75236 5.70556 2.62456C5.84706 2.49675 6.00225 2.39177 6.1757 2.30505C6.26699 2.26853 6.3674 2.22289 6.47695 2.17268C6.58193 2.12247 6.67779 2.07682 6.75995 2.04031C6.77364 2.04031 6.81472 2.02205 6.87862 1.99466C6.94709 1.96728 7.00643 1.94902 7.0612 1.94445C7.11597 1.93989 7.19813 1.91707 7.30768 1.87599C7.37615 1.84404 7.44005 1.82578 7.51308 1.83034C7.58155 1.83491 7.65458 1.83034 7.71848 1.80752C7.75956 1.80752 7.80064 1.79383 7.84172 1.7847C7.8828 1.77557 7.92388 1.76644 7.96496 1.76188L8.1521 1.73905C8.26621 1.75275 8.37576 1.75275 8.48531 1.74818C8.59485 1.74362 8.70896 1.74818 8.82308 1.77557C8.97827 1.79839 9.10607 1.87142 9.20192 2.00379C9.23388 2.02661 9.25213 2.07226 9.2567 2.13616C9.26583 2.24114 9.25213 2.337 9.21105 2.42829C9.16997 2.51957 9.12433 2.59717 9.07868 2.6702C9.0513 2.69759 9.03304 2.72954 9.02391 2.75693C9.01022 2.78431 8.99196 2.8117 8.96914 2.84365C8.94175 2.87104 8.91436 2.89842 8.88241 2.92125C8.85046 2.94407 8.80025 2.96233 8.72722 2.96689C8.69984 2.96689 8.66788 2.98515 8.6268 3.00797C8.58572 3.03079 8.54008 3.04905 8.48531 3.05361C8.41684 3.07644 8.35294 3.09013 8.28903 3.09469C8.22513 3.10382 8.16123 3.11752 8.09276 3.13577C8.05168 3.15403 8.00147 3.16316 7.93757 3.16316C7.87367 3.16316 7.82803 3.16316 7.8052 3.16773C7.79151 3.16773 7.75956 3.17685 7.71391 3.18598C7.66827 3.19968 7.63632 3.20424 7.62263 3.20881C7.472 3.24076 7.37615 3.25901 7.33507 3.26358C7.29399 3.26814 7.25747 3.27271 7.23008 3.27727C7.12054 3.31835 7.01555 3.34574 6.90601 3.364C6.79646 3.38225 6.68691 3.41421 6.58193 3.45072C6.51347 3.47354 6.45413 3.48267 6.40848 3.4918C6.35827 3.49637 6.30806 3.51462 6.25786 3.54657L6.15744 3.59678C6.08897 3.6333 6.03876 3.66525 5.99768 3.69264C5.96117 3.72459 5.92465 3.74741 5.90183 3.7611C5.88814 3.7611 5.86075 3.7748 5.81967 3.80218C5.77859 3.82501 5.74664 3.84783 5.71925 3.86152C5.65078 3.89804 5.60058 3.93455 5.56406 3.9802L5.46821 4.08974C5.44082 4.11713 5.40887 4.13995 5.36779 4.14908C5.32671 4.15821 5.29019 4.15365 5.26281 4.13082C5.23086 4.108 5.1989 4.07149 5.15782 4.02584C5.11674 3.97563 5.09849 3.94368 5.09392 3.91629C5.09392 3.88891 5.08023 3.85696 5.06197 3.81131C5.04371 3.76567 5.03458 3.73372 5.03002 3.70633L5.03458 3.71089Z" fill="#20345F"/>
<path d="M16.0258 14.1407C16.1034 13.9718 16.181 13.7983 16.2631 13.6203C16.2631 13.5701 16.2905 13.5199 16.327 13.4697C16.3635 13.4195 16.3864 13.3693 16.3909 13.3191C16.3909 13.3054 16.4046 13.2734 16.432 13.2141C16.4594 13.1593 16.4685 13.1228 16.4731 13.1091C16.5096 13.0178 16.5461 12.9356 16.5872 12.8626C16.6283 12.785 16.6648 12.7074 16.7013 12.6161C16.715 12.5887 16.7287 12.5614 16.7378 12.5203C16.747 12.4838 16.7606 12.4427 16.7789 12.4062C16.7789 12.356 16.7972 12.2875 16.8245 12.2053C16.8519 12.1232 16.8793 12.0638 16.9113 12.0273C16.9295 11.9908 16.9524 11.9223 16.9889 11.8174C17.0254 11.7306 17.0436 11.6439 17.0528 11.5617C17.0619 11.4796 17.0756 11.3837 17.0984 11.2833C17.0984 11.2422 17.1075 11.2057 17.1167 11.1692C17.1258 11.1327 17.1349 11.087 17.1395 11.0368C17.1304 10.9866 17.1304 10.9227 17.1441 10.8543C17.1578 10.7858 17.1532 10.7173 17.1304 10.6489C17.1212 10.6078 17.1121 10.5667 17.1121 10.5119C17.1121 10.4617 17.0893 10.4069 17.0528 10.3567L16.9797 10.2791L17.0026 9.86833C16.6192 9.73596 16.1673 9.79074 15.7565 9.90485C15.7473 9.90485 15.7336 9.91854 15.7291 9.91854C15.7108 9.91854 15.6834 9.93223 15.6606 9.94593C15.6195 9.95049 15.5739 9.96875 15.5191 10.0007C15.5054 10.0007 15.4552 10.0235 15.3685 10.06C15.3365 10.0737 15.154 10.1468 14.9303 10.2335C14.8938 10.2517 14.8481 10.2746 14.8208 10.2928L14.8116 10.2791C14.4328 10.4298 13.99 10.6032 13.9307 10.6352C13.8485 10.6671 11.7489 11.5115 10.7401 11.9223C10.302 14.4647 9.83182 17.1897 9.64011 18.3263H14.1543C14.1817 18.2669 14.2046 18.2076 14.2183 18.1437C14.2319 18.0752 14.2502 18.0204 14.2822 17.9839C14.3461 17.8835 14.3917 17.774 14.4237 17.6507C14.4556 17.5275 14.5012 17.4316 14.5606 17.3586C14.5606 17.3312 14.588 17.2673 14.6382 17.1669C14.6884 17.0665 14.7523 16.9524 14.8299 16.8291C14.8618 16.7652 14.8892 16.7013 14.9075 16.6374C14.9257 16.5735 14.944 16.5096 14.9623 16.4457C14.9805 16.3681 15.0216 16.2905 15.0718 16.2083C15.1266 16.1262 15.1722 16.0486 15.2042 15.971C15.2179 15.9436 15.2453 15.8797 15.2818 15.7793C15.3183 15.6789 15.3594 15.5693 15.4004 15.4552C15.4461 15.3411 15.4872 15.2407 15.5282 15.154C15.5693 15.0672 15.6058 15.017 15.6332 15.0033C15.6515 14.9257 15.6743 14.8664 15.6971 14.8253C15.72 14.7797 15.7519 14.7295 15.7839 14.6656C15.866 14.4876 15.9482 14.3141 16.0212 14.1452L16.0258 14.1407Z" fill="#20345F"/>
<path d="M3.16316 4.67856C3.17229 4.61009 3.17685 4.54619 3.18598 4.48229C3.19511 4.41382 3.19968 4.33166 3.20424 4.22668C3.19968 4.16277 3.19055 4.11257 3.18142 4.08061C3.17229 4.04866 3.1586 4.02128 3.14034 3.99845C2.97602 4.01671 2.82083 4.06236 2.67477 4.13539C2.66107 4.13539 2.62456 4.14908 2.56065 4.17647C2.50132 4.20385 2.43285 4.23124 2.35982 4.25863C2.28679 4.28602 2.21832 4.31797 2.15898 4.34079C2.09965 4.36817 2.06313 4.38187 2.04944 4.38187C1.89881 4.43664 1.76188 4.50511 1.63864 4.57814C1.51083 4.65117 1.37846 4.7242 1.2324 4.79267C1.25066 4.84288 1.26892 4.91134 1.28261 4.9935C1.2963 5.07566 1.30543 5.14869 1.31456 5.21716C1.31912 5.28106 1.32825 5.34497 1.33282 5.41343C1.33738 5.47734 1.35108 5.54124 1.3739 5.60514C1.38759 5.62796 1.40129 5.67817 1.40585 5.74664C1.41498 5.81967 1.42867 5.89726 1.45149 5.98399C1.47432 6.06158 1.48801 6.13462 1.50627 6.21221C1.51996 6.28981 1.52909 6.34002 1.52909 6.3674C1.54278 6.39022 1.57473 6.47695 1.61581 6.63214C1.65689 6.78277 1.67972 6.87406 1.68428 6.89688C1.72993 7.0612 1.75731 7.23008 1.77557 7.40353C1.78926 7.57698 1.80752 7.66371 1.82121 7.66371C1.83034 7.75499 1.83947 7.83715 1.85317 7.91475C1.86686 7.99235 1.88512 8.06081 1.90337 8.12471C1.92163 8.16123 1.93076 8.19318 1.93076 8.22057C1.93076 8.24795 1.93989 8.27078 1.95815 8.2936C1.98553 8.27991 2.04944 8.24795 2.15898 8.21144C2.26397 8.17036 2.37351 8.13384 2.48306 8.09276C2.59261 8.05168 2.68389 8.01973 2.75693 7.99235C2.82996 7.96496 2.88017 7.94214 2.90755 7.92388C3.0171 7.89649 3.1449 7.85085 3.29097 7.77782L3.18142 7.51764C3.14947 7.45831 3.11752 7.33963 3.09469 7.16618C3.07187 6.99273 3.05818 6.87406 3.04905 6.81015C3.04449 6.74625 3.03536 6.67778 3.02166 6.60932C3.00797 6.54085 3.00797 6.44956 3.02623 6.34458C3.04449 6.2396 3.05361 6.13462 3.04905 6.02963C3.04905 5.92465 3.04905 5.81967 3.07187 5.71469L3.13121 5.45451C3.13121 5.45451 3.13121 5.42713 3.13577 5.4043C3.14034 5.38148 3.14034 5.3541 3.13577 5.31758C3.13577 5.2126 3.13577 5.13044 3.13577 5.0711C3.13121 5.01176 3.13577 4.93873 3.15403 4.84288C3.15403 4.80636 3.15403 4.75159 3.1586 4.68769L3.16316 4.67856Z" fill="#20345F"/>
<path d="M18.2258 12.1734L18.1163 12.3514L18.0296 12.397L17.9885 12.6161L17.9291 12.6846L17.9063 12.7896L17.8789 12.8991L17.8196 13.0178L17.742 13.1456L17.7283 13.3054L17.7603 13.3464H17.8196L17.7968 13.3875L17.742 13.561H17.7192L17.669 13.8257L17.6462 13.8394L17.6096 13.885H17.564L17.4362 14.1817L17.4727 14.2091L17.3723 14.451L17.2856 14.41L17.2308 14.5241L17.2582 14.6245L17.1806 14.7158L17.1988 14.734L17.1212 14.944L17.1121 15.0398C17.1121 15.0901 17.0528 15.1448 16.9569 15.1996C16.8565 15.2544 16.8063 15.3137 16.7972 15.3776L16.8519 15.4552L16.788 15.7428L16.6648 15.9893C16.6648 16.0166 16.6465 16.0577 16.6146 16.1125C16.5826 16.1718 16.5598 16.2083 16.5461 16.2357L16.5187 16.2951L16.4183 16.2722L16.3909 16.3498L16.4913 16.3727V16.3909C16.4913 16.4137 16.4777 16.4457 16.464 16.4868C16.4457 16.5233 16.4274 16.5644 16.4137 16.6009L16.3133 16.8063L16.254 16.788L16.3133 16.5598H16.2723L16.1171 16.9569L16.0303 17.0482L16.0212 17.1623L15.9482 17.2947L15.9162 17.4453L15.793 17.6735L15.8295 17.7329L15.9345 17.6781H16.0577L16.0486 17.7785H16.0075C16.0075 17.7785 15.971 17.7876 15.9436 17.815C15.9117 17.8379 15.8934 17.8561 15.8797 17.8698L15.8432 18.0615L15.7884 18.235V18.2532C15.7884 18.2852 15.7793 18.3034 15.7747 18.3308H16.2859C17.4088 18.3308 18.3308 17.4088 18.3308 16.2859V12.114L18.3034 12.1871H18.2441L18.2258 12.1734ZM15.9938 18.0615L15.9527 18.0798L15.9619 17.9428L16.0258 17.9063L15.9938 18.0615ZM16.0532 17.6188H15.971L16.0212 17.4818L16.0805 17.5047L16.0486 17.6188H16.0532ZM16.1444 17.354C16.1353 17.3905 16.1171 17.4088 16.0897 17.4088C16.0897 17.3814 16.0988 17.3449 16.1079 17.2947C16.1171 17.2445 16.1399 17.2171 16.1673 17.2217L16.2038 17.2627C16.1764 17.2901 16.1536 17.3175 16.1444 17.3586V17.354ZM16.2768 17.1441H16.1947L16.1764 17.1212L16.2266 17.0436H16.2859L16.2768 17.1441ZM16.2905 16.9889H16.2494L16.2768 16.893L16.3179 16.9158L16.2905 16.9934V16.9889ZM16.9432 15.478L16.925 15.437V15.4187L16.9478 15.3822L16.9934 15.3457L17.0117 15.3867L16.9432 15.4826V15.478ZM16.9569 15.3228L16.9204 15.3L17.0071 15.227L17.0254 15.2681L16.9569 15.3228ZM17.0893 15.2316L17.0528 15.1905L17.1212 15.1174L17.1395 15.1585L17.0939 15.2361L17.0893 15.2316ZM17.3129 14.7614L17.2673 14.8162H17.2262L17.2353 14.7386L17.2993 14.6838H17.3403L17.3129 14.7614ZM17.3038 14.6062L17.2673 14.5286L17.2901 14.4921L17.3495 14.5149L17.2993 14.6108L17.3038 14.6062ZM17.8561 13.1639L17.8059 13.278L17.7648 13.2962L17.774 13.1821L17.8698 13.0315L17.9109 13.0132L17.8561 13.1639ZM18.2258 12.4427L18.1848 12.4609L18.1528 12.5933L18.1072 12.6663L18.0798 12.7439H18.0387L17.9337 12.7576L17.9611 12.7029L18.0478 12.6481L18.0661 12.4564L18.1117 12.4199H18.1574L18.2121 12.3286H18.2669L18.235 12.4427H18.2258Z" fill="#20345F"/>
<path d="M69.0601 16.0805H68.5808V18.2669H69.0601V16.0805Z" fill="#20345F"/>
<path d="M70.6211 17.0071L69.973 16.0851H69.512V18.2715H69.973V17.3951C69.973 17.2125 69.973 17.0071 69.9684 16.8519H69.973C70.0734 17.0026 70.1829 17.1623 70.2925 17.3175L70.6074 17.7694L70.9269 17.3221C71.0365 17.1669 71.146 17.0071 71.2464 16.8565H71.251C71.251 17.0163 71.2464 17.2217 71.2464 17.4042V18.2806H71.7257V16.0942H71.2738L70.6257 17.0163L70.6211 17.0071Z" fill="#20345F"/>
<path d="M73.2868 17.0117L72.6386 16.0897H72.1776V18.276H72.6386V17.3997C72.6386 17.2171 72.6386 17.0117 72.634 16.8565H72.6386C72.739 17.0071 72.8486 17.1669 72.9581 17.3221L73.2731 17.774L73.5926 17.3266C73.7021 17.1714 73.8117 17.0117 73.9121 16.8611H73.9166C73.9166 17.0208 73.9121 17.2262 73.9121 17.4088V18.2852H74.3913V16.0988H73.9395L73.2913 17.0208L73.2868 17.0117Z" fill="#20345F"/>
<path d="M76.2628 17.2125C76.2628 17.4407 76.2354 17.5914 76.1669 17.6964C76.0939 17.8059 75.9706 17.8789 75.7789 17.8789C75.5735 17.8789 75.4457 17.7922 75.3818 17.6872C75.3179 17.5822 75.2997 17.4407 75.2997 17.2125V16.0942H74.8204V17.2308C74.8204 17.5412 74.866 17.7785 74.9802 17.9565C75.1353 18.1848 75.4183 18.3126 75.7652 18.3126C76.1167 18.3126 76.3951 18.1848 76.5503 17.9611C76.6736 17.7876 76.7192 17.5457 76.7192 17.2171V16.0897H76.2582V17.2125H76.2628Z" fill="#20345F"/>
<path d="M78.6682 16.9021C78.6682 17.1121 78.6682 17.3266 78.6728 17.532H78.6682C78.5313 17.3449 78.3989 17.1623 78.2574 16.9706L77.6047 16.0897H77.1528V18.276H77.6138V17.4636C77.6138 17.2536 77.6138 17.0391 77.6093 16.8337H77.6138C77.7508 17.0208 77.8831 17.2034 78.0246 17.3951L78.6774 18.276H79.1292V16.0897H78.6682V16.9021Z" fill="#20345F"/>
<path d="M80.0604 17.3403H80.809V16.9432L80.0604 16.9387V16.5142H80.9276V16.0942H79.5811L79.5766 18.276H80.9596V17.8607L80.0604 17.8561V17.3403Z" fill="#20345F"/>
<path d="M83.5157 16.9387H82.5708V16.0942H82.0916V18.2806H82.5708V17.3586H83.5157V18.2806H83.9949V16.0942H83.5157V16.9387Z" fill="#20345F"/>
<path d="M85.4921 16.0623C84.8439 16.0623 84.351 16.5507 84.351 17.1851C84.351 17.8196 84.8394 18.3126 85.4921 18.3126C86.1402 18.3126 86.6332 17.8242 86.6332 17.1897C86.6332 16.5507 86.1402 16.0623 85.4921 16.0623ZM85.4875 17.8789C85.1087 17.8789 84.8257 17.5731 84.8257 17.1851C84.8257 16.7972 85.1087 16.4959 85.4875 16.4959C85.8664 16.4959 86.1494 16.8017 86.1494 17.1897C86.1494 17.5777 85.8664 17.8789 85.4875 17.8789Z" fill="#20345F"/>
<path d="M87.8473 16.9889C87.5826 16.9021 87.3818 16.8839 87.3818 16.6922C87.3818 16.5461 87.5004 16.4868 87.6648 16.4868C87.8336 16.4868 88.1029 16.5552 88.3357 16.6967V16.222C88.144 16.1171 87.8839 16.0669 87.6693 16.0623C87.2083 16.0623 86.9025 16.3133 86.9025 16.7241C86.9025 17.103 87.1718 17.2536 87.4731 17.354C87.7515 17.4453 87.9569 17.4636 87.9569 17.6644C87.9569 17.8287 87.8245 17.8972 87.6511 17.8972C87.4776 17.8972 87.1855 17.8287 86.9527 17.669V18.1528C87.1581 18.2578 87.4274 18.3126 87.6419 18.3126C88.1121 18.3126 88.4361 18.0569 88.4361 17.6325C88.4361 17.2445 88.1714 17.0939 87.8428 16.9843L87.8473 16.9889Z" fill="#20345F"/>
<path d="M90.0748 16.2175C89.9013 16.1262 89.6868 16.1034 89.4266 16.1034H88.7785V18.2897H89.2577V17.5092H89.4084C89.7279 17.5092 89.947 17.4727 90.1159 17.3723C90.2984 17.2627 90.4308 17.071 90.4308 16.8017C90.4308 16.505 90.2665 16.3179 90.0793 16.2175H90.0748ZM89.81 17.0619C89.7279 17.1075 89.6183 17.1167 89.4312 17.1167H89.2577V16.5233H89.4221C89.591 16.5233 89.7096 16.5279 89.7964 16.5689C89.8968 16.6146 89.9515 16.7013 89.9515 16.8245C89.9515 16.9341 89.9013 17.0163 89.8146 17.0619H89.81Z" fill="#20345F"/>
<path d="M91.2342 16.1034H90.7549V18.2897H91.2342V16.1034Z" fill="#20345F"/>
<path d="M93.4251 16.1034H91.5308V16.5233H92.2383L92.2338 18.2897H92.7176V16.5233H93.4251V16.1034Z" fill="#20345F"/>
<path d="M94.1417 16.1034L93.2516 18.2852H93.7446L93.9226 17.8287H94.8036L94.977 18.2897H95.4882L94.6027 16.1034H94.1371H94.1417ZM94.0732 17.4544L94.16 17.2217C94.2284 17.0391 94.3106 16.82 94.3654 16.6557H94.3699C94.4293 16.82 94.5069 17.0391 94.5708 17.2125L94.6621 17.459H94.0732V17.4544Z" fill="#20345F"/>
<path d="M96.2322 16.1079H95.753V18.2897L97.1908 18.2943V17.8744H96.2322V16.1079Z" fill="#20345F"/>
<path d="M98.8431 16.747C98.6103 16.747 98.4095 16.8382 98.268 16.9889C98.1082 17.1578 98.0215 17.3951 98.0215 17.6142C98.0215 18.0296 98.3182 18.2989 98.7198 18.2989C98.9526 18.2989 99.1535 18.2076 99.295 18.0569C99.4547 17.8881 99.5415 17.6507 99.5415 17.4316C99.5415 17.0163 99.2448 16.747 98.8431 16.747ZM99.1033 17.8972C99.012 17.9976 98.8842 18.0524 98.7427 18.0524C98.4551 18.0524 98.2953 17.8515 98.2953 17.5959C98.2953 17.4316 98.3593 17.2627 98.4642 17.1486C98.5555 17.0482 98.6833 16.9934 98.8248 16.9934C99.1124 16.9934 99.2721 17.1943 99.2721 17.4499C99.2721 17.6142 99.2082 17.7831 99.1033 17.8972Z" fill="#20345F"/>
<path d="M100.422 16.0395C100.336 16.1079 100.267 16.2312 100.235 16.4183L100.171 16.7789H99.9386L99.8975 17.0208H100.13L99.9112 18.2623H100.18L100.4 17.0208H100.769L100.81 16.7789H100.441L100.5 16.4594C100.523 16.3225 100.559 16.2677 100.6 16.2312C100.646 16.1901 100.705 16.1718 100.778 16.1718C100.847 16.1718 100.911 16.1855 100.975 16.2129L101.016 15.9664C100.943 15.9436 100.861 15.9254 100.783 15.9254C100.646 15.9254 100.518 15.9573 100.422 16.0395Z" fill="#20345F"/>
<path d="M103.668 16.1079H103.102L102.339 17.0756L102.33 17.071V16.1079H101.851V18.2943L102.33 18.2897V17.2034L102.339 17.1988L103.152 18.2897H103.741L102.846 17.1212L103.668 16.1079Z" fill="#20345F"/>
<path d="M104.905 16.0714C104.257 16.0714 103.764 16.5598 103.764 17.1988C103.764 17.8333 104.257 18.3217 104.905 18.3217C105.553 18.3217 106.046 17.8333 106.046 17.1943C106.046 16.5552 105.553 16.0714 104.905 16.0714ZM104.905 17.8881C104.526 17.8881 104.243 17.5822 104.243 17.1988C104.243 16.8109 104.526 16.5096 104.905 16.505C105.284 16.505 105.567 16.8109 105.567 17.1943C105.567 17.5822 105.284 17.8835 104.905 17.8881Z" fill="#20345F"/>
<path d="M108.027 16.7606C108.027 16.5096 107.922 16.3453 107.762 16.2494C107.589 16.1399 107.342 16.1034 107.082 16.1034H106.397V18.2897H106.877V17.4271H107.091L107.643 18.2897H108.196L107.579 17.3677C107.867 17.2719 108.022 17.0436 108.022 16.7652L108.027 16.7606ZM107.424 17.0117C107.351 17.0482 107.251 17.0619 107.123 17.0619H106.881V16.5187H107.064C107.228 16.5187 107.347 16.537 107.424 16.5735C107.511 16.6191 107.547 16.6831 107.547 16.788C107.547 16.893 107.506 16.966 107.424 17.0071V17.0117Z" fill="#20345F"/>
<path d="M108.899 17.8652V17.3495L109.647 17.3449V16.9478H108.899V16.5187H109.77L109.766 16.0988L108.419 16.1034V18.2852H109.802V17.8652H108.899Z" fill="#20345F"/>
<path d="M110.861 16.0988L109.976 18.2852H110.469L110.647 17.8242H111.528L111.701 18.2806H112.212L111.322 16.0942H110.857L110.861 16.0988ZM110.793 17.4499L110.88 17.2171C110.948 17.0345 111.026 16.8154 111.085 16.6511H111.089C111.149 16.8154 111.226 17.0345 111.29 17.208L111.382 17.4544H110.793V17.4499Z" fill="#20345F"/>
<path d="M113.992 16.0988V16.9113C113.992 17.1212 113.992 17.3358 114.002 17.5412H113.997C113.86 17.354 113.728 17.1714 113.586 16.9797L112.929 16.0988H112.477V18.2852H112.938V17.4727C112.938 17.2627 112.938 17.0482 112.934 16.8428H112.938C113.075 17.0299 113.207 17.2125 113.349 17.4042L114.006 18.2852H114.458V16.0988H113.992Z" fill="#20345F"/>
<path d="M117.283 16.0942L116.635 17.0163L115.987 16.0942H115.526V18.2806H115.987V17.4042C115.987 17.2217 115.987 17.0163 115.983 16.8611H115.987C116.092 17.0117 116.197 17.1714 116.307 17.3266L116.622 17.774L116.937 17.3221C117.046 17.1669 117.156 17.0071 117.256 16.8519H117.261C117.261 17.0117 117.256 17.2171 117.256 17.3997V18.276H117.735V16.0897H117.279L117.283 16.0942Z" fill="#20345F"/>
<path d="M118.671 17.8561V17.3403H119.42L119.415 16.9387H118.671V16.5142L119.538 16.5096V16.0897L118.187 16.0942L118.192 18.276H119.57V17.8561H118.671Z" fill="#20345F"/>
<path d="M121.464 16.3088C121.236 16.1536 120.935 16.0897 120.547 16.0897H119.935V18.276H120.529C120.985 18.276 121.3 18.1893 121.524 18.0067C121.757 17.815 121.884 17.5229 121.884 17.1806C121.884 16.8063 121.734 16.5005 121.464 16.3133V16.3088ZM121.195 17.6827C121.058 17.8013 120.862 17.8561 120.547 17.8561H120.415V16.5096H120.542C120.789 16.5096 120.994 16.5324 121.15 16.642C121.314 16.7561 121.405 16.9478 121.405 17.1806C121.405 17.3997 121.323 17.5731 121.195 17.6827Z" fill="#20345F"/>
<path d="M122.706 16.0897H122.227V18.276H122.706V16.0897Z" fill="#20345F"/>
<path d="M124.272 17.8744C123.82 17.8744 123.541 17.5686 123.541 17.176C123.541 16.7789 123.829 16.4868 124.253 16.4822C124.477 16.4822 124.696 16.5644 124.856 16.6739V16.1901C124.682 16.1079 124.468 16.0532 124.249 16.0532C123.546 16.0532 123.062 16.5507 123.062 17.1851C123.062 17.8196 123.55 18.308 124.253 18.308C124.472 18.308 124.705 18.2623 124.892 18.1619V17.6735C124.71 17.7968 124.5 17.8744 124.272 17.8744Z" fill="#20345F"/>
<path d="M125.737 16.0851H125.258V18.2715H125.737V16.0851Z" fill="#20345F"/>
<path d="M127.704 16.0851V16.8976C127.704 17.1075 127.704 17.3221 127.713 17.5275H127.709C127.572 17.3403 127.439 17.1578 127.298 16.966L126.641 16.0851H126.189V18.2715H126.65V17.459C126.65 17.249 126.65 17.0345 126.645 16.8291H126.65C126.787 17.0163 126.919 17.1988 127.06 17.3905L127.718 18.2715H128.17V16.0851H127.704Z" fill="#20345F"/>
<path d="M129.096 17.847V17.3312L129.845 17.3266V16.9295H129.096V16.5005H129.963V16.0805L128.617 16.0851V18.2669H130V17.847H129.096Z" fill="#20345F"/>
<path d="M44.3527 0.0136933H41.1302V2.36438H38.104L38.1268 1.31C38.1451 0.260173 37.4239 0.0136933 36.6069 0.0136933H26.7066V9.54882C26.7066 9.84551 26.9576 10.0874 27.268 10.0874H37.5791L37.7252 7.75956H41.1302V11.8584C41.1302 12.0091 41.2535 12.1277 41.4087 12.1277H44.6312V0.282996C44.6312 0.132369 44.5079 0.0136933 44.3527 0.0136933ZM34.5848 7.84172H30.7781C30.3992 7.75956 30.2075 7.57698 30.2075 7.20726V2.24114H34.1284C34.4342 2.3233 34.5848 2.46937 34.5848 2.76149V7.84172ZM41.1302 5.97942H37.8712L38.0127 4.14908H41.1302V5.97942Z" fill="#20345F"/>
<path d="M44.3619 15.939H31.7092C31.2665 15.939 31.0474 15.7382 31.0474 15.3731L31.0382 12.1323H27.5373V16.7424C27.5373 17.7968 28.0987 18.3263 29.2262 18.3263H44.6403V16.2129C44.6403 16.0623 44.5216 15.9436 44.3664 15.9436L44.3619 15.939Z" fill="#20345F"/>
<path d="M93.9728 0.716618C93.9865 0.333205 93.6442 0.0136933 93.2151 0.0136933H91.2844V2.23201H88.1212V0.0136933H85.4145V6.09354C85.4145 6.81472 86.0124 7.24834 86.729 7.24834H93.9728V0.716618ZM88.6461 5.64166C88.2992 5.64166 88.1258 5.49103 88.1258 5.18978V3.72915H91.2889V5.64166H88.6461Z" fill="#20345F"/>
<path d="M96.7069 9.29321C95.6936 8.71353 94.3152 8.42597 92.567 8.42597C90.8188 8.42597 89.4677 8.70896 88.4681 9.27496C87.4685 9.84095 86.9664 10.5758 86.9664 11.4796C86.9664 12.3833 87.4685 13.1182 88.4681 13.6796C89.4677 14.2411 90.8325 14.5195 92.567 14.5195C94.3015 14.5195 95.6936 14.2365 96.7069 13.666C97.6792 13.1137 98.1675 12.3833 98.1675 11.4796C98.1675 10.5758 97.6792 9.84551 96.7069 9.29321ZM94.6621 12.712C94.1235 13.0178 93.4205 13.173 92.5624 13.173C91.7043 13.173 91.0059 13.0178 90.4765 12.712C89.947 12.4016 89.6822 11.9908 89.6822 11.475C89.6822 10.9592 89.947 10.5439 90.4765 10.2335C91.0059 9.91854 91.7043 9.76335 92.5624 9.76335C93.4205 9.76335 94.1235 9.91854 94.6621 10.2335C95.2007 10.5484 95.4745 10.9592 95.4745 11.475C95.4745 11.9908 95.2052 12.4016 94.6621 12.712Z" fill="#20345F"/>
<path d="M95.6754 7.24834H98.1675V5.72838H100.002V4.42295H98.1675V0.209965C98.1675 0.100418 98.0717 0.0136933 97.9485 0.0136933H95.4563V7.05207C95.4563 7.16162 95.5521 7.24834 95.6754 7.24834Z" fill="#20345F"/>
<path d="M108.593 8.4214C106.858 8.4214 105.493 8.7044 104.494 9.27039C103.494 9.83638 102.992 10.5713 102.992 11.475C102.992 12.3788 103.494 13.1137 104.494 13.6751C105.493 14.2365 106.858 14.5149 108.593 14.5149C110.327 14.5149 111.719 14.2319 112.733 13.6614C113.705 13.1091 114.193 12.3788 114.193 11.475C114.193 10.5713 113.705 9.84095 112.733 9.28865C111.719 8.70896 110.341 8.4214 108.593 8.4214ZM110.688 12.712C110.149 13.0178 109.446 13.173 108.588 13.173C107.73 13.173 107.032 13.0178 106.502 12.712C105.973 12.4016 105.703 11.9908 105.703 11.475C105.703 10.9592 105.968 10.5439 106.502 10.2335C107.032 9.91854 107.73 9.76335 108.588 9.76335C109.446 9.76335 110.149 9.91854 110.688 10.2335C111.226 10.5484 111.5 10.9592 111.5 11.475C111.5 11.9908 111.231 12.4016 110.688 12.712Z" fill="#20345F"/>
<path d="M109.25 7.24834V5.72838H111.505V7.05663C111.505 7.16618 111.601 7.2529 111.724 7.2529H114.216V0.209965C114.216 0.100418 114.12 0.0136933 113.997 0.0136933H111.505V2.08139H109.25V0.716618C109.264 0.333205 108.921 0.0136933 108.492 0.0136933H106.562V2.23201H103.618V0.0136933H101.007V6.09354C101.007 6.81472 101.605 7.24834 102.317 7.24834H109.25ZM109.25 3.37313H111.505V4.42295H109.25V3.37313ZM103.622 3.72915H106.566V5.64166H104.142C103.796 5.64166 103.622 5.49103 103.622 5.18978V3.72915Z" fill="#20345F"/>
<path d="M62.0263 0.0136933V2.34156H58.1191L58.1876 1.22327C58.2469 0.241916 57.7631 0.0136933 56.7269 0.0136933H47.6893V1.97184H54.0157C54.3945 1.97184 54.5862 2.17724 54.5862 2.58804V4.14908H47.598V7.92388C47.598 9.526 48.3831 10.2609 49.7205 10.4754C50.5239 10.6032 51.2816 10.7356 52.377 10.7036C55.7958 10.6078 57.6261 9.29321 57.827 8.85046V7.86454C56.2888 8.58116 52.9521 8.45792 52.0393 8.26621C51.4687 8.14754 51.0762 7.83715 51.0762 7.44461V6.06615H57.827L57.9639 4.13082H62.0308V6.08441H57.8315V7.86911H62.0308V10.3567C62.0308 10.5074 62.1541 10.626 62.3093 10.626H65.5318V0.292125C65.5318 0.132369 65.4085 0.0136933 65.2533 0.0136933H62.0263Z" fill="#20345F"/>
<path d="M63.8383 12.1323H48.4288L48.4197 14.2456C48.4197 14.3963 48.5429 14.5149 48.6981 14.5149H61.3507C61.7935 14.5149 62.0126 14.6975 62.0126 15.0672L62.0217 18.3263H65.5226V13.7162C65.5226 12.6618 64.9612 12.1323 63.8338 12.1323H63.8383Z" fill="#20345F"/>
<path d="M119.885 10.2746H122.56V7.90106C126.029 7.90106 127.289 6.98817 127.289 6.98817V8.98283H124.573V10.2746H127.289V10.626C127.289 10.7356 127.385 10.8223 127.508 10.8223H130V0.209965C130 0.100418 129.904 0.0136933 129.781 0.0136933H127.289V5.37692C127.289 6.46326 125.655 6.4313 120.086 6.4313H116.307V7.91475H119.885V10.2746Z" fill="#20345F"/>
<path d="M117.831 5.01633C118.612 5.58232 119.693 5.86531 121.081 5.86531C122.469 5.86531 123.564 5.58232 124.331 5.01633C125.052 4.49142 125.413 3.79305 125.413 2.93037C125.413 2.06769 125.052 1.3739 124.331 0.844423C123.56 0.292125 122.478 0.0136933 121.081 0.0136933C119.684 0.0136933 118.612 0.292125 117.831 0.848987C117.096 1.37846 116.727 2.07226 116.727 2.93494C116.727 3.79762 117.096 4.49142 117.831 5.02089V5.01633ZM119.926 1.80752C120.214 1.52453 120.597 1.38759 121.081 1.38759C121.565 1.38759 121.948 1.52909 122.236 1.80752C122.519 2.09052 122.665 2.4648 122.665 2.93494C122.665 3.40508 122.523 3.77936 122.236 4.06236C121.948 4.34535 121.565 4.48685 121.081 4.48685C120.597 4.48685 120.214 4.34535 119.926 4.06236C119.643 3.77936 119.497 3.40508 119.497 2.93494C119.497 2.4648 119.639 2.09052 119.926 1.80752Z" fill="#20345F"/>
<path d="M129.79 12.1414H120.383C120.054 12.1414 119.885 12.0136 119.885 11.758V10.2791H117.165V12.7074C117.165 13.4469 117.585 13.8166 118.429 13.8166H129.995V12.3377C129.995 12.2327 129.9 12.1506 129.785 12.1506L129.79 12.1414Z" fill="#20345F"/>
<path d="M69.3202 5.34497C69.3202 6.34002 69.6717 7.14336 70.3701 7.75043C71.1141 8.40771 72.1456 8.73179 73.4648 8.73179C74.7839 8.73179 75.8291 8.40315 76.5595 7.75043C77.2487 7.14336 77.591 6.34002 77.591 5.34497C77.591 4.34992 77.2487 3.54657 76.5595 2.93494C76.3678 2.76605 76.1532 2.61999 75.9204 2.49675H78.335V0.899196H74.9619V0.0136933H72.0452V0.899196H68.5854V2.49675H71.0228C70.79 2.61999 70.5709 2.76605 70.3746 2.93494C69.6763 3.54657 69.3248 4.34535 69.3248 5.34497H69.3202ZM72.2871 4.01671C72.5793 3.68351 72.9718 3.51919 73.4648 3.51919C73.9577 3.51919 74.3503 3.68351 74.6424 4.01671C74.9345 4.34992 75.0806 4.79267 75.0806 5.34497C75.0806 5.89726 74.9345 6.34002 74.6424 6.67778C74.3503 7.01099 73.9577 7.17531 73.4648 7.17531C72.9718 7.17531 72.5793 7.01099 72.2871 6.67778C71.995 6.34458 71.8489 5.90183 71.8489 5.34497C71.8489 4.7881 71.995 4.34535 72.2871 4.01671Z" fill="#20345F"/>
<path d="M82.4522 0.209965C82.4522 0.100418 82.3563 0.0136933 82.2331 0.0136933H79.7226V9.43927C79.7226 9.54882 79.8185 9.63555 79.9417 9.63555H82.4522V5.72838H84.1091V4.42295H82.4522V0.209965Z" fill="#20345F"/>
<path d="M72.2598 11.7534L72.2506 9.64011H69.6215V12.6983C69.6215 13.4377 70.0414 13.8074 70.8858 13.8074H82.443L82.4522 12.3286C82.4522 12.2236 82.3563 12.1414 82.2422 12.1414H72.7527C72.4241 12.1414 72.2552 12.0136 72.2552 11.758L72.2598 11.7534Z" fill="#20345F"/>
</svg>
