<svg width="15" height="15" viewBox="0 0 15 15" fill="none" xmlns="http://www.w3.org/2000/svg">
<path d="M5.36484 2.07709C5.18437 1.64115 4.70859 1.40912 4.25391 1.53334L2.19141 2.09584C1.78359 2.20834 1.5 2.57865 1.5 3.00053C1.5 8.79897 6.20156 13.5005 12 13.5005C12.4219 13.5005 12.7922 13.2169 12.9047 12.8091L13.4672 10.7466C13.5914 10.2919 13.3594 9.81615 12.9234 9.63568L10.6734 8.69818C10.2914 8.53881 9.84844 8.64897 9.58828 8.97006L8.64141 10.1255C6.99141 9.34506 5.65547 8.00912 4.875 6.35912L6.03047 5.41459C6.35156 5.15209 6.46172 4.71147 6.30234 4.32943L5.36484 2.07943V2.07709Z" fill="#B97828"/>
</svg>
