<svg width="15" height="15" viewBox="0 0 15 15" fill="none" xmlns="http://www.w3.org/2000/svg">
<path d="M7.49518 1.125C3.76124 1.125 0.75 3.53397 0.75 6.45849C0.75 8.35677 2.00268 10.019 3.88169 10.9681L3.24572 13.3434C3.23373 13.379 3.23188 13.4172 3.24039 13.4538C3.2489 13.4904 3.26743 13.5239 3.2939 13.5505C3.33249 13.5846 3.38216 13.6034 3.43362 13.6035C3.47629 13.6001 3.51677 13.5833 3.54925 13.5554L6.28587 11.7101C6.68983 11.7659 7.09703 11.7948 7.50482 11.7968C11.2339 11.7968 14.25 9.38782 14.25 6.45849C14.25 3.52915 11.2243 1.125 7.49518 1.125Z" fill="#B97828"/>
<path d="M3.11054 5.61512H2.37339C2.28203 5.61777 2.19179 5.59437 2.11322 5.54766C2.07834 5.5258 2.04835 5.49696 2.02513 5.46297C2.00192 5.42897 1.98598 5.39055 1.97832 5.3501C1.97598 5.32446 1.97598 5.2987 1.97832 5.27306C1.97603 5.22508 1.98534 5.17722 2.00547 5.13361C2.0256 5.09 2.05595 5.0519 2.09395 5.02251C2.17794 4.96168 2.27933 4.92955 2.38303 4.93094H4.60412C4.69621 4.9277 4.78706 4.95295 4.86429 5.00322C4.9 5.02411 4.93062 5.05269 4.95395 5.08685C4.97728 5.12102 4.99273 5.15992 4.9992 5.20078C5.00155 5.22481 5.00155 5.24903 4.9992 5.27306C5.00147 5.32173 4.99217 5.37024 4.97207 5.41462C4.95198 5.45901 4.92164 5.49797 4.88356 5.52837C4.80161 5.58912 4.70121 5.61978 4.5993 5.61512H3.88624V8.14938C3.88914 8.20337 3.88078 8.25735 3.8617 8.30794C3.84263 8.35854 3.81325 8.40463 3.77543 8.44327C3.73916 8.48022 3.69556 8.50917 3.64743 8.52826C3.59931 8.54734 3.54771 8.55613 3.49598 8.55408C3.4055 8.55666 3.31693 8.52774 3.24545 8.47221C3.17739 8.41796 3.1312 8.34094 3.11536 8.25536C3.1106 8.22019 3.1106 8.18455 3.11536 8.14938L3.11054 5.61512Z" fill="white"/>
<path d="M5.21197 5.11915C5.23316 5.03987 5.28292 4.97121 5.35169 4.92642C5.42496 4.88489 5.50845 4.86486 5.59259 4.86861H5.77567C5.86495 4.86541 5.95336 4.8871 6.03102 4.93125C6.11332 4.98659 6.1718 5.07086 6.19484 5.16732L7.15843 7.8895C7.18342 7.96052 7.20433 8.03294 7.22107 8.10634C7.22271 8.13683 7.22271 8.16736 7.22107 8.19785C7.2227 8.24481 7.21405 8.29156 7.19575 8.33483C7.17744 8.3781 7.14991 8.41687 7.11507 8.4484C7.08131 8.483 7.04079 8.51027 6.99603 8.5285C6.95126 8.54674 6.90322 8.55554 6.8549 8.55438C6.78059 8.56177 6.70595 8.54395 6.64302 8.50374C6.58009 8.46354 6.53253 8.40331 6.508 8.33277L6.30565 7.74017H5.03852L4.83616 8.33277C4.81223 8.4047 4.76409 8.46609 4.69996 8.50651C4.63582 8.54692 4.55966 8.56383 4.48445 8.55438C4.40298 8.55652 4.32317 8.53104 4.258 8.4821C4.19451 8.4316 4.15167 8.35967 4.13755 8.27978C4.135 8.25254 4.135 8.2251 4.13755 8.19785C4.12928 8.15003 4.12928 8.10118 4.13755 8.05335C4.13755 8.00035 4.17128 7.94249 4.19055 7.8895L5.21197 5.11915ZM5.69376 5.75034L5.23605 7.19573H6.14665L5.69376 5.75034Z" fill="white"/>
<path d="M7.33135 5.27332C7.32646 5.1652 7.36456 5.05954 7.43734 4.97943C7.47434 4.94211 7.51876 4.91294 7.56773 4.89386C7.61669 4.87477 7.66911 4.86613 7.72161 4.86857C7.81186 4.86751 7.89994 4.89633 7.97214 4.95049C8.03906 5.00701 8.08351 5.08562 8.09741 5.1721C8.10216 5.20566 8.10216 5.23976 8.09741 5.27332V7.80758H9.42236C9.5142 7.80638 9.60447 7.83141 9.68253 7.87981C9.71761 7.90144 9.74775 7.93023 9.77099 7.96426C9.79423 7.9983 9.81005 8.03682 9.81743 8.07736C9.81743 8.07736 9.81743 8.12555 9.81743 8.14964C9.81972 8.19762 9.81041 8.24542 9.79028 8.28903C9.77015 8.33264 9.7398 8.3708 9.7018 8.40019C9.61781 8.46102 9.51642 8.4931 9.41272 8.4917H7.78424C7.68052 8.49838 7.57743 8.47138 7.49034 8.41466C7.41245 8.35641 7.36054 8.2699 7.34581 8.17376C7.34228 8.12082 7.34228 8.06766 7.34581 8.01473L7.33135 5.27332Z" fill="white"/>
<path d="M9.90436 5.27298C9.90148 5.16517 9.93933 5.06024 10.0104 4.97909C10.0826 4.91347 10.1752 4.87472 10.2726 4.86946C10.37 4.86419 10.4663 4.8927 10.5452 4.95015C10.6135 5.00617 10.6597 5.08474 10.6752 5.17176C10.6776 5.20544 10.6776 5.23929 10.6752 5.27298V6.45336L11.8942 5.04649C11.9412 4.99849 11.991 4.95348 12.0436 4.91163C12.093 4.88216 12.1498 4.8671 12.2074 4.86822C12.2916 4.86776 12.3739 4.89298 12.4434 4.9405C12.4762 4.96256 12.5042 4.99103 12.5257 5.02414C12.5472 5.05725 12.5619 5.09434 12.5687 5.13324C12.5707 5.14277 12.5707 5.15263 12.5687 5.16217C12.5664 5.17329 12.5664 5.18475 12.5687 5.19587C12.5685 5.24657 12.5553 5.29639 12.5302 5.34044C12.5046 5.38708 12.4739 5.43066 12.4386 5.47047L11.6388 6.34738L12.6024 7.84094V7.88911C12.6525 7.95815 12.6915 8.03459 12.7181 8.1156V8.13966C12.7236 8.19548 12.7156 8.25184 12.6946 8.30386C12.6736 8.35589 12.6404 8.40203 12.5976 8.43837C12.5172 8.49911 12.4189 8.53136 12.3182 8.52994C12.2512 8.5327 12.1848 8.5177 12.1255 8.48654C12.0613 8.4435 12.0084 8.38568 11.9713 8.31792L11.0751 6.87252L10.6463 7.32062V8.12519C10.6492 8.233 10.6114 8.33793 10.5403 8.41908C10.5023 8.45629 10.457 8.48536 10.4073 8.50442C10.3575 8.52347 10.3045 8.53217 10.2513 8.52994C10.1624 8.5318 10.0755 8.50284 10.0055 8.44801C9.93749 8.39377 9.8913 8.31681 9.87546 8.23123C9.8707 8.19606 9.8707 8.16036 9.87546 8.12519L9.90436 5.27298Z" fill="white"/>
</svg>
