<svg width="15" height="15" viewBox="0 0 15 15" fill="none" xmlns="http://www.w3.org/2000/svg">
<g clip-path="url(#clip0_16033_10323)">
<path d="M7.5 14.5C9.35652 14.5 11.137 13.7625 12.4497 12.4497C13.7625 11.137 14.5 9.35652 14.5 7.5C14.5 5.64348 13.7625 3.86301 12.4497 2.55025C11.137 1.2375 9.35652 0.5 7.5 0.5C5.64348 0.5 3.86301 1.2375 2.55025 2.55025C1.2375 3.86301 0.5 5.64348 0.5 7.5C0.5 9.35652 1.2375 11.137 2.55025 12.4497C3.86301 13.7625 5.64348 14.5 7.5 14.5ZM10.2836 4.31992L10.6773 4.71367C11.1039 5.14023 11.1039 5.83203 10.6773 6.26133L10.0922 6.84648L8.15078 4.90508L8.73594 4.31992C9.1625 3.89336 9.8543 3.89336 10.2836 4.31992ZM4.65352 8.40234L7.53008 5.52578L9.47148 7.46719L6.59492 10.341C6.48281 10.4531 6.34336 10.5324 6.1875 10.5707L4.54414 10.9809C4.39375 11.0191 4.23789 10.9754 4.12852 10.866C4.01914 10.7566 3.97539 10.6008 4.01367 10.4504L4.42383 8.80703C4.46211 8.65391 4.54141 8.51172 4.65352 8.39961V8.40234Z" fill="#B97828"/>
</g>
<defs>
<clipPath id="clip0_16033_10323">
<rect width="15" height="15" fill="white"/>
</clipPath>
</defs>
</svg>
