<svg width="48" height="48" viewBox="0 0 48 48" fill="none" xmlns="http://www.w3.org/2000/svg">
<g clip-path="url(#clip0_26322_11294)">
<path d="M10.7188 14.2752C10.5745 14.4608 12.2648 17.0169 12.6771 17.0169C12.9451 17.0169 13.5017 16.6253 13.8934 16.5222C16.3671 15.8419 18.882 15.5739 21.4176 15.4709C22.675 15.4296 27.1071 15.2647 28.0347 15.5533C28.2615 15.6152 29.1273 16.2954 29.2922 16.5222C30.8795 18.3569 29.622 20.6244 27.8904 21.7788C27.7461 21.8819 27.5812 21.7582 27.6637 22.1705C27.7667 22.2529 29.8694 21.82 30.3229 21.82C33.5181 21.82 35.8681 22.5003 38.5892 24.0258C40.8361 25.2832 45.2888 27.7157 47.1441 29.1999C48.4428 30.2513 48.2366 30.8491 47.7007 32.3333C46.9379 34.4565 44.2993 37.4662 41.8462 36.9096C40.6094 36.6417 37.4142 34.7451 36.1361 34.0237C34.2602 32.9723 32.24 31.8385 30.6321 30.4162C30.3641 30.3543 26.4886 31.7973 25.9939 32.0653C25.4992 32.3333 25.9527 33.0548 26.097 33.4258C26.7154 34.9925 27.7873 36.5386 28.447 38.1053C28.8387 38.4557 31.065 38.3732 31.6834 38.4557C33.5387 38.7031 33.9304 40.6202 34.0128 42.2075H46.9585C48.5871 42.5167 48.484 44.4132 46.9585 44.6193C44.8353 44.9079 41.6607 44.5575 39.3931 44.6193C28.0966 44.8255 15.8105 45.3821 4.57575 44.8049C3.95732 44.7636 2.69986 44.7224 2.1845 44.6193C0.947649 44.3926 0.968263 43.0527 1.87529 42.4342L7.09068 42.3312C7.66788 41.2798 7.87402 38.8061 9.25517 38.4969C9.8736 38.3526 11.028 38.6618 11.4609 38.2908L13.6048 33.5701C11.9556 33.096 10.4302 32.1271 9.23456 30.9109C4.74066 26.3758 -0.969472 12.3169 0.329223 6.02956C0.494136 5.18438 1.52485 3.78262 2.41126 3.65893C3.75118 3.45279 8.51306 3.24665 9.585 3.65893C11.9556 4.58657 13.2749 8.42081 13.2956 10.7502C13.3162 12.42 12.2855 13.7599 10.7188 14.2752ZM9.33763 11.884C11.4609 11.5336 10.3065 8.31774 9.62623 7.03966C9.0078 5.88526 8.67797 5.96772 7.44112 5.69974L9.31701 11.884H9.33763ZM31.2918 24.0464C27.9935 24.1701 25.0457 25.7367 21.8917 26.5613C20.6548 26.8911 17.4596 27.8806 16.4495 27.1385C15.8929 26.7262 14.8004 24.1907 14.2026 24.0876C12.8833 24.3762 11.2341 25.4275 9.95606 24.5411C8.67798 23.6547 8.40999 22.0262 8.94596 20.6656C9.2964 19.7999 10.5951 19.1402 10.3271 18.1713C10.1622 17.5941 9.02842 16.481 8.67797 15.8625C7.09068 13.1827 6.74024 10.977 5.64769 8.2559C5.02926 6.68922 4.51391 5.88526 2.65863 6.19448C2.80293 7.43133 2.69986 8.85371 2.82354 10.0493C3.44197 15.677 6.63717 23.6547 10.121 28.128C15.5219 35.0544 22.9636 30.3131 29.622 28.4372L30.0137 28.128C30.0343 26.5819 31.2918 25.4894 31.3124 24.0051L31.2918 24.0464ZM11.399 22.3354C14.6767 22.2117 17.7688 20.8099 20.964 20.3358C22.6956 20.0884 24.4478 20.0472 26.2 19.9029C26.9215 19.8205 27.9316 18.0683 26.9215 17.8827C26.0145 17.7178 23.6851 17.8415 22.6338 17.8827C20.3662 17.9652 17.6452 18.1507 15.4807 18.7898C13.6254 19.3463 11.7701 20.274 11.399 22.3354ZM27.1895 22.0056L17.068 23.6341L18.1399 24.7266C19.3767 24.2319 20.8404 24.1494 22.2009 23.8196C23.4584 23.4898 25.4373 22.9126 26.6123 22.4179C26.8185 22.3354 27.1277 22.3148 27.1689 22.0262L27.1895 22.0056ZM45.33 31.117L34.8992 24.8091C33.9304 24.4587 32.6935 26.4995 32.5286 27.2622C32.3019 28.3341 32.5904 28.6433 33.3532 29.2618C34.3839 30.107 40.9392 33.9 42.0318 34.1267C43.1243 34.3535 43.7015 33.9618 44.3818 33.1166C44.6498 32.7662 45.5362 31.4675 45.3094 31.0964L45.33 31.117ZM14.1407 38.4557H25.8084L23.2934 33.1166C20.9228 33.6114 18.6965 34.4978 16.2228 34.3535L14.1407 38.4351V38.4557ZM30.7558 40.7027H10.6363L10.2859 40.847L10.0385 42.2281C17.1298 42.0426 24.2417 42.7435 31.3124 42.2281L30.7764 40.7027H30.7558Z" fill="#B2C7DB"/>
</g>
<defs>
<clipPath id="clip0_26322_11294">
<rect width="48" height="48" fill="white"/>
</clipPath>
</defs>
</svg>
