<svg width="60" height="64" viewBox="0 0 60 64" fill="none" xmlns="http://www.w3.org/2000/svg">
<path d="M4.62744 48.2245V41.2969H56.3726V48.2245C56.3726 49.2585 58 49.2585 58 48.2245V26.6522C58 25.6182 56.3726 25.6182 56.3726 26.6522V39.6802H4.62744V16.7825C4.62744 15.7392 3 15.7392 3 16.7825V48.2245C3 49.2585 4.62744 49.2585 4.62744 48.2245Z" fill="#E6E6E6"/>
<path d="M11.9462 38.2984C15.2582 38.2984 17.7898 35.6195 17.8849 32.4236C17.7802 29.2277 15.2487 26.5582 11.9462 26.5582C8.64371 26.5582 6.00744 29.2371 6.00744 32.4236C6.00744 35.6101 8.71985 38.2984 11.9462 38.2984ZM11.7844 28.175C14.2494 28.081 16.1813 30.0455 16.2575 32.4236C16.1813 34.7454 14.354 36.6817 11.9462 36.6817C9.53833 36.6817 7.63488 34.7454 7.63488 32.4236C7.63488 30.1019 9.50026 28.2502 11.7844 28.175Z" fill="#E6E6E6"/>
<path d="M19.1698 38.2984H52.0327C52.4705 38.2984 52.8512 37.9319 52.8512 37.4901C52.8512 31.4649 47.8071 26.6522 41.7827 26.5582H32.4939C31.3613 26.5582 30.2288 26.53 29.1057 26.5582C26.3933 26.6522 23.7951 27.7144 21.8155 29.5473C19.6266 31.5871 18.3513 34.5104 18.3513 37.4901C18.3513 37.9225 18.7224 38.2984 19.1698 38.2984ZM24.7468 29.3969C26.6503 28.3254 28.6584 28.175 30.7808 28.175H41.7731C46.646 28.2502 50.7574 31.9348 51.1761 36.6911H20.0263C20.2928 33.6738 22.063 30.9103 24.7468 29.3969Z" fill="#E6E6E6"/>
</svg>
