<svg width="40" height="40" viewBox="0 0 40 40" fill="none" xmlns="http://www.w3.org/2000/svg">
<path d="M24.6911 28.9596L23.6911 28.7976C24.1164 26.1874 22.5392 24.8381 21.5392 24.4533C20.2962 23.9748 18.7291 23.9672 18.2532 24.7773C18.1747 24.9115 18.038 25.0026 17.8835 25.0229C16.6329 25.1925 16.3696 26.9495 16.3696 28.395H15.357C15.357 25.2811 16.481 24.3039 17.5139 24.0634C18.3823 22.9242 20.3342 22.9064 21.9013 23.509C23.6253 24.1723 25.1544 26.114 24.6886 28.9621L24.6911 28.9596Z" fill="#BDBDBD"/>
<path d="M3.35191 39.9975H2.33925V37.2203C2.33925 34.6026 3.54685 33.033 6.38229 31.9722C7.42026 31.5823 7.90887 31.3216 7.90887 30.5899V30.3773H8.92153V30.5899C8.92153 32.1013 7.65824 32.5747 6.73672 32.9216C4.30128 33.833 3.35191 35.038 3.35191 37.2203V39.9975Z" fill="#BDBDBD"/>
<path d="M15.876 33.6988C15.4203 33.3925 14.8684 33.1216 14.1823 32.8634C13.243 32.5115 11.957 32.0304 11.957 30.4937V30.3773H12.9696V30.4937C12.9696 31.2456 13.4709 31.5165 14.5367 31.914C15.2962 32.1975 15.919 32.5064 16.4405 32.8558L15.876 33.6963V33.6988Z" fill="#BDBDBD"/>
<path d="M10.5696 31.4608C8.63545 31.4608 6.38735 29.4836 6.38735 26.9342V25.1343C6.38735 24.557 6.49874 24.0203 6.71646 23.5368C7.16456 22.5494 7.9038 21.957 8.85824 21.8254C9.42026 21.7469 10.1165 21.8836 10.8532 22.0254C11.9848 22.2456 13.2658 22.4963 14.043 21.9469C14.3873 21.7039 14.6329 21.3115 14.7848 20.7545C14.2127 20.6608 13.7241 20.4456 13.2152 20.2203C12.6405 19.9672 12.0456 19.7039 11.2101 19.5418C9.06077 19.1267 8.3038 20.276 8.29621 20.2861C8.22279 20.4026 8.1038 20.4836 7.9671 20.5115C7.08608 20.6887 6.42026 21.1241 5.98229 21.8102C5.42026 22.6937 5.2633 23.9621 5.5671 25.2077L4.58229 25.4456C4.2152 23.9393 4.42026 22.3773 5.12912 21.2659C5.67849 20.4026 6.52406 19.8153 7.58229 19.5596C7.9595 19.1241 9.1114 18.1039 11.4025 18.5469C12.3519 18.7317 13.0279 19.0279 13.6228 19.2912C14.2532 19.5697 14.7544 19.7899 15.3949 19.7899C15.5418 19.7899 15.6836 19.8532 15.7798 19.9672C15.876 20.0786 15.919 20.2279 15.8962 20.3722C15.7266 21.4912 15.2987 22.2988 14.6253 22.7748C13.4962 23.5697 11.9899 23.276 10.6608 23.0178C10.0101 22.8912 9.39494 22.7697 9.00001 22.8254C8.40001 22.9089 7.94431 23.2861 7.64304 23.952C7.48355 24.3039 7.40254 24.6988 7.40254 25.1317V26.9317C7.40254 28.8229 9.14431 30.4456 10.5722 30.4456C12 30.4456 13.7317 28.8254 13.7317 26.9317V24.0456H14.7443V26.9317C14.7443 29.4811 12.5013 31.4583 10.5722 31.4583L10.5696 31.4608Z" fill="#BDBDBD"/>
<path d="M10.3494 34.3646C8.94179 34.3646 7.68356 33.4659 7.21774 32.1292L8.1747 31.795C8.49875 32.7267 9.3747 33.352 10.3494 33.352C11.3241 33.352 12.2 32.7267 12.5241 31.795L13.481 32.1292C13.0152 33.4659 11.757 34.3646 10.3494 34.3646Z" fill="#BDBDBD"/>
<path d="M13.4785 39.9976V39.0938C13.4785 36.2685 15.3215 35.2178 17.1241 34.5621C17.7215 34.3444 18.4355 33.9242 18.4355 33.1495H19.4481C19.4481 34.2102 18.7468 35.0507 17.4709 35.514C15.3013 36.3039 14.4937 37.2735 14.4937 39.0938V39.9976H13.4785Z" fill="#BDBDBD"/>
<path d="M27.1494 39.9975H26.1367V39.1469C26.1367 37.2811 25.3089 36.2887 23.0861 35.4785C22.2962 35.1925 21.1063 34.7596 21.0734 33.4153V33.357C21.0734 33.0785 21.3013 32.8507 21.5798 32.8507C21.8582 32.8507 22.0861 33.0785 22.0861 33.357C22.0861 33.9342 22.438 34.1672 23.4329 34.5266C25.2709 35.195 27.1494 36.2659 27.1494 39.1469V39.9975Z" fill="#BDBDBD"/>
<path d="M20.3165 34.0304C18.676 34.0304 16.7696 32.3797 16.7696 30.2532V28.3772C16.7696 27.2051 17.5823 25.9494 18.7949 25.9494C18.8911 25.9494 18.9823 25.9772 19.0633 26.0278C19.0911 26.0456 21.838 27.7418 24.043 27.438L24.1823 28.4405C21.9038 28.7544 19.319 27.3519 18.676 26.9722C18.1646 27.0709 17.7848 27.7696 17.7848 28.3772V30.2532C17.7848 31.7418 19.1798 33.0177 20.319 33.0177C21.4582 33.0177 22.8481 31.7418 22.8481 30.2532V29.1114H23.8608V30.2532C23.8608 32.3797 21.957 34.0304 20.319 34.0304H20.3165Z" fill="#BDBDBD"/>
<path d="M20.0658 36.7722C18.8886 36.7722 17.838 36 17.4506 34.8532L18.4101 34.5291C18.6582 35.2659 19.324 35.7595 20.0658 35.7595C20.8076 35.7595 21.4734 35.2659 21.7215 34.5291L22.681 34.8532C22.2937 36.0026 21.243 36.7722 20.0658 36.7722Z" fill="#BDBDBD"/>
<path d="M38.7949 39.9975H37.7823V36.6988C37.7823 34.0937 36.0329 33.2456 34.3949 32.6532C33.4734 32.3216 32.2127 31.8659 32.2127 30.3798V30.1241H33.2253V30.3798C33.2253 31.038 33.6228 31.2963 34.7393 31.6988C36.0557 32.1747 38.7949 33.1621 38.7949 36.6963V39.9975Z" fill="#BDBDBD"/>
<path d="M25.4962 33.6937L24.8684 32.8988C25.5848 32.3317 26.3975 31.9975 27.1696 31.719C28.276 31.3216 28.6684 31.0634 28.6684 30.4152V29.6178H29.681V30.4152C29.681 31.8912 28.4279 32.3418 27.5139 32.6735C26.8228 32.9241 26.0987 33.2203 25.4987 33.6963L25.4962 33.6937Z" fill="#BDBDBD"/>
<path d="M31.0658 31.0532C29.4152 31.0532 27.4 29.119 27.4 26.8608V25.5342C27.4 25.3215 27.5317 25.1317 27.7317 25.0582C27.7494 25.0506 29.6911 24.3266 30.6532 22.9519C30.7443 22.8203 30.8937 22.7393 31.0557 22.7367C31.2152 22.7317 31.3696 22.8051 31.4684 22.9317C32.443 24.1848 34.4582 25.0608 34.4785 25.0684C34.6709 25.1519 34.7924 25.3443 34.7848 25.5544L34.7317 26.8709C34.7241 29.1241 32.7139 31.0506 31.0658 31.0506V31.0532ZM28.4152 25.876V26.8633C28.4152 28.4709 29.9342 30.0431 31.0684 30.0431C32.2025 30.0431 33.7215 28.4709 33.7215 26.8633C33.7215 26.8557 33.7215 26.8506 33.7215 26.8431L33.762 25.8557C33.1924 25.5798 31.9873 24.9317 31.0911 24.0304C30.1975 25.0152 28.9949 25.6228 28.4177 25.8785L28.4152 25.876Z" fill="#BDBDBD"/>
<path d="M30.7949 35.0507C29.2101 35.0507 27.7924 34.0482 27.2658 32.5545L28.2203 32.2178C28.6051 33.3064 29.638 34.038 30.7949 34.038C31.9519 34.038 32.9848 33.3064 33.3696 32.2178L34.3241 32.5545C33.7975 34.0482 32.3797 35.0507 30.7949 35.0507Z" fill="#BDBDBD"/>
<path d="M36.9114 31.4658C36.762 30.9063 36.3114 30.4279 35.7392 30.2203C35.5747 30.1595 35.4506 30.0177 35.4152 29.8456C35.3797 29.6734 35.4354 29.4962 35.5646 29.3747C35.9316 29.0304 36.1013 28.5392 36.0127 28.0911L35.9468 27.7671C35.8658 27.3595 35.7671 26.8532 35.6759 26.5165C35.4835 25.7874 35.5519 25.3342 35.6203 24.8962C35.6734 24.5443 35.7291 24.1823 35.6506 23.5823C35.5975 23.1671 35.3266 21.7443 34.119 20.8506C33.319 20.2582 32.281 20.043 31.038 20.2101C30.9772 20.2354 30.9089 20.2506 30.8405 20.2506H30.7342C30.6633 20.2506 30.5975 20.2354 30.5367 20.2101C29.2937 20.043 28.2557 20.2557 27.4557 20.8506C26.2481 21.7443 25.9797 23.1671 25.924 23.5823C25.8456 24.1772 25.9291 24.5873 26.0177 25.0203C26.1215 25.5342 26.2278 26.0658 26.0354 26.8L25.0557 26.5418C25.1899 26.0355 25.1165 25.676 25.0253 25.2203C24.9291 24.7468 24.8228 24.2127 24.9215 23.4506C24.9873 22.9367 25.3266 21.1671 26.8532 20.0355C27.9013 19.2608 29.2228 18.9874 30.7873 19.2228C32.3519 18.9874 33.6759 19.2608 34.7215 20.0355C36.2506 21.1671 36.5873 22.9367 36.6532 23.4506C36.7494 24.1924 36.6759 24.6658 36.6177 25.0481C36.557 25.4456 36.5139 25.7317 36.6532 26.2557C36.7494 26.6228 36.8532 27.1468 36.9367 27.5696L37 27.8911C37.1165 28.4608 37 29.0658 36.6886 29.5747C37.2709 29.9595 37.7089 30.5443 37.8861 31.2051L36.9089 31.4658H36.9114Z" fill="#BDBDBD"/>
<path d="M38.8683 27.2609L37.8709 27.0887C37.9392 26.6988 38.0051 26.2507 38.0658 25.79L39.0709 25.9216C39.0076 26.395 38.9392 26.8583 38.8683 27.2609ZM39.2228 24.5773L38.2152 24.4837C38.2633 23.9773 38.2911 23.5419 38.2962 23.19L39.3088 23.2102C39.3013 23.5875 39.2734 24.0457 39.2228 24.5773ZM38.2658 21.9014C38.2405 21.471 38.1975 21.0381 38.1392 20.6128L39.1418 20.4786C39.2025 20.9292 39.2456 21.3849 39.2734 21.8406L38.2633 21.9039L38.2658 21.9014ZM37.9215 19.3343C37.8354 18.914 37.7316 18.4887 37.6126 18.0761L38.5873 17.8001C38.7114 18.2381 38.8202 18.6837 38.9139 19.1292L37.9215 19.3343ZM37.2177 16.8431C37.0709 16.4381 36.9088 16.0356 36.7316 15.6431L37.6557 15.2305C37.8405 15.6457 38.0126 16.071 38.1671 16.4988L37.2152 16.8431H37.2177ZM36.162 14.4811C35.9595 14.1014 35.7392 13.7267 35.5114 13.3621L36.3671 12.8204C36.6101 13.2052 36.8405 13.6026 37.0557 14.0026L36.162 14.4811ZM34.7797 12.2912C34.524 11.9444 34.2532 11.6026 33.9747 11.2761L34.7468 10.6204C35.0405 10.9672 35.3266 11.3267 35.5949 11.6912L34.7797 12.2912ZM33.1013 10.3191C32.8 10.0128 32.4835 9.7115 32.162 9.42796L32.8329 8.66846C33.1721 8.96973 33.5063 9.28618 33.8253 9.61024L33.1038 10.3191H33.1013ZM31.1595 8.60517C30.8177 8.34441 30.4607 8.09125 30.1013 7.8558L30.6582 7.01024C31.038 7.25834 31.4126 7.52669 31.7747 7.80011L31.1595 8.60517Z" fill="#BDBDBD"/>
<path d="M3.05316 31.6684C2.8481 31.2634 2.6557 30.8456 2.48101 30.4254L3.41519 30.033C3.58228 30.4304 3.76456 30.8254 3.95696 31.2102L3.05316 31.6684ZM1.99747 29.1469C1.85316 28.7165 1.72152 28.276 1.60759 27.8355L2.58734 27.5823C2.69367 27.9975 2.81772 28.4153 2.95696 28.8228L1.99747 29.1469ZM1.31392 26.4988C1.23291 26.0532 1.16709 25.5975 1.11646 25.1444L2.12405 25.033C2.17215 25.4608 2.23291 25.8912 2.31139 26.314L1.31646 26.4963L1.31392 26.4988ZM1.01519 23.7823C1.00506 23.5342 1 23.2836 1 23.033C1 22.8254 1.00253 22.6203 1.01013 22.4153L2.02278 22.4482C2.01772 22.6431 2.01266 22.838 2.01266 23.033C2.01266 23.271 2.01772 23.5089 2.02532 23.7444L1.01266 23.7823H1.01519ZM2.10886 21.1545L1.10127 21.0507C1.14684 20.5975 1.21013 20.1418 1.28861 19.6963L2.28608 19.871C2.21266 20.2937 2.1519 20.7266 2.10886 21.1545ZM2.55696 18.6026L1.57468 18.357C1.68608 17.9165 1.81266 17.4735 1.95443 17.0431L2.91646 17.3596C2.78228 17.7672 2.66076 18.1874 2.55696 18.6051V18.6026ZM3.36709 16.1444L2.43038 15.7596C2.60253 15.3393 2.79241 14.9191 2.99494 14.514L3.90127 14.9646C3.70886 15.3494 3.52911 15.7469 3.36709 16.1444ZM4.51899 13.8254L3.6481 13.3115C3.87848 12.9216 4.12658 12.5317 4.38481 12.1596L5.21772 12.7342C4.97215 13.0887 4.73924 13.4558 4.51899 13.8254ZM5.98987 11.6937L5.2 11.0608C5.48354 10.7064 5.78481 10.357 6.09367 10.0254L6.83797 10.714C6.54684 11.0304 6.26076 11.3596 5.9924 11.6963L5.98987 11.6937ZM7.74937 9.79247L7.0557 9.05323C7.38734 8.74184 7.73418 8.44057 8.08608 8.15449L8.72405 8.9393C8.38987 9.21019 8.06076 9.49627 7.74684 9.79247H7.74937ZM9.75949 8.15956L9.17975 7.32918C9.5519 7.06842 9.93671 6.81779 10.3266 6.58487L10.8481 7.45323C10.4785 7.67348 10.1139 7.91146 9.76203 8.15703L9.75949 8.15956Z" fill="#BDBDBD"/>
<path d="M20.6785 18.9848H20.6481C20.5721 18.9848 20.4962 18.9671 20.4253 18.9342C14.5519 16.0633 11.5772 10.2304 13.0202 4.42025C13.0607 4.25316 13.1848 4.11899 13.3468 4.06329C16.5215 2.96962 18.9595 1.58481 20.2101 0.16962C20.3063 0.0607595 20.4455 0 20.5898 0H20.7341C20.8784 0 21.0177 0.0632911 21.1139 0.16962C22.3671 1.58481 24.805 2.96962 27.9772 4.06329C28.1392 4.11899 28.2633 4.25316 28.3038 4.42025C29.7493 10.2304 26.7721 16.0633 20.8987 18.9342C20.8303 18.9671 20.7544 18.9848 20.6759 18.9848H20.6785ZM13.9392 4.92658C12.7822 10.1063 15.4531 15.2759 20.6607 17.919C25.8683 15.2734 28.5392 10.1063 27.3822 4.92658C25.1898 4.14937 22.3873 2.90127 20.6607 1.16456C18.9341 2.90127 16.1316 4.14937 13.9392 4.92658Z" fill="#BDBDBD"/>
<path d="M20.3215 12.8C20.1747 12.8 20.038 12.7367 19.9393 12.6279L17.6076 9.9646L18.3696 9.29877L20.2861 11.4886L23.5747 7.00257L24.3924 7.60257L20.7291 12.5975C20.638 12.7216 20.4962 12.7975 20.3418 12.8051C20.3342 12.8051 20.3266 12.8051 20.319 12.8051L20.3215 12.8Z" fill="#BDBDBD"/>
</svg>
