<svg width="100" height="100" viewBox="0 0 100 100" fill="none" xmlns="http://www.w3.org/2000/svg">
<g clip-path="url(#clip0_26194_953)">
<path d="M37.3005 37.521L33.2816 36.4542C32.5326 36.2547 31.7617 36.6949 31.5602 37.4386L30.8594 40.0256L13.9166 35.5304L14.6175 32.9434C14.819 32.2018 14.3744 31.4385 13.6232 31.239L9.60429 30.1722C8.85527 29.9727 8.08435 30.4129 7.88286 31.1566L4.85612 42.348C4.65463 43.0896 5.09922 43.8529 5.85043 44.0524L9.8693 45.1193C10.6183 45.3188 11.3892 44.8786 11.5907 44.1348L12.2916 41.5479L29.2343 46.0431L28.5335 48.63C28.332 49.3716 28.7766 50.1349 29.5278 50.3344L33.5466 51.4013C34.2957 51.6008 35.0666 51.1606 35.2681 50.4168L38.297 39.2255C38.4985 38.4838 38.0539 37.7205 37.3027 37.521H37.3005Z" fill="#ECD5BC"/>
<path d="M96.1448 42.3481L93.1158 31.1567C92.9143 30.4151 92.1456 29.9749 91.3944 30.1723L87.3755 31.2391C86.6265 31.4386 86.1819 32.1998 86.3812 32.9435L87.0821 35.5305L70.1393 40.0257L69.4385 37.4387C69.237 36.6971 68.4682 36.2569 67.717 36.4543L63.6982 37.5211C62.9492 37.7206 62.5046 38.4818 62.7039 39.2255L65.7328 50.4169C65.9343 51.1585 66.703 51.5987 67.4542 51.4014L71.4731 50.3345C72.2221 50.135 72.6667 49.3739 72.4674 48.6301L71.7666 46.0432L88.7093 41.548L89.4101 44.1349C89.6116 44.8765 90.3804 45.3167 91.1316 45.1194L95.1504 44.0525C95.8995 43.853 96.3441 43.0919 96.1448 42.3481Z" fill="#ECD5BC"/>
<path d="M48.8315 15.1362C51.2238 15.1362 54.3354 15.6999 57.0317 16.8696C59.7083 18.0308 62.0771 19.8357 62.8188 22.3823C63.1861 23.4776 63.2381 25.0179 63.1733 26.4819C63.1136 27.8322 62.9495 29.1665 62.811 30.1226L63.0474 30.2808L63.0493 30.2827C63.808 30.7996 63.8937 31.732 63.812 32.5278C63.7276 33.349 63.4461 34.2235 63.2495 34.8374L63.2485 34.8384C63.1997 34.9901 63.1609 35.1065 63.1353 35.1978L63.1362 35.1987C62.9739 35.7972 62.7719 36.3232 62.5239 36.7915C62.5014 37.494 62.2506 38.1483 61.7739 38.5249C60.9837 41.2784 59.5221 43.8989 57.6099 45.9858V51.8228C63.8666 52.3915 69.5727 53.7093 73.9702 55.604L72.8833 49.772V49.771C72.772 49.1754 72.7354 48.5658 72.7749 47.9585L72.939 45.3696L71.6411 39.8159C71.3192 38.4346 72.1518 37.0697 73.5269 36.7085L81.9194 34.4966C82.1422 34.4371 82.369 34.4097 82.5942 34.4097C83.6749 34.4097 84.6534 35.0792 85.0435 36.0718L85.1138 36.2739L85.1147 36.2798L86.4819 41.0991C87.2152 43.5526 86.8638 46.2172 85.5103 48.4038L85.5073 48.4087L85.4702 48.4673L85.4429 48.5103L85.4048 48.5464L84.271 49.6265L92.5288 74.5425C93.6449 77.3047 93.3066 80.4252 91.6235 82.8999C89.9463 85.3635 87.2752 86.7798 84.3071 86.7798H84.1997C84.0542 86.7798 83.9106 86.7725 83.7808 86.7661C81.0632 86.6324 78.4368 85.3489 76.5708 83.2554V83.2544L70.9058 77.0522L70.2905 91.731L70.2739 92.1362H30.6997V91.7329L30.6675 91.2124L30.6665 91.2036L30.0698 77.0454L24.4009 83.2544L24.4019 83.2554C22.5402 85.3446 19.9162 86.6285 17.1987 86.7622C17.0607 86.7689 16.9225 86.7736 16.7866 86.7759H16.6724C13.7022 86.7759 11.0303 85.3596 9.35303 82.896C7.67111 80.4253 7.33186 77.3049 8.44482 74.5464L16.7046 49.6245L15.5718 48.5435L15.5347 48.5083L15.5073 48.4644L15.4692 48.4058L15.4663 48.4009C14.1155 46.2125 13.7611 43.5484 14.4966 41.0884L15.8618 36.2847L15.8638 36.2788C16.196 35.1704 17.231 34.4069 18.3843 34.4067C18.6094 34.4067 18.8364 34.4352 19.0591 34.4946L27.4526 36.7065H27.4517C28.8271 37.0676 29.6595 38.4346 29.3374 39.814L28.0396 45.3706L28.2046 47.9565L28.2192 48.4116C28.2197 48.8677 28.1769 49.3234 28.0952 49.769V49.77L27.0063 55.603C31.4041 53.7094 37.1114 52.3897 43.3696 51.8208V46.0171C41.4652 43.9628 40.0011 41.3528 39.1919 38.5776C38.6507 38.198 38.3647 37.4612 38.3647 36.686V36.6577C38.162 36.2453 37.982 35.7611 37.8296 35.2192L37.6997 34.8325C37.515 34.2904 37.2643 33.5592 37.1753 32.8442C37.0873 32.1366 37.1439 31.3368 37.6948 30.7485L37.7065 30.7368L37.7319 30.7104L37.7407 30.7026C37.9318 30.5238 38.1257 30.402 38.311 30.3218C37.9119 28.2224 37.5577 25.7826 37.9263 23.6011C38.1833 22.0822 38.7767 20.7935 39.7114 19.7603C40.6 18.778 41.7798 18.045 43.2261 17.5552C43.4762 16.7684 44.1196 16.1783 45.0034 15.7856C45.974 15.3545 47.2787 15.1362 48.8315 15.1362Z" fill="url(#paint0_linear_26194_953)" stroke="#FBF7F1" stroke-width="0.846154"/>
<path d="M20.0057 35.3048L18.4595 41.1488" stroke="#FBF7F1" stroke-width="0.991634" stroke-miterlimit="10"/>
<path d="M23.1131 36.1223L21.5757 41.8882" stroke="#FBF7F1" stroke-width="0.991634" stroke-miterlimit="10"/>
<path d="M26.1907 36.9333L24.6904 42.6277" stroke="#FBF7F1" stroke-width="0.991634" stroke-miterlimit="10"/>
<path d="M80.9829 35.088L82.5423 40.932" stroke="#FBF7F1" stroke-width="0.991634" stroke-miterlimit="10"/>
<path d="M77.8857 35.9012L79.4276 41.6715" stroke="#FBF7F1" stroke-width="0.991634" stroke-miterlimit="10"/>
<path d="M74.7915 36.7186L76.3114 42.4108" stroke="#FBF7F1" stroke-width="0.991634" stroke-miterlimit="10"/>
<path d="M27.9592 49.9561L22.52 77.1343" stroke="#FBF7F1" stroke-width="0.846154" stroke-miterlimit="10"/>
<path d="M73.0425 50.2577L78.7798 77.1343" stroke="#FBF7F1" stroke-width="0.846154" stroke-miterlimit="10"/>
<path d="M70.1729 18.0975C70.1729 19.4158 70.4825 20.6639 71.0342 21.7715C71.1222 21.9492 71.1307 22.2141 71.03 22.6261C70.9767 22.8343 70.9146 23.0401 70.8439 23.243L70.8185 23.3158C70.7559 23.5019 70.6882 23.705 70.6374 23.8937C70.3142 25.1012 71.4192 26.2062 72.6259 25.883C72.8154 25.8322 73.0176 25.7645 73.2046 25.7019L73.2774 25.6765C73.4803 25.6058 73.6861 25.5437 73.8942 25.4904C74.3063 25.3888 74.5712 25.3973 74.7489 25.4862C75.89 26.0547 77.1479 26.3497 78.4229 26.3475C82.9794 26.3475 86.6729 22.6541 86.6729 18.0975C86.6729 13.541 82.9794 9.84753 78.4229 9.84753C73.8663 9.84753 70.1729 13.541 70.1729 18.0975ZM78.4229 15.3475C78.5912 15.3475 78.7526 15.4144 78.8716 15.5334C78.9906 15.6524 79.0575 15.8138 79.0575 15.9821V17.4629H80.5382C80.7065 17.4629 80.868 17.5298 80.987 17.6488C81.106 17.7678 81.1729 17.9292 81.1729 18.0975C81.1729 18.2658 81.106 18.4273 80.987 18.5463C80.868 18.6653 80.7065 18.7321 80.5382 18.7321H79.0575V20.2129C79.0575 20.3812 78.9906 20.5426 78.8716 20.6617C78.7526 20.7807 78.5912 20.8475 78.4229 20.8475C78.2545 20.8475 78.0931 20.7807 77.9741 20.6617C77.8551 20.5426 77.7882 20.3812 77.7882 20.2129V18.7321H76.3075C76.1392 18.7321 75.9777 18.6653 75.8587 18.5463C75.7397 18.4273 75.6729 18.2658 75.6729 18.0975C75.6729 17.9292 75.7397 17.7678 75.8587 17.6488C75.9777 17.5298 76.1392 17.4629 76.3075 17.4629H77.7882V15.9821C77.7882 15.8138 77.8551 15.6524 77.9741 15.5334C78.0931 15.4144 78.2545 15.3475 78.4229 15.3475Z" fill="#BA653C"/>
</g>
<defs>
<linearGradient id="paint0_linear_26194_953" x1="50.4885" y1="15.5591" x2="50.4885" y2="88.5707" gradientUnits="userSpaceOnUse">
<stop offset="0.322115" stop-color="#BA653C"/>
<stop offset="1" stop-color="#BA653C" stop-opacity="0"/>
</linearGradient>
<clipPath id="clip0_26194_953">
<rect width="98" height="84" fill="white" transform="translate(1 8)"/>
</clipPath>
</defs>
</svg>
