<svg width="85" height="85" viewBox="0 0 85 85" fill="none" xmlns="http://www.w3.org/2000/svg">
<g opacity="0.05">
<path d="M42.1319 82.9927C19.4547 82.9927 1 64.5988 1 41.9964C1 19.3939 19.4547 1 42.1319 1C50.6276 1 58.7884 3.56137 65.719 8.40837C66.5416 8.98159 66.7382 10.1135 66.1631 10.9335C65.8209 11.4196 65.2676 11.7026 64.6707 11.7026C64.2921 11.7026 63.9354 11.5865 63.6296 11.3761C57.3106 6.96443 49.8778 4.628 42.1319 4.628C21.4567 4.628 4.63999 21.3893 4.63999 41.9964C4.63999 62.6034 21.4567 79.3647 42.1319 79.3647C62.807 79.3647 79.6237 62.6034 79.6237 41.9964C79.6237 35.8868 78.1095 29.8281 75.2558 24.4731C75.0301 24.045 74.9791 23.5516 75.1247 23.0945C75.2703 22.6301 75.5834 22.2528 76.0129 22.0206C76.275 21.8828 76.5661 21.8102 76.8646 21.8102C77.5417 21.8102 78.1532 22.1803 78.4735 22.7752C81.6112 28.6526 83.271 35.2991 83.271 42.0036C83.271 64.6061 64.8163 83 42.1391 83L42.1319 82.9927Z" fill="url(#paint0_linear_26203_1942)"/>
<path d="M70.5238 19.5826C70.1015 19.5826 69.6866 19.4375 69.3663 19.169C68.995 18.8643 68.762 18.4289 68.7111 17.9427C68.6674 17.4566 68.813 16.9922 69.1187 16.6149L77.862 6.05743C78.2114 5.63658 78.721 5.39713 79.267 5.39713C79.6893 5.39713 80.1042 5.54225 80.4245 5.81798C80.7958 6.12273 81.0288 6.55809 81.0725 7.04424C81.1161 7.53039 80.9705 7.99478 80.6648 8.37209L71.9215 18.9296C71.5721 19.3504 71.0625 19.5899 70.5165 19.5899L70.5238 19.5826Z" fill="url(#paint1_linear_26203_1942)"/>
<path d="M33.1338 63.9675C32.5077 63.9675 31.9909 63.8079 31.605 63.4959C30.5203 62.6179 29.6103 60.1799 34.2695 49.2741C37.5164 41.6553 41.7533 34.3848 45.8883 29.3129C50.3582 23.8274 54.4423 20.301 58.0241 18.828C59.3854 18.2693 60.7104 17.9863 61.9698 17.9863C62.6104 17.9863 63.2438 18.0588 63.8553 18.204L68.8275 6.10822C69.1115 5.42616 69.7666 4.98355 70.5165 4.98355C70.7567 4.98355 70.9824 5.02708 71.2081 5.12141C71.6594 5.30281 72.0089 5.6511 72.1982 6.10097C72.3874 6.55084 72.3874 7.04425 72.1982 7.48686L67.1313 19.8148C67.1313 19.8148 67.1823 19.8511 67.2041 19.8728C67.5317 20.1413 67.8447 20.4316 68.1432 20.7726L82.4775 14.8444C82.6959 14.7501 82.9361 14.7066 83.1764 14.7066C83.9116 14.7066 84.5741 15.1492 84.858 15.824C85.0473 16.2739 85.0473 16.7673 84.858 17.2099C84.6688 17.6598 84.3193 18.0081 83.8752 18.1895L69.9632 23.9435C70.3782 25.3511 70.4218 26.9184 70.1015 28.6091C69.3808 32.4039 66.7455 37.1058 62.2756 42.5914C58.1405 47.6633 51.8579 53.2722 45.0366 57.9958C39.3145 61.9576 35.3105 63.9675 33.1411 63.9675H33.1338ZM54.3695 25.5615C52.6005 27.1361 50.6931 29.1605 48.7057 31.5985C40.8724 41.1982 35.3324 55.3837 34.4297 60.0203C38.8049 58.1918 51.6031 49.8909 59.4364 40.2912C59.582 40.1098 59.7276 39.9284 59.8732 39.747L57.5873 37.4686C57.2451 37.1276 57.0558 36.6705 57.0558 36.1843C57.0558 35.6982 57.2451 35.2483 57.5873 34.9C57.9294 34.5517 58.3881 34.3703 58.8758 34.3703C59.3636 34.3703 59.8149 34.559 60.1644 34.9L62.0936 36.8229C64.5687 33.3327 66.0611 30.336 66.5198 27.9197C66.9639 25.5906 66.447 23.9217 64.9109 22.6664C64.0155 21.9408 63.0618 21.5925 61.9916 21.5925C61.2127 21.5925 60.3464 21.7884 59.4218 22.1657C58.7448 22.4415 58.024 22.8333 57.2815 23.3122L58.7156 24.7416C59.0578 25.0827 59.2471 25.5398 59.2471 26.0259C59.2471 26.5121 59.0578 26.962 58.7156 27.3102C58.3735 27.6585 57.9149 27.8399 57.4271 27.8399C56.9393 27.8399 56.488 27.6513 56.1385 27.3102L54.3768 25.5543L54.3695 25.5615Z" fill="url(#paint2_linear_26203_1942)"/>
<path d="M49.4118 43.8104C48.9241 43.8104 48.4727 43.6217 48.1233 43.2807L45.9393 41.1039C45.2331 40.4001 45.2331 39.2463 45.9393 38.5353C46.2815 38.1942 46.7401 38.0056 47.2278 38.0056C47.7156 38.0056 48.167 38.1942 48.5164 38.5353L50.7004 40.7121C51.4065 41.4159 51.4065 42.5696 50.7004 43.2807C50.3582 43.6217 49.8996 43.8104 49.4118 43.8104Z" fill="url(#paint3_linear_26203_1942)"/>
<path d="M27.3317 58.6634C24.6308 58.6634 22.0391 57.8144 19.8479 56.2181C17.1033 54.2155 15.2979 51.2695 14.7737 47.9173C13.689 41.0023 18.4574 34.4937 25.3952 33.4125C25.4898 33.398 25.5845 33.3908 25.6718 33.3908C26.065 33.3908 26.4362 33.5141 26.7493 33.739C27.1424 34.0293 27.3972 34.4429 27.4773 34.9218L30.8406 56.4285C30.9935 57.4154 30.3165 58.3441 29.3264 58.5038C28.6639 58.6053 27.9942 58.6561 27.339 58.6561L27.3317 58.6634ZM24.1794 37.4614C20.1536 38.9416 17.6857 43.063 18.3627 47.3586C19.0398 51.6541 22.5997 54.8177 26.9313 55.0209L24.1794 37.4614Z" fill="url(#paint4_linear_26203_1942)"/>
<path d="M21.7479 48.8896C20.7651 48.8896 19.9498 48.0914 19.9279 47.1118C19.9061 46.1105 20.7069 45.2833 21.7115 45.2616L22.4395 45.2471C23.466 45.2471 24.2741 46.0307 24.2959 47.0248C24.3178 48.0261 23.517 48.8533 22.5123 48.8751L21.7771 48.8896H21.7479Z" fill="url(#paint5_linear_26203_1942)"/>
<path d="M23.3932 53.5624C22.9054 53.5624 22.4468 53.3738 22.1046 53.0327C21.3985 52.3289 21.3985 51.1752 22.1046 50.4641L22.6215 49.9489C22.9637 49.6079 23.4223 49.4193 23.9101 49.4193C24.3978 49.4193 24.8565 49.6079 25.1986 49.9489C25.9048 50.6528 25.9048 51.8065 25.1986 52.5176L24.6818 53.0327C24.3396 53.3738 23.881 53.5624 23.3932 53.5624Z" fill="url(#paint6_linear_26203_1942)"/>
<path d="M22.5051 44.1151C22.2503 44.1151 22.0027 44.0643 21.7771 43.9628L20.8379 43.5492C20.3939 43.3532 20.0517 42.9977 19.8697 42.5478C19.6877 42.098 19.7023 41.6046 19.8988 41.1619C20.19 40.5016 20.8452 40.0735 21.5659 40.0735C21.8207 40.0735 22.061 40.1243 22.2939 40.2259L23.233 40.6395C23.6771 40.8354 24.0193 41.191 24.2013 41.6408C24.3833 42.0907 24.3687 42.5841 24.1722 43.0267C23.881 43.687 23.2258 44.1151 22.5051 44.1151Z" fill="url(#paint7_linear_26203_1942)"/>
<path d="M35.6017 43.8394C35.5362 43.8394 35.478 43.8394 35.4124 43.8321C34.4224 43.7378 33.6944 42.8453 33.789 41.8512C33.8181 41.5683 34.5024 34.842 36.3297 30.7713C36.5845 30.1981 37.1087 29.8063 37.7275 29.7192C38.8704 29.5523 39.5911 28.8703 39.6567 27.9052C39.7003 27.2159 40.1444 26.6064 40.7851 26.3452C41.5422 26.0332 42.0081 25.264 41.9062 24.4659C41.8479 23.987 41.6077 23.5516 41.2219 23.2541C40.8943 23.0002 40.5084 22.8696 40.108 22.8696C40.0352 22.8696 39.9624 22.8696 39.8823 22.8841C39.7586 22.8986 39.613 22.9421 39.431 23.0147C39.2126 23.1018 38.9869 23.1453 38.754 23.1453C38.4773 23.1453 38.2007 23.08 37.9532 22.9639C37.4872 22.739 37.1451 22.3254 37.0068 21.832C36.6282 20.5041 35.3906 19.5681 34.0001 19.5681C33.8473 19.5681 33.6944 19.5826 33.5488 19.6044C32.7189 19.7277 31.9909 20.1631 31.4958 20.8306C31.0008 21.4982 30.7897 22.3254 30.9134 23.1453L30.9498 23.3194C31.0517 23.8128 30.9498 24.328 30.6659 24.7344C30.382 25.1407 29.9306 25.4164 29.4429 25.489C28.8386 25.5761 28.3072 25.8953 27.9505 26.3815C27.5938 26.8604 27.4409 27.4554 27.5282 28.0503C27.6666 28.9864 28.2271 29.9877 29.3846 29.9877C29.4865 29.9877 29.5957 29.9804 29.7122 29.9659C29.7996 29.9514 29.8869 29.9442 29.9816 29.9442C30.3747 29.9442 30.7678 30.0748 31.0809 30.3142C31.4667 30.6045 31.7215 31.0543 31.7797 31.5332L32.7407 39.4568C32.8645 40.4508 32.151 41.3578 31.1537 41.4739C31.0809 41.4812 31.0081 41.4884 30.9353 41.4884C30.0107 41.4884 29.2317 40.7991 29.1225 39.8921L28.3509 33.5141C26.0577 33.0715 24.3105 31.1559 23.9246 28.58C23.6917 27.0273 24.0848 25.4745 25.0239 24.2119C25.6063 23.4283 26.3707 22.8043 27.2443 22.3979C27.2953 21.0483 27.7539 19.7713 28.5693 18.6683C29.6467 17.2171 31.2265 16.2739 33.0101 16.0127C33.3377 15.9619 33.6725 15.9401 34.0001 15.9401C36.3807 15.9401 38.6156 17.2244 39.8241 19.2488C39.9187 19.2488 40.0207 19.2416 40.1153 19.2416C42.8671 19.2416 45.1895 21.3023 45.5243 24.0305C45.7718 26.0767 44.8327 28.0721 43.1147 29.204C42.6269 31.0108 41.2219 32.4475 39.3291 33.0642C37.9823 36.685 37.4217 42.156 37.4217 42.214C37.3271 43.1501 36.5481 43.8539 35.609 43.8539L35.6017 43.8394Z" fill="url(#paint8_linear_26203_1942)"/>
<path d="M47.5918 67.0295C48.798 67.0295 49.7758 66.055 49.7758 64.8528C49.7758 63.6505 48.798 62.676 47.5918 62.676C46.3857 62.676 45.4078 63.6505 45.4078 64.8528C45.4078 66.055 46.3857 67.0295 47.5918 67.0295Z" fill="url(#paint9_linear_26203_1942)"/>
<path d="M52.6878 59.7736C53.894 59.7736 54.8718 58.799 54.8718 57.5968C54.8718 56.3945 53.894 55.42 52.6878 55.42C51.4816 55.42 50.5038 56.3945 50.5038 57.5968C50.5038 58.799 51.4816 59.7736 52.6878 59.7736Z" fill="url(#paint10_linear_26203_1942)"/>
<path d="M59.9678 63.4016C61.174 63.4016 62.1518 62.427 62.1518 61.2248C62.1518 60.0225 61.174 59.048 59.9678 59.048C58.7616 59.048 57.7838 60.0225 57.7838 61.2248C57.7838 62.427 58.7616 63.4016 59.9678 63.4016Z" fill="url(#paint11_linear_26203_1942)"/>
<path d="M58.5118 58.3224C59.718 58.3224 60.6958 57.3478 60.6958 56.1456C60.6958 54.9433 59.718 53.9688 58.5118 53.9688C57.3056 53.9688 56.3278 54.9433 56.3278 56.1456C56.3278 57.3478 57.3056 58.3224 58.5118 58.3224Z" fill="url(#paint12_linear_26203_1942)"/>
<path d="M62.8798 53.9688C64.086 53.9688 65.0638 52.9942 65.0638 51.792C65.0638 50.5897 64.086 49.6152 62.8798 49.6152C61.6736 49.6152 60.6958 50.5897 60.6958 51.792C60.6958 52.9942 61.6736 53.9688 62.8798 53.9688Z" fill="url(#paint13_linear_26203_1942)"/>
<path d="M53.4158 64.8528C54.622 64.8528 55.5998 63.8782 55.5998 62.676C55.5998 61.4737 54.622 60.4992 53.4158 60.4992C52.2096 60.4992 51.2318 61.4737 51.2318 62.676C51.2318 63.8782 52.2096 64.8528 53.4158 64.8528Z" fill="url(#paint14_linear_26203_1942)"/>
</g>
<defs>
<linearGradient id="paint0_linear_26203_1942" x1="43" y1="-21.9659" x2="43" y2="83" gradientUnits="userSpaceOnUse">
<stop/>
<stop offset="1" stop-opacity="0.3"/>
</linearGradient>
<linearGradient id="paint1_linear_26203_1942" x1="43" y1="-21.9659" x2="43" y2="83" gradientUnits="userSpaceOnUse">
<stop/>
<stop offset="1" stop-opacity="0.3"/>
</linearGradient>
<linearGradient id="paint2_linear_26203_1942" x1="43" y1="-21.9659" x2="43" y2="83" gradientUnits="userSpaceOnUse">
<stop/>
<stop offset="1" stop-opacity="0.3"/>
</linearGradient>
<linearGradient id="paint3_linear_26203_1942" x1="43" y1="-21.9659" x2="43" y2="83" gradientUnits="userSpaceOnUse">
<stop/>
<stop offset="1" stop-opacity="0.3"/>
</linearGradient>
<linearGradient id="paint4_linear_26203_1942" x1="43" y1="-21.9659" x2="43" y2="83" gradientUnits="userSpaceOnUse">
<stop/>
<stop offset="1" stop-opacity="0.3"/>
</linearGradient>
<linearGradient id="paint5_linear_26203_1942" x1="43" y1="-21.9659" x2="43" y2="83" gradientUnits="userSpaceOnUse">
<stop/>
<stop offset="1" stop-opacity="0.3"/>
</linearGradient>
<linearGradient id="paint6_linear_26203_1942" x1="43" y1="-21.9659" x2="43" y2="83" gradientUnits="userSpaceOnUse">
<stop/>
<stop offset="1" stop-opacity="0.3"/>
</linearGradient>
<linearGradient id="paint7_linear_26203_1942" x1="43" y1="-21.9659" x2="43" y2="83" gradientUnits="userSpaceOnUse">
<stop/>
<stop offset="1" stop-opacity="0.3"/>
</linearGradient>
<linearGradient id="paint8_linear_26203_1942" x1="43" y1="-21.9659" x2="43" y2="83" gradientUnits="userSpaceOnUse">
<stop/>
<stop offset="1" stop-opacity="0.3"/>
</linearGradient>
<linearGradient id="paint9_linear_26203_1942" x1="43" y1="-21.9659" x2="43" y2="83" gradientUnits="userSpaceOnUse">
<stop/>
<stop offset="1" stop-opacity="0.3"/>
</linearGradient>
<linearGradient id="paint10_linear_26203_1942" x1="43" y1="-21.9659" x2="43" y2="83" gradientUnits="userSpaceOnUse">
<stop/>
<stop offset="1" stop-opacity="0.3"/>
</linearGradient>
<linearGradient id="paint11_linear_26203_1942" x1="43" y1="-21.9659" x2="43" y2="83" gradientUnits="userSpaceOnUse">
<stop/>
<stop offset="1" stop-opacity="0.3"/>
</linearGradient>
<linearGradient id="paint12_linear_26203_1942" x1="43" y1="-21.9659" x2="43" y2="83" gradientUnits="userSpaceOnUse">
<stop/>
<stop offset="1" stop-opacity="0.3"/>
</linearGradient>
<linearGradient id="paint13_linear_26203_1942" x1="43" y1="-21.9659" x2="43" y2="83" gradientUnits="userSpaceOnUse">
<stop/>
<stop offset="1" stop-opacity="0.3"/>
</linearGradient>
<linearGradient id="paint14_linear_26203_1942" x1="43" y1="-21.9659" x2="43" y2="83" gradientUnits="userSpaceOnUse">
<stop/>
<stop offset="1" stop-opacity="0.3"/>
</linearGradient>
</defs>
</svg>
