<svg width="41" height="40" viewBox="0 0 41 40" fill="none" xmlns="http://www.w3.org/2000/svg">
<path d="M15.5108 18.9279C14.1218 18.9279 12.7743 18.6148 11.5218 17.9946C7.07572 15.7971 5.25337 10.404 7.46156 5.97964C8.99305 2.90797 12.0857 1 15.5345 1C16.9414 1 18.2888 1.31307 19.5354 1.93331C21.6902 2.99658 23.2929 4.83367 24.0646 7.10788C24.8303 9.38209 24.6641 11.8099 23.5956 13.9482C23.4413 14.2613 23.2573 14.5744 23.0317 14.9111L24.2011 17.3389C24.3139 17.5811 24.2842 17.8587 24.118 18.0713C23.9874 18.2367 23.7856 18.3372 23.5719 18.3372C23.5244 18.3372 23.4769 18.3372 23.4294 18.3194L20.1646 17.6342C18.7518 18.4789 17.1432 18.922 15.5108 18.922V18.9279ZM15.5345 2.38815C12.62 2.38815 10.0081 4.00078 8.71406 6.58806C6.85015 10.3272 8.38758 14.8875 12.1451 16.7482C13.172 17.2562 14.3295 17.522 15.4989 17.522C16.9889 17.522 18.4254 17.1026 19.6541 16.3111C19.7788 16.2402 19.9094 16.2047 20.034 16.2047C20.0815 16.2047 20.129 16.2047 20.1765 16.2165L22.3313 16.6655L21.5952 15.1474C21.4824 14.917 21.5062 14.6453 21.6605 14.4385C21.9454 14.0546 22.171 13.6883 22.3491 13.328C23.2513 11.5204 23.3938 9.46479 22.7408 7.545C22.0938 5.62521 20.7345 4.07166 18.9181 3.17379C17.8614 2.64806 16.7217 2.38225 15.5345 2.38225V2.38815Z" fill="#BDBDBD"/>
<path d="M37.8599 39C37.474 39 37.1653 38.6869 37.1653 38.3089V35.1013H3.91776V38.3089C3.91776 38.6928 3.60316 39 3.22325 39H0.694513C0.308672 39 0 38.6869 0 38.3089V31.2145C0 31.2145 0 31.1614 0 31.1377V22.7911H28.7303V21.3616C28.7303 19.6249 30.149 18.2131 31.8942 18.2131H33.1229C34.8681 18.2131 36.2868 19.6249 36.2868 21.3616V30.5175H37.1713V14.2022C37.1713 13.8183 37.4859 13.5111 37.8658 13.5111H40.3055C40.6913 13.5111 41 13.8242 41 14.2022V38.303C41 38.6869 40.6854 38.9941 40.3055 38.9941H37.8658L37.8599 39ZM39.605 37.6118V14.8993H38.5603V37.6118H39.605ZM2.5228 37.6118V35.0954H1.39496V37.6118H2.5228ZM37.1653 33.7073V31.9056H1.39496V33.7073H37.1653ZM34.8859 30.5175V21.3616C34.8859 20.3928 34.0964 19.6013 33.117 19.6013H31.8882C30.9147 19.6013 30.1193 20.3869 30.1193 21.3616V24.4332L32.8439 30.0213L32.9567 30.2635L33.0873 30.5175H34.8859ZM31.5439 30.5175L28.3444 24.1733H1.39496V30.5175H31.5439Z" fill="#BDBDBD"/>
<path d="M32.4996 18.4789C30.422 18.4789 28.7303 16.7954 28.7303 14.7221C28.7303 12.6487 30.422 10.9711 32.4996 10.9711C34.5772 10.9711 36.2809 12.6546 36.2809 14.7221C36.2809 16.7895 34.5832 18.4789 32.4996 18.4789ZM32.4996 12.3533C31.1878 12.3533 30.1252 13.4166 30.1252 14.7161C30.1252 16.0157 31.1937 17.0849 32.4996 17.0849C33.8056 17.0849 34.8859 16.0216 34.8859 14.7161C34.8859 13.4107 33.8174 12.3533 32.4996 12.3533Z" fill="#BDBDBD"/>
<path d="M13.4035 14.4444V12.0816H11.0291V7.84035H13.4035V5.47754H17.6656V7.84035H20.04V12.0816H17.6656V14.4444H13.4035ZM16.2706 13.0563V10.6935H18.645V9.22851H16.2706V6.86569H14.7985V9.22851H12.4241V10.6935H14.7985V13.0563H16.2706Z" fill="#BDBDBD"/>
</svg>
