<svg width="85" height="84" viewBox="0 0 85 84" fill="none" xmlns="http://www.w3.org/2000/svg">
<rect width="85" height="84" fill="white"/>
<path opacity="0.05" d="M76.8673 49.8936C76.7639 47.0708 76.6606 44.1544 76.8363 41.477C76.8741 40.9124 76.6778 40.3548 76.299 39.9391C75.9202 39.52 75.3863 39.2776 74.8215 39.2637C74.0501 39.2464 73.2683 39.191 72.4865 39.1044V13.7437C72.4865 12.5972 71.5601 11.6655 70.4201 11.6655H58.931V10.2593C58.931 9.11282 58.0045 8.1811 56.8646 8.1811H48.6024C48.6024 8.09451 48.6093 8.00445 48.6093 7.91094C48.6093 3.55022 45.0792 0 40.7433 0C36.4073 0 32.8772 3.55022 32.8772 7.91094C32.8772 8.00099 32.8772 8.09104 32.8841 8.1811H24.6254C23.4854 8.1811 22.559 9.11282 22.559 10.2593V11.6655H11.0664C9.92643 11.6655 9 12.5972 9 13.7437V81.9218C9 83.0683 9.92643 84 11.0664 84H56.0415C56.7406 84 57.4983 83.8199 60.8768 81.5027C62.4335 80.4359 64.2106 79.1301 64.8408 78.5933C67.534 76.2934 70.1136 73.5017 72.0973 70.7412C74.9283 66.8135 76.5194 63.0727 76.8294 59.6299C77.1083 56.4676 76.9878 53.1252 76.8707 49.8936H76.8673ZM26.6918 12.3375H34.9436C36.0835 12.3375 37.01 11.4057 37.01 10.2593V9.02276C37.0547 8.80109 37.0685 8.57249 37.0375 8.34389C37.0169 8.17763 37.01 8.04255 37.01 7.9144C37.01 5.84315 38.6837 4.15982 40.7433 4.15982C42.8028 4.15982 44.4765 5.84315 44.4765 7.9144C44.4765 8.03909 44.4662 8.1811 44.4455 8.37506C44.4214 8.58981 44.4318 8.80109 44.4765 9.00891V10.2627C44.4765 11.4092 45.403 12.3409 46.5429 12.3409H54.7982V16.8194H26.6918V12.3375ZM48.6162 79.8436H13.1328V15.8219H22.559V18.8941C22.559 20.0406 23.4854 20.9723 24.6254 20.9723H56.8646C58.0045 20.9723 58.931 20.0406 58.931 18.8941V15.8219H68.3537V38.3597C68.3262 38.3528 68.3021 38.3459 68.2745 38.3389C67.8543 38.2316 67.4342 38.1173 67.014 37.9926C66.9279 37.9683 66.8384 37.9406 66.7523 37.9129C66.3218 37.7813 65.8878 37.6428 65.4573 37.4904C65.4298 37.48 65.4057 37.4696 65.3781 37.4626C64.9579 37.3137 64.5378 37.1578 64.1176 36.9916C64.0418 36.9604 63.9626 36.9327 63.8869 36.9015C63.4598 36.7318 63.0327 36.5482 62.6057 36.3612C62.5196 36.3231 62.4369 36.285 62.3508 36.2469C61.91 36.046 61.4657 35.8417 61.0215 35.62C61.0077 35.6131 60.9939 35.6061 60.9801 35.5992C60.5427 35.3845 60.1054 35.1524 59.668 34.9169C59.5853 34.8718 59.5027 34.8303 59.4235 34.7853C58.9895 34.5497 58.5521 34.3003 58.1147 34.044C58.0286 33.9955 57.9425 33.9436 57.8564 33.8916C57.4018 33.6215 56.9438 33.3444 56.4857 33.0534C55.7935 32.6136 54.9084 32.6274 54.2299 33.0915C48.3235 37.1059 42.4997 39.1806 36.9204 39.2603C36.3625 39.2672 35.8321 39.5027 35.4498 39.9114C35.0676 40.3201 34.8644 40.8639 34.8885 41.425C34.9918 43.8565 34.9229 46.2741 34.8575 48.6086C34.6612 55.6121 34.458 62.8511 39.0832 69.8857C39.1211 69.9446 39.1728 70.0173 39.2245 70.0901C39.2348 70.1039 39.2451 70.1178 39.2554 70.1351C39.3106 70.2113 39.3691 70.2909 39.438 70.381C39.4518 70.3983 39.4655 70.4156 39.4759 70.433C39.5447 70.5195 39.6136 70.6131 39.6928 70.71C39.6997 70.7204 39.7066 70.7274 39.7135 70.7378C39.7962 70.8417 39.8891 70.956 39.9856 71.0737C40.0062 71.098 40.0235 71.1188 40.0441 71.143C40.1406 71.2608 40.2439 71.382 40.3506 71.5101C40.3679 71.5309 40.3851 71.5517 40.4023 71.569C40.5022 71.6868 40.6089 71.8115 40.7191 71.9396C40.7364 71.9604 40.757 71.9812 40.7742 72.0054C40.8913 72.144 41.0153 72.2825 41.1428 72.428C41.1703 72.4592 41.2013 72.4938 41.2289 72.5284C41.3597 72.6774 41.494 72.8263 41.6318 72.9822C41.649 72.9995 41.6662 73.0203 41.68 73.0376C41.8109 73.1831 41.9418 73.3286 42.0795 73.4775C42.1105 73.5121 42.1381 73.5433 42.1691 73.5779C42.3137 73.7373 42.4618 73.8966 42.6168 74.0594C42.6547 74.0975 42.6891 74.139 42.727 74.1771C42.882 74.3399 43.0369 74.5062 43.1954 74.6759C43.2091 74.6898 43.2264 74.7071 43.2401 74.7209C43.3951 74.8837 43.557 75.05 43.7189 75.2162C43.7602 75.2578 43.8015 75.3028 43.8428 75.3444C44.0082 75.5141 44.1769 75.6873 44.3457 75.857C44.3835 75.8951 44.4214 75.9332 44.4593 75.9713C44.6212 76.1341 44.7865 76.3003 44.9518 76.4631C44.9759 76.4839 44.9966 76.5082 45.0207 76.5289C45.1998 76.7056 45.3789 76.8822 45.5614 77.0589C45.6062 77.1039 45.6509 77.1455 45.6992 77.1905C45.8817 77.3671 46.0642 77.5403 46.2502 77.7135C46.2846 77.7447 46.3191 77.7759 46.3501 77.807C46.5223 77.9698 46.6945 78.1291 46.8701 78.2919C46.9011 78.3196 46.9321 78.3474 46.9631 78.3751C47.1525 78.5482 47.3454 78.7214 47.5348 78.8911C47.5761 78.9292 47.6209 78.9673 47.6622 79.0054C47.8551 79.1786 48.0514 79.3483 48.2477 79.5181C48.2684 79.5354 48.289 79.5527 48.3097 79.5735C48.4165 79.6635 48.5232 79.7571 48.63 79.8471L48.6162 79.8436ZM72.7069 59.2593C72.4693 61.909 71.0986 65.0366 68.7429 68.3063C66.9486 70.807 64.6101 73.3355 62.1614 75.4275C61.2247 76.2276 57.1849 79.0955 55.8417 79.7917C55.8245 79.7848 55.8107 79.7813 55.79 79.7744C55.7694 79.7674 55.7487 79.7605 55.728 79.7501C55.6867 79.7363 55.6454 79.7155 55.6006 79.6982C55.5765 79.6878 55.5524 79.6774 55.5249 79.667C55.4766 79.6462 55.425 79.6185 55.3699 79.5943C55.3423 79.5804 55.3148 79.5665 55.2872 79.5527C55.2287 79.5215 55.1632 79.4869 55.0978 79.4523C55.0702 79.4349 55.0427 79.4211 55.0117 79.4038C54.9359 79.3587 54.8498 79.3102 54.7672 79.2618C54.7431 79.2479 54.7258 79.2375 54.7017 79.2237C54.4813 79.0886 54.2334 78.9292 53.9613 78.7457C53.92 78.718 53.8752 78.6833 53.8304 78.6556C53.734 78.5898 53.6375 78.5205 53.5377 78.4513C53.4826 78.4097 53.4206 78.3647 53.362 78.3231C53.269 78.2538 53.1726 78.1846 53.0762 78.1118C53.0107 78.0633 52.9384 78.0079 52.8695 77.956C52.7731 77.8832 52.6732 77.807 52.5734 77.7274C52.4976 77.6685 52.4218 77.6096 52.3426 77.5473C52.2393 77.4641 52.136 77.381 52.0292 77.2944C51.9465 77.2286 51.8673 77.1628 51.7812 77.0935C51.671 77.0035 51.5574 76.9065 51.4437 76.8095C51.3576 76.7368 51.2715 76.664 51.182 76.5878C51.0614 76.4839 50.934 76.3765 50.81 76.2657C50.7205 76.1895 50.6344 76.1133 50.5414 76.0336C50.4002 75.909 50.2521 75.7773 50.1075 75.6457C50.0248 75.573 49.949 75.5037 49.8629 75.4275C49.6287 75.2162 49.3911 74.998 49.1431 74.766C46.078 71.9085 43.3159 68.8224 42.5135 67.6032C38.6114 61.663 38.7767 55.671 38.973 48.7333C39.0213 46.9703 39.0729 45.1658 39.0523 43.3127C44.4249 42.8347 49.9112 40.8085 55.4078 37.2791C55.7212 37.4661 56.0311 37.6497 56.3411 37.8298C61.0008 40.5141 65.5124 42.2009 70.0688 42.9698C70.9126 43.1118 71.7633 43.2227 72.6105 43.2989C72.5623 45.5364 72.6449 47.8189 72.7241 50.046C72.8378 53.1494 72.9514 56.3602 72.6931 59.2593H72.7069Z" fill="url(#paint0_linear_26161_722)"/>
<defs>
<linearGradient id="paint0_linear_26161_722" x1="43" y1="0" x2="43" y2="84" gradientUnits="userSpaceOnUse">
<stop/>
<stop offset="1" stop-opacity="0.3"/>
</linearGradient>
</defs>
</svg>
