<svg width="60" height="64" viewBox="0 0 60 64" fill="none" xmlns="http://www.w3.org/2000/svg">
<path d="M15.1057 64C12.6251 64 10.1374 63.1008 7.91124 61.3983C5.76491 59.7571 3.95211 57.4474 2.66762 54.7181C0.556509 50.2321 -0.367146 44.3538 0.133137 38.5901C0.659297 32.5293 2.67337 27.1196 5.80517 23.3591C5.90077 23.2445 6.14012 22.9979 6.4183 22.7123C6.59009 22.5356 6.82945 22.2897 6.95668 22.1513C6.95021 22.1268 6.94374 22.1015 6.93799 22.0806C6.89702 21.9306 6.85102 21.7605 6.85389 21.5932C6.86252 21.1418 7.09037 20.6312 7.29811 20.3486C7.38149 20.2353 7.54178 20.0962 7.77683 19.8957C7.79551 19.8798 7.81708 19.8618 7.83792 19.8438C7.81277 19.7104 7.78545 19.5597 7.79264 19.4198C7.81564 18.9554 8.05213 18.4716 8.42662 18.1254C8.48197 18.0742 8.55025 18.0274 8.62501 17.9834C8.61638 17.9524 8.60919 17.9214 8.60488 17.8911C8.51862 17.2753 8.65376 16.7344 8.99662 16.327C9.2863 15.9831 9.71398 15.7509 10.2272 15.6535C10.2049 15.4631 10.1934 15.254 10.1805 15.0384C10.1675 14.817 10.1481 14.4796 10.1115 14.2878C9.99144 14.2632 9.84696 14.2322 9.72405 14.1594C9.16914 13.832 8.49131 11.8094 8.50569 11.3471C8.52006 10.8799 8.76302 10.5208 9.18854 10.3362C9.52135 10.1919 10.1151 10.0924 10.8001 9.98643C10.9266 9.96696 11.0423 9.94894 11.1365 9.93307C11.8237 9.81626 12.6733 9.67276 13.3813 9.6194C13.4532 9.61435 13.5207 9.60786 13.5854 9.60209C13.7285 9.58911 13.8643 9.57685 13.9915 9.57685C14.5939 9.57685 14.9231 9.8826 15.0597 10.5684C15.1402 10.9714 15.2566 12.1476 15.225 12.5499C15.1826 13.0915 14.9346 13.2645 14.706 13.3835C14.683 13.3958 14.6636 13.4059 14.6478 13.4152C14.6255 13.6395 14.6881 14.2243 14.7269 14.5863C14.7614 14.9093 14.788 15.1725 14.7995 15.386H15.3328C15.9287 12.0747 17.2865 8.99854 19.2718 6.46894C21.4491 3.69489 24.2969 1.71548 27.5078 0.745611C29.1459 0.250941 30.8423 0 32.5516 0C37.5092 0 42.3143 2.12002 45.7351 5.81563C46.2792 6.40332 46.7773 7.01697 47.2589 7.60971C48.1531 8.7101 48.997 9.74919 50.1111 10.6412C52.1417 12.2665 54.7229 13.2342 57.5758 13.4383C57.6089 13.4405 57.6506 13.4419 57.7009 13.4419C57.7994 13.4419 57.9172 13.4376 58.043 13.4325C58.1947 13.4268 58.3521 13.421 58.5117 13.421C58.9394 13.421 59.4131 13.4599 59.679 13.7477C59.8939 13.9799 59.9608 14.2661 59.8623 14.5329C59.748 14.8437 59.4224 15.0738 59.0321 15.1192C58.8776 15.1372 58.6971 15.1466 58.4951 15.1466C57.5154 15.1466 56.0232 14.923 55.0521 14.7154C51.8103 14.0231 49.2708 12.4821 46.8176 9.72035C46.4625 9.32014 46.1261 8.89686 45.8005 8.48656C45.4375 8.02938 45.0623 7.55707 44.6676 7.1273C43.0798 5.39811 41.2203 4.04606 39.1408 3.10864C37.052 2.16689 34.8417 1.68952 32.5717 1.68952C31.3771 1.68952 30.1724 1.82581 28.9907 2.09334C25.7029 2.83967 22.8119 4.68783 20.6304 7.43809C18.6745 9.90351 17.3814 12.9408 16.8732 16.2506C16.9099 16.2455 16.9465 16.2412 16.9825 16.2362C17.5704 16.1597 18.1304 16.0876 18.6565 15.9196C19.4357 11.4409 21.825 7.63999 25.2386 5.46662C27.3569 4.11745 29.8525 3.40429 32.4567 3.40429C35.0609 3.40429 37.8484 4.16576 40.1788 5.60723C42.0347 6.75521 43.4586 8.34594 44.8358 9.88404C46.0887 11.2837 47.384 12.7309 48.9876 13.8104C51.5473 15.5345 54.3233 16.4698 57.7239 16.7546C57.7383 16.7561 57.7677 16.7575 57.8224 16.7575C57.8856 16.7575 57.9604 16.7561 58.043 16.7539C58.1501 16.7517 58.2687 16.7489 58.3916 16.7489C58.9121 16.7489 59.4857 16.7921 59.794 17.1108C59.9349 17.2565 60.0061 17.4411 59.9996 17.6459C59.9845 18.1586 59.4397 18.4045 59.1004 18.4391C59.0127 18.4478 58.9085 18.4521 58.782 18.4521C58.3837 18.4521 57.8576 18.4088 57.473 18.3771L57.2976 18.3627C53.0941 18.0281 49.1407 16.366 46.1656 13.682C45.247 12.8535 44.4269 11.9139 43.634 11.0046C42.6277 9.85159 41.5869 8.6589 40.3628 7.72508C38.0863 5.98869 35.2751 5.0318 32.4467 5.0318C30.1918 5.0318 28.0239 5.64545 26.1759 6.80713C23.1886 8.68486 21.0717 11.9752 20.3486 15.8561C20.4075 15.916 20.4758 15.973 20.5499 16.0343C20.7583 16.2066 21.0171 16.4215 21.173 16.8166C21.3937 17.3755 21.2571 17.7454 21.1759 17.9668C21.173 17.9747 21.1702 17.9826 21.1673 17.9906C21.2356 18.0346 21.3089 18.0858 21.37 18.1543C21.6079 18.4232 21.9989 19.0261 22.0334 19.4977C22.0442 19.6426 22.0155 19.7666 21.9946 19.8568C21.9918 19.8705 21.9882 19.8856 21.9846 19.9C22.0191 19.9462 22.0845 20.0197 22.1355 20.076C22.4022 20.3738 22.8062 20.8245 22.8399 21.5081C22.8471 21.648 22.8234 21.7821 22.8026 21.9004C22.7954 21.9415 22.7853 21.9963 22.781 22.0374C22.8694 22.1246 23.0527 22.2796 23.1699 22.3792C23.3481 22.5306 23.5027 22.6611 23.5932 22.7577C27.5761 27.0035 29.9862 34.0544 30.0416 41.6187C30.0682 45.2775 29.5262 48.87 28.4739 52.0096C27.331 55.419 25.6476 58.206 23.4696 60.2929C20.9416 62.7165 18.0484 63.9971 15.1042 63.9978L15.1057 64ZM2.1738 48.0833C2.95585 51.9628 4.75428 56.9946 8.88449 60.1349C10.8698 61.6449 12.9399 62.41 15.0381 62.41C17.3124 62.41 19.5982 61.4913 21.6475 59.7528C23.5523 58.1375 25.2091 55.8278 26.3124 53.2506C26.9558 51.7493 27.4647 50.0721 27.8622 48.141C25.0603 49.051 22.0565 49.3192 19.9806 49.4418C18.2569 49.5435 16.5469 49.5954 14.8965 49.5954C10.2006 49.5954 6.24435 49.1894 3.13915 48.3883C3.09458 48.3768 3.01264 48.3501 2.83294 48.2924C2.68918 48.2455 2.41891 48.1576 2.17308 48.0833H2.1738ZM1.88125 46.2661C3.70196 46.9238 5.80948 47.355 8.49275 47.6203C10.6348 47.8323 13.2814 47.9535 15.7548 47.9535H15.7562C18.796 47.9535 24.3911 47.7638 27.717 46.4933C27.7522 46.4796 27.7939 46.4652 27.8406 46.4486C27.9132 46.4233 28.0627 46.3707 28.1504 46.326C28.4573 44.5348 28.443 42.6736 28.4286 40.8723C28.4286 40.811 28.4279 40.7505 28.4272 40.6892C26.7797 41.2913 24.9043 41.693 22.5848 41.9432C20.3867 42.1804 17.8486 42.3059 15.2437 42.3059C12.9105 42.3059 10.5255 42.2056 8.34611 42.016C6.2386 41.8328 3.81697 41.522 1.60667 40.6293C1.54414 42.0946 1.57792 43.5613 1.7073 44.997C1.74109 45.3698 1.82159 45.9914 1.88125 46.2654V46.2661ZM1.71737 38.9369C3.65884 39.8837 6.07687 40.2133 8.20307 40.4094C10.0791 40.5825 12.053 40.6668 14.2352 40.6668C15.7016 40.6668 17.2592 40.6286 18.9973 40.55L19.228 40.5399C21.9745 40.4166 25.3924 40.2623 27.7831 39.229L27.8162 39.2145C28.126 39.0811 28.274 38.9961 28.3423 38.9434C28.2209 37.2914 27.9384 35.5456 27.4589 33.4912C25.631 34.1114 23.8218 34.5253 22.0737 34.7243C20.1114 34.9478 17.8501 35.0654 15.5334 35.0654C12.7135 35.0654 9.90231 34.8974 7.40377 34.5786C5.99924 34.3998 4.20944 34.1078 2.56483 33.4299C2.52314 33.5842 2.46635 33.8121 2.39016 34.1489L2.37794 34.2015C2.01854 35.7713 1.79643 37.3628 1.71521 38.9369H1.71737ZM3.01983 31.8933C5.22294 32.8033 7.80558 33.0939 10.279 33.2698C11.9207 33.3867 13.6494 33.4458 15.4148 33.4458C16.7568 33.4458 18.0844 33.4112 19.3617 33.3427C21.5871 33.2237 24.4349 32.9533 26.9658 31.9272C25.838 28.3246 24.0691 25.353 21.8286 23.2964C20.7986 23.8387 19.6176 24.0377 18.4891 24.1942C17.2887 24.36 15.8712 24.4516 14.4976 24.4516C12.7983 24.4516 10.3983 24.3146 8.6171 23.6605C8.52581 23.6267 8.40577 23.5654 8.26705 23.494C8.18367 23.4514 8.05356 23.3844 7.95365 23.3389C7.83505 23.4558 7.64744 23.6519 7.45624 23.8588C5.56437 25.9125 4.07286 28.6145 3.01911 31.8926L3.01983 31.8933ZM8.67604 21.1872C8.62501 21.2427 8.57541 21.3004 8.556 21.3285C8.49203 21.4324 8.41799 21.5888 8.45034 21.7093C8.48197 21.8282 8.62069 21.9249 8.73067 21.9847C9.7183 22.5191 11.8675 22.8385 14.4796 22.8385C16.8861 22.8385 19.2301 22.5746 20.4507 22.1657C20.6347 22.1037 21.1242 21.94 21.2191 21.7215C21.2543 21.64 21.237 21.5211 21.168 21.3689C21.1515 21.3357 21.1062 21.2665 21.0573 21.2009C20.9646 21.2665 20.8712 21.3307 20.7842 21.3711C19.6348 21.9047 17.4058 22.2227 14.8218 22.2227C12.6294 22.2227 10.6484 21.9941 9.52278 21.6105C9.38909 21.565 9.17704 21.4533 8.86796 21.2889C8.8083 21.2571 8.7393 21.2196 8.67532 21.1865L8.67604 21.1872ZM9.56591 19.2712C9.5386 19.2712 9.51703 19.2712 9.47319 19.3304C9.41065 19.4155 9.34093 19.5373 9.36537 19.6354C9.39412 19.7493 9.54219 19.8784 9.76143 19.9815C10.6283 20.3897 12.4325 20.6327 14.5881 20.6334C16.5727 20.6334 18.5272 20.4286 19.5665 20.1113C20.1595 19.9303 20.4255 19.7162 20.432 19.5777C20.4018 19.4941 20.2911 19.3354 20.202 19.2366C20.184 19.246 20.1675 19.2554 20.1531 19.2633C20.0453 19.3217 19.9432 19.3772 19.8541 19.409C18.6623 19.8243 16.6913 20.0717 14.5831 20.0717C12.9155 20.0717 11.47 19.9137 10.5133 19.6275C10.353 19.5792 10.1992 19.5092 10.0511 19.4407C9.87787 19.3614 9.68164 19.2705 9.56591 19.2705V19.2712ZM10.5952 17.2168C10.4407 17.2205 10.3221 17.2594 10.2596 17.3279C10.1805 17.4144 10.1755 17.5615 10.1855 17.6697C10.1855 17.674 10.2459 18.1031 12.1766 18.3367C12.8364 18.4167 13.8205 18.4643 14.8095 18.4643C16.9379 18.4643 18.6371 18.2509 19.3538 17.894C19.5514 17.7952 19.6988 17.6416 19.7196 17.5111C19.724 17.4829 19.7383 17.3964 19.6054 17.2644C19.6039 17.263 19.6032 17.2623 19.6018 17.2608C19.5759 17.2731 19.5435 17.2897 19.5177 17.3027C19.4242 17.351 19.3085 17.4108 19.1633 17.4512C18.0851 17.749 16.6755 17.9509 15.2962 18.005C15.1459 18.0108 14.9576 18.0137 14.7506 18.0137C14.0584 18.0137 11.7396 17.979 10.9661 17.5341C10.8346 17.4584 10.7426 17.3639 10.6693 17.2882C10.6455 17.2637 10.6154 17.2327 10.5952 17.2161V17.2168ZM11.8883 16.1741C12.1457 16.2773 12.9313 16.3299 13.2411 16.3508C13.2605 16.3523 13.2799 16.3537 13.2986 16.3544L13.1412 13.8868L11.6389 14.1154C11.6921 14.4262 11.7209 14.7392 11.7482 15.0456C11.7755 15.3442 11.8007 15.6261 11.8474 15.8951C11.8546 15.9347 11.861 15.9845 11.8682 16.0371C11.8733 16.0732 11.8804 16.128 11.8876 16.1734L11.8883 16.1741ZM10.4996 12.6747C11.5059 12.5528 12.6057 12.405 13.6487 12.1238L13.5782 11.2166L10.1798 11.7286L10.4989 12.6747H10.4996Z" fill="#E6E6E6"/>
</svg>
