<svg width="50" height="50" viewBox="0 0 50 50" fill="none" xmlns="http://www.w3.org/2000/svg">
<path d="M49.1377 18.5324C47.41 12.0843 43.2745 6.69545 37.4947 3.35836C31.714 0.0212724 24.9796 -0.865384 18.5325 0.862336C12.0843 2.58909 6.69546 6.72455 3.35837 12.5053C0.0212724 18.286 -0.865386 25.0203 0.862337 31.4675C2.58909 37.9147 6.72457 43.3035 12.5053 46.6406C16.3556 48.864 20.6288 50 24.9593 50C27.1294 50 29.315 49.7138 31.4676 49.1376C37.9148 47.4099 43.3036 43.2744 46.6407 37.4947C49.9788 31.7139 50.8654 24.9796 49.1377 18.5324ZM45.3573 36.7535C42.2181 42.1908 37.1484 46.0809 31.0834 47.7058C25.0185 49.3306 18.6838 48.4964 13.2465 45.3572C7.80815 42.218 3.91908 37.1483 2.29418 31.0834C0.66832 25.0184 1.50259 18.6837 4.64179 13.2464C7.78196 7.80814 12.8507 3.91907 18.9156 2.29418C24.9806 0.668319 31.3153 1.50259 36.7536 4.64178C42.1909 7.78194 46.081 12.8506 47.7058 18.9156C49.3307 24.9806 48.4965 31.3152 45.3573 36.7535Z" fill="#BA653C"/>
<path d="M20.4202 22.3555C20.7734 21.7434 21.2351 21.2196 21.7793 20.8024C21.9617 20.6627 22.1538 20.5347 22.3546 20.4192L14.3873 6.61881C11.2646 8.41929 8.559 11.0414 6.62562 14.3911C4.69127 17.7408 3.77357 21.3951 3.77551 25H19.713C19.7111 24.1007 19.9391 23.1888 20.4202 22.3555Z" fill="#BA653C"/>
<path d="M35.6079 6.62561L27.6435 20.4202C28.8668 21.1264 29.7418 22.2672 30.1075 23.6312C30.2278 24.0832 30.2889 24.5431 30.2899 25H46.2236C46.2197 17.6739 42.415 10.5554 35.6079 6.62561Z" fill="#BA653C"/>
<path d="M27.6445 29.5807C27.2487 29.8087 26.8209 29.9862 26.3678 30.1075C25.9129 30.2287 25.4501 30.2898 24.9913 30.2898C24.0746 30.2898 23.1714 30.0493 22.3565 29.5788L14.3912 43.3743C21.1983 47.3041 29.2655 47.0393 35.6118 43.3801L27.6445 29.5807Z" fill="#BA653C"/>
<path d="M21.7046 23.0967C21.3583 23.6962 21.1944 24.3529 21.1953 25C21.1973 26.3135 21.8793 27.592 23.0967 28.2953C23.9775 28.8037 25.0029 28.9385 25.9847 28.6756C26.3106 28.5883 26.6191 28.4603 26.9033 28.2963C27.4766 27.9665 27.9559 27.4902 28.2954 26.9023C28.6349 26.3144 28.8076 25.6616 28.8066 25C28.8066 24.6711 28.762 24.3403 28.6757 24.0144C28.4128 23.0326 27.7822 22.2119 26.9024 21.7046C25.6849 21.0013 24.2366 21.0498 23.0977 21.7046C22.537 22.0257 22.051 22.4972 21.7046 23.0967Z" fill="#BA653C"/>
</svg>
