<svg width="60" height="64" viewBox="0 0 60 64" fill="none" xmlns="http://www.w3.org/2000/svg">
<g clip-path="url(#clip0_26181_1195)">
<path d="M10.5619 86.3788C10.5089 86.2888 9.80966 86.0345 9.55539 85.7484C8.82436 84.9115 9.00977 82.2204 9.05215 81.0391C9.23755 75.6305 9.89972 69.5121 10.6255 64.1354C11.526 57.5031 14.4183 48.5665 13.4277 42.2203C13.0728 39.9531 12.061 37.9083 11.6478 35.7205C9.36469 23.6267 18.9793 3.93659 32.8318 4.00015C40.5447 4.03723 48.7344 7.50168 51.0705 15.3629C55.266 29.4856 43.7867 49.716 28.1172 50.0604C25.8923 52.8838 25.2408 56.788 24.6792 60.2842C23.3337 68.654 22.8411 77.2092 21.718 85.616C21.8664 86.5854 20.1871 87.6396 20.0706 88.0104C19.6256 89.446 19.7951 91.9569 19.4402 93.5408C19.1224 94.9711 17.9093 95.7869 16.4684 95.7869C15.6738 95.7869 14.0422 95.6385 13.2476 95.5273C11.8915 95.3366 10.5778 94.4308 10.403 92.9846C10.2493 91.7026 10.9274 87.0039 10.5619 86.3788ZM36.7783 6.27271C34.3416 6.0873 32.1008 5.87011 29.6905 6.39984C19.2972 8.68828 11.5949 25.1524 13.3854 34.9577C13.7668 37.0396 14.7574 39.1267 15.1653 41.2615C16.4578 48.005 13.7774 55.612 12.7497 62.4084C11.6849 69.4804 11.2082 76.6106 10.7791 83.7514C10.6943 84.7261 11.6902 85.1763 12.5219 85.1816C12.649 79.148 13.3642 72.9925 14.2859 67.0277C15.1917 61.153 16.6167 53.1328 18.7833 47.6607C19.1806 46.6542 19.472 46.0556 20.4096 45.4411C15.2023 38.9519 16.8286 29.3478 19.9381 22.2547C22.3431 16.7667 26.2261 11.8031 31.3274 8.61942L36.773 6.27271H36.7783ZM49.6773 21.3807C49.7886 22.7103 49.5926 24.1724 49.6773 25.5179L50.0693 23.1182C50.9169 10.9873 42.1127 3.66642 31.1367 11.1145C22.2425 17.1534 14.8209 34.1313 21.4161 43.8572C26.6499 51.5754 35.7771 47.6395 41.0109 42.2574L38.1821 44.1433C33.1126 47.0886 26.8088 47.6289 23.4132 42.0508C16.9134 31.3714 27.6722 9.91726 40.9261 11.0774C45.9957 11.5224 49.28 16.6766 49.6773 21.3807ZM39.2416 13.0639C28.7211 13.7472 19.6203 31.2072 24.5521 40.3398C27.4497 45.7113 33.5999 45.1286 38.108 42.1462C44.7296 37.7653 49.0681 27.9599 47.4683 20.1146C46.6419 16.0569 43.6013 12.7778 39.2416 13.0586V13.0639ZM26.0036 49.3876C25.1878 49.3188 24.3985 48.9215 23.6886 48.5242C21.9935 47.5706 21.4903 45.9179 20.4785 48.5771C17.0564 57.5561 15.1759 71.5887 14.4554 81.2404C14.3442 82.7343 14.2011 84.2917 14.3442 85.7749C14.5931 86.1245 18.9475 86.31 19.4614 86.0557C19.6309 85.9709 19.7316 85.7961 19.7951 85.616C20.7857 78.8037 21.289 71.9224 22.1789 65.0942C22.7351 60.8245 23.1589 56.2529 24.7004 52.2217C25.0713 51.2523 25.5851 50.3358 26.0036 49.3876ZM18.3013 87.878C16.2883 87.9839 14.3018 87.6926 12.3365 87.3006C12.3047 88.4236 12.3683 89.5519 12.3418 90.6749C12.3206 91.5119 11.6213 93.2389 12.8556 93.6097C13.4966 93.8057 16.8869 94.0176 17.3372 93.7527C17.8616 93.4454 18.1106 88.7785 18.296 87.878H18.3013Z" fill="#E6E6E6"/>
<path d="M42.6956 31.5144C42.8598 31.4826 43.0187 31.4561 43.1829 31.5144C44.4596 32.4149 43.3895 34.4226 41.9169 34.3432C40.762 33.6969 41.5778 31.7316 42.6956 31.5144Z" fill="#E6E6E6"/>
<path d="M27.0316 36.5576C27.2964 36.2875 27.7891 36.0226 28.1758 36.1285C29.6485 36.8225 27.9162 39.7996 26.7667 38.7083C26.1999 38.1733 26.5442 37.0556 27.0369 36.5523L27.0316 36.5576Z" fill="#E6E6E6"/>
<path d="M26.7031 31.1437C26.9732 31.1172 27.2593 31.2973 27.4447 31.4827C28.3399 33.5699 24.8172 35.2226 25.4635 32.3886C25.5694 31.933 26.2369 31.1808 26.7031 31.1384V31.1437Z" fill="#E6E6E6"/>
<path d="M30.7607 20.9251C32.2175 20.7132 31.6189 23.7592 30.1674 23.7539C28.8219 23.2506 29.7225 21.0734 30.7607 20.9251Z" fill="#E6E6E6"/>
<path d="M39.0351 15.7338C40.9157 15.1829 40.3595 18.2766 38.7968 18.3878C37.589 18.1388 38.124 15.9987 39.0351 15.7338Z" fill="#E6E6E6"/>
<path d="M34.2199 17.0846C36.1428 16.5178 35.184 20.2153 33.6372 19.7227C32.6678 19.4155 33.4253 17.3177 34.2199 17.0846Z" fill="#E6E6E6"/>
<path d="M35.1892 38.4434C36.8314 38.0991 36.0739 41.304 34.6065 41.0815C33.7007 40.859 33.8543 38.7242 35.1892 38.4434Z" fill="#E6E6E6"/>
<path d="M45.3919 21.137C46.2077 21.8628 45.1164 24.236 43.898 23.4997C42.7644 22.8163 44.3642 20.2259 45.3919 21.137Z" fill="#E6E6E6"/>
<path d="M39.0352 35.9483C40.8734 35.4027 40.2748 38.5811 38.8022 38.5281C37.6314 38.4858 38.0764 36.2344 39.0352 35.9483Z" fill="#E6E6E6"/>
<path d="M44.4225 26.3178C45.572 25.9894 45.7945 27.7852 44.7668 28.601C42.9763 30.0206 42.9181 26.7469 44.4225 26.3178Z" fill="#E6E6E6"/>
<path d="M34.4211 33.2467C34.7601 33.1831 35.025 33.2096 35.2581 33.4903C35.8302 34.3538 35.0409 35.8953 33.9973 35.7311C32.869 35.5563 33.3457 33.4533 34.4211 33.2467Z" fill="#E6E6E6"/>
<path d="M30.5648 38.8354C32.7102 38.1997 31.5236 42.5594 29.7543 40.9172C29.4046 40.2868 29.8973 39.0314 30.5648 38.8354Z" fill="#E6E6E6"/>
<path d="M27.8736 25.931C29.2774 25.7297 28.8324 28.7863 27.2909 28.5744C26.3321 28.3413 26.687 26.1005 27.8736 25.931Z" fill="#E6E6E6"/>
<path d="M42.0336 17.3018C42.3991 17.0104 43.2679 16.8462 43.4904 17.3653C44.036 18.9916 41.9647 20.2736 41.6204 19.2353C41.5039 18.6632 41.5568 17.6832 42.0336 17.3018Z" fill="#E6E6E6"/>
<path d="M39.0404 30.7622C39.7768 31.5091 38.5743 33.7498 37.4354 32.8493C36.4765 32.0865 38.0816 29.7874 39.0404 30.7622Z" fill="#E6E6E6"/>
<path d="M35.3749 22.0852C37.2766 21.5025 36.5138 24.6915 35.1524 24.5697C34.0452 24.469 34.5644 22.3342 35.3749 22.0852Z" fill="#E6E6E6"/>
<path d="M39.4168 21.5131C41.202 20.9834 40.4603 24.0929 39.1943 23.987L38.6063 23.595C38.2513 22.9646 38.7493 21.7091 39.4168 21.5131Z" fill="#E6E6E6"/>
<path d="M32.329 30.9318C32.7316 31.7211 32.6203 32.8759 31.7251 33.2679C29.9452 34.0466 30.4643 30.3279 32.329 30.9318Z" fill="#E6E6E6"/>
<path d="M32.6838 26.1219C32.9593 26.0477 33.2082 26.0795 33.4307 26.2702C34.5114 27.2555 32.5408 29.5599 31.8733 28.2143C31.5555 27.5681 32.0005 26.3126 32.6838 26.1272V26.1219Z" fill="#E6E6E6"/>
<path d="M39.9991 26.1219C40.2745 26.0477 40.5235 26.0795 40.746 26.2702C42.0227 27.8435 38.9926 29.777 39.0774 27.5469C39.0932 27.0754 39.5382 26.2543 39.9991 26.1272V26.1219Z" fill="#E6E6E6"/>
</g>
<defs>
<clipPath id="clip0_26181_1195">
<rect width="60" height="64" fill="white"/>
</clipPath>
</defs>
</svg>
