<svg width="40" height="40" viewBox="0 0 40 40" fill="none" xmlns="http://www.w3.org/2000/svg">
<path d="M8.78595 40C6.69756 40 5 38.4608 5 36.5708V7.16505C5 5.27508 6.69756 3.73585 8.78595 3.73585H15.8929L15.945 3.30494C16.0853 2.53132 16.4801 1.81381 17.0874 1.2366C17.8951 0.470989 18.9914 0.0320673 20.1719 0C20.218 0 20.2641 0 20.3102 0C22.5408 0 24.4709 1.48311 24.7996 3.44724L24.8316 3.73585H31.8544C33.9428 3.73585 35.6403 5.27307 35.6403 7.16505V36.5708C35.6403 38.4628 33.9428 40 31.8544 40H8.78595ZM8.78595 4.93236C7.18659 4.93236 6.19651 6.09079 6.19651 7.16505V36.5708C6.19651 37.6451 7.18659 38.8035 8.78595 38.8035H31.8544C33.4538 38.8035 34.4418 37.6451 34.4418 36.5708V7.16505C34.4418 6.09079 33.4517 4.93236 31.8544 4.93236H26.4651V6.74416H29.4293C31.1489 6.74416 32.5458 8.05091 32.5458 9.65628V33.7128C32.5458 35.3182 31.1469 36.6229 29.4293 36.6229H11.207C9.48742 36.6229 8.09049 35.3162 8.09049 33.7128V9.65427C8.09049 8.0489 9.48943 6.74216 11.207 6.74216H14.2815V4.93035H8.78595V4.93236ZM11.207 7.94068C10.1488 7.94068 9.287 8.71029 9.287 9.65628V33.7128C9.287 34.6588 10.1488 35.4264 11.207 35.4264H29.4273C30.4855 35.4264 31.3473 34.6568 31.3473 33.7128V9.65427C31.3473 8.70829 30.4855 7.93867 29.4273 7.93867H26.4631V8.26736C26.4631 8.94278 25.958 9.49193 25.3387 9.49193H15.4038C14.7845 9.49193 14.2795 8.94278 14.2795 8.26736V7.93867H11.205L11.207 7.94068ZM15.478 8.29542H25.2686V5.05662H15.478V8.29542ZM20.2039 1.19852C19.3201 1.22056 18.5044 1.54324 17.9091 2.10642C17.4862 2.50927 17.2116 3.0023 17.1195 3.53342V3.54144L17.1034 3.73785H23.6452L23.4788 3.15863C23.0018 1.98016 21.7311 1.19852 20.3142 1.19852C20.2781 1.19852 20.242 1.19852 20.2039 1.19852ZM14.1091 30.3918C13.9668 30.3858 13.8285 30.3297 13.7223 30.2295L12.2172 28.8145C12.1009 28.7043 12.0328 28.556 12.0288 28.3976C12.0248 28.2393 12.0829 28.085 12.1931 27.9687C12.3073 27.8465 12.4597 27.7783 12.628 27.7783C12.7803 27.7783 12.9266 27.8365 13.0389 27.9427L14.0771 28.9187L15.9771 26.5838C16.0913 26.4435 16.2596 26.3634 16.442 26.3634C16.5803 26.3634 16.7106 26.4095 16.8188 26.4976C16.9431 26.5979 17.0212 26.7422 17.0373 26.9005C17.0533 27.0608 17.0072 27.2152 16.905 27.3394L14.6002 30.1714C14.4959 30.3016 14.3456 30.3798 14.1773 30.3898C14.1572 30.3898 14.1392 30.3898 14.1212 30.3898H14.1131L14.1091 30.3918ZM19.8592 28.9267C19.5285 28.9267 19.2599 28.6582 19.2599 28.3255C19.2599 27.9928 19.5285 27.7282 19.8592 27.7282H27.2808C27.6115 27.7282 27.88 27.9968 27.88 28.3255C27.88 28.6542 27.6115 28.9267 27.2808 28.9267H19.8592ZM14.1151 23.1586C13.9688 23.1546 13.8305 23.0965 13.7243 22.9963L12.2192 21.5793C12.1029 21.4711 12.0368 21.3228 12.0308 21.1624C12.0268 21.0021 12.0829 20.8518 12.1931 20.7355C12.3073 20.6133 12.4617 20.5471 12.63 20.5471C12.7823 20.5471 12.9286 20.6053 13.0389 20.7075L14.0771 21.6835L15.9771 19.3526C16.0913 19.2123 16.2616 19.1322 16.442 19.1322C16.5803 19.1322 16.7106 19.1783 16.8188 19.2665C16.9431 19.3667 17.0212 19.511 17.0373 19.6693C17.0533 19.8276 17.0072 19.984 16.905 20.1062L14.6002 22.9382C14.4939 23.0704 14.3436 23.1466 14.1773 23.1586C14.1592 23.1586 14.1452 23.1606 14.1312 23.1606H14.1171L14.1151 23.1586ZM19.8592 21.6916C19.5285 21.6916 19.2599 21.423 19.2599 21.0943C19.2599 20.7656 19.5285 20.495 19.8592 20.495H27.2808C27.6115 20.495 27.88 20.7636 27.88 21.0943C27.88 21.425 27.6115 21.6916 27.2808 21.6916H19.8592ZM14.1392 16.4746C13.9849 16.4746 13.8366 16.4165 13.7243 16.3103L12.2192 14.8953C12.1029 14.7871 12.0348 14.6387 12.0308 14.4784C12.0268 14.3181 12.0849 14.1657 12.1951 14.0495C12.3093 13.9272 12.4637 13.8611 12.63 13.8611C12.7823 13.8611 12.9286 13.9192 13.0389 14.0234L14.0771 14.9995L15.9771 12.6666C16.0913 12.5263 16.2596 12.4461 16.442 12.4461C16.5803 12.4461 16.7126 12.4922 16.8188 12.5804C16.9431 12.6806 17.0212 12.8249 17.0373 12.9833C17.0533 13.1416 17.0072 13.2979 16.905 13.4202L14.6002 16.2521C14.4959 16.3824 14.3456 16.4606 14.1753 16.4726C14.1652 16.4726 14.1532 16.4726 14.1412 16.4726L14.1392 16.4746ZM19.8592 15.0075C19.5285 15.0075 19.2599 14.739 19.2599 14.4103C19.2599 14.0816 19.5285 13.811 19.8592 13.811H27.2808C27.6115 13.811 27.88 14.0796 27.88 14.4103C27.88 14.741 27.6115 15.0075 27.2808 15.0075H19.8592Z" fill="#BDBDBD"/>
</svg>
