<svg width="40" height="40" viewBox="0 0 40 40" fill="none" xmlns="http://www.w3.org/2000/svg">
<path d="M18.3801 37.0981C17.1118 37.7258 16.2764 38 16.2764 38H16.2189C16.2189 38 5.05776 34.3661 2.46702 22.9787C0.583161 14.6999 5.00703 6.96295 5.00703 6.96295C8.43992 8.26786 13.8514 6.94643 16.2189 3.97321C18.5864 6.94643 24.0554 8.26786 27.4882 6.96295C27.4882 6.96295 28.5029 8.73696 29.3518 11.4954M34.6178 32.3839V36.0179M31.9121 32.3839V36.0179M33.265 25.4464H35.6325M33.265 22.4732H35.6325M33.265 19.5H35.6325M28.1917 32.0536H38V29.7411H35.9707V15.8661H29.8828V29.7411H28.53M30.8975 15.5357V13.8839L31.9121 12.5625V11.2411H33.9414V12.5625L34.9561 13.8839V15.5357M32.9268 10.9107V5.95536M29.5446 3.97321V5.29464M28.8682 4.63393H30.221M36.6471 5.29464V6.61607M35.9707 5.95536H37.3236M32.9268 1V2.98214M31.9121 1.99107H33.9414M10.9427 21.4821H19.3981M11.9574 18.5089H18.7217M11.9574 24.4554H18.3835M17.937 30.97C16.6619 29.272 15.0385 28.162 15.0385 28.162C15.0385 28.162 13.4117 29.272 12.14 30.97M17.937 11.6441C16.6619 13.3421 15.0385 14.4521 15.0385 14.4521C15.0385 14.4521 13.4117 13.3421 12.14 11.6441M20.751 30.4018H25.486M20.751 36.7479V28.8128C20.751 28.1488 21.008 27.5112 21.4748 27.0255C21.9787 26.497 22.5909 25.8164 22.7803 25.4464C23.1185 24.7857 21.9956 24.1151 22.1038 22.8036C22.2899 20.5704 23.4939 17.8482 24.1331 17.8482H24.8096C25.4488 17.8482 26.6529 20.5704 26.8389 22.8036C26.9471 24.1151 25.8242 24.7857 26.1624 25.4464C26.3518 25.8164 26.9674 26.497 27.468 27.0255C27.9313 27.5112 28.1917 28.1488 28.1917 28.8128V36.7479C28.1917 37.4417 27.6168 38 26.9099 38H22.0362C21.3259 38 20.7544 37.4384 20.7544 36.7479H20.751ZM29.8828 36.0179H36.6471V38H29.8828V36.0179ZM19.4319 21.3071C19.4319 25.0004 15.0351 27.9968 15.0351 27.9968C15.0351 27.9968 10.6383 25.0004 10.6383 21.3071C10.6383 17.6137 15.0351 14.6173 15.0351 14.6173C15.0351 14.6173 19.4319 17.6137 19.4319 21.3071Z" stroke="#BDBDBD" stroke-width="1.07143" stroke-linecap="round" stroke-linejoin="round"/>
</svg>
