<svg width="51" height="60" viewBox="0 0 51 60" fill="none" xmlns="http://www.w3.org/2000/svg">
<path d="M11.3123 35.1989H39.6877C44.8253 35.1989 49 31.022 49 25.889V25.8429C49 20.7099 44.8253 16.533 39.6877 16.533H11.3123C11.1243 16.533 10.9726 16.3813 10.9726 16.1967V16.1506C10.9726 15.9626 11.1243 15.811 11.3123 15.811H19.7243C24.8586 15.811 29.0366 11.6341 29.0366 6.5011V1.63187C29.0366 0.731868 28.3046 0 27.401 0H21.6963C20.796 0 20.064 0.731868 20.064 1.63187V6.5011C20.064 6.68901 19.9123 6.84066 19.7243 6.84066H11.3123C6.178 6.84066 2 11.0176 2 16.1506V16.1967C2 21.3297 6.178 25.5066 11.3123 25.5066H39.6877C39.8757 25.5066 40.0274 25.6582 40.0274 25.8429V25.889C40.0274 26.0769 39.8757 26.2286 39.6877 26.2286H11.3123C6.178 26.2286 2 30.4055 2 35.5385V35.5813C2 40.7143 6.178 44.8912 11.3123 44.8912H39.6877C39.8757 44.8912 40.0274 45.0429 40.0274 45.2308C40.0274 45.4187 39.8757 45.5703 39.6877 45.5703H31.279C26.1414 45.5703 21.9634 49.7473 21.9634 54.8802V58.3648C21.9634 59.2648 22.6987 60 23.599 60H29.3037C30.204 60 30.9393 59.2648 30.9393 58.3648V54.8802C30.9393 54.6923 31.091 54.5407 31.279 54.5407H39.6877C44.8253 54.5407 49 50.3637 49 45.2308C49 40.0978 44.8253 35.9209 39.6877 35.9209H11.3123C11.1243 35.9209 10.9726 35.7692 10.9726 35.5813V35.5385C10.9726 35.3506 11.1243 35.1989 11.3123 35.1989ZM39.6877 52.5923H31.279C30.016 52.5923 28.9872 53.6176 28.9872 54.8802V58.0484H23.9155V54.8802C23.9155 50.822 27.2164 47.5187 31.279 47.5187H39.6877C40.9507 47.5187 41.9795 46.4934 41.9795 45.2308C41.9795 43.9681 40.9507 42.9429 39.6877 42.9429H11.3123C7.253 42.9429 3.94885 39.6396 3.94885 35.5813V35.5385C3.94885 31.4802 7.253 28.1769 11.3123 28.1769H39.6877C40.9507 28.1769 41.9795 27.1516 41.9795 25.889V25.8429C41.9795 24.5835 40.9507 23.5549 39.6877 23.5549H11.3123C7.253 23.5549 3.94885 20.2549 3.94885 16.1967V16.1506C3.94885 12.0923 7.253 8.78901 11.3123 8.78901H19.7243C20.9873 8.78901 22.0128 7.76374 22.0128 6.5011V1.94835H27.0878V6.5011C27.0878 10.5593 23.7836 13.8626 19.7243 13.8626H11.3123C10.0493 13.8626 9.02378 14.8879 9.02378 16.1506V16.1967C9.02378 17.456 10.0493 18.4846 11.3123 18.4846H39.6877C43.7503 18.4846 47.0511 21.7846 47.0511 25.8429V25.889C47.0511 29.9473 43.7503 33.2505 39.6877 33.2505H11.3123C10.0493 33.2505 9.02378 34.2758 9.02378 35.5385V35.5813C9.02378 36.844 10.0493 37.8692 11.3123 37.8692H39.6877C43.7503 37.8692 47.0511 41.1725 47.0511 45.2308C47.0511 49.289 43.7503 52.5923 39.6877 52.5923Z" fill="#BA653C"/>
</svg>
