<svg width="100" height="100" viewBox="0 0 100 100" fill="none" xmlns="http://www.w3.org/2000/svg">
<path d="M49.8127 62.337C56.2617 62.337 61.4897 57.109 61.4897 50.66C61.4897 44.211 56.2617 38.983 49.8127 38.983C43.3637 38.983 38.1357 44.211 38.1357 50.66C38.1357 57.109 43.3637 62.337 49.8127 62.337Z" fill="#F2E3D0"/>
<path d="M49.8126 55.1982C52.319 55.1982 54.3508 53.1664 54.3508 50.66C54.3508 48.1536 52.319 46.1218 49.8126 46.1218C47.3062 46.1218 45.2744 48.1536 45.2744 50.66C45.2744 53.1664 47.3062 55.1982 49.8126 55.1982Z" fill="#DFB892"/>
<path d="M31.9955 36.1941C36.0306 36.1941 39.3016 32.923 39.3016 28.888C39.3016 24.853 36.0306 21.5819 31.9955 21.5819C27.9605 21.5819 24.6895 24.853 24.6895 28.888C24.6895 32.923 27.9605 36.1941 31.9955 36.1941Z" fill="#F2E3D0"/>
<path d="M31.9957 31.7274C33.5639 31.7274 34.8352 30.4561 34.8352 28.8879C34.8352 27.3197 33.5639 26.0485 31.9957 26.0485C30.4275 26.0485 29.1562 27.3197 29.1562 28.8879C29.1562 30.4561 30.4275 31.7274 31.9957 31.7274Z" fill="#DFB892"/>
<path d="M33.3213 72.5672C32.1521 71.6842 31.3234 70.292 29.9071 69.9395C28.4456 69.5568 26.74 70.2951 25.2122 70.4307C23.6934 70.5482 21.9939 70.0811 20.5926 70.7079C19.2426 71.3045 18.4862 72.8836 17.3894 74.0076C16.2895 75.1406 14.7134 75.9392 14.1379 77.3374C13.5322 78.8019 14.0776 80.5587 14.0264 82.1558C13.9691 83.771 13.2971 85.6152 13.8034 87.1521C14.2886 88.6437 15.8344 89.4302 16.8771 90.6024C17.9257 91.7686 18.6007 93.5164 19.9477 94.0287C21.352 94.544 23.1239 93.652 24.6818 93.4471C26.2458 93.2271 27.9695 93.6339 29.4912 92.7299C30.9618 91.85 31.8598 89.9455 33.0862 88.5232C34.3097 87.1069 36.0364 85.9527 36.6812 84.3918C37.3412 82.7947 36.7324 81.1916 36.7535 79.6638C36.7656 78.154 37.4135 76.3671 36.7867 75.1045C36.181 73.8961 34.4935 73.438 33.3213 72.5611V72.5672Z" fill="#E6E6E6"/>
<path d="M24.8834 85.9105C27.3898 85.9105 29.4216 83.8787 29.4216 81.3723C29.4216 78.8659 27.3898 76.8341 24.8834 76.8341C22.377 76.8341 20.3452 78.8659 20.3452 81.3723C20.3452 83.8787 22.377 85.9105 24.8834 85.9105Z" fill="#A9A9A9"/>
<path d="M84.4591 37.5616C86.4208 36.308 88.928 35.7445 90.2569 33.9184C91.6551 32.044 91.5557 29.3561 92.2367 27.1684C92.9388 25.0017 94.5932 22.8351 94.4817 20.6142C94.3852 18.4807 92.5139 16.757 91.4984 14.7501C90.4769 12.7371 90.2117 10.1998 88.5001 8.80763C86.7041 7.34311 83.8262 7.35818 81.524 6.61085C79.1976 5.84544 76.8894 4.1278 74.3521 4.18204C71.8931 4.22423 69.8621 6.04433 67.5478 7.0026C65.2425 7.96689 62.3045 8.16578 60.7797 9.82617C59.2217 11.5649 59.508 14.4126 58.9114 16.6696C58.3358 18.9447 56.7507 21.1717 57.1967 23.6728C57.6367 26.0956 59.9058 28.1537 61.2799 30.465C62.648 32.7703 63.3411 35.6692 65.2486 37.2271C67.2043 38.8272 69.8922 38.6555 72.1131 39.3335C74.3099 39.9934 76.5489 41.6478 78.7517 41.3163C80.8671 40.9848 82.5003 38.8303 84.456 37.5676L84.4591 37.5616Z" fill="#E6E6E6"/>
<path d="M77.3839 28.2924C80.967 28.2924 83.8718 25.3877 83.8718 21.8045C83.8718 18.2214 80.967 15.3167 77.3839 15.3167C73.8007 15.3167 70.896 18.2214 70.896 21.8045C70.896 25.3877 73.8007 28.2924 77.3839 28.2924Z" fill="#A9A9A9"/>
<path d="M78.662 72.5782C82.6971 72.5782 85.9681 69.3072 85.9681 65.2721C85.9681 61.2371 82.6971 57.9661 78.662 57.9661C74.627 57.9661 71.356 61.2371 71.356 65.2721C71.356 69.3072 74.627 72.5782 78.662 72.5782Z" fill="#F2E3D0"/>
<path d="M78.6622 68.1116C80.2304 68.1116 81.5017 66.8403 81.5017 65.2721C81.5017 63.7039 80.2304 62.4326 78.6622 62.4326C77.094 62.4326 75.8228 63.7039 75.8228 65.2721C75.8228 66.8403 77.094 68.1116 78.6622 68.1116Z" fill="#DFB892"/>
<path d="M23.7017 49.176C23.0563 48.6945 22.5989 47.9353 21.8172 47.743C21.0104 47.5343 20.069 47.9369 19.2257 48.0109C18.3874 48.0749 17.4492 47.8202 16.6758 48.162C15.9306 48.4874 15.5131 49.3486 14.9077 49.9615C14.3005 50.5795 13.4306 51.0149 13.1129 51.7775C12.7786 52.5762 13.0797 53.5342 13.0514 54.4052C13.0198 55.2861 12.6489 56.2918 12.9283 57.1299C13.1961 57.9434 14.0494 58.3723 14.6249 59.0116C15.2037 59.6476 15.5763 60.6008 16.3198 60.8801C17.095 61.1612 18.073 60.6747 18.9329 60.563C19.7962 60.443 20.7476 60.6649 21.5876 60.1718C22.3993 59.692 22.895 58.6534 23.572 57.8777C24.2473 57.1053 25.2004 56.4759 25.5563 55.6246C25.9206 54.7536 25.5846 53.8794 25.5963 53.0462C25.6029 52.2228 25.9605 51.2483 25.6146 50.5597C25.2802 49.9007 24.3488 49.6509 23.7017 49.1727V49.176Z" fill="#E6E6E6"/>
<path d="M19.0445 56.4529C20.428 56.4529 21.5495 55.3448 21.5495 53.978C21.5495 52.6111 20.428 51.5031 19.0445 51.5031C17.6611 51.5031 16.5396 52.6111 16.5396 53.978C16.5396 55.3448 17.6611 56.4529 19.0445 56.4529Z" fill="#A9A9A9"/>
<path d="M56.809 76.8596C57.4544 76.3781 57.9118 75.6189 58.6936 75.4266C59.5003 75.2179 60.4417 75.6205 61.2851 75.6944C62.1234 75.7585 63.0615 75.5038 63.835 75.8456C64.5801 76.171 64.9976 77.0322 65.6031 77.6451C66.2102 78.263 67.0801 78.6985 67.3978 79.4611C67.7321 80.2597 67.4311 81.2178 67.4594 82.0888C67.491 82.9697 67.8619 83.9754 67.5824 84.8135C67.3146 85.627 66.4614 86.0559 65.8858 86.6952C65.307 87.3312 64.9344 88.2844 64.1909 88.5637C63.4158 88.8447 62.4378 88.3583 61.5778 88.2466C60.7145 88.1266 59.7631 88.3484 58.9231 87.8554C58.1114 87.3756 57.6157 86.337 56.9388 85.5613C56.2635 84.7889 55.3104 84.1595 54.9544 83.3082C54.5901 82.4372 54.9261 81.5629 54.9145 80.7298C54.9078 79.9064 54.5502 78.9319 54.8962 78.2433C55.2305 77.5843 56.162 77.3345 56.809 76.8563V76.8596Z" fill="#E6E6E6"/>
<path d="M61.4662 84.1365C60.0827 84.1365 58.9612 83.0284 58.9612 81.6616C58.9612 80.2947 60.0827 79.1866 61.4662 79.1866C62.8497 79.1866 63.9712 80.2947 63.9712 81.6616C63.9712 83.0284 62.8497 84.1365 61.4662 84.1365Z" fill="#A9A9A9"/>
<path d="M50 98.9642C77.0109 98.9642 98.9077 77.0675 98.9077 50.0565C98.9077 23.0455 77.0109 1.1488 50 1.1488C22.989 1.1488 1.09229 23.0455 1.09229 50.0565C1.09229 77.0675 22.989 98.9642 50 98.9642Z" stroke="#BA653C" stroke-width="2" stroke-miterlimit="10" stroke-linecap="round"/>
<path d="M50 33.0667V67.915" stroke="#BA653C" stroke-miterlimit="10" stroke-linecap="round" stroke-dasharray="2 2"/>
<path d="M67.8484 50.0667H33" stroke="#BA653C" stroke-miterlimit="10" stroke-linecap="round" stroke-dasharray="2 2"/>
</svg>
