<svg width="41" height="40" viewBox="0 0 41 40" fill="none" xmlns="http://www.w3.org/2000/svg">
<path d="M20.0763 39.9965C9.00767 39.9965 0 31.0238 0 19.9982C0 8.97266 9.00767 0 20.0763 0C24.223 0 28.2063 1.24945 31.589 3.61384C31.9906 3.89346 32.0865 4.44562 31.8058 4.84559C31.6388 5.08274 31.3687 5.22078 31.0774 5.22078C30.8926 5.22078 30.7185 5.16414 30.5692 5.0615C27.4849 2.90948 23.857 1.76975 20.0763 1.76975C9.98483 1.76975 1.77666 9.94602 1.77666 19.9982C1.77666 30.0504 9.98483 38.2267 20.0763 38.2267C30.1677 38.2267 38.3759 30.0504 38.3759 19.9982C38.3759 17.018 37.6368 14.0625 36.2439 11.4503C36.1337 11.2415 36.1089 11.0008 36.1799 10.7778C36.251 10.5513 36.4038 10.3672 36.6134 10.254C36.7413 10.1867 36.8835 10.1513 37.0292 10.1513C37.3596 10.1513 37.6581 10.3318 37.8144 10.6221C39.3459 13.4891 40.1561 16.7313 40.1561 20.0018C40.1561 31.0273 31.1484 40 20.0798 40L20.0763 39.9965Z" fill="#BDBDBD"/>
<path d="M33.9342 9.06468C33.7281 9.06468 33.5256 8.99389 33.3692 8.86293C33.188 8.71427 33.0743 8.5019 33.0494 8.26475C33.0281 8.02761 33.0992 7.80108 33.2484 7.61702L37.516 2.46704C37.6865 2.26175 37.9353 2.14494 38.2018 2.14494C38.4079 2.14494 38.6104 2.21573 38.7667 2.35023C38.948 2.49889 39.0617 2.71126 39.083 2.94841C39.1043 3.18556 39.0332 3.41209 38.884 3.59614L34.6165 8.74613C34.4459 8.95142 34.1972 9.06822 33.9307 9.06822L33.9342 9.06468Z" fill="#BDBDBD"/>
<path d="M15.6844 30.7159C15.3788 30.7159 15.1265 30.638 14.9382 30.4858C14.4087 30.0575 13.9646 28.8682 16.2387 23.5484C17.8235 19.8319 19.8915 16.2853 21.9098 13.8112C24.0915 11.1353 26.0849 9.4151 27.8332 8.69658C28.4976 8.42403 29.1443 8.28599 29.7591 8.28599C30.0718 8.28599 30.3809 8.32139 30.6794 8.39218L33.1063 2.49182C33.2449 2.1591 33.5647 1.94319 33.9307 1.94319C34.0479 1.94319 34.1581 1.96443 34.2682 2.01044C34.4885 2.09893 34.6591 2.26883 34.7515 2.48828C34.8439 2.70773 34.8439 2.94841 34.7515 3.16432L32.2784 9.17795C32.2784 9.17795 32.3032 9.19565 32.3139 9.20627C32.4738 9.33723 32.6266 9.47881 32.7723 9.64517L39.7688 6.75339C39.8754 6.70737 39.9926 6.68614 40.1099 6.68614C40.4688 6.68614 40.7921 6.90205 40.9307 7.23122C41.0231 7.45067 41.0231 7.69136 40.9307 7.90727C40.8383 8.12672 40.6678 8.29661 40.451 8.3851L33.6606 11.1919C33.8632 11.8786 33.8845 12.6431 33.7281 13.4678C33.3763 15.319 32.09 17.6126 29.9083 20.2885C27.89 22.7626 24.8235 25.4986 21.494 27.8029C18.7011 29.7354 16.7468 30.7159 15.6879 30.7159H15.6844ZM26.0494 11.9812C25.1859 12.7493 24.255 13.7368 23.2849 14.9261C19.4615 19.6089 16.7575 26.5286 16.3169 28.7904C18.4524 27.8984 24.6991 23.8492 28.5225 19.1664C28.5936 19.078 28.6646 18.9895 28.7357 18.901L27.62 17.7896C27.453 17.6232 27.3606 17.4002 27.3606 17.1631C27.3606 16.9259 27.453 16.7065 27.62 16.5366C27.787 16.3667 28.0108 16.2782 28.2489 16.2782C28.487 16.2782 28.7073 16.3702 28.8778 16.5366L29.8195 17.4746C31.0276 15.7721 31.756 14.3102 31.9799 13.1316C32.1966 11.9954 31.9444 11.1813 31.1946 10.569C30.7576 10.215 30.2921 10.0451 29.7697 10.0451C29.3895 10.0451 28.9667 10.1407 28.5154 10.3248C28.1849 10.4593 27.8332 10.6504 27.4707 10.884L28.1707 11.5813C28.3377 11.7476 28.4301 11.9706 28.4301 12.2078C28.4301 12.4449 28.3377 12.6644 28.1707 12.8343C28.0037 13.0042 27.7799 13.0926 27.5418 13.0926C27.3037 13.0926 27.0834 13.0006 26.9129 12.8343L26.053 11.9777L26.0494 11.9812Z" fill="#BDBDBD"/>
<path d="M23.6296 20.8831C23.3915 20.8831 23.1712 20.7911 23.0007 20.6247L21.9347 19.5629C21.59 19.2195 21.59 18.6568 21.9347 18.3099C22.1017 18.1435 22.3255 18.0515 22.5636 18.0515C22.8017 18.0515 23.022 18.1435 23.1925 18.3099L24.2585 19.3717C24.6032 19.7151 24.6032 20.2778 24.2585 20.6247C24.0915 20.7911 23.8677 20.8831 23.6296 20.8831Z" fill="#BDBDBD"/>
<path d="M12.8524 28.1285C11.5341 28.1285 10.2691 27.7144 9.19955 26.9357C7.85995 25.9588 6.97873 24.5217 6.72289 22.8865C6.19344 19.5133 8.52087 16.3384 11.9072 15.811C11.9534 15.8039 11.9996 15.8004 12.0422 15.8004C12.2341 15.8004 12.4153 15.8605 12.5681 15.9703C12.76 16.1118 12.8843 16.3136 12.9234 16.5472L14.5651 27.0383C14.6397 27.5197 14.3092 27.9727 13.826 28.0506C13.5026 28.1002 13.1757 28.1249 12.8559 28.1249L12.8524 28.1285ZM11.3138 17.786C9.34879 18.5081 8.14422 20.5185 8.47467 22.6139C8.80513 24.7093 10.5427 26.2525 12.6569 26.3516L11.3138 17.786Z" fill="#BDBDBD"/>
<path d="M10.127 23.3608C9.64727 23.3608 9.2493 22.9714 9.23864 22.4936C9.22798 22.0051 9.61884 21.6016 10.1092 21.591L10.4645 21.5839C10.9656 21.5839 11.36 21.9662 11.3706 22.4511C11.3813 22.9396 10.9904 23.3431 10.5001 23.3537L10.1412 23.3608H10.127Z" fill="#BDBDBD"/>
<path d="M10.93 25.6402C10.6919 25.6402 10.4681 25.5482 10.3011 25.3818C9.95641 25.0385 9.95641 24.4757 10.3011 24.1288L10.5534 23.8775C10.7204 23.7112 10.9442 23.6192 11.1823 23.6192C11.4204 23.6192 11.6442 23.7112 11.8112 23.8775C12.1559 24.2209 12.1559 24.7836 11.8112 25.1305L11.559 25.3818C11.3919 25.5482 11.1681 25.6402 10.93 25.6402Z" fill="#BDBDBD"/>
<path d="M10.4965 21.0318C10.3721 21.0318 10.2513 21.007 10.1412 20.9574L9.6828 20.7557C9.46605 20.6601 9.29904 20.4867 9.21021 20.2672C9.12138 20.0478 9.12848 19.8071 9.22442 19.5912C9.36656 19.2691 9.68636 19.0603 10.0381 19.0603C10.1625 19.0603 10.2798 19.085 10.3935 19.1346L10.8518 19.3363C11.0686 19.4319 11.2356 19.6053 11.3244 19.8248C11.4133 20.0442 11.4062 20.2849 11.3102 20.5008C11.1681 20.8229 10.8483 21.0318 10.4965 21.0318Z" fill="#BDBDBD"/>
<path d="M16.8889 20.8973C16.857 20.8973 16.8285 20.8973 16.7966 20.8937C16.3133 20.8477 15.958 20.4124 16.0042 19.9274C16.0184 19.7894 16.3524 16.5083 17.2443 14.5226C17.3686 14.243 17.6245 14.0519 17.9265 14.0094C18.4844 13.928 18.8362 13.5953 18.8681 13.1245C18.8895 12.7882 19.1062 12.4909 19.4189 12.3635C19.7884 12.2113 20.0159 11.8361 19.9661 11.4468C19.9377 11.2132 19.8204 11.0008 19.6321 10.8557C19.4722 10.7318 19.2839 10.6681 19.0884 10.6681C19.0529 10.6681 19.0174 10.6681 18.9783 10.6752C18.9179 10.6822 18.8468 10.7035 18.758 10.7389C18.6514 10.7813 18.5412 10.8026 18.4275 10.8026C18.2925 10.8026 18.1575 10.7707 18.0367 10.7141C17.8092 10.6044 17.6422 10.4026 17.5747 10.1619C17.39 9.5142 16.7859 9.0576 16.1072 9.0576C16.0326 9.0576 15.958 9.06468 15.8869 9.0753C15.4818 9.13547 15.1265 9.34784 14.8849 9.67348C14.6432 9.99911 14.5402 10.4026 14.6006 10.8026L14.6184 10.8875C14.6681 11.1282 14.6184 11.3795 14.4798 11.5777C14.3412 11.7759 14.1209 11.9104 13.8828 11.9458C13.5879 11.9883 13.3285 12.1441 13.1544 12.3812C12.9803 12.6148 12.9057 12.905 12.9483 13.1953C13.0158 13.6519 13.2894 14.1403 13.8544 14.1403C13.9041 14.1403 13.9574 14.1368 14.0143 14.1297C14.0569 14.1226 14.0996 14.1191 14.1458 14.1191C14.3377 14.1191 14.5295 14.1828 14.6823 14.2996C14.8707 14.4412 14.995 14.6606 15.0234 14.8943L15.4925 18.7594C15.5529 19.2443 15.2047 19.6868 14.7179 19.7434C14.6823 19.7469 14.6468 19.7505 14.6113 19.7505C14.16 19.7505 13.7798 19.4142 13.7265 18.9718L13.3498 15.8605C12.2305 15.6446 11.3777 14.7102 11.1894 13.4537C11.0757 12.6962 11.2676 11.9388 11.726 11.3229C12.0102 10.9406 12.3833 10.6362 12.8097 10.438C12.8346 9.77966 13.0585 9.15671 13.4564 8.6187C13.9823 7.9108 14.7534 7.45067 15.624 7.32324C15.7839 7.29847 15.9473 7.28785 16.1072 7.28785C17.2691 7.28785 18.36 7.91434 18.9499 8.90187C18.9961 8.90187 19.0458 8.89833 19.092 8.89833C20.4352 8.89833 21.5687 9.90355 21.7321 11.2344C21.8529 12.2325 21.3945 13.2059 20.556 13.7581C20.3179 14.6394 19.6321 15.3402 18.7082 15.6411C18.0509 17.4073 17.7773 20.0761 17.7773 20.1044C17.7311 20.561 17.3509 20.9043 16.8925 20.9043L16.8889 20.8973Z" fill="#BDBDBD"/>
<path d="M22.7413 32.2095C23.33 32.2095 23.8073 31.7341 23.8073 31.1477C23.8073 30.5612 23.33 30.0858 22.7413 30.0858C22.1525 30.0858 21.6753 30.5612 21.6753 31.1477C21.6753 31.7341 22.1525 32.2095 22.7413 32.2095Z" fill="#BDBDBD"/>
<path d="M25.2286 28.67C25.8173 28.67 26.2946 28.1946 26.2946 27.6082C26.2946 27.0217 25.8173 26.5463 25.2286 26.5463C24.6398 26.5463 24.1626 27.0217 24.1626 27.6082C24.1626 28.1946 24.6398 28.67 25.2286 28.67Z" fill="#BDBDBD"/>
<path d="M28.7819 30.4398C29.3706 30.4398 29.8479 29.9644 29.8479 29.3779C29.8479 28.7915 29.3706 28.3161 28.7819 28.3161C28.1932 28.3161 27.7159 28.7915 27.7159 29.3779C27.7159 29.9644 28.1932 30.4398 28.7819 30.4398Z" fill="#BDBDBD"/>
<path d="M28.0712 27.9621C28.66 27.9621 29.1372 27.4867 29.1372 26.9003C29.1372 26.3138 28.66 25.8384 28.0712 25.8384C27.4825 25.8384 27.0052 26.3138 27.0052 26.9003C27.0052 27.4867 27.4825 27.9621 28.0712 27.9621Z" fill="#BDBDBD"/>
<path d="M30.2032 25.8384C30.792 25.8384 31.2692 25.363 31.2692 24.7766C31.2692 24.1901 30.792 23.7147 30.2032 23.7147C29.6145 23.7147 29.1372 24.1901 29.1372 24.7766C29.1372 25.363 29.6145 25.8384 30.2032 25.8384Z" fill="#BDBDBD"/>
<path d="M25.5839 31.1477C26.1726 31.1477 26.6499 30.6723 26.6499 30.0858C26.6499 29.4994 26.1726 29.024 25.5839 29.024C24.9952 29.024 24.5179 29.4994 24.5179 30.0858C24.5179 30.6723 24.9952 31.1477 25.5839 31.1477Z" fill="#BDBDBD"/>
</svg>
