<svg width="85" height="85" viewBox="0 0 85 85" fill="none" xmlns="http://www.w3.org/2000/svg">
<g opacity="0.05">
<path d="M25.4812 21.2763C20.8014 21.2763 16.9972 14.7502 16.9972 10.4901C16.9972 5.80693 20.8014 2 25.4812 2C30.1609 2 33.9651 5.80693 33.9651 10.4901C33.9651 14.7502 30.1609 21.2763 25.4812 21.2763ZM25.4812 4.90052C22.4016 4.90052 19.9259 7.40825 19.9259 10.4598C19.9259 13.9042 23.0356 18.3154 25.4812 18.3154C27.9267 18.3154 31.0365 13.9042 31.0365 10.4598C31.0365 7.37804 28.5306 4.90052 25.4812 4.90052Z" fill="url(#paint0_linear_26203_1945)"/>
<path d="M41.4226 57.9558C40.6074 57.9558 39.9432 57.2911 39.9432 56.4753V38.7701C39.9432 31.6699 34.1463 25.8688 27.0512 25.8688H23.8508C16.7557 25.8688 10.9588 31.6699 10.9588 38.7701V56.4753C10.9588 57.2911 10.2946 57.9558 9.47941 57.9558C8.66422 57.9558 8 57.2911 8 56.4753V38.7701C8 30.0383 15.0951 22.9381 23.8206 22.9381H27.021C35.7465 22.9381 42.8416 30.0383 42.8416 38.7701V56.4753C42.8416 57.2911 42.1774 57.9558 41.3622 57.9558H41.4226Z" fill="url(#paint1_linear_26203_1945)"/>
<path d="M33.9953 84C33.1802 84 32.5159 83.3353 32.5159 82.5195V40.9153C32.5159 40.0995 33.1802 39.4348 33.9953 39.4348C34.8105 39.4348 35.4747 40.0995 35.4747 40.9153V82.5195C35.4747 83.3353 34.8105 84 33.9953 84ZM16.9368 84C16.1217 84 15.4574 83.3353 15.4574 82.5195V40.9153C15.4574 40.0995 16.1217 39.4348 16.9368 39.4348C17.752 39.4348 18.4163 40.0995 18.4163 40.9153V82.5195C18.4163 83.3353 17.752 84 16.9368 84Z" fill="url(#paint2_linear_26203_1945)"/>
<path d="M25.4812 84C24.666 84 24.0018 83.3353 24.0018 82.5195V59.4967C24.0018 58.6809 24.666 58.0162 25.4812 58.0162C26.2964 58.0162 26.9606 58.6809 26.9606 59.4967V82.5195C26.9606 83.3353 26.2964 84 25.4812 84Z" fill="url(#paint3_linear_26203_1945)"/>
<path d="M69.7125 81.734H54.5259C53.7107 81.734 53.0465 81.0693 53.0465 80.2535V65.056C53.0465 64.2402 53.7107 63.5755 54.5259 63.5755H66.965C67.7802 63.5755 68.4444 64.2402 68.4444 65.056C68.4444 65.8718 67.7802 66.5365 66.965 66.5365H56.0053V78.8032H68.2633V75.3589C68.2633 74.5431 68.9275 73.8784 69.7427 73.8784C70.5579 73.8784 71.2221 74.5431 71.2221 75.3589V80.2837C71.2221 81.0995 70.5579 81.7642 69.7427 81.7642L69.7125 81.734ZM62.8589 76.9904C62.8589 76.9904 62.7985 76.9904 62.7382 76.9904C62.3155 76.9602 61.923 76.7487 61.6512 76.3861L58.2999 71.7634C57.8168 71.0987 57.9678 70.1923 58.632 69.7089C59.2963 69.2255 60.202 69.3766 60.6851 70.0413L63.0099 73.2741L73.4865 62.6691C74.0602 62.0951 74.9961 62.0951 75.5698 62.6691C76.1434 63.2432 76.1434 64.1798 75.5698 64.7539L63.8854 76.5976C63.6137 76.8696 63.2212 77.0206 62.8287 77.0206L62.8589 76.9904ZM69.7125 52.6382H54.5259C53.7107 52.6382 53.0465 51.9735 53.0465 51.1577V35.9602C53.0465 35.1444 53.7107 34.4797 54.5259 34.4797H66.965C67.7802 34.4797 68.4444 35.1444 68.4444 35.9602C68.4444 36.776 67.7802 37.4407 66.965 37.4407H56.0053V49.7074H68.2633V46.2631C68.2633 45.4473 68.9275 44.7826 69.7427 44.7826C70.5579 44.7826 71.2221 45.4473 71.2221 46.2631V51.1879C71.2221 52.0037 70.5579 52.6684 69.7427 52.6684L69.7125 52.6382ZM62.8589 47.8946C62.8589 47.8946 62.7985 47.8946 62.7382 47.8946C62.3155 47.8644 61.923 47.6529 61.6512 47.2903L58.2999 42.6676C57.8168 42.0029 57.9678 41.0965 58.632 40.6131C59.2963 40.1297 60.202 40.2808 60.6851 40.9455L63.0099 44.1783L73.4865 33.5733C74.0602 32.9993 74.9961 32.9993 75.5698 33.5733C76.1434 34.1474 76.1434 35.084 75.5698 35.6581L63.8854 47.5018C63.6137 47.7738 63.2212 47.9248 62.8287 47.9248L62.8589 47.8946ZM69.7125 23.5726H54.5259C53.7107 23.5726 53.0465 22.9079 53.0465 22.0921V6.89462C53.0465 6.07885 53.7107 5.41415 54.5259 5.41415H66.965C67.7802 5.41415 68.4444 6.07885 68.4444 6.89462C68.4444 7.71039 67.7802 8.37509 66.965 8.37509H56.0053V20.6419H68.2633V17.1975C68.2633 16.3817 68.9275 15.717 69.7427 15.717C70.5579 15.717 71.2221 16.3817 71.2221 17.1975V22.1223C71.2221 22.9381 70.5579 23.6028 69.7427 23.6028L69.7125 23.5726ZM62.8589 18.829C62.8589 18.829 62.7985 18.829 62.7382 18.829C62.3155 18.7988 61.923 18.5873 61.6512 18.2248L58.2999 13.6021C57.8168 12.9374 57.9678 12.031 58.632 11.5475C59.2963 11.0641 60.202 11.2152 60.6851 11.8799L63.0099 15.1127L73.4865 4.50774C74.0602 3.93368 74.9961 3.93368 75.5698 4.50774C76.1434 5.0818 76.1434 6.01842 75.5698 6.59248L63.8854 18.4363C63.6137 18.7082 63.2212 18.8592 62.8287 18.8592L62.8589 18.829Z" fill="url(#paint4_linear_26203_1945)"/>
</g>
<defs>
<linearGradient id="paint0_linear_26203_1945" x1="42" y1="2" x2="42" y2="84" gradientUnits="userSpaceOnUse">
<stop/>
<stop offset="1" stop-opacity="0.3"/>
</linearGradient>
<linearGradient id="paint1_linear_26203_1945" x1="42" y1="2" x2="42" y2="84" gradientUnits="userSpaceOnUse">
<stop/>
<stop offset="1" stop-opacity="0.3"/>
</linearGradient>
<linearGradient id="paint2_linear_26203_1945" x1="42" y1="2" x2="42" y2="84" gradientUnits="userSpaceOnUse">
<stop/>
<stop offset="1" stop-opacity="0.3"/>
</linearGradient>
<linearGradient id="paint3_linear_26203_1945" x1="42" y1="2" x2="42" y2="84" gradientUnits="userSpaceOnUse">
<stop/>
<stop offset="1" stop-opacity="0.3"/>
</linearGradient>
<linearGradient id="paint4_linear_26203_1945" x1="42" y1="2" x2="42" y2="84" gradientUnits="userSpaceOnUse">
<stop/>
<stop offset="1" stop-opacity="0.3"/>
</linearGradient>
</defs>
</svg>
