<svg width="51" height="60" viewBox="0 0 51 60" fill="none" xmlns="http://www.w3.org/2000/svg">
<path d="M21.1194 20.9398C19.1788 27.188 19.9126 33.4484 19.9208 39.8716C21.3844 38.879 22.1997 37.2356 23.3453 35.9624C26.0483 32.944 29.8765 30.544 33.8596 29.645C51.8711 25.5853 58.0394 49.4594 40.8147 57.107C32.0331 61.004 23.6837 59.2996 14.523 59.6046C10.3606 59.7429 5.96571 60.9836 2.22316 58.2094C-1.49494 55.4554 0.474185 51.5341 0.914485 47.7835C1.06125 46.5265 0.979715 45.0255 1.13464 43.7035C2.11308 35.5108 6.45901 27.9894 8.95404 20.232C9.66342 18.0232 10.0099 15.7086 10.8702 13.5445C11.9016 10.9492 15.8806 3.78576 17.6622 1.75184C20.6709 -1.67735 23.8223 0.783695 27.2591 1.95116C29.1671 2.59795 33.2643 3.29355 34.096 5.0956C35.1274 7.32885 33.4886 8.98852 33.6516 9.62718C33.7128 9.85904 34.4018 10.4163 34.6423 10.8028C36.9457 14.4923 32.7914 16.4083 30.0844 18.0557C27.2224 19.7968 24.6622 21.3466 21.1153 20.9317L21.1194 20.9398ZM32.0046 8.73632C32.6773 7.99597 33.2562 5.95392 32.0576 5.38035C28.7839 4.8678 24.7967 2.28879 21.7309 1.80472C19.3949 1.43862 18.1596 4.06644 17.1404 5.73019C15.8765 7.80072 14.201 10.5546 13.1491 12.6943C11.7671 15.5133 11.3064 18.6334 10.3198 21.5988C7.93483 28.7786 3.84574 36.1698 2.90399 43.7116C2.73684 45.0458 2.82245 46.3679 2.67161 47.5842C2.12939 52.0344 -0.271879 56.5741 5.80263 57.9531C8.91735 58.6609 11.5062 57.945 14.5189 57.8392C23.7612 57.5178 32.9953 59.4623 41.5933 54.7517C55.5362 47.1164 49.1804 26.887 33.1339 31.6505C27.4915 33.3264 25.7221 36.1576 22.1712 40.258C21.3436 41.2139 19.9901 42.0967 19.4846 43.2438C19.0565 44.216 18.7018 47.336 17.1159 46.8642C15.8562 46.4899 17.1974 44.6553 17.4217 43.9231C18.9627 38.9563 17.5929 33.2898 17.9557 28.2335C18.1474 25.5894 18.9872 22.9371 19.3174 20.3256C17.8824 20.4192 17.6581 18.6537 19.032 18.5398C19.9697 18.4625 21.47 19.1174 22.5544 19.1541C25.025 19.2354 27.2795 17.714 29.3016 16.4896C31.4461 15.192 35.5677 13.3655 32.1595 10.7946C30.7897 11.478 29.4035 12.5153 27.8258 12.674C25.0209 12.9506 22.1304 10.876 23.594 7.8658C24.707 5.57561 27.7769 7.1702 29.7093 7.02783C29.7338 10.5302 27.7157 8.67123 26.0605 8.58988C24.8742 8.53293 24.8415 10.6441 26.7251 10.8963C27.7524 11.0346 31.3319 9.46039 32.0005 8.72412L32.0046 8.73632Z" fill="#BA653C"/>
</svg>
