<svg width="40" height="40" viewBox="0 0 40 40" fill="none" xmlns="http://www.w3.org/2000/svg">
<path d="M2.02536 34.8421C1.74688 34.8421 1.51903 34.6052 1.51903 34.3157V15.1447C1.51903 14.0184 2.40004 13.1026 3.48359 13.1026C3.76207 13.1026 3.98992 13.3395 3.98992 13.629C3.98992 13.9184 3.76207 14.1553 3.48359 14.1553C2.95954 14.1553 2.53169 14.6 2.53169 15.1447V34.3157C2.53169 34.6052 2.30384 34.8421 2.02536 34.8421Z" fill="#BDBDBD"/>
<path d="M25.3164 38H2.92658C1.31392 38 0 36.6342 0 34.9579V34.5789C0 34.2894 0.227848 34.0526 0.506329 34.0526H17.8354C18.1139 34.0526 18.3392 34.2868 18.3418 34.5763C18.6152 34.7526 18.8658 34.8658 18.9823 34.8473C19.0051 34.8447 19.0304 34.8421 19.0532 34.8421H19.7139C19.7367 34.8421 19.762 34.8421 19.7848 34.8473C19.9949 34.8763 20.5747 34.5131 20.9418 34.1815C21.0329 34.0973 21.1519 34.0526 21.2734 34.0526H25.3139C25.5924 34.0526 25.8202 34.2894 25.8202 34.5789C25.8202 34.8684 25.5924 35.1052 25.3139 35.1052H21.4582C21.0886 35.4131 20.3316 35.9605 19.6835 35.8947H19.081C18.4329 35.9605 17.6759 35.4131 17.3063 35.1052H1.01772C1.09114 36.1342 1.91899 36.9473 2.92658 36.9473H25.3164C25.5949 36.9473 25.8228 37.1842 25.8228 37.4736C25.8228 37.7631 25.5949 38 25.3164 38Z" fill="#BDBDBD"/>
<path d="M8.35447 33C8.07599 33 7.84815 32.7632 7.84815 32.4737V6.42111C7.84815 6.13164 8.07599 5.8948 8.35447 5.8948H32.4051C32.6836 5.8948 32.9114 6.13164 32.9114 6.42111C32.9114 6.71059 32.6836 6.94743 32.4051 6.94743H8.8608V32.4737C8.8608 32.7632 8.63296 33 8.35447 33Z" fill="#BDBDBD"/>
<path d="M5.5696 32.4736C5.29112 32.4736 5.06327 32.2368 5.06327 31.9473V3.52631C5.06327 3.23684 5.29112 3 5.5696 3H29.8734C30.1519 3 30.3797 3.23684 30.3797 3.52631C30.3797 3.81579 30.1519 4.05263 29.8734 4.05263H6.07593V31.9473C6.07593 32.2368 5.84808 32.4736 5.5696 32.4736Z" fill="#BDBDBD"/>
<path d="M11.3924 35.1051C11.114 35.1051 10.8861 34.8682 10.8861 34.5788V9.05252C10.8861 8.76304 11.114 8.5262 11.3924 8.5262H33.4177C33.6962 8.5262 33.9241 8.76304 33.9241 9.05252V11.4209C33.9241 11.7104 33.6962 11.9472 33.4177 11.9472C33.1393 11.9472 32.9114 11.7104 32.9114 11.4209V9.57883H11.8988V34.5788C11.8988 34.8682 11.6709 35.1051 11.3924 35.1051Z" fill="#BDBDBD"/>
<path d="M22.8633 27.4736H22.1216C21.8431 27.4736 21.6152 27.2367 21.6152 26.9472C21.6152 26.6578 21.8431 26.4209 22.1216 26.4209H22.8633C23.1418 26.4209 23.3697 26.6578 23.3697 26.9472C23.3697 27.2367 23.1418 27.4736 22.8633 27.4736ZM19.6507 27.4736H18.9089C18.6304 27.4736 18.4026 27.2367 18.4026 26.9472C18.4026 26.6578 18.6304 26.4209 18.9089 26.4209H19.6507C19.9292 26.4209 20.157 26.6578 20.157 26.9472C20.157 27.2367 19.9292 27.4736 19.6507 27.4736ZM16.438 27.4736H15.6962C15.4178 27.4736 15.1899 27.2367 15.1899 26.9472C15.1899 26.6578 15.4178 26.4209 15.6962 26.4209H16.438C16.7165 26.4209 16.9443 26.6578 16.9443 26.9472C16.9443 27.2367 16.7165 27.4736 16.438 27.4736Z" fill="#BDBDBD"/>
<path d="M36.7089 17.9974H29.8734C29.595 17.9974 29.3696 17.7632 29.3696 17.4737V15.2447C29.3696 14.3 30.1089 13.5316 31.0177 13.5316H35.562C36.4709 13.5316 37.2101 14.3 37.2101 15.2447V17.4737C37.2101 17.7632 36.9848 17.9974 36.7063 17.9974H36.7089ZM30.3772 16.95H36.2076V15.2421C36.2076 14.8737 35.919 14.5737 35.5646 14.5737H31.0203C30.6658 14.5737 30.3772 14.8737 30.3772 15.2421V16.95Z" fill="#BDBDBD"/>
<path d="M37.6987 38H29.1342C27.8658 38 26.8329 36.9263 26.8329 35.6079V24.2895C26.8329 22.8 27.6253 21.4553 28.9013 20.779L29.6937 20.3606C29.9595 20.2211 30.1241 19.9395 30.1241 19.6316V17.4737C30.1241 17.1843 30.3519 16.9474 30.6304 16.9474C30.9089 16.9474 31.1367 17.1843 31.1367 17.4737V19.6316C31.1367 20.3395 30.7595 20.979 30.1544 21.3L29.362 21.7185C28.4279 22.2132 27.8456 23.2 27.8456 24.2921V35.6105C27.8456 36.3474 28.4228 36.95 29.1342 36.95H37.6987C38.4076 36.95 38.9873 36.35 38.9873 35.6105V24.2921C38.9873 23.2 38.4076 22.2158 37.4709 21.7185L36.6785 21.3C36.0709 20.979 35.6962 20.3395 35.6962 19.6316V17.4737C35.6962 17.1843 35.9241 16.9474 36.2025 16.9474C36.481 16.9474 36.7089 17.1843 36.7089 17.4737V19.6316C36.7089 19.9421 36.8734 20.2211 37.1392 20.3606L37.9316 20.779C39.2076 21.4553 40 22.8 40 24.2895V35.6079C40 36.9263 38.9671 38 37.6987 38Z" fill="#BDBDBD"/>
<path d="M23.2912 23.7894H15.4431C15.1646 23.7894 14.9367 23.5526 14.9367 23.2631V21.6973C14.9367 20.8184 15.476 19.5842 16.162 18.8842C16.362 18.6815 16.6836 18.6842 16.8785 18.8921C17.0734 19.1 17.0709 19.4342 16.8709 19.6368C16.3291 20.1894 15.9494 21.1658 15.9494 21.6973V22.7368H22.7848V21.6973C22.7848 21.2394 22.5013 20.4105 22.0253 19.821C21.8456 19.5973 21.876 19.2658 22.0886 19.0789C22.3038 18.8921 22.6228 18.921 22.8025 19.1447C23.3874 19.8737 23.7975 20.9236 23.7975 21.6973V23.2631C23.7975 23.5526 23.5696 23.7894 23.2912 23.7894Z" fill="#BDBDBD"/>
<path d="M19.3696 19.2815C18.0785 19.2815 17.2911 17.8052 17.1063 16.4315C16.9899 15.5736 17.1722 14.8105 17.6127 14.2841C17.9013 13.9394 18.4481 13.5263 19.4101 13.5263C20.1722 13.5263 20.7544 13.7447 21.1443 14.1789C21.7139 14.8131 21.7215 15.7473 21.6785 16.3973C21.5722 17.9894 20.5342 19.2841 19.3671 19.2841L19.3696 19.2815ZM19.4127 14.5789C18.9468 14.5789 18.5975 14.7131 18.3772 14.9762C18.1291 15.271 18.0354 15.7368 18.1089 16.2868C18.2354 17.2289 18.719 18.2289 19.3696 18.2289C19.9823 18.2289 20.6025 17.321 20.6709 16.321C20.719 15.6026 20.6354 15.1499 20.4076 14.8947C20.2177 14.6841 19.8835 14.5762 19.4152 14.5762L19.4127 14.5789Z" fill="#BDBDBD"/>
<path d="M39.4936 26.421H27.5949C27.3164 26.421 27.0886 26.1842 27.0886 25.8947C27.0886 25.6053 27.3164 25.3684 27.5949 25.3684H39.4936C39.7721 25.3684 40 25.6053 40 25.8947C40 26.1842 39.7721 26.421 39.4936 26.421Z" fill="#BDBDBD"/>
<path d="M39.4936 33.7893H27.5949C27.3164 33.7893 27.0886 33.5525 27.0886 33.263C27.0886 32.9735 27.3164 32.7367 27.5949 32.7367H39.4936C39.7721 32.7367 40 32.9735 40 33.263C40 33.5525 39.7721 33.7893 39.4936 33.7893Z" fill="#BDBDBD"/>
</svg>
