<svg width="85" height="85" viewBox="0 0 85 85" fill="none" xmlns="http://www.w3.org/2000/svg">
<g opacity="0.05">
<path d="M24.2004 29.1851C23.4986 29.1851 22.7956 29.1078 22.1123 28.9567C20.0156 28.4912 18.1084 27.3121 16.7442 25.6368C15.3591 23.937 14.597 21.795 14.597 19.6051C14.597 14.3238 18.905 10.0263 24.2004 10.0263C29.4959 10.0263 33.8026 14.3238 33.8026 19.6051C33.8026 21.0777 33.4751 22.4902 32.8312 23.8031C32.4865 24.5069 32.0555 25.1664 31.5495 25.7646C29.7803 27.8636 27.1947 29.1102 24.4553 29.1827C24.3666 29.1839 24.2841 29.1851 24.2004 29.1851ZM24.2004 13.2811C20.7038 13.2811 17.8597 16.1182 17.8597 19.6051C17.8597 22.3735 19.7164 24.8655 22.3758 25.6626C22.9643 25.8407 23.5774 25.9304 24.2004 25.9304C24.2731 25.9304 24.3457 25.9304 24.4171 25.9255C26.0965 25.8677 27.6552 25.164 28.8088 23.9419C29.2841 23.4408 29.6707 22.8697 29.9588 22.247C30.3429 21.4143 30.5387 20.5263 30.5387 19.6051C30.5387 16.1182 27.6946 13.2811 24.1992 13.2811H24.2004Z" fill="url(#paint0_linear_26203_1941)"/>
<path d="M20.4588 21.2325C19.5588 21.2325 18.8274 20.5029 18.8274 19.6051C18.8274 16.6501 21.2381 14.2464 24.2004 14.2464C25.1004 14.2464 25.8318 14.976 25.8318 15.8738C25.8318 16.7716 25.1004 17.5012 24.2004 17.5012C23.623 17.5012 23.0837 17.7296 22.6823 18.146C22.6614 18.1681 22.6393 18.1902 22.6196 18.2136C22.2773 18.5992 22.0901 19.093 22.0901 19.6051C22.0901 20.5029 21.3588 21.2325 20.4588 21.2325Z" fill="url(#paint1_linear_26203_1941)"/>
<path d="M22.0384 84C12.0915 84 4 75.927 4 66.0043C4 56.0816 11.9105 48.1916 21.7023 48.0123V37.758C13.0334 36.3603 6.55229 28.8032 6.55229 19.9932C6.55229 10.0718 14.645 2 24.5907 2C34.5364 2 42.6291 10.0718 42.6291 19.9945C42.6291 22.7113 42.0049 25.4145 40.8205 27.8439L47.0935 31.4561C50.4744 26.5531 55.9951 23.641 61.9616 23.641C71.9085 23.641 80 31.714 80 41.6355C80 51.5569 71.9085 59.6312 61.9616 59.6312C59.0929 59.6312 56.2365 58.9397 53.7014 57.6316C51.388 56.4378 49.3294 54.7294 47.7239 52.6734L38.2534 58.1278C39.4477 60.5646 40.0769 63.2765 40.0769 66.0043C40.0769 75.927 31.9841 84 22.0384 84ZM22.0384 51.2646C13.8915 51.2646 7.2627 57.876 7.2627 66.0043C7.2627 74.1326 13.8903 80.7452 22.0384 80.7452C30.1866 80.7452 36.8142 74.1326 36.8142 66.0043C36.8142 63.6658 36.249 61.3359 35.1779 59.2676C34.8504 58.6351 34.4736 58.021 34.0599 57.4462C31.7625 54.2442 28.2265 52.058 24.3593 51.4464C23.6538 51.3346 22.9335 51.2744 22.2194 51.2658C22.1603 51.2658 22.1037 51.2658 22.0483 51.2658H22.0384V51.2646ZM61.9628 26.8958C56.9838 26.8958 52.368 29.3816 49.615 33.5465C49.2247 34.1397 48.8726 34.7661 48.5697 35.4097C47.6525 37.3674 47.1871 39.4615 47.1871 41.6355C47.1871 44.1312 47.8273 46.5986 49.0364 48.7726C49.3836 49.394 49.7775 49.9959 50.2097 50.5621C53.0365 54.2577 57.3199 56.3776 61.9616 56.3776C70.1085 56.3776 76.7373 49.765 76.7373 41.6367C76.7373 33.5084 70.1097 26.897 61.9616 26.897L61.9628 26.8958ZM24.965 48.2457C29.5833 49.0035 33.7657 51.5631 36.5618 55.3435L45.9583 49.932C44.6262 47.3822 43.9244 44.5242 43.9244 41.6355C43.9244 39.0759 44.4526 36.6072 45.4942 34.2932L39.1337 30.6295C35.8058 35.1468 30.5658 37.8685 24.965 37.9852V48.2457ZM24.5907 5.25475C16.4438 5.25475 9.81499 11.8662 9.81499 19.9945C9.81499 23.5268 11.0918 26.9461 13.4101 29.6211C15.7051 32.2704 18.8644 34.023 22.3056 34.5585C23.0172 34.6678 23.7363 34.7268 24.4454 34.7329C24.4947 34.7329 24.5378 34.7329 24.5784 34.7329H24.5895C29.3543 34.7329 33.8556 32.4129 36.6319 28.5268C37.0456 27.9471 37.4199 27.333 37.7449 26.7029C38.8198 24.6125 39.3652 22.3551 39.3652 19.9932C39.3652 11.8662 32.7376 5.25352 24.5895 5.25352L24.5907 5.25475Z" fill="url(#paint2_linear_26203_1941)"/>
<path d="M26.2024 23.1411C25.5917 23.1411 25.0438 22.8034 24.7717 22.258C24.6621 22.0407 24.603 21.7938 24.603 21.5457C24.603 20.6663 25.3196 19.9515 26.2011 19.9515C27.0827 19.9515 27.7992 20.6663 27.7992 21.5457C27.7992 22.4251 27.1393 23.0871 26.2972 23.1362C26.259 23.1387 26.2307 23.1399 26.2011 23.1399L26.2024 23.1411Z" fill="url(#paint3_linear_26203_1941)"/>
<path d="M65.3043 50.2734C62.2608 50.2734 59.4622 48.877 57.6253 46.4402C57.1537 45.8163 56.7597 45.1346 56.4544 44.4137C55.9545 43.2334 55.7009 41.9818 55.7009 40.6934C55.7009 40.4134 55.7132 40.1272 55.739 39.8447C55.8105 39.0292 55.989 38.2223 56.2697 37.4485C57.64 33.6607 61.2709 31.1146 65.3043 31.1146C70.5997 31.1146 74.9077 35.4121 74.9077 40.6934C74.9077 45.9747 70.5997 50.2722 65.3043 50.2722V50.2734ZM65.3043 34.3706C62.5156 34.3706 60.015 36.235 59.2246 38.9027C59.0522 39.48 58.966 40.083 58.966 40.6934C58.966 40.8408 58.971 40.9821 58.9808 41.1159C59.0214 41.7313 59.1507 42.3331 59.3686 42.9091C59.6087 43.5502 59.9522 44.1459 60.3881 44.679C61.6008 46.1651 63.3922 47.0175 65.3055 47.0175C68.8022 47.0175 71.6463 44.1803 71.6463 40.6934C71.6463 37.2065 68.8022 34.3694 65.3055 34.3694L65.3043 34.3706Z" fill="url(#paint4_linear_26203_1941)"/>
<path d="M69.0459 42.322C68.1459 42.322 67.4146 41.5925 67.4146 40.6947C67.4146 39.534 66.4678 38.5895 65.3043 38.5895C64.4043 38.5895 63.673 37.86 63.673 36.9621C63.673 36.0643 64.4043 35.3348 65.3043 35.3348C68.2666 35.3348 70.6773 37.7396 70.6773 40.6947C70.6773 41.5925 69.946 42.322 69.0459 42.322Z" fill="url(#paint5_linear_26203_1941)"/>
<path d="M63.3024 44.2294C62.9404 44.2294 62.5993 44.1115 62.3162 43.888C61.9283 43.5871 61.7055 43.129 61.7055 42.634C61.7055 41.7546 62.422 41.0398 63.3024 41.0398C64.0953 41.0398 64.7749 41.6293 64.8845 42.4129C64.8943 42.4829 64.9005 42.5591 64.9005 42.6352C64.9005 43.5146 64.1839 44.2294 63.3024 44.2294Z" fill="url(#paint6_linear_26203_1941)"/>
<path d="M22.0384 73.6781C16.7442 73.6781 12.4362 69.3806 12.4362 64.0994C12.4362 58.8181 16.7442 54.5206 22.0384 54.5206C22.1 54.5206 22.1628 54.5206 22.2231 54.523C23.0308 54.539 23.82 54.6532 24.5809 54.8632C27.0581 55.5412 29.1967 57.2239 30.4476 59.4788C30.8305 60.1691 31.1272 60.9073 31.3279 61.6737C31.5347 62.4609 31.6406 63.2765 31.6406 64.1006C31.6406 69.3819 27.3326 73.6794 22.0384 73.6794V73.6781ZM22.0384 57.7753C18.543 57.7753 15.6989 60.6125 15.6989 64.0994C15.6989 67.5862 18.543 70.4234 22.0384 70.4234C25.5338 70.4234 28.3779 67.5862 28.3779 64.0994C28.3779 63.7456 28.3484 63.3931 28.2905 63.0529C28.1748 62.3615 27.9458 61.6994 27.6109 61.0853C26.8783 59.7429 25.6877 58.7088 24.2583 58.1757C23.6021 57.9301 22.9138 57.7962 22.212 57.7778H22.1985C22.1455 57.7778 22.0926 57.7753 22.0397 57.7753H22.0384Z" fill="url(#paint7_linear_26203_1941)"/>
<path d="M22.0384 69.4593C19.0761 69.4593 16.6654 67.0544 16.6654 64.0994C16.6654 63.2015 17.3968 62.472 18.2968 62.472C19.1968 62.472 19.9281 63.2015 19.9281 64.0994C19.9281 65.26 20.8749 66.2045 22.0384 66.2045C22.1234 66.2045 22.2059 66.2107 22.2834 66.2229H22.2921L22.3413 66.2315C23.1108 66.3765 23.6698 67.0495 23.6698 67.8319C23.6698 68.7297 22.9384 69.4593 22.0384 69.4593Z" fill="url(#paint8_linear_26203_1941)"/>
<path d="M24.0404 63.753C23.1588 63.753 22.4423 63.0382 22.4423 62.1588C22.4423 61.2794 23.1588 60.5646 24.0404 60.5646C24.2484 60.5646 24.4491 60.6039 24.6387 60.68C25.2457 60.9232 25.6385 61.5042 25.6385 62.1588C25.6385 62.3836 25.5929 62.601 25.5018 62.8036C25.2482 63.3796 24.6732 63.753 24.0404 63.753Z" fill="url(#paint9_linear_26203_1941)"/>
<path d="M52.6906 40.0523C50.6505 40.0523 48.992 38.3967 48.992 36.3615C48.992 36.2264 48.9994 36.0913 49.013 35.9599C49.109 35.0793 49.5227 34.2613 50.1777 33.657C50.8622 33.022 51.7549 32.672 52.6906 32.672C54.7295 32.672 56.3891 34.3276 56.3891 36.3615C56.3891 36.6391 56.3583 36.9155 56.2968 37.182C56.0998 38.0442 55.595 38.8106 54.876 39.3375C54.2407 39.8054 53.4835 40.0535 52.6893 40.0535L52.6906 40.0523ZM52.6906 35.9268C52.4505 35.9268 52.2547 36.122 52.2547 36.3615C52.2547 36.601 52.4505 36.7976 52.6906 36.7976C52.9307 36.7976 53.1264 36.6023 53.1264 36.3615C53.1264 36.2964 53.1116 36.2338 53.0846 36.1761H52.8125V35.955L52.778 35.9354C52.7497 35.9292 52.7201 35.9268 52.6906 35.9268Z" fill="url(#paint10_linear_26203_1941)"/>
</g>
<defs>
<linearGradient id="paint0_linear_26203_1941" x1="42" y1="2" x2="42" y2="84" gradientUnits="userSpaceOnUse">
<stop/>
<stop offset="1" stop-opacity="0.3"/>
</linearGradient>
<linearGradient id="paint1_linear_26203_1941" x1="42" y1="2" x2="42" y2="84" gradientUnits="userSpaceOnUse">
<stop/>
<stop offset="1" stop-opacity="0.3"/>
</linearGradient>
<linearGradient id="paint2_linear_26203_1941" x1="42" y1="2" x2="42" y2="84" gradientUnits="userSpaceOnUse">
<stop/>
<stop offset="1" stop-opacity="0.3"/>
</linearGradient>
<linearGradient id="paint3_linear_26203_1941" x1="42" y1="2" x2="42" y2="84" gradientUnits="userSpaceOnUse">
<stop/>
<stop offset="1" stop-opacity="0.3"/>
</linearGradient>
<linearGradient id="paint4_linear_26203_1941" x1="42" y1="2" x2="42" y2="84" gradientUnits="userSpaceOnUse">
<stop/>
<stop offset="1" stop-opacity="0.3"/>
</linearGradient>
<linearGradient id="paint5_linear_26203_1941" x1="42" y1="2" x2="42" y2="84" gradientUnits="userSpaceOnUse">
<stop/>
<stop offset="1" stop-opacity="0.3"/>
</linearGradient>
<linearGradient id="paint6_linear_26203_1941" x1="42" y1="2" x2="42" y2="84" gradientUnits="userSpaceOnUse">
<stop/>
<stop offset="1" stop-opacity="0.3"/>
</linearGradient>
<linearGradient id="paint7_linear_26203_1941" x1="42" y1="2" x2="42" y2="84" gradientUnits="userSpaceOnUse">
<stop/>
<stop offset="1" stop-opacity="0.3"/>
</linearGradient>
<linearGradient id="paint8_linear_26203_1941" x1="42" y1="2" x2="42" y2="84" gradientUnits="userSpaceOnUse">
<stop/>
<stop offset="1" stop-opacity="0.3"/>
</linearGradient>
<linearGradient id="paint9_linear_26203_1941" x1="42" y1="2" x2="42" y2="84" gradientUnits="userSpaceOnUse">
<stop/>
<stop offset="1" stop-opacity="0.3"/>
</linearGradient>
<linearGradient id="paint10_linear_26203_1941" x1="42" y1="2" x2="42" y2="84" gradientUnits="userSpaceOnUse">
<stop/>
<stop offset="1" stop-opacity="0.3"/>
</linearGradient>
</defs>
</svg>
