<svg width="60" height="64" viewBox="0 0 60 64" fill="none" xmlns="http://www.w3.org/2000/svg">
<path d="M30.3331 57C27.064 57 23.6685 56.499 21.2512 55.6606C19.2949 54.9819 17.8053 54.0133 16.5619 52.613C16.3452 52.3687 16.118 52.0246 15.8984 51.691C15.6693 51.344 15.4326 50.9856 15.2501 50.8117C14.8528 50.4333 14.2045 50.0236 13.5181 49.5902C12.9022 49.2014 12.2653 48.7983 11.7871 48.3991C8.61026 45.746 5.9391 42.1461 4.06264 37.9901C2.28314 34.0499 1.23084 29.6687 1.01886 25.3178C0.830641 21.4708 2.05215 18.1086 4.6482 15.3253C7.21574 12.5723 11.0514 10.4288 16.0496 8.95251C19.9812 7.79184 24.5345 7.10171 28.8692 7.01141C29.2181 7.0038 29.5641 7 29.8977 7C30.2314 7 30.5603 7.0038 30.874 7.01141C34.9454 7.10647 39.5348 7.83272 43.4664 9.00384C48.4637 10.4934 52.4495 12.694 54.9942 15.369C57.4334 17.9337 58.6245 20.9594 58.5342 24.3625C58.4087 29.0717 57.3735 33.7904 55.5399 38.0072C53.5512 42.5824 50.6624 46.4066 47.188 49.0664C46.8714 49.3088 46.4247 49.5835 45.9931 49.8497C45.4437 50.1881 44.8752 50.5379 44.5891 50.8107C44.455 50.9381 44.3933 51.1035 44.321 51.2946C44.2697 51.4315 44.2155 51.5721 44.1309 51.71C41.2002 56.4838 33.5062 56.999 30.3341 56.999L30.3331 57ZM18.3243 52.3212C18.349 52.3431 18.3738 52.3649 18.3994 52.3858C20.6552 54.2984 25.0792 55.441 30.2342 55.441C32.8655 55.441 35.4245 55.1207 37.2553 54.5627C38.3171 54.2395 40.146 53.5551 41.5824 52.3573C38.1526 53.7499 34.3379 54.4562 30.2266 54.4562C28.0089 54.4562 25.7446 54.2452 23.4974 53.8279C21.6115 53.4781 19.8757 52.9724 18.3234 52.3203L18.3243 52.3212ZM2.79646 27.8635C2.85825 28.2086 2.90958 28.5536 2.95996 28.8921C3.01795 29.2799 3.07783 29.682 3.15198 30.0717C4.2385 35.7601 6.64539 40.8134 10.1131 44.6851C13.81 48.8135 18.6589 51.4866 24.1334 52.4134C26.1809 52.7604 28.2352 52.9362 30.239 52.9362C35.3189 52.9362 39.9635 51.7936 43.6708 49.632C47.4399 47.4342 50.5122 44.2488 52.8012 40.1651C54.7604 36.6698 56.1188 32.4967 56.7452 28.0603C56.2119 29.0508 55.2499 30.0489 53.824 31.0955C50.9362 33.2163 47.1253 34.8446 42.4968 35.9369C37.5443 37.1061 32.9586 37.3513 29.9833 37.3513C29.4956 37.3513 29.007 37.3447 28.5298 37.3314C21.0772 37.1251 7.46765 34.8893 2.79551 27.8645L2.79646 27.8635ZM30.6801 11.9317C30.4301 11.9317 30.1734 11.9459 29.9186 11.9754C29.335 12.041 28.7409 12.2663 28.1648 12.483C27.7979 12.6218 27.4177 12.7653 27.0412 12.867C26.4262 13.0343 25.8074 13.1199 25.2085 13.2035C24.6438 13.2824 24.1096 13.3566 23.5763 13.4925C22.2873 13.8233 21.293 14.5154 20.2407 15.2492C19.2112 15.9669 18.1475 16.7084 16.7578 17.1209C16.138 17.3053 15.5391 17.4669 14.9592 17.6238C12.4773 18.2949 10.3346 18.8748 8.13021 20.7455C7.45909 21.3149 7.37829 21.8539 7.29179 22.757C7.15491 24.1904 7.12544 25.7931 7.09882 27.2076L7.09312 27.4871C7.04939 29.4168 7.10738 29.952 7.16346 30.0622C7.38495 30.4301 10.1863 31.8275 11.1065 32.2286C16.3661 34.5195 23.1029 35.7819 30.0755 35.7819H30.0774C37.6384 35.7819 44.7079 34.2971 49.9865 31.6012C50.6472 31.2638 52.3145 30.3388 52.5474 30.0774C52.5994 30.0185 52.6317 29.9434 52.6444 29.8521C52.7889 28.7837 52.71 26.7504 52.6577 25.4053L52.6406 24.9699C52.6044 23.9927 52.5284 21.9604 52.1263 21.1714C51.7366 20.4071 50.7337 19.8776 49.8477 19.4109C49.516 19.236 49.2023 19.0706 48.9314 18.8995C48.4694 18.6086 48.0692 18.3253 47.6813 18.0515C46.9142 17.5088 46.1889 16.9964 45.1461 16.5458C42.5976 15.446 40.1156 14.695 37.4882 13.9003C37.1422 13.7958 36.7943 13.6902 36.4444 13.5838C35.7781 13.3803 35.1602 13.137 34.5632 12.9003C33.3037 12.4022 32.1136 11.9326 30.6801 11.9326V11.9317ZM29.161 8.57988C28.5289 8.57988 27.9053 8.59319 27.3093 8.6198C22.8871 8.81562 17.8424 9.85652 13.8147 11.4041C8.56748 13.4203 4.99612 16.254 3.48754 19.5991C1.95234 23.0013 2.83733 26.758 5.68815 28.951C5.70621 28.22 5.6891 27.4757 5.67389 26.7523C5.65488 25.8673 5.63396 24.9519 5.67579 24.0574L5.67769 24.007C5.75659 22.3111 5.83834 20.5582 7.38305 19.4584C8.63212 18.5687 10.4496 17.4508 11.694 16.9584C12.5923 16.6028 13.541 16.389 14.4583 16.1827C15.7026 15.9023 16.9887 15.6133 18.1247 14.965C18.6941 14.6399 19.2055 14.273 19.6998 13.9174C20.5706 13.2919 21.4708 12.6455 22.678 12.2453C23.332 12.0286 24.0126 11.9288 24.6695 11.8318C25.0954 11.7691 25.5364 11.7045 25.9604 11.6085C26.8454 11.4088 27.5393 11.1921 28.1515 11.0001C29.1145 10.6987 29.8749 10.4611 30.8369 10.4611C31.7058 10.4611 32.6649 10.6531 33.9472 11.0828C34.9577 11.4212 35.992 11.7548 36.992 12.0771C39.7744 12.9735 42.6508 13.9013 45.3866 15.061C46.7213 15.6266 47.553 16.1912 48.5169 16.8443C48.8677 17.0819 49.2308 17.3281 49.6453 17.5934C49.9865 17.811 50.3401 18.005 50.6824 18.1922C51.4999 18.64 52.3449 19.1019 53.0189 19.909C54.0189 21.1058 54.095 23.2313 54.1501 24.7827L54.1587 25.0098C54.1843 25.7038 54.172 26.4091 54.1587 27.0916C54.1491 27.6107 54.1396 28.1449 54.1472 28.6725C55.7604 27.3207 56.7005 25.6353 56.8735 23.7769C57.0903 21.448 56.1264 18.946 54.1596 16.7331C51.7803 14.0543 47.8401 11.8765 42.7659 10.4345C38.5585 9.23864 33.7267 8.57988 29.1591 8.57988H29.161Z" fill="#E6E6E6"/>
<path d="M29.7818 35.2638C29.6734 35.2638 29.5859 35.2363 29.5213 35.1821C29.2723 34.9739 29.3511 33.3864 29.3521 33.3712C29.5688 30.3807 31.5499 29.8046 33.6478 29.1943C34.2334 29.0242 34.8389 28.8483 35.4283 28.6154C36.3979 28.2323 37.3399 27.7418 38.2525 27.2665C39.7915 26.4652 41.3837 25.6372 43.1689 25.2865C43.4446 25.2323 43.7564 25.2028 44.0568 25.1753C44.3847 25.1448 44.7241 25.1135 45.0178 25.0488C46.5207 24.7228 47.8144 23.891 49.0645 23.0859C49.8553 22.5773 50.6728 22.0516 51.5445 21.6476C51.5902 21.6267 51.9942 21.4432 52.2489 21.4432C52.3316 21.4432 52.3972 21.4613 52.4514 21.4984L52.5008 21.5326L52.5217 21.5887C52.6349 21.8967 52.729 22.2503 52.574 22.5402C52.4676 22.7398 52.2622 22.8739 51.9466 22.9499C51.8734 22.968 51.8174 22.9756 51.7708 22.9756C51.7537 22.9756 51.7385 22.9746 51.7251 22.9727C51.6938 22.9917 51.652 23.0184 51.6253 23.0355C51.3753 23.1952 51.1206 23.3615 50.862 23.5298C49.2137 24.6039 47.3448 25.8226 45.4589 26.2504C45.0387 26.3454 44.6052 26.4034 44.187 26.4585C43.7193 26.5203 43.2364 26.585 42.7792 26.7019C41.4331 27.046 40.0614 27.7808 38.7344 28.4919C37.8285 28.9767 36.8922 29.4786 35.9777 29.8483C35.6013 30.0004 35.0803 30.163 34.529 30.336C33.3436 30.7077 31.8693 31.1697 31.3179 31.6972C30.816 32.1782 30.758 32.8931 30.7029 33.5851C30.662 34.0927 30.624 34.5718 30.412 34.9435C30.2979 35.1431 30.0033 35.2619 29.7827 35.2619L29.7818 35.2638Z" fill="#E6E6E6"/>
<path d="M28.546 30.8531C28.4652 30.8531 28.3749 30.8465 28.2684 30.8313C27.8454 30.7562 27.4661 30.5651 27.0983 30.3807C26.8635 30.2628 26.641 30.1516 26.4119 30.0689C25.7598 29.8141 25.0089 29.6649 24.2826 29.5204C23.8415 29.4329 23.4242 29.3502 23.0288 29.2457C22.0506 28.9957 21.2464 28.5907 20.2654 28.0175C20.061 27.893 19.8709 27.7742 19.6856 27.6582C19.1143 27.3017 18.5743 26.9643 17.9042 26.6335C17.3024 26.3293 16.5743 26.0583 15.676 25.8036C13.674 25.3017 13.0077 24.8273 11.6807 23.8825C11.4601 23.7256 11.2196 23.5545 10.9516 23.3682C10.6787 23.1781 10.366 23.0298 10.0637 22.8862C9.70914 22.718 9.34221 22.544 9.01901 22.2959C8.63973 21.9965 8.62547 21.7474 8.67965 21.5906C8.7652 21.3444 9.07129 21.197 9.49811 21.197C9.54564 21.197 9.59507 21.1989 9.64545 21.2027H9.65876C10.6293 21.2978 11.4002 21.8624 12.1455 22.4081L12.309 22.5279C13.0733 23.1011 13.7672 23.6001 14.559 23.9062C15.1037 24.122 15.6902 24.2769 16.2577 24.4262C17.1209 24.6534 18.0144 24.8882 18.8091 25.3464C19.2027 25.5697 19.5848 25.8274 19.9546 26.0755C20.3034 26.3103 20.6647 26.5536 21.0325 26.7656C21.8529 27.2399 22.5117 27.5194 23.3824 27.7618C23.8463 27.8892 24.3501 27.9738 24.8359 28.0555C25.4243 28.1544 26.0326 28.2571 26.5925 28.4367C27.1762 28.6487 29.0641 29.4054 29.1544 30.3417L29.1563 30.3579V30.375C29.1401 30.5537 29.0422 30.8522 28.545 30.8522L28.546 30.8531Z" fill="#E6E6E6"/>
</svg>
