<svg width="100" height="100" viewBox="0 0 100 100" fill="none" xmlns="http://www.w3.org/2000/svg">
<g clip-path="url(#clip0_26194_954)">
<path d="M90.6772 76.8469L80.8859 90.102L59.458 72.4314L64.4811 62.88C65.9151 60.1514 68.1746 57.5907 72.9573 59.865L78.7452 63.1433L81.7637 57.501L86.6361 60.4061L83.6756 65.9355L88.099 68.4413C90.796 69.9691 93.5103 72.7295 90.6772 76.8469Z" fill="#E6E6E6"/>
<path d="M34.2126 21.6475C42.092 28.3981 46.1737 37.2724 45.1685 44.0201C38.6448 46.0426 29.2417 43.3603 21.3623 36.6069C13.4829 29.8564 9.40123 20.982 10.4093 14.2344C16.933 12.2176 26.3332 14.897 34.2126 21.6475Z" fill="#F2E3D0"/>
<path d="M56.5469 15.7333C48.9282 24.2315 45.7562 34.4976 47.8274 41.714C55.2376 42.9785 65.1013 38.699 72.7229 30.1979C80.3415 21.6997 83.5136 11.4335 81.4366 4.21715C74.0293 2.95558 64.1627 7.23217 56.5469 15.7333Z" fill="#F2E3D0"/>
<path d="M28.5283 27.9697C28.5283 27.9697 46.5843 33.9477 46.5843 52.5008C46.5843 76.7483 46.5843 68.172 46.5843 68.172" stroke="#ECD5BC" stroke-width="1.85047" stroke-miterlimit="10" stroke-linecap="round"/>
<path d="M65.156 20.9589C65.156 20.9589 46.4048 33.7857 46.4048 49.3788" stroke="#ECD5BC" stroke-width="1.85047" stroke-miterlimit="10" stroke-linecap="round"/>
<path d="M98.6323 46.0946C97.7314 48.5802 87.885 61.1495 87.885 61.1495L86.6365 60.4059L81.764 57.5008L79.8984 56.3897L86.5119 43.994C89.4319 38.8464 91.9783 36.7486 95.272 38.2909C98.2528 39.6855 99.7476 43.0073 98.6323 46.0946Z" fill="#BDBDBD"/>
<path d="M94.4867 92.0057C94.4867 92.9113 90.4398 93.7447 83.7105 94.3899C77.7488 94.9657 69.684 95.394 60.4605 95.6023C58.0735 95.6544 55.6112 95.6949 53.0851 95.718C52.2103 95.7238 51.3268 95.7296 50.4374 95.7354C49.5481 95.7383 48.6472 95.7412 47.7434 95.7412C46.4601 95.7412 45.1884 95.7383 43.9311 95.7267C41.2371 95.7123 38.6038 95.6746 36.0575 95.6226C32.7291 95.556 29.5425 95.4576 26.5443 95.3361C18.972 95.0265 12.5902 94.5577 8.10015 93.9877C3.60136 93.4119 1 92.7319 1 92.0057C1 91.2794 3.80993 90.5474 8.64475 89.96C10.3568 82.4108 15.7188 76.9045 22.0687 76.9045C23.4881 76.9045 24.8555 77.1794 26.1474 77.6915C28.4707 71.8322 33.1694 67.8247 38.5836 67.8247C40.5418 67.8247 42.4074 68.3484 44.102 69.2975C46.4369 67.8913 49.1686 67.084 52.0944 67.084C58.8238 67.084 64.5508 71.3664 66.6945 77.353C67.2217 77.298 67.7576 77.2691 68.2993 77.2691C75.779 77.2691 82.0216 82.5613 83.4758 89.6012C90.3471 90.2522 94.4867 91.0884 94.4867 92.0057Z" fill="#BA653C"/>
<path d="M34.2354 82.6655L34.6496 82.2864C36.9178 80.2147 39.6524 79.9716 41.9931 81.6325L42.474 81.9739" stroke="white" stroke-width="1.85047" stroke-miterlimit="10" stroke-linecap="round"/>
<path d="M58.9541 84.5086L60.1621 84.1122C61.5207 83.6637 63.0155 84.0051 64.0438 85.0005L64.5884 85.5271" stroke="white" stroke-width="1.85047" stroke-miterlimit="10" stroke-linecap="round"/>
</g>
<defs>
<clipPath id="clip0_26194_954">
<rect width="98" height="92" fill="white" transform="translate(1 4)"/>
</clipPath>
</defs>
</svg>
