<svg width="51" height="50" viewBox="0 0 51 50" fill="none" xmlns="http://www.w3.org/2000/svg">
<path d="M7.77944 17.1137C8.00205 17.0221 8.94717 14.9959 9.25571 14.6945C8.57615 14.1031 6.19772 13.1529 6.99443 11.9815C7.84192 10.7338 9.56423 12.7866 10.3844 13.1568L12.6847 10.9665C12.7316 10.8063 12.6417 10.4018 12.6066 10.2148C12.2395 8.4138 10.7945 7.16987 9.63454 5.83436C9.54862 5.73515 9.39239 5.68936 9.33381 5.60923C9.14244 5.3345 9.16978 4.47596 9.33381 4.20885C9.37287 4.14017 9.50175 4.11728 9.56033 4.05623C9.79856 3.8082 9.85324 3.67465 10.2672 3.60597C11.8607 3.34268 12.1457 4.99108 12.7862 6.04041C13.333 6.93329 14.9186 8.57788 15.9848 8.77629C16.4613 8.86406 17.2346 8.18104 17.7423 8.08946C17.5041 7.37592 16.5824 5.91067 16.9182 5.18568C17.1643 4.65148 18.0118 4.44161 18.4023 4.91095C18.5039 5.03305 18.8944 5.83436 18.996 6.04423C19.2186 6.49067 19.3904 6.97908 19.5779 7.44079C19.7849 7.57052 21.2728 7.06684 21.6126 6.9829C21.9329 6.90277 22.4445 6.89895 22.7296 6.78829C23.0537 6.66238 23.2178 6.02896 23.3154 5.71989C23.6318 4.73543 23.745 3.81202 23.6591 2.77414C23.6122 2.19033 23.3388 1.56455 23.4716 0.946397C23.663 0.0611456 24.6979 -0.312797 25.3814 0.305352C25.8696 0.747978 25.8383 1.36994 25.7798 1.98428C25.7485 2.3048 25.5923 2.61769 25.5611 2.9115C25.4244 4.16307 25.8227 5.83818 26.5882 6.84172C27.5802 6.80737 28.4902 6.95237 29.4392 7.20421C29.8649 6.37238 29.8375 4.28135 31.2709 4.62095C32.5401 4.9224 31.3529 6.96763 31.2045 7.71933C31.5169 7.96354 31.8801 7.90631 32.2863 8.05512C33.0439 8.33748 33.6493 9.07392 34.5007 8.66182C34.5397 8.64274 34.5514 8.55117 34.6061 8.52064C36.0863 7.62776 37.0588 6.78829 37.6954 5.14371C37.9883 4.90713 38.1171 4.46069 38.5546 4.38819C38.6952 4.3653 38.7615 4.4378 38.8318 4.44161C38.8709 4.44161 38.8592 4.31951 38.91 4.30806C39.1794 4.23557 39.1599 4.44543 39.2029 4.44925C39.2615 4.45306 39.3435 4.38056 39.4528 4.40727C39.8043 4.49122 40.0972 5.07503 40.1128 5.41081C40.1519 6.31896 39.5231 6.41054 39.0466 6.94474C38.7616 7.26145 38.2304 7.92157 38.0039 8.28406C37.547 9.0205 37.2814 9.92483 37.1134 10.7681C37.629 11.4244 38.3124 11.9891 38.9139 12.5806C39.6325 12.2448 41.1205 10.585 41.8976 11.5885C42.7295 12.6607 40.7729 13.401 40.191 13.9886L41.6633 16.568C43.0107 16.7588 44.3425 16.3276 45.518 15.6942C46.4007 15.2211 47.0021 14.3816 48.1269 14.8586C48.8494 15.1638 48.9353 16.2742 48.3651 16.7588C47.955 17.1099 46.7248 17.3274 46.1624 17.5372C45.0298 17.9608 43.7723 18.6705 42.9756 19.5634L43.5536 23.0052C44.4635 23.0853 45.3618 22.7037 46.2679 22.9594C46.8849 23.1349 47.1154 23.8141 46.7521 24.3216C46.3304 24.9131 44.405 24.6917 43.6942 24.7948L43.4208 27.565C44.3776 28.4159 45.9008 28.9539 47.1739 29.1447C47.9004 29.2516 49.5368 29.118 49.9234 29.8888C50.2593 30.5527 49.8765 31.5563 49.0681 31.6555C47.9043 31.7967 47.0412 31.0678 45.975 30.816C44.9322 30.5718 43.7371 30.568 42.7061 30.7969C42.6475 31.2777 41.6789 32.8231 41.8039 33.1779C41.8547 33.3306 43.5262 34.2883 43.8074 34.5821C44.5573 35.3644 43.9363 36.3488 42.9599 36.1237C42.3468 35.9825 41.5461 35.0896 40.9916 34.834C40.9174 34.7996 40.8588 34.7767 40.7768 34.7996C40.6635 35.5017 39.0974 36.8754 39.0427 37.4134C39.0076 37.7416 39.2693 38.6955 39.402 39.0313C40.0191 40.5576 41.2845 41.2292 42.3819 42.2594C43.2489 43.0722 42.7998 44.5908 41.554 44.5565C40.5424 44.5298 40.0855 43.3126 39.5309 42.6181C38.5116 41.3398 37.3204 40.4317 35.7153 39.9509L33.1103 41.233C33.2119 42.0724 34.4655 43.7323 33.7625 44.4764C33.5438 44.7091 33.0908 44.7969 32.7862 44.7053C32.1769 44.526 31.5638 42.5112 31.3451 41.9351L28.7284 42.7707C28.4667 42.9272 27.9043 42.7783 27.7247 42.9348C27.6388 43.0111 27.1271 44.1177 27.0686 44.2932C26.803 45.0907 26.803 46.1973 26.8928 47.0329C26.9709 47.7579 27.3654 48.7652 26.9162 49.4292C26.4906 50.055 25.5103 50.2381 24.983 49.6123C24.4167 48.9408 24.7917 47.9296 24.8385 47.1817C24.9284 45.7432 24.7097 44.1902 23.8348 43.0035C22.4796 42.9119 21.1674 42.7402 19.8434 42.4388C19.2615 43.1141 18.6991 45.808 17.3127 44.7473C16.4965 44.1215 17.6798 42.496 17.9649 41.7901C17.1252 41.4924 16.3519 41.0575 15.5357 40.6988C15.4381 40.6568 15.3678 40.5347 15.2818 40.5118C14.8522 40.3973 13.7821 41.1109 13.4111 41.3703C12.0013 42.3624 11.6927 43.221 10.7163 44.4496C9.50565 45.9759 7.62712 44.7167 8.37697 43.3049C8.58787 42.9081 9.77513 42.0114 10.1852 41.5688C11.0757 40.5996 11.7786 39.5731 11.9778 38.2529L9.8923 35.8566C9.77514 35.8566 8.36135 37.0395 7.97471 37.1272C7.09598 37.3257 6.3266 36.5625 6.8226 35.7879C7.07255 35.3949 8.79876 34.4448 8.83001 34.315C8.6074 33.9335 8.38478 33.5595 8.1817 33.1665C7.98252 32.7773 7.84973 32.0256 7.38498 31.9455C5.98291 31.6974 4.39339 32.0752 3.13583 32.6857C2.30006 33.0902 1.79625 33.7274 0.737871 33.3001C-0.0549401 32.9795 -0.199449 31.7356 0.472292 31.2243C0.74177 31.0182 1.52287 30.8351 1.88608 30.7473C3.2608 30.4154 4.0419 30.3734 5.31509 29.5988C5.76422 29.3279 6.58826 28.7288 6.56874 28.1831C6.53359 27.3093 6.17428 26.3821 6.20162 25.5007C6.06102 25.4892 5.93605 25.5655 5.79936 25.5732C5.3307 25.5923 4.3973 25.6762 3.99113 25.6266C3.23347 25.535 2.78824 24.9588 3.12411 24.2453C3.51857 23.4097 5.51816 23.7378 6.2563 23.5547L6.64684 20.8226C6.63513 20.5975 5.96729 19.9869 5.76421 19.8229C4.23326 18.5866 2.91322 18.598 1.15966 18.1096C-0.000264169 17.7891 -0.281462 16.3887 0.792543 15.8201C1.80406 15.2859 2.52657 16.0338 3.37797 16.4421C4.03408 16.7588 5.24869 17.0793 6.09617 17.1442C6.40861 17.1671 7.56463 17.1938 7.79506 17.0984L7.77944 17.1137ZM10.2438 32.659C15.6099 43.1065 31.6067 44.0604 38.4921 34.6737C41.8039 30.1597 42.5538 24.7719 40.9603 19.4298C39.9996 16.2246 36.7424 12.4432 33.7938 10.791C27.2912 7.14316 18.9139 8.00551 13.4541 13.0461C7.73257 18.3271 6.72495 25.8059 10.2438 32.659Z" fill="#BA653C"/>
<path d="M16.1449 17.7547C15.5162 16.5337 15.6724 15.2745 16.3402 14.1145C17.0471 12.8858 18.0039 12.7675 19.363 12.8973C21.3666 13.0881 22.214 15.2134 21.8118 16.961C21.2923 19.2238 17.1994 19.8 16.1449 17.7547Z" fill="#BA653C"/>
<path d="M30.2008 18.3004C28.5801 17.045 29.4236 13.8283 31.638 13.9657C32.2043 14 33.3447 14.3015 33.708 14.7288C33.954 15.0226 34.2742 15.8964 34.3211 16.2704C34.5672 18.2164 31.7083 19.4642 30.2008 18.2965V18.3004Z" fill="#BA653C"/>
<path d="M36.3207 24.3903C37.2229 24.5581 37.9258 25.4091 38.289 26.1836C38.8514 27.3932 37.5861 28.6105 36.4613 28.9195C35.8677 29.0836 35.5747 28.9806 35.0436 28.7097C33.993 28.1755 33.5908 27.1986 33.7509 26.0577C33.8993 25.0084 35.2857 24.1995 36.3207 24.3903Z" fill="#BA653C"/>
<path d="M23.0927 26.6034C22.9717 25.8784 23.9246 24.7604 24.6549 24.665C24.8736 24.6345 25.1392 24.6497 25.3579 24.6803C26.3968 24.8176 27.2794 25.6838 26.9435 26.7598C26.3421 28.7135 23.4208 28.5685 23.0927 26.6034Z" fill="#BA653C"/>
<path d="M15.8091 29.2324C17.3166 29.0378 18.332 29.9612 18.0157 31.4608C17.9649 31.6974 17.3439 32.4644 17.1409 32.5369C17.0081 32.5827 16.8792 32.5598 16.7698 32.5903C16.7074 32.6094 16.7191 32.7238 16.6878 32.72C16.4457 32.7048 16.0708 32.7429 15.9614 32.7315C15.9145 32.7238 15.9145 32.6208 15.8911 32.6132C15.153 32.3575 14.7078 32.1515 14.45 31.3425C14.161 30.4382 14.8484 29.3622 15.813 29.2363L15.8091 29.2324Z" fill="#BA653C"/>
<path d="M31.06 32.0256C31.6575 32.1401 32.3917 32.8956 32.4855 33.4946C32.8135 35.578 29.7594 35.8642 29.2478 34.0136C29.0291 33.2276 30.2437 31.873 31.06 32.0256Z" fill="#BA653C"/>
<path d="M23.1006 32.9642C23.5341 32.9871 24.034 33.4145 24.2254 33.7808C24.8776 35.0438 23.6435 36.1771 22.3508 35.5399C21.0151 34.8836 21.7415 32.8956 23.1006 32.9642Z" fill="#BA653C"/>
<path d="M17.2541 23.5966C17.922 23.9553 17.9142 24.9856 17.3518 25.4205C16.969 25.7182 16.3051 25.6419 15.9067 25.4129C14.8445 24.7948 15.8755 22.8526 17.2541 23.5966Z" fill="#BA653C"/>
<path d="M24.0301 21.4025C23.1084 20.9828 23.4208 19.3611 24.6276 19.6053C25.8618 19.8571 25.358 22.0092 24.0301 21.4025Z" fill="#BA653C"/>
<path d="M12.3137 21.288C12.177 21.269 11.8723 21.1163 11.7864 21.0133C11.2319 20.3417 11.8528 19.6244 12.6417 19.7503C13.665 19.9106 13.4424 21.4521 12.3137 21.2919V21.288Z" fill="#BA653C"/>
<path d="M30.642 23.7225C30.5952 23.7187 30.2046 23.5164 30.1851 23.4974C29.9781 23.2951 30.1773 22.7228 30.3882 22.5549C31.4505 21.704 32.1066 23.898 30.6459 23.7225H30.642Z" fill="#BA653C"/>
<path d="M26.2875 12.9812C25.8305 13.317 25.0885 12.9393 25.1354 12.5004C25.1471 12.3974 25.3658 11.8594 25.4283 11.8212C26.1235 11.4244 26.9475 12.4966 26.2875 12.9812Z" fill="#BA653C"/>
<path d="M37.7188 20.2922C37.5352 20.4067 37.1134 20.3456 36.9767 20.2121C36.8049 20.0442 36.8635 19.5329 37.0666 19.3688C37.6641 18.8956 38.4842 19.8076 37.7188 20.2922Z" fill="#BA653C"/>
<path d="M27.049 37.1158C28.0684 36.6922 28.1973 38.2414 27.135 38.0774C26.6468 38.001 26.596 37.3028 27.049 37.1158Z" fill="#BA653C"/>
<path d="M12.2083 26.0959C12.5051 26.1989 12.7434 26.8972 12.263 27.0537C11.3296 27.3551 11.2905 25.783 12.2083 26.0959Z" fill="#BA653C"/>
<path d="M17.9024 36.4518C18.664 36.5549 18.457 37.5775 17.8087 37.2646C17.5431 37.1349 17.4962 36.3984 17.9024 36.4518Z" fill="#BA653C"/>
<path d="M35.356 32.4071C35.7895 32.2163 36.0317 32.8879 35.7739 33.1397C35.3521 33.5518 34.7976 32.6551 35.356 32.4071Z" fill="#BA653C"/>
</svg>
