<svg width="86" height="102" viewBox="0 0 86 102" fill="none" xmlns="http://www.w3.org/2000/svg">
<g opacity="0.05">
<path d="M83.2333 78.3712C79.0063 69.8807 67.224 66.9485 59.5167 72.5908L50.8645 56.016C56.6481 44.1995 64.233 33.0533 70.3499 21.3584C73.0329 16.2272 75.9057 12.051 73.8513 6.01084C72.8726 3.14156 68.2491 -1.91005 65.1991 0.749793L42.8493 39.927L20.3096 0.946663C16.0194 -2.10692 11.2398 4.31441 10.7926 8.29789C10.1936 13.6762 12.5728 17.2492 14.9394 21.7772C20.9298 33.2292 28.1561 44.0822 33.9777 55.639L25.1356 71.996C22.748 71.4933 20.4193 69.9938 17.711 69.7089C-2.52951 67.5685 -7.22052 98.9714 13.6444 101.807C32.227 104.333 33.4124 81.3955 42.6468 70.9195C44.9121 75.2967 47.5319 79.5273 49.8267 83.892C52.9653 89.8693 54.2478 96.4749 60.7106 99.893C75.0789 107.491 90.4892 92.9229 83.2375 78.3628L83.2333 78.3712ZM16.6184 15.0836C15.239 11.917 14.4332 8.16385 17.3314 5.58778L39.8372 44.8195L36.7366 49.9716L16.6184 15.0836ZM18.1329 96.8435C1.10687 98.7829 1.17015 76.2098 14.9141 74.3836C29.215 72.4819 32.459 95.2141 18.1329 96.8435ZM42.3599 60.167C38.6814 66.8354 35.5386 73.8642 31.8811 80.5536L28.6919 75.0873L67.9538 5.58359C70.8435 8.32721 69.9534 11.7033 68.5275 14.9412C62.1196 29.4929 50.2823 45.8122 42.3599 60.167ZM53.8175 80.5577C52.8303 80.7672 53.1425 80.4237 52.8767 80.0174C51.8559 78.455 51.067 76.1303 50.0967 74.4129C49.2825 72.972 45.2032 66.8983 45.0514 66.0312C45.0092 65.7841 46.705 61.8928 46.975 61.4027C47.2408 60.921 46.9539 60.6948 47.9115 60.8707L55.4416 75.837L53.8217 80.5536L53.8175 80.5577ZM67.9369 96.9064C53.9187 96.0016 54.2267 76.746 65.9458 74.7941C83.3768 71.8871 85.1106 98.0164 67.9369 96.9064Z" fill="url(#paint0_linear_26161_716)"/>
<path d="M41.8918 53.8085C39.9006 54.3614 40.6515 57.6872 42.9759 57.0422C44.9671 56.4893 44.2162 53.1634 41.8918 53.8085Z" fill="url(#paint1_linear_26161_716)"/>
</g>
<defs>
<linearGradient id="paint0_linear_26161_716" x1="42.5897" y1="0" x2="42.5897" y2="102" gradientUnits="userSpaceOnUse">
<stop/>
<stop offset="1" stop-opacity="0.3"/>
</linearGradient>
<linearGradient id="paint1_linear_26161_716" x1="42.5897" y1="0" x2="42.5897" y2="102" gradientUnits="userSpaceOnUse">
<stop/>
<stop offset="1" stop-opacity="0.3"/>
</linearGradient>
</defs>
</svg>
