<svg width="60" height="64" viewBox="0 0 60 64" fill="none" xmlns="http://www.w3.org/2000/svg">
<path d="M21.8411 61C9.96744 61 1 56.9282 1 51.5332V42.3378C1 36.9427 9.95613 32.8709 21.8411 32.8709C33.7261 32.8709 42.6822 36.9427 42.6822 42.3378V51.5332C42.6822 56.9282 33.7261 61 21.8411 61ZM2.9224 51.5332C2.9224 55.1751 10.5215 59.0772 21.8411 59.0772C33.1607 59.0772 40.7598 55.1751 40.7598 51.5332V46.4548L40.0248 47.0542C36.3835 50.0289 29.5872 51.8046 21.8524 51.8046C14.1176 51.8046 7.32131 50.0289 3.68005 47.0542L2.94502 46.4548V51.5332H2.9224ZM11.1209 36.1509C6.06609 37.5874 2.9224 39.9512 2.9224 42.3264C2.9224 45.9684 10.5215 49.8705 21.8411 49.8705C24.2045 49.8705 26.5227 49.6895 28.7504 49.3276L29.8473 49.1466L11.3357 36.0831L11.1322 36.1396L11.1209 36.1509ZM21.8411 34.7824C19.4777 34.7824 17.1595 34.9633 14.9318 35.3253L13.8349 35.5062L32.3465 48.5698L32.55 48.5133C37.6048 47.0768 40.7485 44.7129 40.7485 42.3378C40.7485 38.6958 33.1493 34.7937 21.8298 34.7937L21.8411 34.7824Z" fill="#E6E6E6"/>
<path d="M46.7305 40.709C53.0292 37.4969 57.0776 30.9255 57.0776 23.8452C57.0776 19.6829 55.7319 15.7243 53.1763 12.3877L52.8822 12.0031L32.0751 30.5523L30.7972 29.1158L51.6044 10.5554L51.2538 10.2161C47.7031 6.80031 43.0554 4.92278 38.1589 4.92278C27.7327 4.92278 19.2402 13.4056 19.2402 23.8452C19.2402 25.3721 19.4211 26.8764 19.7717 28.3354L17.9171 28.8331C17.5213 27.2157 17.3178 25.5304 17.3178 23.8452C17.3178 12.3537 26.6697 3 38.1589 3C49.6481 3 59 12.3537 59 23.8452C59 31.672 54.5219 38.922 47.5674 42.4509L46.7419 40.7204L46.7305 40.709Z" fill="#E6E6E6"/>
</svg>
