<svg width="53" height="60" viewBox="0 0 53 60" fill="none" xmlns="http://www.w3.org/2000/svg">
<path d="M25.7734 0.0731451C26.3218 -0.040295 27.045 -0.0200378 27.5894 0.121762C29.1495 0.526906 32.3955 2.4959 34.2278 3.23731C37.4211 4.52567 40.7443 5.57094 44.1407 6.19891C45.9974 6.54328 49.0281 6.58785 50.6166 7.13884C51.8395 7.56424 52.2742 8.42315 52.3839 9.65883C52.6561 12.7298 52.392 17.2269 52.1807 20.3708C51.0716 36.8642 45.262 48.8929 31.0833 57.7291C30.0961 58.3449 27.7316 59.9411 26.7118 59.9979C25.424 60.0667 23.1164 58.4502 21.9423 57.7291C6.98757 48.5607 1.32826 35.0208 0.63761 17.8468C0.544169 15.5537 0.369474 11.4455 0.661986 9.29015C0.82043 8.1436 1.44608 7.39003 2.55113 7.08617C4.54184 6.53923 7.4304 6.47036 9.66081 6.00039C12.9231 5.31165 16.092 4.27043 19.1837 3.03879C20.8657 2.37031 24.3514 0.3689 25.7734 0.0731451ZM26.5087 1.85578C20.4919 4.78091 14.4995 7.11048 7.87323 8.30971C7.03226 8.45961 2.9249 8.81613 2.68926 9.17266C1.79547 24.8477 4.48496 41.1385 16.9533 51.8059C19.7891 54.2286 23.2261 56.2665 26.5128 58.0289C39.6758 51.6357 47.4355 40.5915 49.6131 26.1846C50.3038 21.6187 50.8807 14.5854 50.4379 10.0478C50.381 9.44816 50.3038 9.11999 49.7025 8.83639C41.4431 8.36238 33.8012 5.53853 26.5168 1.85983L26.5087 1.85578Z" fill="#BA653C"/>
<path d="M47.1107 13.1587C47.0579 12.5956 47.0091 12.1661 46.5094 11.8096C45.9447 11.4045 43.5396 11.4166 42.5686 11.2627C39.1641 10.7157 35.8571 9.75552 32.6598 8.49147C31.3475 7.97289 27.3336 5.80942 26.3098 5.85804C25.3063 5.90666 22.3284 7.62852 21.1339 8.10659C18.3145 9.23288 15.369 10.2538 12.3911 10.8697C11.3917 11.0763 6.68302 11.6232 6.34582 11.9473C5.72829 12.5429 5.88673 16.0677 5.90298 17.0684C6.15081 30.7257 10.2744 43.2973 21.8571 51.3799C22.7184 51.9836 25.2819 53.7379 26.1635 53.9121C27.0248 54.0822 28.7271 52.9478 29.5152 52.4738C39.095 46.6965 44.9372 36.5314 46.481 25.5926C46.9766 22.0719 47.4276 16.647 47.1066 13.1587H47.1107ZM34.167 32.5246H29.1862V37.4916H23.9088V32.5246H18.9279V27.2618H23.9088V22.2947H29.1862V27.2618H34.167V32.5246Z" fill="#BA653C"/>
</svg>
