<svg width="85" height="95" viewBox="0 0 85 95" fill="none" xmlns="http://www.w3.org/2000/svg">
<g opacity="0.05">
<path d="M39.4116 0.285031C68.7223 3.07234 80.3568 40.4215 59.619 60.0935C60.7813 60.8898 62.2283 63.1335 63.297 63.7499C64.4007 64.3855 65.2159 64.037 66.6395 65.0631C72.5406 69.313 78.0206 77.5677 83.7306 82.3613C86.6012 86.6724 84.4365 93.3459 78.9176 93.9776C76.4448 94.2609 74.4635 94.1537 72.4743 92.6452C70.5203 91.1673 55.317 75.4045 55.0127 74.1793C54.8177 73.3906 55.0829 72.5598 54.728 71.7787C54.1703 70.5305 50.5235 68.3137 49.8683 66.5793C29.1109 75.4313 5.51025 64.3089 0.829895 42.3703C-4.25999 18.4791 14.7344 -2.06197 39.4116 0.285031ZM59.7867 73.6816L74.8457 89.1726C78.9722 91.7952 82.6073 87.9704 79.6782 84.0459L64.1043 68.7119C63.258 69.9486 60.3717 71.8093 59.7906 72.9197C59.6346 73.2145 59.5293 73.3906 59.7906 73.6777L59.7867 73.6816ZM57.2788 68.7042L59.9739 66.5487L56.608 63.0033L53.7647 64.1174C53.1796 64.8832 57.4075 67.4944 57.2827 68.7042H57.2788ZM6.07578 44.1124C14.6954 71.2159 53.2732 72.5559 63.5193 45.9348C70.7894 27.0516 58.0394 6.2272 37.4614 4.49662C15.7407 2.67415 -0.344086 23.9121 6.07969 44.1085L6.07578 44.1124Z" fill="url(#paint0_linear_26102_830)"/>
<path d="M17.882 27.3847C18.1043 27.2928 19.0482 25.2598 19.3563 24.9573C18.6776 24.3639 16.3024 23.4105 17.098 22.2351C17.9444 20.9831 19.6644 23.043 20.4835 23.4143L22.7807 21.2167C22.8275 21.0559 22.7378 20.65 22.7027 20.4624C22.3361 18.6552 20.893 17.4071 19.7346 16.067C19.6488 15.9675 19.4928 15.9215 19.4343 15.8411C19.2432 15.5655 19.2705 14.704 19.4343 14.436C19.4733 14.3671 19.602 14.3441 19.6605 14.2828C19.8984 14.034 19.953 13.9 20.3665 13.8311C21.9578 13.5669 22.2425 15.2209 22.8821 16.2738C23.4282 17.1697 25.0117 18.8199 26.0765 19.019C26.5523 19.107 27.3246 18.4217 27.8316 18.3298C27.5937 17.6138 26.6732 16.1436 27.0087 15.4161C27.2544 14.8801 28.1007 14.6695 28.4908 15.1405C28.5922 15.263 28.9822 16.067 29.0836 16.2776C29.3059 16.7256 29.4775 17.2156 29.6647 17.6789C29.8715 17.8091 31.3575 17.3037 31.6968 17.2195C32.0166 17.1391 32.5276 17.1352 32.8123 17.0242C33.136 16.8979 33.2998 16.2623 33.3973 15.9522C33.7133 14.9644 33.8264 14.0378 33.7406 12.9964C33.6938 12.4106 33.4207 11.7827 33.5533 11.1624C33.7445 10.2742 34.778 9.89896 35.4606 10.5192C35.9481 10.9633 35.9169 11.5874 35.8584 12.2039C35.8272 12.5255 35.6712 12.8394 35.64 13.1342C35.5035 14.39 35.9013 16.0709 36.6658 17.0778C37.6564 17.0434 38.5652 17.1888 39.513 17.4415C39.9381 16.6069 39.9108 14.5087 41.3422 14.8495C42.6098 15.152 41.4241 17.2042 41.2759 17.9584C41.5879 18.2035 41.9507 18.146 42.3563 18.2953C43.113 18.5787 43.7175 19.3176 44.5678 18.9041C44.6068 18.885 44.6185 18.7931 44.6731 18.7624C46.1513 17.8665 47.1225 17.0242 47.7582 15.374C48.0507 15.1366 48.1794 14.6887 48.6163 14.6159C48.7567 14.593 48.823 14.6657 48.8932 14.6695C48.9322 14.6695 48.9205 14.547 48.9712 14.5355C49.2403 14.4628 49.2208 14.6734 49.2637 14.6772C49.3222 14.681 49.4041 14.6083 49.5133 14.6351C49.8644 14.7193 50.1569 15.3051 50.1725 15.642C50.2115 16.5533 49.5835 16.6452 49.1077 17.1812C48.823 17.499 48.2925 18.1613 48.0663 18.5251C47.61 19.264 47.3448 20.1714 47.1771 21.0176C47.6919 21.6761 48.3745 22.2428 48.9751 22.8362C49.6927 22.4993 51.1788 20.8338 51.9549 21.8407C52.7857 22.9166 50.8316 23.6594 50.2505 24.249L51.7209 26.8372C53.0665 27.0287 54.3965 26.596 55.5705 25.9604C56.452 25.4857 57.0526 24.6434 58.1759 25.122C58.8974 25.4282 58.9832 26.5424 58.4138 27.0287C58.0043 27.3809 56.7757 27.5991 56.214 27.8097C55.083 28.2347 53.8271 28.9468 53.0314 29.8428L53.6086 33.2963C54.5174 33.3767 55.4145 32.9938 56.3193 33.2503C56.9356 33.4264 57.1657 34.108 56.803 34.6172C56.3817 35.2106 54.4589 34.9886 53.7491 35.0919L53.476 37.8716C54.4316 38.7254 55.9527 39.2652 57.2242 39.4567C57.9497 39.5639 59.5839 39.4299 59.97 40.2033C60.3054 40.8695 59.9232 41.8764 59.1159 41.976C57.9536 42.1176 57.0916 41.3863 56.0268 41.1337C54.9854 40.8886 53.792 40.8848 52.7623 41.1145C52.7038 41.5969 51.7365 43.1476 51.8613 43.5036C51.912 43.6568 53.5813 44.6178 53.8622 44.9126C54.611 45.6975 53.9909 46.6853 53.0158 46.4594C52.4035 46.3177 51.6039 45.4218 51.05 45.1653C50.9759 45.1308 50.9174 45.1079 50.8355 45.1308C50.7224 45.8353 49.1584 47.2137 49.1038 47.7535C49.0687 48.0828 49.33 49.04 49.4626 49.3769C50.0789 50.9084 51.3426 51.5822 52.4386 52.616C53.3044 53.4315 52.8559 54.9553 51.6117 54.9209C50.6015 54.8941 50.1452 53.6727 49.5913 52.9759C48.5734 51.6933 47.3838 50.782 45.7808 50.2996L43.1793 51.5861C43.2807 52.4284 44.5327 54.0939 43.8306 54.8405C43.6122 55.074 43.1598 55.1621 42.8555 55.0702C42.2471 54.8902 41.6348 52.8687 41.4163 52.2905L38.8031 53.129C38.5418 53.286 37.9802 53.1367 37.8008 53.2937C37.715 53.3702 37.204 54.4806 37.1455 54.6567C36.8803 55.4569 36.8803 56.5672 36.97 57.4057C37.048 58.1332 37.4419 59.1439 36.9934 59.8101C36.5683 60.4381 35.5893 60.6218 35.0628 59.9939C34.4972 59.3201 34.8716 58.3055 34.9184 57.555C35.0082 56.1116 34.7897 54.5533 33.9161 53.3626C32.5627 53.2707 31.2522 53.0984 29.93 52.7959C29.3488 53.4736 28.7872 56.1767 27.4026 55.1123C26.5874 54.4844 27.7692 52.8534 28.0539 52.145C27.2154 51.8464 26.4431 51.4099 25.628 51.05C25.5304 51.0079 25.4602 50.8854 25.3744 50.8624C24.9454 50.7476 23.8767 51.4635 23.5062 51.7239C22.0982 52.7194 21.7901 53.5808 20.815 54.8137C19.6059 56.3451 17.7299 55.0817 18.4787 53.6651C18.6893 53.2669 19.875 52.3671 20.2846 51.923C21.1738 50.9505 21.8759 49.9206 22.0748 48.5958L19.992 46.1914C19.875 46.1914 18.4631 47.3783 18.077 47.4664C17.1994 47.6655 16.4311 46.8997 16.9264 46.1225C17.176 45.7281 18.9 44.7748 18.9312 44.6446C18.7088 44.2617 18.4865 43.8865 18.2837 43.4921C18.0848 43.1016 17.9522 42.3474 17.488 42.267C16.0878 42.0181 14.5004 42.3971 13.2445 43.0097C12.4099 43.4156 11.9067 44.055 10.8498 43.6262C10.058 43.3045 9.91368 42.0564 10.5845 41.5433C10.8536 41.3366 11.6337 41.1528 11.9964 41.0647C13.3693 40.7316 14.1494 40.6895 15.4209 39.9123C15.8694 39.6405 16.6924 39.0393 16.6729 38.4918C16.6378 37.6151 16.279 36.6847 16.3063 35.8002C16.1658 35.7888 16.041 35.8653 15.9045 35.873C15.4365 35.8921 14.5043 35.9764 14.0987 35.9266C13.342 35.8347 12.8974 35.2566 13.2328 34.5406C13.6268 33.7021 15.6237 34.0314 16.3609 33.8476L16.7509 31.1062C16.7392 30.8803 16.0722 30.2677 15.8694 30.1031C14.3405 28.8626 13.0222 28.8741 11.271 28.384C10.1126 28.0624 9.83177 26.6573 10.9044 26.0868C11.9145 25.5508 12.6361 26.3012 13.4863 26.7109C14.1416 27.0287 15.3546 27.3503 16.201 27.4154C16.513 27.4383 17.6675 27.4651 17.8976 27.3694L17.882 27.3847ZM20.3431 42.9829C25.7021 53.466 41.6777 54.4231 48.5539 45.0045C51.8613 40.4751 52.6102 35.069 51.0188 29.7088C50.0594 26.4926 46.8065 22.6984 43.8618 21.0405C37.3678 17.3803 29.0017 18.2456 23.5491 23.3033C17.8352 28.6023 16.8289 36.1065 20.3431 42.9829Z" fill="url(#paint1_linear_26102_830)"/>
<path d="M26.2364 28.0279C25.6084 26.8027 25.7644 25.5393 26.4314 24.3753C27.1373 23.1425 28.0929 23.0238 29.4502 23.154C31.4511 23.3454 32.2974 25.478 31.8957 27.2316C31.377 29.502 27.2895 30.0801 26.2364 28.0279Z" fill="url(#paint2_linear_26102_830)"/>
<path d="M40.2736 28.5754C38.655 27.3158 39.4975 24.0882 41.7089 24.226C42.2745 24.2605 43.4134 24.5629 43.7761 24.9918C44.0218 25.2866 44.3416 26.1633 44.3884 26.5386C44.6342 28.4912 41.7791 29.7432 40.2736 28.5716V28.5754Z" fill="url(#paint3_linear_26102_830)"/>
<path d="M46.3854 34.686C47.2863 34.8545 47.9884 35.7083 48.3511 36.4855C48.9128 37.6992 47.6491 38.9206 46.5258 39.2307C45.9329 39.3954 45.6404 39.292 45.11 39.0201C44.0608 38.4841 43.6591 37.504 43.819 36.3592C43.9672 35.3063 45.3518 34.4946 46.3854 34.686Z" fill="url(#paint4_linear_26102_830)"/>
<path d="M33.175 36.9067C33.0541 36.1792 34.0057 35.0574 34.7351 34.9617C34.9535 34.9311 35.2187 34.9464 35.4371 34.977C36.4746 35.1149 37.3561 35.984 37.0207 37.0637C36.42 39.024 33.5026 38.8785 33.175 36.9067Z" fill="url(#paint5_linear_26102_830)"/>
<path d="M25.901 39.5447C27.4065 39.3494 28.4206 40.276 28.1046 41.7807C28.0539 42.0181 27.4338 42.7876 27.231 42.8604C27.0984 42.9063 26.9697 42.8833 26.8605 42.914C26.7981 42.9331 26.8098 43.048 26.7785 43.0442C26.5367 43.0288 26.1623 43.0671 26.0531 43.0556C26.0063 43.048 26.0063 42.9446 25.9829 42.9369C25.2457 42.6804 24.8011 42.4737 24.5437 41.662C24.2551 40.7546 24.9415 39.6749 25.9049 39.5485L25.901 39.5447Z" fill="url(#paint6_linear_26102_830)"/>
<path d="M41.1316 42.3474C41.7284 42.4622 42.4616 43.2203 42.5552 43.8214C42.8829 45.9119 39.8328 46.199 39.3219 44.3421C39.1035 43.5534 40.3165 42.1942 41.1316 42.3474Z" fill="url(#paint7_linear_26102_830)"/>
<path d="M33.1828 43.2892C33.6158 43.3122 34.115 43.741 34.3061 44.1085C34.9575 45.3759 33.725 46.513 32.434 45.8736C31.1001 45.215 31.8255 43.2203 33.1828 43.2892Z" fill="url(#paint8_linear_26102_830)"/>
<path d="M27.3441 33.8897C28.0111 34.2496 28.0033 35.2834 27.4416 35.7198C27.0594 36.0185 26.3963 35.9419 25.9985 35.7122C24.9376 35.0919 25.9673 33.1431 27.3441 33.8897Z" fill="url(#paint9_linear_26102_830)"/>
<path d="M34.1111 31.6882C33.1906 31.267 33.5026 29.6398 34.7078 29.8848C35.9403 30.1375 35.4372 32.2969 34.1111 31.6882Z" fill="url(#paint10_linear_26102_830)"/>
<path d="M22.4102 31.5733C22.2737 31.5541 21.9695 31.401 21.8837 31.2976C21.3298 30.6238 21.95 29.904 22.7378 30.0303C23.7597 30.1911 23.5374 31.7379 22.4102 31.5771V31.5733Z" fill="url(#paint11_linear_26102_830)"/>
<path d="M40.7142 34.016C40.6674 34.0122 40.2774 33.8093 40.2579 33.7901C40.0512 33.5872 40.2501 33.0129 40.4607 32.8444C41.5216 31.9906 42.1769 34.1921 40.7181 34.016H40.7142Z" fill="url(#paint12_linear_26102_830)"/>
<path d="M36.3655 23.2382C35.9091 23.5751 35.1681 23.1961 35.2149 22.7558C35.2266 22.6524 35.445 22.1126 35.5074 22.0743C36.2017 21.6761 37.0246 22.752 36.3655 23.2382Z" fill="url(#paint13_linear_26102_830)"/>
<path d="M47.7816 30.574C47.5983 30.6889 47.177 30.6276 47.0405 30.4936C46.8689 30.3252 46.9274 29.8121 47.1302 29.6475C47.727 29.1727 48.546 30.0878 47.7816 30.574Z" fill="url(#paint14_linear_26102_830)"/>
<path d="M37.126 47.4549C38.144 47.0299 38.2727 48.5843 37.2118 48.4197C36.7243 48.3431 36.6736 47.6425 37.126 47.4549Z" fill="url(#paint15_linear_26102_830)"/>
<path d="M22.305 36.3975C22.6014 36.5009 22.8393 37.2015 22.3596 37.3585C21.4274 37.661 21.3884 36.0836 22.305 36.3975Z" fill="url(#paint16_linear_26102_830)"/>
<path d="M27.9915 46.7887C28.7521 46.892 28.5453 47.9181 27.8979 47.6042C27.6327 47.474 27.5859 46.7351 27.9915 46.7887Z" fill="url(#paint17_linear_26102_830)"/>
<path d="M45.422 42.7302C45.8549 42.5387 46.0967 43.2126 45.8393 43.4653C45.4181 43.8788 44.8642 42.979 45.422 42.7302Z" fill="url(#paint18_linear_26102_830)"/>
</g>
<defs>
<linearGradient id="paint0_linear_26102_830" x1="42.5" y1="0.101807" x2="42.5" y2="94.1018" gradientUnits="userSpaceOnUse">
<stop/>
<stop offset="1" stop-opacity="0.3"/>
</linearGradient>
<linearGradient id="paint1_linear_26102_830" x1="42.5" y1="0.101807" x2="42.5" y2="94.1018" gradientUnits="userSpaceOnUse">
<stop/>
<stop offset="1" stop-opacity="0.3"/>
</linearGradient>
<linearGradient id="paint2_linear_26102_830" x1="42.5" y1="0.101807" x2="42.5" y2="94.1018" gradientUnits="userSpaceOnUse">
<stop/>
<stop offset="1" stop-opacity="0.3"/>
</linearGradient>
<linearGradient id="paint3_linear_26102_830" x1="42.5" y1="0.101807" x2="42.5" y2="94.1018" gradientUnits="userSpaceOnUse">
<stop/>
<stop offset="1" stop-opacity="0.3"/>
</linearGradient>
<linearGradient id="paint4_linear_26102_830" x1="42.5" y1="0.101807" x2="42.5" y2="94.1018" gradientUnits="userSpaceOnUse">
<stop/>
<stop offset="1" stop-opacity="0.3"/>
</linearGradient>
<linearGradient id="paint5_linear_26102_830" x1="42.5" y1="0.101807" x2="42.5" y2="94.1018" gradientUnits="userSpaceOnUse">
<stop/>
<stop offset="1" stop-opacity="0.3"/>
</linearGradient>
<linearGradient id="paint6_linear_26102_830" x1="42.5" y1="0.101807" x2="42.5" y2="94.1018" gradientUnits="userSpaceOnUse">
<stop/>
<stop offset="1" stop-opacity="0.3"/>
</linearGradient>
<linearGradient id="paint7_linear_26102_830" x1="42.5" y1="0.101807" x2="42.5" y2="94.1018" gradientUnits="userSpaceOnUse">
<stop/>
<stop offset="1" stop-opacity="0.3"/>
</linearGradient>
<linearGradient id="paint8_linear_26102_830" x1="42.5" y1="0.101807" x2="42.5" y2="94.1018" gradientUnits="userSpaceOnUse">
<stop/>
<stop offset="1" stop-opacity="0.3"/>
</linearGradient>
<linearGradient id="paint9_linear_26102_830" x1="42.5" y1="0.101807" x2="42.5" y2="94.1018" gradientUnits="userSpaceOnUse">
<stop/>
<stop offset="1" stop-opacity="0.3"/>
</linearGradient>
<linearGradient id="paint10_linear_26102_830" x1="42.5" y1="0.101807" x2="42.5" y2="94.1018" gradientUnits="userSpaceOnUse">
<stop/>
<stop offset="1" stop-opacity="0.3"/>
</linearGradient>
<linearGradient id="paint11_linear_26102_830" x1="42.5" y1="0.101807" x2="42.5" y2="94.1018" gradientUnits="userSpaceOnUse">
<stop/>
<stop offset="1" stop-opacity="0.3"/>
</linearGradient>
<linearGradient id="paint12_linear_26102_830" x1="42.5" y1="0.101807" x2="42.5" y2="94.1018" gradientUnits="userSpaceOnUse">
<stop/>
<stop offset="1" stop-opacity="0.3"/>
</linearGradient>
<linearGradient id="paint13_linear_26102_830" x1="42.5" y1="0.101807" x2="42.5" y2="94.1018" gradientUnits="userSpaceOnUse">
<stop/>
<stop offset="1" stop-opacity="0.3"/>
</linearGradient>
<linearGradient id="paint14_linear_26102_830" x1="42.5" y1="0.101807" x2="42.5" y2="94.1018" gradientUnits="userSpaceOnUse">
<stop/>
<stop offset="1" stop-opacity="0.3"/>
</linearGradient>
<linearGradient id="paint15_linear_26102_830" x1="42.5" y1="0.101807" x2="42.5" y2="94.1018" gradientUnits="userSpaceOnUse">
<stop/>
<stop offset="1" stop-opacity="0.3"/>
</linearGradient>
<linearGradient id="paint16_linear_26102_830" x1="42.5" y1="0.101807" x2="42.5" y2="94.1018" gradientUnits="userSpaceOnUse">
<stop/>
<stop offset="1" stop-opacity="0.3"/>
</linearGradient>
<linearGradient id="paint17_linear_26102_830" x1="42.5" y1="0.101807" x2="42.5" y2="94.1018" gradientUnits="userSpaceOnUse">
<stop/>
<stop offset="1" stop-opacity="0.3"/>
</linearGradient>
<linearGradient id="paint18_linear_26102_830" x1="42.5" y1="0.101807" x2="42.5" y2="94.1018" gradientUnits="userSpaceOnUse">
<stop/>
<stop offset="1" stop-opacity="0.3"/>
</linearGradient>
</defs>
</svg>
