<svg width="85" height="85" viewBox="0 0 85 85" fill="none" xmlns="http://www.w3.org/2000/svg">
<g opacity="0.05">
<path d="M82.0749 27.0443C71.1932 -1.22298 34.164 -9.24469 12.4076 12.1664C-10.6043 34.8133 -0.0737286 75.4309 31.362 83.5579C65.387 92.3555 94.5031 59.3348 82.0749 27.0443ZM41.2968 3.71994C52.104 3.33729 61.5138 7.33937 68.4763 13.8094L57.5626 24.6115L55.7821 23.2424C55.7005 23.0493 55.7537 22.5297 55.775 22.2945C55.9736 19.9916 57.5839 18.2363 58.8288 16.4072C58.9211 16.2703 59.109 16.1931 59.1658 16.0843C59.3644 15.7156 59.2084 14.6449 58.9707 14.3325C58.9104 14.2552 58.7508 14.2412 58.6692 14.1745C58.3394 13.8972 58.2543 13.7357 57.7293 13.7076C55.7254 13.5952 55.6012 15.7016 54.9628 17.0953C54.4166 18.2889 52.6857 20.5603 51.3982 20.957C50.8201 21.1325 49.7702 20.3812 49.1318 20.3391C49.3268 19.4123 50.2597 17.4569 49.7383 16.5933C49.3552 15.9614 48.2805 15.8139 47.8655 16.4494C47.7556 16.6179 47.3903 17.6711 47.2909 17.9484C47.0817 18.5382 46.9363 19.1701 46.7696 19.7739C46.5355 19.9635 44.6202 19.5387 44.191 19.479C43.7831 19.4228 43.1518 19.4895 42.7829 19.3877C42.3644 19.2754 42.0735 18.5031 41.9068 18.1309C41.3748 16.9408 41.1088 15.8034 41.0627 14.4904C41.0378 13.7567 41.2861 12.9353 41.0343 12.1805C40.6725 11.0992 39.3389 10.7727 38.587 11.6398C38.0478 12.2612 38.1755 13.0371 38.3351 13.7989C38.4167 14.1991 38.6543 14.5677 38.7359 14.9328C39.08 16.4845 38.8246 18.6294 38.023 19.9916C36.7958 20.0828 35.6892 20.3883 34.5506 20.8376C33.9087 19.8546 33.6426 17.2357 31.926 17.8571C30.4008 18.4083 32.1565 20.8025 32.4438 21.7258C32.0927 22.0733 31.6316 22.0488 31.1563 22.2945C30.2589 22.7509 29.6134 23.7584 28.5033 23.3547C28.4501 23.3372 28.4252 23.2248 28.3543 23.1932C26.4 22.277 25.0805 21.3607 24.0626 19.3877C23.6654 19.1315 23.4454 18.5873 22.8921 18.5592C22.7148 18.5487 22.6439 18.647 22.5552 18.661C22.5091 18.6681 22.5055 18.5136 22.4417 18.5031C22.0976 18.4469 22.1544 18.7102 22.1012 18.7207C22.0267 18.7348 21.9168 18.654 21.7855 18.7032C21.3599 18.8576 21.0832 19.6265 21.1116 20.0512C21.1932 21.1922 21.9841 21.2203 22.6474 21.8241C23.0411 22.1822 23.7966 22.9369 24.1229 23.3582C24.7933 24.2183 25.2472 25.3136 25.5771 26.3457C25.0344 27.2374 24.2719 28.0378 23.6086 28.8628C22.6758 28.5434 20.6009 26.6687 19.7815 28.0308C18.9055 29.4842 21.4273 30.1477 22.2289 30.8007L20.7747 34.2305C19.1396 34.6553 17.43 34.2972 15.8871 33.6653C14.7273 33.1914 13.8654 32.226 12.546 32.9737C11.6983 33.4547 11.7479 34.8554 12.5211 35.3855C13.0745 35.7682 14.6315 35.8735 15.3515 36.056C16.8128 36.4317 18.4657 37.1443 19.5758 38.1554L19.3488 42.5401C18.2387 42.7648 17.0718 42.4102 15.99 42.8561C15.2522 43.158 15.0642 44.0426 15.5856 44.6289C16.1921 45.31 18.5366 44.7693 19.4304 44.8044L20.1611 48.2343C19.1006 49.4314 17.2952 50.3126 15.7452 50.7233C14.8656 50.9585 12.8226 51.0147 12.4538 52.0293C12.1345 52.9069 12.7481 54.111 13.759 54.1216C15.2132 54.1391 16.1815 53.107 17.4584 52.6471C18.7139 52.1978 20.1859 52.0293 21.4947 52.1767C21.6366 52.77 23.0482 54.5709 22.9489 55.0308C22.9063 55.2274 20.9768 56.6562 20.6718 57.0599C19.856 58.1412 20.764 59.2892 21.938 58.8749C22.6758 58.6151 23.5412 57.3864 24.1903 56.9932C24.2754 56.9406 24.3463 56.9055 24.4492 56.9195C24.4776 57.0178 24.5308 57.1266 24.6017 57.239L13.5426 68.185C12.9397 67.5075 12.3509 66.8054 11.7869 66.0752C-7.47246 41.2307 9.68011 4.83982 41.2968 3.71994ZM52.6077 29.5193C52.4374 28.8804 52.1288 28.2625 51.7103 27.6833C50.664 26.2439 49.4652 26.2264 47.8017 26.5739C45.3508 27.0865 44.606 29.8634 45.3508 31.9978C45.741 33.1177 46.8157 33.8093 48.0251 34.0585L26.4 55.4626C22.3175 50.4249 20.8988 44.1796 22.0409 37.706C22.7715 33.56 26.2616 28.3854 29.6737 25.9139C37.193 20.462 47.6634 20.3918 55.1224 25.9525C55.3317 26.107 55.5338 26.2685 55.7324 26.4265L52.6077 29.5193ZM41.7046 46.2684C43.1376 46.8546 45.0387 46.0507 45.1309 44.2428C45.1486 43.9268 44.9997 43.5722 44.7656 43.2422L58.7721 29.3789C63.5745 35.0696 64.6386 42.6209 61.8614 50.0668C57.059 62.9332 39.6936 66.7457 29.39 58.4642L41.7082 46.2719L41.7046 46.2684ZM75.7048 62.3504C62.8935 83.7019 34.1889 87.1844 16.5291 71.1866L26.9462 60.876C26.8965 61.3218 26.815 61.7887 26.7511 62.0239C26.2049 64.0179 24.7365 65.0325 23.5235 66.4718C22.5658 67.6093 23.339 69.4453 24.8748 69.2347C26.1198 69.0627 26.5135 67.4794 27.1023 66.5315C28.1805 64.7938 29.5248 63.4914 31.4401 62.6699L34.8379 63.9196C34.8344 64.9834 33.5185 67.2336 34.4903 68.0692C34.7954 68.329 35.3664 68.3781 35.7282 68.2236C36.4588 67.9182 36.927 65.3098 37.115 64.5586L40.4632 65.2466C40.8073 65.4081 41.4847 65.1413 41.7259 65.3134C41.843 65.3976 42.6304 66.7141 42.7261 66.9247C43.1659 67.8866 43.322 69.2733 43.3291 70.33C43.3362 71.2498 42.9886 72.5627 43.6412 73.3316C44.2548 74.0582 45.4927 74.153 46.0566 73.2964C46.6596 72.3767 46.0566 71.1655 45.8935 70.2352C45.5814 68.4448 45.631 66.4754 46.5426 64.871C48.2025 64.5691 49.8021 64.1794 51.3911 63.6212C52.2069 64.3901 53.2816 67.683 54.8422 66.1664C55.7608 65.2712 54.069 63.4001 53.6185 62.554C54.6116 62.066 55.509 61.4166 56.4666 60.8584C56.5837 60.7917 56.6511 60.6337 56.7539 60.5916C57.2682 60.388 58.6905 61.1357 59.1871 61.4096C61.0669 62.4592 61.5706 63.4914 62.9503 64.8956C64.6634 66.6404 66.8057 64.8078 65.6814 63.1438C65.3657 62.6769 63.7696 61.7185 63.2057 61.22C61.9678 60.1282 60.9534 58.9381 60.5207 57.3127L62.7588 54.0303C62.9006 54.0092 64.8159 55.3011 65.3054 55.3573C66.4191 55.4837 67.2633 54.427 66.5397 53.5248C66.1744 53.0684 63.9115 52.117 63.8547 51.9555C64.0746 51.45 64.2981 50.948 64.4896 50.4319C64.6812 49.9159 64.7379 48.9575 65.2983 48.7925C66.9973 48.2905 69.0119 48.5467 70.6541 49.1365C71.7465 49.5297 72.4559 50.2564 73.7043 49.5753C74.6407 49.0628 74.6443 47.4901 73.7398 46.9424C73.3745 46.7212 72.3849 46.5984 71.9274 46.5387C70.1788 46.314 69.214 46.3632 67.5293 45.5698C66.937 45.2924 65.8303 44.6535 65.7807 43.9689C65.6991 42.8701 66.0112 41.6625 65.8552 40.5636C66.0254 40.5285 66.1921 40.6093 66.3624 40.5988C66.944 40.5566 68.1074 40.5356 68.604 40.4197C69.5297 40.2021 69.9943 39.4157 69.48 38.5731C68.8735 37.5832 66.451 38.2642 65.5147 38.1378L64.6457 34.7712C64.6315 34.4903 65.3657 33.6337 65.5962 33.3985C67.3129 31.6397 68.948 31.4747 71.0442 30.6251C72.431 30.0635 72.5835 28.2731 71.1754 27.7078C69.8489 27.1742 69.0615 28.2099 68.0684 28.8418C67.3023 29.3262 65.8481 29.8949 64.8088 30.0915C64.4258 30.1653 63.0035 30.3513 62.702 30.2671C62.4289 30.1898 61.1414 28.0765 60.6306 27.5323L61.794 26.3808C62.1948 26.0508 62.5921 25.6928 62.8652 25.3206L71.4166 16.8566C81.8195 28.8628 84.9018 47.0161 75.7012 62.3504H75.7048Z" fill="url(#paint0_linear_26161_717)"/>
<path d="M32.7808 29.593C32.0856 29.7159 30.7165 30.246 30.3299 30.8288C30.0639 31.229 29.7979 32.3699 29.7908 32.8438C29.7588 35.3153 33.4689 36.4843 35.1678 34.8168C36.9944 33.0264 35.4977 29.1156 32.7772 29.5895L32.7808 29.593Z" fill="url(#paint1_linear_26161_717)"/>
<path d="M28.4678 43.2773C27.3754 43.6073 26.627 44.7728 26.29 45.7874C25.7651 47.3777 27.503 48.7293 28.936 48.9645C29.695 49.0874 30.0426 48.9189 30.6562 48.5081C31.8799 47.6937 32.2345 46.4158 31.8763 45.0116C31.5465 43.7162 29.7163 42.8947 28.4642 43.2773H28.4678Z" fill="url(#paint2_linear_26161_717)"/>
<path d="M52.0898 49.6245C52.1856 49.9159 53.0617 50.7865 53.3241 50.8497C53.4944 50.8918 53.6504 50.8392 53.7888 50.8637C53.8703 50.8778 53.8704 51.0217 53.9094 51.0147C54.2073 50.9655 54.6755 50.962 54.8067 50.9304C54.8635 50.9164 54.8528 50.7865 54.8776 50.7725C55.7537 50.3512 56.2751 50.0317 56.4808 48.9821C56.7114 47.8095 55.7076 46.5562 54.4981 46.5352C52.6077 46.5001 51.4833 47.792 52.0863 49.6245H52.0898Z" fill="url(#paint3_linear_26161_717)"/>
<path d="M36.051 52.1135C35.3274 52.3382 34.5294 53.3843 34.4974 54.1461C34.3875 56.7966 38.2039 56.737 38.5692 54.3568C38.7253 53.3422 37.0334 51.8116 36.051 52.1135Z" fill="url(#paint4_linear_26161_717)"/>
<path d="M47.3087 55.3222C48.8657 54.3147 47.6882 51.9274 46.0176 52.1978C45.4856 52.2855 44.9252 52.8893 44.7443 53.3738C44.1165 55.0449 45.8048 56.2911 47.3087 55.3187V55.3222Z" fill="url(#paint5_linear_26161_717)"/>
<path d="M52.0544 41.9749C52.5687 42.2979 53.3773 42.1118 53.8384 41.7643C55.0621 40.848 53.5157 38.5521 51.916 39.6755C51.1428 40.2161 51.2989 41.5045 52.0544 41.9749Z" fill="url(#paint6_linear_26161_717)"/>
<path d="M42.2402 35.6874C40.7505 36.1684 41.6763 38.7943 43.2333 37.8535C44.3116 37.2005 43.698 35.217 42.2402 35.6874Z" fill="url(#paint7_linear_26161_717)"/>
<path d="M57.6939 36.1122C57.8606 36.0701 58.2152 35.8349 58.3039 35.6945C58.8962 34.7782 58.0237 33.9672 57.0696 34.227C55.8282 34.5675 56.3212 36.4668 57.6939 36.1122Z" fill="url(#paint8_linear_26161_717)"/>
<path d="M35.5438 40.1705C34.1108 39.2507 33.6107 42.0872 35.3912 41.6695C35.448 41.6554 35.9055 41.35 35.9233 41.3254C36.1538 41.0411 35.824 40.353 35.5402 40.1705H35.5438Z" fill="url(#paint9_linear_26161_717)"/>
<path d="M40.1511 26.0579C39.236 25.6577 38.3706 27.1075 39.2538 27.6271C39.8674 27.9852 40.7293 27.4094 40.6087 26.8688C40.5803 26.7424 40.2362 26.0965 40.1476 26.0579H40.1511Z" fill="url(#paint10_linear_26161_717)"/>
<path d="M27.0703 38.1413C27.2583 37.9096 27.1164 37.2742 26.8398 37.0987C26.0346 36.5897 25.1479 37.8429 26.1659 38.3414C26.4071 38.4608 26.9214 38.3239 27.0703 38.1413Z" fill="url(#paint11_linear_26161_717)"/>
<path d="M41.7224 57.9376C40.3994 57.5479 40.4632 59.5068 41.7543 59.1558C42.3466 58.9943 42.3112 58.1131 41.7224 57.9376Z" fill="url(#paint12_linear_26161_717)"/>
<path d="M58.5735 43.323C59.7688 43.5757 59.5985 41.5993 58.5025 42.1188C58.1514 42.2874 57.9528 43.1931 58.5735 43.323Z" fill="url(#paint13_linear_26161_717)"/>
<path d="M52.9304 55.8558C52.0047 56.0875 52.4055 57.3408 53.161 56.8598C53.4696 56.6597 53.427 55.7329 52.9304 55.8558Z" fill="url(#paint14_linear_26161_717)"/>
</g>
<defs>
<linearGradient id="paint0_linear_26161_717" x1="42.5" y1="0" x2="42.5" y2="85" gradientUnits="userSpaceOnUse">
<stop/>
<stop offset="1" stop-opacity="0.3"/>
</linearGradient>
<linearGradient id="paint1_linear_26161_717" x1="42.5" y1="0" x2="42.5" y2="85" gradientUnits="userSpaceOnUse">
<stop/>
<stop offset="1" stop-opacity="0.3"/>
</linearGradient>
<linearGradient id="paint2_linear_26161_717" x1="42.5" y1="0" x2="42.5" y2="85" gradientUnits="userSpaceOnUse">
<stop/>
<stop offset="1" stop-opacity="0.3"/>
</linearGradient>
<linearGradient id="paint3_linear_26161_717" x1="42.5" y1="0" x2="42.5" y2="85" gradientUnits="userSpaceOnUse">
<stop/>
<stop offset="1" stop-opacity="0.3"/>
</linearGradient>
<linearGradient id="paint4_linear_26161_717" x1="42.5" y1="0" x2="42.5" y2="85" gradientUnits="userSpaceOnUse">
<stop/>
<stop offset="1" stop-opacity="0.3"/>
</linearGradient>
<linearGradient id="paint5_linear_26161_717" x1="42.5" y1="0" x2="42.5" y2="85" gradientUnits="userSpaceOnUse">
<stop/>
<stop offset="1" stop-opacity="0.3"/>
</linearGradient>
<linearGradient id="paint6_linear_26161_717" x1="42.5" y1="0" x2="42.5" y2="85" gradientUnits="userSpaceOnUse">
<stop/>
<stop offset="1" stop-opacity="0.3"/>
</linearGradient>
<linearGradient id="paint7_linear_26161_717" x1="42.5" y1="0" x2="42.5" y2="85" gradientUnits="userSpaceOnUse">
<stop/>
<stop offset="1" stop-opacity="0.3"/>
</linearGradient>
<linearGradient id="paint8_linear_26161_717" x1="42.5" y1="0" x2="42.5" y2="85" gradientUnits="userSpaceOnUse">
<stop/>
<stop offset="1" stop-opacity="0.3"/>
</linearGradient>
<linearGradient id="paint9_linear_26161_717" x1="42.5" y1="0" x2="42.5" y2="85" gradientUnits="userSpaceOnUse">
<stop/>
<stop offset="1" stop-opacity="0.3"/>
</linearGradient>
<linearGradient id="paint10_linear_26161_717" x1="42.5" y1="0" x2="42.5" y2="85" gradientUnits="userSpaceOnUse">
<stop/>
<stop offset="1" stop-opacity="0.3"/>
</linearGradient>
<linearGradient id="paint11_linear_26161_717" x1="42.5" y1="0" x2="42.5" y2="85" gradientUnits="userSpaceOnUse">
<stop/>
<stop offset="1" stop-opacity="0.3"/>
</linearGradient>
<linearGradient id="paint12_linear_26161_717" x1="42.5" y1="0" x2="42.5" y2="85" gradientUnits="userSpaceOnUse">
<stop/>
<stop offset="1" stop-opacity="0.3"/>
</linearGradient>
<linearGradient id="paint13_linear_26161_717" x1="42.5" y1="0" x2="42.5" y2="85" gradientUnits="userSpaceOnUse">
<stop/>
<stop offset="1" stop-opacity="0.3"/>
</linearGradient>
<linearGradient id="paint14_linear_26161_717" x1="42.5" y1="0" x2="42.5" y2="85" gradientUnits="userSpaceOnUse">
<stop/>
<stop offset="1" stop-opacity="0.3"/>
</linearGradient>
</defs>
</svg>
