<svg width="85" height="96" viewBox="0 0 85 96" fill="none" xmlns="http://www.w3.org/2000/svg">
<rect width="85" height="96" fill="white"/>
<g opacity="0.05">
<path d="M60.8841 14.5098C60.8841 13.2325 59.8461 12.1944 58.5687 12.1944H51.1286V4.63078H58.5687C59.8461 4.63078 60.8841 3.59272 60.8841 2.31539C60.8841 1.03807 59.8461 0 58.5687 0H26.2188C24.9415 0 23.9035 1.03807 23.9035 2.31539C23.9035 3.59272 24.9415 4.63078 26.2188 4.63078H33.659V12.1944H26.2188C24.9415 12.1944 23.9035 13.2325 23.9035 14.5098C23.9035 15.7871 24.9415 16.8252 26.2188 16.8252H28.7812V57.4796C28.7812 58.7569 29.8193 59.795 31.0966 59.795H35.7698V66.0967C35.7698 67.374 36.8079 68.4121 38.0852 68.4121H39.6944V77.967C35.9203 79.1208 33.1766 82.6325 33.1766 86.7809C33.1766 91.8709 37.3057 96 42.3957 96C47.4857 96 51.6148 91.8709 51.6148 86.7809C51.6148 82.3508 48.4891 78.6539 44.3252 77.7663V68.4121H46.7023C47.9797 68.4121 49.0177 67.374 49.0177 66.0967V59.795H53.691C54.9683 59.795 56.0064 58.7569 56.0064 57.4796V16.8252H58.5687C59.8461 16.8252 60.8841 15.7871 60.8841 14.5098ZM38.2898 4.63078H46.494V12.1944H38.2898V4.63078ZM44.387 63.7813H40.4006V59.795H44.387V63.7813ZM51.3756 24.1341H44.576C43.2987 24.1341 42.2607 25.1722 42.2607 26.4495C42.2607 27.7268 43.2987 28.7649 44.576 28.7649H51.3756V33.7314H44.576C43.2987 33.7314 42.2607 34.7695 42.2607 36.0468C42.2607 37.3241 43.2987 38.3622 44.576 38.3622H51.3756V43.3287H44.576C43.2987 43.3287 42.2607 44.3668 42.2607 45.6441C42.2607 46.9214 43.2987 47.9595 44.576 47.9595H51.3756V55.1681H33.412V16.8252H51.3756V24.1341Z" fill="url(#paint0_linear_26161_721)"/>
<path d="M73.2946 76.2574H61.5401C60.5869 76.2574 59.819 77.0292 59.819 77.9785C59.819 78.9278 60.5908 79.6996 61.5401 79.6996H73.2946C74.2477 79.6996 75.0157 78.9278 75.0157 77.9785C75.0157 77.0292 74.2439 76.2574 73.2946 76.2574Z" fill="url(#paint1_linear_26161_721)"/>
<path d="M70.0646 89.2661L59.8846 83.3889C59.0627 82.9142 58.0053 83.1959 57.5307 84.0179C57.056 84.8437 57.3377 85.8972 58.1597 86.3719L68.3397 92.2491C68.6098 92.4073 68.9069 92.4806 69.2002 92.4806C69.7945 92.4806 70.3734 92.1719 70.6937 91.6201C71.1683 90.7943 70.8866 89.7408 70.0646 89.2661Z" fill="url(#paint2_linear_26161_721)"/>
<path d="M57.5306 71.9392C57.8509 72.4911 58.4297 72.7998 59.024 72.7998C59.3173 72.7998 59.6144 72.7265 59.8846 72.5683L70.0646 66.691C70.8865 66.2164 71.1721 65.1629 70.6936 64.337C70.2189 63.5151 69.1654 63.2334 68.3396 63.708L58.1596 69.5853C57.3376 70.0599 57.0521 71.1134 57.5306 71.9392Z" fill="url(#paint3_linear_26161_721)"/>
<path d="M24.2005 77.9785C24.2005 77.0254 23.4288 76.2574 22.4794 76.2574H10.7211C9.76794 76.2574 9 77.0292 9 77.9785C9 78.9278 9.7718 79.6996 10.7211 79.6996H22.4756C23.4288 79.6996 24.1967 78.9278 24.1967 77.9785H24.2005Z" fill="url(#paint4_linear_26161_721)"/>
<path d="M24.1311 83.3889L13.9511 89.2661C13.1253 89.7408 12.8436 90.7943 13.3221 91.6201C13.6424 92.1719 14.2212 92.4806 14.8155 92.4806C15.1088 92.4806 15.4021 92.4073 15.6761 92.2491L25.8561 86.3719C26.6819 85.8972 26.9636 84.8437 26.4851 84.0179C26.0104 83.1959 24.9569 82.9142 24.1311 83.3889Z" fill="url(#paint5_linear_26161_721)"/>
<path d="M25.8561 69.5853L15.6761 63.708C14.8502 63.2334 13.8006 63.5151 13.3221 64.337C12.8474 65.1629 13.1291 66.2164 13.9511 66.691L24.1311 72.5683C24.4012 72.7265 24.6984 72.7998 24.9917 72.7998C25.5859 72.7998 26.1648 72.4911 26.4851 71.9392C26.9597 71.1134 26.678 70.0599 25.8561 69.5853Z" fill="url(#paint6_linear_26161_721)"/>
</g>
<defs>
<linearGradient id="paint0_linear_26161_721" x1="42.0078" y1="0" x2="42.0078" y2="96" gradientUnits="userSpaceOnUse">
<stop/>
<stop offset="1" stop-opacity="0.3"/>
</linearGradient>
<linearGradient id="paint1_linear_26161_721" x1="42.0078" y1="0" x2="42.0078" y2="96" gradientUnits="userSpaceOnUse">
<stop/>
<stop offset="1" stop-opacity="0.3"/>
</linearGradient>
<linearGradient id="paint2_linear_26161_721" x1="42.0078" y1="0" x2="42.0078" y2="96" gradientUnits="userSpaceOnUse">
<stop/>
<stop offset="1" stop-opacity="0.3"/>
</linearGradient>
<linearGradient id="paint3_linear_26161_721" x1="42.0078" y1="0" x2="42.0078" y2="96" gradientUnits="userSpaceOnUse">
<stop/>
<stop offset="1" stop-opacity="0.3"/>
</linearGradient>
<linearGradient id="paint4_linear_26161_721" x1="42.0078" y1="0" x2="42.0078" y2="96" gradientUnits="userSpaceOnUse">
<stop/>
<stop offset="1" stop-opacity="0.3"/>
</linearGradient>
<linearGradient id="paint5_linear_26161_721" x1="42.0078" y1="0" x2="42.0078" y2="96" gradientUnits="userSpaceOnUse">
<stop/>
<stop offset="1" stop-opacity="0.3"/>
</linearGradient>
<linearGradient id="paint6_linear_26161_721" x1="42.0078" y1="0" x2="42.0078" y2="96" gradientUnits="userSpaceOnUse">
<stop/>
<stop offset="1" stop-opacity="0.3"/>
</linearGradient>
</defs>
</svg>
