<svg width="60" height="64" viewBox="0 0 60 64" fill="none" xmlns="http://www.w3.org/2000/svg">
<path d="M31.5464 37.509H11.1945C9.02767 37.509 7.27192 35.75 7.27192 33.5792V11.9298C7.27192 9.76206 9.02767 8 11.1945 8H31.8956C34.0594 8 35.8183 9.75896 35.8183 11.9298V24.5491M31.5464 37.509L31.5463 37.7691C31.5463 39.94 29.7906 41.6989 27.6237 41.6989H6.92261C4.75884 41.6989 3 39.94 3 37.7691V16.1197C3 13.952 4.75575 12.1899 6.92261 12.1899H7.27499V33.5792C7.27499 35.75 9.03074 37.509 11.1976 37.509H31.5494L31.5464 37.509ZM58 33.1735V30.7828L57.9969 30.7859C57.9969 29.9715 57.629 29.2035 56.9954 28.6925L50.5411 23.4869V20.898C50.3928 20.9228 50.2382 20.9352 50.0806 20.9352H42.5506C42.4548 20.9352 42.3621 20.929 42.2693 20.9197V23.4838L35.8151 28.6894C35.1845 29.2004 34.8167 29.9684 34.8167 30.7828V33.1735M58 33.1735H34.8167M58 33.1735V52.7915C58 55.1141 56.1175 57 53.7992 57H39.0206C36.6992 57 34.8198 55.1141 34.8198 52.7915V33.1736L34.8167 33.1735M34.7765 52.6676H58M52.909 16.5687V18.1016C52.909 19.5076 51.8858 20.675 50.5474 20.8949C50.3959 20.9197 50.2444 20.9321 50.0868 20.9321H42.5569C42.461 20.9321 42.3683 20.9259 42.2756 20.9166C40.8475 20.7741 39.7316 19.5695 39.7316 18.0985V16.5656C39.7316 15.0018 40.9959 13.7352 42.5569 13.7352H50.0868C51.6478 13.7352 52.9121 15.0018 52.9121 16.5656L52.909 16.5687ZM52.1485 44.9319H48.3588V48.7286H44.3435V44.9319H40.5538V40.9092H44.3435V37.1126H48.3588V40.9092H52.1485V44.9319Z" stroke="#E6E6E6" stroke-width="2" stroke-linecap="round" stroke-linejoin="round"/>
</svg>
