<svg width="60" height="64" viewBox="0 0 60 64" fill="none" xmlns="http://www.w3.org/2000/svg">
<path d="M48.1362 23.1638L48.1337 23.073C48.0239 19.6188 47.9282 16.635 46.7264 13.3078C45.3736 9.56304 43.2218 6.69234 40.3321 4.77413C37.5571 2.93351 34.1499 2 30.2046 2C29.6895 2 29.158 2.01651 28.6264 2.0487C25.3959 2.24349 22.346 3.31897 19.8072 5.15794C17.2864 6.9837 15.3088 9.5325 14.0872 12.5278C12.3869 16.6961 12.2994 20.7867 12.2061 25.1175C12.2004 25.375 12.1954 25.6334 12.1888 25.8925C12.188 25.9355 12.1731 26.0031 12.1566 26.0741C12.1244 26.2161 12.0848 26.3927 12.0997 26.5933C12.2334 28.7022 12.1591 30.9695 12.0873 33.1626C11.9981 35.8814 11.9065 38.6927 12.1995 41.3058C12.5479 44.4126 14.0674 46.7179 16.7152 48.1582C17.123 48.3803 17.5365 48.5453 17.9368 48.7046C18.2406 48.826 18.527 48.9399 18.8027 49.0744C21.0725 50.1837 21.0807 51.6001 21.0948 53.9459V53.9541C21.0964 54.2001 21.0981 54.4518 21.1022 54.711C21.1129 55.3251 21.0882 56.011 21.0626 56.7381C21.0188 57.9779 20.9734 59.2605 21.1014 60.3063C21.2169 61.2497 21.9639 61.8968 23.0518 61.9959L23.0773 61.9983L37.4366 61.9876L37.4928 61.9761C38.5682 61.7507 39.099 61.1259 39.2129 59.9497C39.3408 58.6291 39.2863 57.216 39.2343 55.8492C39.1873 54.6227 39.1386 53.3541 39.2261 52.1911C39.3912 49.998 40.6944 49.4046 42.3452 48.6526C43.2317 48.249 44.1479 47.8322 44.9733 47.1281C47.2976 45.1464 47.8877 42.7982 48.0586 39.8829C48.3252 35.3276 48.3516 29.8577 48.1378 23.1621L48.1362 23.1638ZM23.1549 60.2122L23.126 60.2163C23.0171 60.2163 22.8322 60.0587 22.8008 59.9778V53.5786H37.4424V59.9836C37.4358 60.0306 37.3739 60.1305 37.3277 60.1751L23.1549 60.2122ZM22.7827 51.7949C22.6679 50.4635 22.0555 49.2321 21.0782 48.3852C20.3519 47.7554 19.4943 47.3972 18.6648 47.0506C18.1803 46.8483 17.6785 46.6387 17.2377 46.3828C15.0694 45.1266 14.0344 43.1052 13.8833 39.8292C13.7207 36.2966 13.8173 32.508 13.9114 28.8449V28.8301C13.9337 27.9874 13.9551 27.1521 13.9725 26.3308L13.9816 25.9008C14.1136 19.7376 14.2391 13.9161 18.2175 9.09339C20.9668 5.76047 25.5155 3.77128 30.3853 3.77128C32.7278 3.77128 35.0447 4.23845 37.085 5.1208C39.2583 6.06174 41.0568 7.42198 42.4311 9.16603C46.4854 14.3115 46.4251 20.8213 46.3673 27.1191C46.3599 27.8842 46.3533 28.6749 46.3533 29.4475C46.3533 30.2176 46.3781 31.1569 46.4037 32.1506V32.1597C46.4953 35.6891 46.6199 40.5226 45.7912 42.8609C44.9072 45.3544 43.6865 45.9487 41.4687 47.0283C41.273 47.1232 41.0716 47.2214 40.8636 47.3238C38.73 48.3778 37.6768 49.7636 37.4771 51.7941H22.7835L22.7827 51.7949Z" fill="#E6E6E6"/>
<path d="M39.5356 13.9665C37.8403 10.4099 34.3348 8.20032 30.3878 8.20032C30.075 8.20032 29.7556 8.21353 29.4386 8.24077C26.0182 8.53048 22.9989 10.5312 21.3614 13.5934C19.7238 16.6573 19.7386 20.2857 21.4026 23.2992C23.183 26.524 26.6265 28.5272 30.3903 28.5272C33.4533 28.5272 36.2959 27.1867 38.1902 24.8509C39.4927 23.2439 40.2867 21.3521 40.4864 19.381C40.673 17.5363 40.3445 15.6643 39.5348 13.9673L39.5356 13.9665ZM26.1833 25.6193C24.8544 24.8831 23.7599 23.7878 23.0171 22.4531C21.6304 19.9596 21.6049 16.9684 22.9494 14.4526C24.3072 11.9113 26.8296 10.2547 29.697 10.0195C29.9413 9.99967 30.1872 9.98894 30.4291 9.98894C33.4954 9.98894 36.2093 11.6108 37.6892 14.3264C39.1856 17.0733 39.0594 20.2931 37.3516 22.9401C35.8379 25.2859 33.2239 26.6866 30.3581 26.6866C28.8864 26.6866 27.4428 26.3184 26.1833 25.6193Z" fill="#E6E6E6"/>
<path d="M37.2666 16.5442C36.8713 15.0568 36.0203 13.7131 34.8705 12.7614C33.6035 11.7124 32.0204 11.1577 30.2946 11.1577C29.9817 11.1577 29.6598 11.1759 29.3388 11.2122C26.7082 11.5093 24.1933 13.7428 23.4892 16.4088C22.8991 18.6415 23.3514 20.9493 24.7298 22.7387C26.0859 24.4993 28.184 25.5508 30.3441 25.5508C31.5789 25.5508 32.779 25.2231 33.9106 24.576C36.8061 22.9211 38.1234 19.7681 37.2674 16.545L37.2666 16.5442ZM26.0958 21.5171C24.9312 19.8804 24.7438 17.8186 25.5956 16.0019C26.4111 14.262 28.0355 13.137 29.9413 12.9925C30.0833 12.9818 30.2252 12.976 30.3647 12.976C32.1261 12.976 33.7158 13.8146 34.7269 15.2764C35.7496 16.7555 35.9708 18.5713 35.3344 20.2584C34.5527 22.331 32.5801 23.6698 30.3086 23.6698C28.605 23.6698 27.0698 22.8848 26.0958 21.5171Z" fill="#E6E6E6"/>
<path d="M30.0601 15.8129C27.3661 16.1967 27.2158 20.3294 30.1303 20.6513C33.6753 21.0426 33.6448 15.302 30.0601 15.8129Z" fill="#E6E6E6"/>
</svg>
