<svg width="51" height="60" viewBox="0 0 51 60" fill="none" xmlns="http://www.w3.org/2000/svg">
<path d="M27.6161 51C25.0224 51 22.5356 50.6684 20.2263 50.0108C16.1034 48.8404 12.7323 46.6474 10.4765 43.6714C9.50775 42.3924 8.98675 42.1695 8.86565 42.1333C8.64035 42.3451 8.16723 43.6854 8.232 46.497C8.24045 46.8732 8.09964 47.2298 7.83491 47.5001C7.57019 47.7704 7.21534 47.9209 6.83515 47.9237L1.97433 47.9543C1.29844 47.9543 0.732375 47.5057 0.588747 46.8648C-0.98271 39.8706 1.01681 36.5547 1.66736 35.7048C2.73472 34.3087 4.27238 33.5452 6.23529 33.431C8.44322 33.2303 11.0004 34.2335 13.2562 35.1196C14.6586 35.6713 16.109 36.2398 16.9173 36.2454C17.0806 36.2454 17.2608 36.2537 17.4552 36.2593C19.5589 36.329 22.7187 36.4348 24.1493 32.1993C25.0139 29.6413 24.7492 26.7907 23.4228 24.3748L16.8328 13.4098C16.4751 12.7605 16.692 11.9469 17.3256 11.5595L21.1501 9.21051C21.4739 9.00988 21.8597 8.95136 22.2315 9.04053C22.6032 9.13249 22.9158 9.36098 23.1102 9.68701C23.6481 10.5926 26.2925 14.5551 27.7429 16.4081C28.0442 13.7442 29.7705 11.3951 32.3277 10.3195C38.4868 7.72529 44.0516 9.30525 47.5945 14.6582C50.2079 18.6067 51.4048 24.1268 50.8782 29.8057C50.3149 35.8943 47.8536 41.2611 43.9446 44.9142C40.5398 48.0964 36.8562 49.916 32.3446 50.6377C30.7619 50.8802 29.1707 51 27.6161 51ZM8.84031 40.453C9.71897 40.453 10.7047 41.1831 11.8283 42.6683C13.8616 45.3517 16.9285 47.3357 20.6938 48.403C22.8511 49.016 25.1801 49.3253 27.6161 49.3253C29.0862 49.3253 30.5901 49.2111 32.0798 48.9826C36.2901 48.3082 39.5936 46.6753 42.7815 43.6937C50.5628 36.4181 50.9937 22.845 46.1779 15.5694C43.0829 10.8908 38.3967 9.57276 32.9867 11.8521C30.6577 12.833 29.2157 15.1709 29.396 17.6676V17.7066C29.4298 18.1246 29.2242 18.5231 28.8581 18.746C28.5004 18.9661 28.0498 18.9689 27.6893 18.7571C26.5178 18.0661 22.6258 12.0583 21.8006 10.771L18.4493 12.8302L24.8928 23.5555C26.4502 26.3811 26.76 29.7221 25.7461 32.7232C23.9156 38.143 19.5166 37.9953 17.4045 37.9256C17.2158 37.9201 17.0468 37.9145 16.8975 37.9117C15.7739 37.9033 14.2475 37.3042 12.631 36.6689C10.5469 35.8497 8.18412 34.9245 6.37329 35.0917H6.34231C4.86942 35.1753 3.77954 35.702 3.01352 36.7079C1.35476 38.8758 1.49276 43.0278 2.18837 46.2768L6.53663 46.249C6.50847 43.8665 6.8098 41.0549 8.33057 40.5338C8.49673 40.4781 8.6657 40.4474 8.84031 40.4474V40.453Z" fill="#BA653C"/>
</svg>
