<svg width="40" height="40" viewBox="0 0 40 40" fill="none" xmlns="http://www.w3.org/2000/svg">
<g clip-path="url(#clip0_26200_1486)">
<path d="M18.3044 40.0576C18.2198 40.0576 18.1429 40.0422 18.0736 40.0038L9.43684 35.6508C8.91386 35.3893 8.39858 35.0817 7.92175 34.7433C7.80638 34.6663 7.72948 34.5433 7.7064 34.4125C7.68333 34.2741 7.7064 34.1434 7.791 34.028C7.89098 33.8896 8.0448 33.805 8.214 33.805C8.32167 33.805 8.42165 33.8357 8.50625 33.8973C8.94463 34.2049 9.41377 34.4818 9.89829 34.7279L18.3044 38.9578L26.7104 34.7279C30.6405 32.7513 33.0784 28.7829 33.0784 24.3837V23.2916C33.0784 23.007 33.3092 22.7763 33.5937 22.7763C33.8783 22.7763 34.109 23.007 34.109 23.2916V24.3837C34.109 29.1751 31.448 33.4897 27.1719 35.6508L18.5351 40.0038C18.4659 40.0422 18.3813 40.0576 18.3044 40.0576Z" fill="#BDBDBD"/>
<path d="M3.015 23.8069C2.73044 23.8069 2.49971 23.5762 2.49971 23.2916V5.38736C2.49971 5.1028 2.73044 4.87208 3.015 4.87208H7.62949C11.5672 4.87208 15.3203 3.1724 17.9121 0.219125C18.0044 0.111453 18.1429 0.0576172 18.2967 0.0576172C18.4505 0.0576172 18.5889 0.119144 18.6812 0.219125C21.2807 3.18009 25.0261 4.87208 28.9639 4.87208H33.5783C33.8629 4.87208 34.0936 5.1028 34.0936 5.38736V9.85573C34.0936 10.1403 33.8629 10.371 33.5783 10.371C33.2938 10.371 33.0631 10.1403 33.0631 9.85573V5.90265H28.9639C25.0338 5.90265 21.2038 4.29526 18.4582 1.48811L18.2967 1.31891L18.1352 1.48811C15.3818 4.29526 11.5518 5.90265 7.62949 5.90265H3.53028V23.2993C3.53028 23.5839 3.29956 23.8146 3.015 23.8146V23.8069Z" fill="#BDBDBD"/>
<path d="M18.3044 36.0892C18.2275 36.0892 18.1505 36.0738 18.0736 36.0353L11.598 32.8359C11.3442 32.7129 11.2365 32.3976 11.3672 32.1438C11.4518 31.9669 11.6287 31.8592 11.8287 31.8592C11.9056 31.8592 11.9825 31.8746 12.0594 31.913L18.3044 35.0047L25.0415 31.6746C28.1717 30.1288 30.1252 27.0294 30.1252 23.5839V22.238C30.1252 21.9534 30.3559 21.7227 30.6405 21.7227C30.925 21.7227 31.1557 21.9534 31.1557 22.238V23.5839C31.1557 27.4216 28.9869 30.8748 25.503 32.5975L18.5351 36.043C18.4659 36.0738 18.389 36.0968 18.3044 36.0968V36.0892Z" fill="#BDBDBD"/>
<path d="M5.96828 21.9996C5.68371 21.9996 5.45299 21.7688 5.45299 21.4843V8.5406C5.45299 8.25604 5.68371 8.02532 5.96828 8.02532H9.69064C12.0902 8.02532 15.4588 7.4485 17.9121 4.71057C18.0044 4.61059 18.1429 4.54906 18.2967 4.54906C18.4505 4.54906 18.5889 4.61059 18.6812 4.71057C21.1346 7.4485 24.5109 8.02532 26.9027 8.02532H30.6251C30.9096 8.02532 31.1404 8.25604 31.1404 8.5406V11.0017C31.1404 11.2862 30.9096 11.517 30.6251 11.517C30.3405 11.517 30.1098 11.2862 30.1098 11.0017V9.05589H26.9027C23.5418 9.05589 20.5424 7.9561 18.4505 5.95648L18.289 5.80267L18.1275 5.95648C16.0356 7.9561 13.0361 9.05589 9.67525 9.05589H6.46818V21.492C6.46818 21.7765 6.23745 22.0072 5.95289 22.0072L5.96828 21.9996Z" fill="#BDBDBD"/>
<path d="M18.3044 28.2445C16.7124 28.2445 15.4126 26.9448 15.4126 25.3528V22.9378H12.9977C11.4057 22.9378 10.1059 21.6381 10.1059 20.0461C10.1059 18.4541 11.4057 17.1543 12.9977 17.1543H15.4126V14.7394C15.4126 13.1474 16.7124 11.8477 18.3044 11.8477C19.8964 11.8477 21.1961 13.1474 21.1961 14.7394V17.1543H23.611C25.203 17.1543 26.5028 18.4541 26.5028 20.0461C26.5028 21.6381 25.203 22.9378 23.611 22.9378H21.1961V25.3528C21.1961 26.9448 19.8964 28.2445 18.3044 28.2445ZM12.9977 18.1849C11.9748 18.1849 11.1365 19.0155 11.1365 20.0461C11.1365 21.0767 11.9671 21.9073 12.9977 21.9073H15.9279C16.2125 21.9073 16.4432 22.138 16.4432 22.4225V25.3528C16.4432 26.3756 17.2738 27.2139 18.3044 27.2139C19.3349 27.2139 20.1655 26.3833 20.1655 25.3528V22.4225C20.1655 22.138 20.3963 21.9073 20.6808 21.9073H23.611C24.6339 21.9073 25.4722 21.0767 25.4722 20.0461C25.4722 19.0155 24.6416 18.1849 23.611 18.1849H20.6808C20.3963 18.1849 20.1655 17.9542 20.1655 17.6696V14.7394C20.1655 13.7165 19.3349 12.8782 18.3044 12.8782C17.2738 12.8782 16.4432 13.7088 16.4432 14.7394V17.6696C16.4432 17.9542 16.2125 18.1849 15.9279 18.1849H12.9977Z" fill="#BDBDBD"/>
<path d="M33.0554 21.9996C32.7708 21.9996 32.5401 21.7688 32.5401 21.4843V20.0384L32.3555 19.9999C31.9633 19.9153 31.5864 19.7615 31.2326 19.5308L31.0788 19.4308L30.0483 20.4614C29.9483 20.5614 29.8252 20.6152 29.6868 20.6152C29.5484 20.6152 29.4176 20.5614 29.3253 20.4614C29.1254 20.2614 29.1254 19.9307 29.3253 19.7308L30.3559 18.7002L30.2559 18.5464C30.0329 18.2003 29.8714 17.8234 29.7868 17.4235L29.7483 17.2389H28.3024C28.0179 17.2389 27.7872 17.0082 27.7872 16.7236C27.7872 16.4391 28.0179 16.2084 28.3024 16.2084H29.7483L29.7868 16.0238C29.8714 15.6315 30.0252 15.2547 30.2559 14.9009L30.3559 14.7471L29.3253 13.7165C29.1254 13.5166 29.1254 13.1859 29.3253 12.9859C29.4253 12.8859 29.5484 12.8321 29.6868 12.8321C29.8252 12.8321 29.956 12.8859 30.0483 12.9859L31.0788 14.0165L31.2326 13.9165C31.5787 13.6858 31.9556 13.5319 32.3555 13.4473L32.5401 13.4089V11.963C32.5401 11.6785 32.7708 11.4477 33.0554 11.4477C33.3399 11.4477 33.5707 11.6785 33.5707 11.963V13.4089L33.7552 13.4473C34.1475 13.5319 34.5243 13.6858 34.8781 13.9165L35.0319 14.0165L36.0625 12.9859C36.1625 12.8859 36.2855 12.8321 36.424 12.8321C36.5624 12.8321 36.6931 12.8859 36.7854 12.9859C36.9854 13.1859 36.9854 13.5166 36.7854 13.7165L35.7549 14.7471L35.8548 14.9009C36.0779 15.247 36.2394 15.6239 36.324 16.0238L36.3624 16.2084H37.8083C38.0929 16.2084 38.3236 16.4391 38.3236 16.7236C38.3236 17.0082 38.0929 17.2389 37.8083 17.2389H36.3624L36.324 17.4235C36.2394 17.8157 36.0856 18.1926 35.8548 18.5464L35.7549 18.7002L36.7777 19.7308C36.9777 19.9307 36.9777 20.2614 36.7777 20.4614C36.6778 20.5614 36.5547 20.6152 36.4163 20.6152C36.2778 20.6152 36.1471 20.5614 36.0548 20.4614L35.0319 19.4308L34.8781 19.5308C34.5243 19.7615 34.1475 19.9153 33.7552 19.9999L33.5707 20.0384V21.4843C33.5707 21.7688 33.3399 21.9996 33.0554 21.9996ZM33.0554 14.4087C31.7787 14.4087 30.7404 15.447 30.7404 16.7236C30.7404 18.0003 31.7787 19.0463 33.0554 19.0463C34.3321 19.0463 35.378 18.008 35.378 16.7236C35.378 15.4393 34.3397 14.4087 33.0554 14.4087Z" fill="#BDBDBD"/>
<path d="M6.27591 33.8511C5.99135 33.8511 5.76062 33.6204 5.76062 33.3358V31.89L5.57604 31.8515C5.18381 31.7669 4.80696 31.6131 4.45318 31.3824L4.29937 31.2824L3.26879 32.313C3.16881 32.4129 3.04576 32.4668 2.90733 32.4668C2.76889 32.4668 2.63815 32.4129 2.54586 32.313C2.34589 32.113 2.34589 31.7823 2.54586 31.5823L3.57643 30.5518L3.47645 30.3979C3.25341 30.0518 3.09191 29.675 3.00731 29.2751L2.96885 29.0905H1.51529C1.23072 29.0905 1 28.8598 1 28.5752C1 28.2906 1.23072 28.0599 1.51529 28.0599H2.96116L2.99962 27.8753C3.08421 27.4831 3.23803 27.1063 3.46876 26.7525L3.56874 26.5987L2.53817 25.5681C2.3382 25.3681 2.3382 25.0374 2.53817 24.8375C2.63815 24.7375 2.7612 24.6837 2.89963 24.6837C3.03807 24.6837 3.16881 24.7375 3.2611 24.8375L4.29167 25.868L4.44549 25.7681C4.79158 25.5373 5.16843 25.3835 5.56835 25.2989L5.75293 25.2605V23.8146C5.75293 23.53 5.98366 23.2993 6.26822 23.2993C6.55278 23.2993 6.7835 23.53 6.7835 23.8146V25.2605L6.96808 25.2989C7.36032 25.3835 7.73717 25.5373 8.09094 25.7681L8.24476 25.868L9.27533 24.8375C9.37531 24.7375 9.49837 24.6837 9.6368 24.6837C9.77523 24.6837 9.90598 24.7375 9.99827 24.8375C10.0982 24.9374 10.1521 25.0605 10.1521 25.1989C10.1521 25.3374 10.0982 25.4681 9.99827 25.5604L8.9677 26.591L9.06768 26.7448C9.29071 27.0909 9.45222 27.4677 9.53682 27.8677L9.57527 28.0522H11.0211C11.3057 28.0522 11.5364 28.283 11.5364 28.5675C11.5364 28.8521 11.3057 29.0828 11.0211 29.0828H9.57527L9.53682 29.2674C9.45222 29.6596 9.2984 30.0365 9.06768 30.3902L8.9677 30.5441L9.99827 31.5669C10.1982 31.7669 10.1982 32.0976 9.99827 32.2976C9.89829 32.3976 9.77523 32.4514 9.6368 32.4514C9.49837 32.4514 9.36762 32.3976 9.27533 32.2976L8.24476 31.267L8.09094 31.367C7.74486 31.59 7.36801 31.7515 6.96808 31.8361L6.7835 31.8746V33.3205C6.7835 33.605 6.55278 33.8357 6.26822 33.8357L6.27591 33.8511ZM6.27591 26.2603C4.99923 26.2603 3.95328 27.2985 3.95328 28.5752C3.95328 29.8519 4.99154 30.8901 6.27591 30.8901C7.56028 30.8901 8.59854 29.8519 8.59854 28.5752C8.59854 27.2985 7.56028 26.2603 6.27591 26.2603Z" fill="#BDBDBD"/>
</g>
<defs>
<clipPath id="clip0_26200_1486">
<rect width="40" height="40" fill="white"/>
</clipPath>
</defs>
</svg>
