<svg width="26" height="26" viewBox="0 0 26 26" fill="none" xmlns="http://www.w3.org/2000/svg">
<g clip-path="url(#clip0_16069_7101)">
<path d="M13 21.1257C18.9837 21.1257 23.8333 17.1859 23.8333 12.3236C23.8333 7.46126 18.9837 3.52148 13 3.52148C7.01624 3.52148 2.16663 7.46126 2.16663 12.3236C2.16663 14.2321 2.91565 15.9967 4.18518 17.4398C4.10478 18.4766 3.70276 19.3991 3.27958 20.1016C3.04684 20.4909 2.80986 20.804 2.63635 21.0156C2.54749 21.1214 2.47978 21.2018 2.429 21.2568C2.40361 21.2822 2.38668 21.3034 2.37398 21.3161L2.36129 21.3288C2.16663 21.5234 2.11161 21.8112 2.21741 22.0651C2.3232 22.319 2.56865 22.4841 2.84371 22.4841C4.05823 22.4841 5.28121 22.1074 6.29684 21.6673C7.26591 21.2441 8.09111 20.7406 8.59469 20.3724C9.94039 20.8591 11.43 21.1299 13 21.1299V21.1257ZM7.58329 10.9694C7.94244 10.9694 8.28688 11.1121 8.54083 11.366C8.79479 11.62 8.93746 11.9644 8.93746 12.3236C8.93746 12.6827 8.79479 13.0272 8.54083 13.2811C8.28688 13.5351 7.94244 13.6777 7.58329 13.6777C7.22415 13.6777 6.87971 13.5351 6.62575 13.2811C6.3718 13.0272 6.22913 12.6827 6.22913 12.3236C6.22913 11.9644 6.3718 11.62 6.62575 11.366C6.87971 11.1121 7.22415 10.9694 7.58329 10.9694ZM13 10.9694C13.3591 10.9694 13.7035 11.1121 13.9575 11.366C14.2115 11.62 14.3541 11.9644 14.3541 12.3236C14.3541 12.6827 14.2115 13.0272 13.9575 13.2811C13.7035 13.5351 13.3591 13.6777 13 13.6777C12.6408 13.6777 12.2964 13.5351 12.0424 13.2811C11.7885 13.0272 11.6458 12.6827 11.6458 12.3236C11.6458 11.9644 11.7885 11.62 12.0424 11.366C12.2964 11.1121 12.6408 10.9694 13 10.9694ZM17.0625 12.3236C17.0625 11.9644 17.2051 11.62 17.4591 11.366C17.713 11.1121 18.0575 10.9694 18.4166 10.9694C18.7758 10.9694 19.1202 11.1121 19.3742 11.366C19.6281 11.62 19.7708 11.9644 19.7708 12.3236C19.7708 12.6827 19.6281 13.0272 19.3742 13.2811C19.1202 13.5351 18.7758 13.6777 18.4166 13.6777C18.0575 13.6777 17.713 13.5351 17.4591 13.2811C17.2051 13.0272 17.0625 12.6827 17.0625 12.3236Z" fill="white"/>
</g>
<defs>
<clipPath id="clip0_16069_7101">
<rect width="21.6667" height="21.6667" fill="white" transform="translate(2.16663 2.16699)"/>
</clipPath>
</defs>
</svg>
