<svg width="20" height="20" viewBox="0 0 20 20" fill="none" xmlns="http://www.w3.org/2000/svg">
<g clip-path="url(#clip0_10187_4113)">
<path d="M9.99995 17.5C15.5234 17.5 20 13.8633 20 9.375C20 4.88672 15.5234 1.25 9.99995 1.25C4.47652 1.25 -4.57514e-05 4.88672 -4.57514e-05 9.375C-4.57514e-05 11.1367 0.69136 12.7656 1.86324 14.0977C1.78902 15.0547 1.41792 15.9062 1.0273 16.5547C0.812454 16.9141 0.593704 17.2031 0.433548 17.3984C0.351517 17.4961 0.289017 17.5703 0.242142 17.6211C0.218704 17.6445 0.203079 17.6641 0.19136 17.6758L0.179642 17.6875C-4.57505e-05 17.8672 -0.050827 18.1328 0.0468292 18.3672C0.144485 18.6016 0.371048 18.7539 0.624954 18.7539C1.74605 18.7539 2.87495 18.4062 3.81245 18C4.70699 17.6094 5.4687 17.1445 5.93355 16.8047C7.17573 17.2539 8.55073 17.5039 9.99995 17.5039V17.5ZM4.99995 8.125C5.33147 8.125 5.64942 8.2567 5.88384 8.49112C6.11826 8.72554 6.24995 9.04348 6.24995 9.375C6.24995 9.70652 6.11826 10.0245 5.88384 10.2589C5.64942 10.4933 5.33147 10.625 4.99995 10.625C4.66843 10.625 4.35049 10.4933 4.11607 10.2589C3.88165 10.0245 3.74995 9.70652 3.74995 9.375C3.74995 9.04348 3.88165 8.72554 4.11607 8.49112C4.35049 8.2567 4.66843 8.125 4.99995 8.125ZM9.99995 8.125C10.3315 8.125 10.6494 8.2567 10.8838 8.49112C11.1183 8.72554 11.25 9.04348 11.25 9.375C11.25 9.70652 11.1183 10.0245 10.8838 10.2589C10.6494 10.4933 10.3315 10.625 9.99995 10.625C9.66843 10.625 9.35049 10.4933 9.11607 10.2589C8.88165 10.0245 8.74995 9.70652 8.74995 9.375C8.74995 9.04348 8.88165 8.72554 9.11607 8.49112C9.35049 8.2567 9.66843 8.125 9.99995 8.125ZM13.75 9.375C13.75 9.04348 13.8816 8.72554 14.1161 8.49112C14.3505 8.2567 14.6684 8.125 15 8.125C15.3315 8.125 15.6494 8.2567 15.8838 8.49112C16.1183 8.72554 16.25 9.04348 16.25 9.375C16.25 9.70652 16.1183 10.0245 15.8838 10.2589C15.6494 10.4933 15.3315 10.625 15 10.625C14.6684 10.625 14.3505 10.4933 14.1161 10.2589C13.8816 10.0245 13.75 9.70652 13.75 9.375Z" fill="black"/>
</g>
<defs>
<clipPath id="clip0_10187_4113">
<rect width="20" height="20" fill="white"/>
</clipPath>
</defs>
</svg>
