<svg width="36" height="36" viewBox="0 0 36 36" fill="none" xmlns="http://www.w3.org/2000/svg">
<path d="M30.675 4.60847C29.1467 4.88863 27.943 5.66828 26.5806 6.04834C24.9626 6.50115 23.9607 5.13838 22.6808 4.36415C19.7279 2.57572 15.7456 2.5008 12.8286 4.4065C12.0434 4.92012 10.9506 6.14064 10.0152 6.19385C9.17185 6.24054 6.70828 4.85822 5.53092 4.61065C-0.0472517 3.43465 -1.97287 10.4168 2.40786 13.2401C1.68813 17.1905 8.45212 18.1037 9.13063 14.3433L10.9072 14.2336C11.2465 16.1176 12.6828 17.5879 13.4046 19.2145C14.136 20.8607 13.4131 20.9693 13.2535 22.4341C13.0368 24.4169 13.9383 25.7178 14.2702 27.5551C14.583 29.2849 14.303 30.9485 14.5196 32.5154C14.5577 32.7901 14.6211 32.9399 14.9033 32.9921C15.1537 33.0398 15.308 32.8661 15.3524 32.6261C15.5057 31.8041 15.3387 29.7442 15.2489 28.8299C15.0776 27.0632 14.5524 25.9024 14.1793 24.2823C14.1476 24.1444 13.7703 22.4222 14.1941 22.7469C14.7437 23.8534 16.756 25.0576 17.4165 23.4538C17.7135 22.7338 17.6025 20.131 17.4577 19.2851C17.1872 17.6921 15.9031 16.4466 15.3049 14.9818C14.8134 13.7808 14.7754 12.4561 14.2839 11.254C13.8654 10.2289 13.1827 9.32767 12.3964 8.57842C13.9415 8.7413 15.4433 9.45037 16.9895 9.55896C19.246 9.71858 21.2392 8.99105 23.3878 8.46983C22.6026 9.16153 21.885 9.89558 21.4664 10.8935C20.9465 12.1325 21.0183 13.3693 20.6431 14.6083C20.0703 16.4998 18.4871 17.7301 18.317 19.8183C18.2557 20.5632 18.2218 22.9662 18.4734 23.5624C18.8729 24.5071 20.2204 24.3083 20.8535 23.7285L21.8015 22.5862C21.9727 24.3018 21.105 25.8253 20.7953 27.4682C20.6315 28.3348 20.2214 32.0311 20.5068 32.6587C20.6558 32.9855 21.1663 33.0138 21.2593 32.7228C21.2741 31.1808 21.2762 29.6269 21.5161 28.1013C21.8279 26.1152 22.8383 24.4256 22.6353 22.3277C22.5223 21.1561 21.9896 20.9063 22.462 19.625C23.1099 17.8691 24.8019 16.2382 24.9742 14.2239C25.2659 14.2575 25.5629 14.365 25.8609 14.4465C25.8599 14.479 25.8599 14.5105 25.8599 14.5431C25.8599 17.2013 28.0011 19.3655 30.6338 19.3655C33.2664 19.3655 35.4087 17.2013 35.4087 14.5431C35.4087 13.6853 35.1857 12.8785 34.7947 12.1803C37.4685 9.15176 35.5186 3.72132 30.675 4.60847ZM3.56937 14.8776C2.50721 13.543 3.84204 12.2313 5.18638 12.0836C6.22846 11.9685 7.66792 12.5386 8.12237 13.5658C9.11266 15.806 4.97395 16.6432 3.56937 14.8776ZM9.03128 13.555C8.59268 12.1184 7.09509 11.2453 5.68205 11.1845C4.76046 11.1443 4.81753 11.5711 3.94984 11.0108C2.97329 10.381 2.34551 9.17891 3.09589 8.08869C3.76911 7.10924 4.77843 7.3807 5.73701 7.65543C7.25679 8.09086 8.72373 9.07792 10.3894 8.90309C10.3397 10.3386 10.4644 11.7676 10.6874 13.1825C10.6166 13.5137 9.32721 13.6494 9.03128 13.555ZM13.2968 11.0727C14.0757 12.5712 14.0324 14.1793 14.7035 15.7082C15.3355 17.1492 16.5943 18.259 16.7338 19.9214C16.7729 20.3862 16.7887 23.1204 16.5985 23.3191C15.9654 23.9804 14.5978 22.078 14.5143 21.4362C14.4657 21.0692 14.6221 20.8032 14.619 20.4741C14.6073 19.2286 13.43 17.7931 12.8698 16.7235C11.7644 14.6115 10.9717 11.6916 11.2285 9.27772C11.2465 9.11375 11.2391 9.00842 11.3923 8.90527C12.1744 9.51335 12.8339 10.1812 13.2968 11.0727ZM24.7607 10.8023C24.6455 12.6559 24.0516 14.9633 23.2314 16.615C22.1428 18.8095 21.7941 18.652 21.3544 21.3103C21.2265 22.0888 19.7459 24.329 19.2407 23.0998C19.0969 22.7501 19.1054 20.2124 19.1593 19.7075C19.3189 18.2155 20.6896 16.843 21.2191 15.4172C21.8194 13.8036 21.6081 12.2041 22.5223 10.6742C22.797 10.2137 23.9237 8.88898 24.4141 8.8108C24.5779 8.78473 24.6878 8.79125 24.7449 8.97476C24.8252 9.22777 24.7829 10.4515 24.7607 10.8023ZM25.3071 13.2835L25.6073 9.01168C27.6354 9.44494 30.416 6.72918 32.2719 7.64891C33.4313 8.22334 33.4049 9.37111 32.7845 10.2387C32.1377 9.90753 31.4063 9.72076 30.6338 9.72076C28.3129 9.72076 26.3746 11.4017 25.9476 13.6212C25.6316 13.5506 25.3578 13.4323 25.3071 13.2835ZM30.6338 18.6054C28.409 18.6054 26.5997 16.7833 26.5997 14.5431C26.5997 14.251 26.6303 13.9665 26.6895 13.6918C27.0784 11.8588 28.6986 10.4809 30.6338 10.4809C31.2002 10.4809 31.7403 10.5992 32.2296 10.8131C32.516 10.9369 32.7855 11.0944 33.0329 11.279C33.3045 11.481 33.5497 11.7177 33.7632 11.9815C33.946 12.2074 34.1056 12.455 34.2387 12.7178C34.5135 13.2672 34.6689 13.8872 34.6689 14.5431C34.6689 16.7833 32.8585 18.6054 30.6338 18.6054ZM33.4979 10.6872C34.3455 9.37328 34.4195 7.60548 32.7253 6.85623C30.3125 5.7899 28.5496 7.9573 26.3872 8.12995C25.4487 8.20488 24.9436 7.82591 24.171 7.71841C22.3584 7.4654 20.5639 8.51109 18.7767 8.6718C16.5319 8.87486 15.4719 8.24831 13.4585 7.86609C11.6132 7.51535 10.3545 8.37428 8.53561 7.82157C7.35403 7.46214 6.10057 6.60539 4.83867 6.51635C1.48204 6.27963 1.0149 10.154 3.51652 11.7807L2.72809 12.3801C0.153554 10.9174 0.181033 6.39365 3.20157 5.4826C5.3428 4.83759 7.06233 6.3046 8.93194 6.87034C11.3638 7.60765 12.1797 5.63788 14.0472 4.68231C16.5478 3.40207 19.9657 3.6692 22.3225 5.16661C23.9247 6.18407 24.5884 7.42848 26.7466 6.87143C28.4725 6.42622 30.062 5.19919 31.9992 5.32189C34.894 5.50432 36.0206 9.14959 34.3772 11.3441C34.3571 11.3713 34.3286 11.406 34.2916 11.4462C34.057 11.1639 33.7906 10.9087 33.4979 10.6872Z" fill="#BDBDBD"/>
<path d="M32.125 17.3685C32.2878 17.3392 33.0984 16.3999 33.1037 16.1307C33.0846 16.0427 33.0614 15.9352 32.998 15.8722C32.3691 15.2402 30.9371 17.5846 32.125 17.3685Z" fill="#BDBDBD"/>
<path d="M33.5623 13.9654C33.5402 13.9611 33.518 13.9578 33.4947 13.9535C33.3531 13.9318 33.1967 13.9209 33.0667 13.9676C32.6661 14.1098 32.4674 15.0969 33.0603 15.1479C33.0878 15.1512 33.1185 15.1512 33.1502 15.149C33.5127 15.1143 33.9883 14.112 33.5623 13.9654Z" fill="#BDBDBD"/>
<path d="M28.446 15.44C28.4101 15.3988 28.371 15.3651 28.3287 15.3423C28.2642 15.3043 28.1924 15.2913 28.1163 15.3108C27.8552 15.3781 27.7813 15.7332 27.8352 16.0688C27.8943 16.4325 28.1047 16.7746 28.3932 16.6997C28.4862 16.666 28.5538 16.6008 28.6003 16.5161C28.7631 16.2219 28.6659 15.693 28.4481 15.4422C28.4471 15.4411 28.446 15.44 28.446 15.44Z" fill="#BDBDBD"/>
<path d="M32.8944 12.493C32.8035 12.2476 32.6693 12.038 32.5023 11.8632C32.4801 11.8393 32.4569 11.8165 32.4325 11.7937C32.1514 11.5266 31.791 11.3474 31.3936 11.2497C30.8895 11.1259 30.3273 11.1346 29.7999 11.266C29.7692 11.2725 29.7386 11.2801 29.7079 11.2888C29.0569 11.469 28.4661 11.8349 28.1078 12.3681C27.8119 12.809 27.4505 13.7461 27.8013 14.2011C27.8785 14.302 27.9905 14.3791 28.1469 14.4226C28.2886 14.4041 28.4122 13.4942 28.4989 13.2802C28.6067 13.0175 28.7567 12.7851 28.9385 12.5896C29.6276 11.8425 30.7743 11.6102 31.7921 12.1042C32.1683 12.2867 32.3026 12.6895 32.8955 12.493H32.8944Z" fill="#BDBDBD"/>
</svg>
