<svg width="36" height="36" viewBox="0 0 36 36" fill="none" xmlns="http://www.w3.org/2000/svg">
<path d="M26.9811 14.679C26.3195 14.9668 25.6336 14.5472 24.9751 14.4753C24.8028 16.3553 23.1107 17.8776 22.4629 19.5174C21.9904 20.7133 22.5231 20.9454 22.6362 22.039C22.8391 23.9971 21.8287 25.5751 21.5169 27.4278C21.277 28.8517 21.2749 30.302 21.2601 31.7412C21.1671 32.0128 20.6566 31.9865 20.5076 31.6814C20.2222 31.0956 20.6323 27.6467 20.7961 26.8369C21.1058 25.3035 21.9735 23.8826 21.8023 22.2802L20.8543 23.3464C20.2212 23.8876 18.8736 24.0731 18.4741 23.1913C18.2226 22.6349 18.2564 20.3921 18.3166 19.6968C18.4879 17.7479 20.07 16.5996 20.6439 14.8341C21.0191 13.6777 20.9473 12.5233 21.4673 11.3669C21.8858 10.4365 22.6034 9.75137 23.3887 9.10577C21.24 9.59123 19.2467 10.2703 16.9902 10.1223C15.444 10.021 13.9421 9.35914 12.397 9.20712C13.1833 9.90643 13.865 10.7476 14.2846 11.7034C14.776 12.8253 14.8151 14.0618 15.3055 15.1837C15.9037 16.5499 17.1879 17.7134 17.4584 19.2002C17.6022 19.9897 17.7132 22.4191 17.4172 23.091C16.7567 24.5869 14.7443 23.464 14.1947 22.4302C13.7709 22.1282 14.1482 23.7356 14.1799 23.8633C14.553 25.3754 15.0772 26.4589 15.2495 28.1078C15.3383 28.9612 15.5053 30.8838 15.3531 31.652C15.3087 31.876 15.1533 32.0372 14.9039 31.9926C14.6217 31.9439 14.5594 31.804 14.5203 31.5476C14.3025 30.0852 14.5826 28.5325 14.2708 26.919C13.939 25.2042 13.0374 23.99 13.2541 22.1383C13.4147 20.7711 14.1366 20.6698 13.4063 19.1333C12.676 17.5968 11.2481 16.2428 10.9088 14.4844L9.13219 14.5878C8.45366 18.0965 1.6895 17.2452 2.40925 13.5581C-1.97372 10.923 -0.0469873 4.40517 5.53027 5.50279C6.70766 5.73488 9.17129 7.02405 10.0147 6.98047C10.9501 6.93182 12.0429 5.79163 12.8282 5.31326C15.7452 3.53356 19.7276 3.60451 22.6806 5.27272C23.9605 5.99535 24.9624 7.26729 26.5805 6.84567C27.9429 6.48993 29.1467 5.76326 30.675 5.50177C36.1635 4.56226 37.9359 11.1956 33.4779 13.5581C34.018 16.9948 27.5222 18.2394 26.9801 14.679H26.9811ZM32.3724 12.2446C32.737 12.2496 32.8966 12.8192 33.2443 12.7381C33.4747 12.6844 34.2103 11.9963 34.3773 11.7875C36.0208 9.7392 34.8952 6.3369 32.0003 6.16663C30.062 6.0521 28.4724 7.19735 26.7475 7.61289C24.5893 8.13281 23.9246 6.97236 22.3223 6.0217C19.9665 4.6251 16.5474 4.37477 14.0478 5.56968C12.1803 6.46257 11.3644 8.30105 8.93243 7.61289C7.06278 7.08384 5.3432 5.71461 3.20192 6.31764C0.181303 7.16695 0.152766 11.3902 2.72737 12.7544L3.51582 12.1959C1.01414 10.6777 1.48129 7.06155 4.838 7.28249C6.09994 7.36559 7.35343 8.16423 8.53504 8.4997C10.355 9.01658 11.6127 8.21491 13.4581 8.54226C15.4715 8.89902 16.5315 9.4838 18.7764 9.29428C20.5626 9.14327 22.3582 8.16828 24.1708 8.40342C24.9424 8.50375 25.4476 8.85746 26.3861 8.78753C28.5485 8.62639 30.3114 6.60345 32.7243 7.5987C35.0093 8.54125 34.0771 11.2159 32.3702 12.2446H32.3724ZM10.3888 9.50914C8.72422 9.67231 7.25619 8.75105 5.73743 8.34463C4.77882 8.08822 3.76842 7.83484 3.09518 8.74902C2.34478 9.76657 2.97363 10.8885 3.95021 11.4774C4.81687 11.9993 4.76085 11.602 5.68247 11.6385C7.09449 11.6953 8.59317 12.5101 9.03178 13.851C9.32771 13.9391 10.6171 13.8124 10.6879 13.5043C10.4649 12.1838 10.3402 10.85 10.3899 9.51015L10.3888 9.50914ZM25.6071 9.61049L25.307 13.5976C25.4222 13.9168 26.7063 14.08 26.9822 13.9189C27.0625 13.8722 27.462 13.0756 27.667 12.8527C28.2843 12.1797 29.4944 11.6598 30.4224 11.6344C31.3503 11.6091 31.2943 11.9456 32.1948 11.3162C33.313 10.5338 33.7305 9.01253 32.272 8.33754C30.416 7.47911 27.6353 10.0139 25.6071 9.60948V9.61049ZM24.415 9.42299C23.9246 9.49597 22.7968 10.7334 22.5221 11.1622C21.6089 12.5902 21.8192 14.0831 21.22 15.5891C20.6894 16.9208 19.3196 18.2009 19.1601 19.5934C19.1062 20.0657 19.0966 22.4333 19.2404 22.7596C19.7456 23.9069 21.2263 21.816 21.3542 21.0894C21.7938 18.6083 22.1426 18.7543 23.2312 16.707C24.0503 15.1655 24.6443 13.0118 24.7606 11.2817C24.7828 10.9544 24.825 9.81218 24.7447 9.57603C24.6866 9.40475 24.5767 9.39867 24.4139 9.42198L24.415 9.42299ZM16.5992 22.9643C16.7894 22.7789 16.7736 20.2269 16.7345 19.7931C16.595 18.2414 15.3362 17.2056 14.7042 15.8617C14.0341 14.4347 14.0764 12.9327 13.2974 11.5351C12.8335 10.703 12.175 10.0787 11.3929 9.51218C11.2396 9.60846 11.247 9.70677 11.2291 9.85981C10.9723 12.1128 11.7649 14.8381 12.8704 16.8094C13.4306 17.8077 14.608 19.1465 14.6196 20.309C14.6228 20.6161 14.4664 20.8644 14.515 21.2069C14.5985 21.8059 15.9661 23.5826 16.5992 22.9643ZM5.18678 12.4777C3.8424 12.6155 2.50754 13.8398 3.56972 15.0864C4.97434 16.7344 9.11316 15.953 8.12285 13.8621C7.66838 12.9033 6.22888 12.3713 5.18678 12.4777ZM30.3452 12.4767C28.9522 12.5638 26.941 14.0831 28.1934 15.3925C29.5156 16.7749 33.0593 15.6905 32.5615 13.6351C32.3607 12.805 31.1273 12.427 30.3452 12.4756V12.4767Z" fill="#BDBDBD"/>
<path d="M15.8731 11.6284C15.4503 11.8513 14.5499 10.9209 14.9293 10.6716C15.2823 10.4405 16.3075 11.1733 15.8731 11.6284Z" fill="#BDBDBD"/>
<path d="M20.6069 11.9121C20.2117 12.4088 19.3112 12.3044 19.8555 11.6446C20.2909 11.1176 21.0804 11.3172 20.6069 11.9121Z" fill="#BDBDBD"/>
<path d="M19.5522 13.3726C19.7287 13.3087 20.0288 13.5337 19.9982 13.702C19.3006 14.7357 18.5027 14.1084 19.5522 13.3726Z" fill="#BDBDBD"/>
<path d="M16.2229 13.8459C16.0919 13.775 15.8731 13.2489 16.0898 13.102C16.4396 12.8658 16.8666 13.3554 16.8306 13.706C16.7746 13.8874 16.373 13.928 16.2229 13.8459Z" fill="#BDBDBD"/>
<path d="M18.1676 16.0046L18.5344 16.0391C18.7595 16.4334 18.7109 17.1033 18.0958 16.8641C17.9298 16.7506 17.9224 16.0817 18.1676 16.0036V16.0046Z" fill="#BDBDBD"/>
<path d="M17.3242 14.5857C17.6497 14.4844 17.9594 14.7996 17.9499 15.0925L17.7195 15.3824C17.3781 15.4807 16.8761 14.7976 17.3242 14.5857Z" fill="#BDBDBD"/>
<path d="M18.2057 12.649C18.1148 12.7169 17.1689 12.6003 17.4141 12.1442C17.7142 11.5858 18.5111 12.4219 18.2057 12.649Z" fill="#BDBDBD"/>
</svg>
