<svg width="36" height="36" viewBox="0 0 36 36" fill="none" xmlns="http://www.w3.org/2000/svg">
<path d="M19.7292 5.38152C19.605 4.6865 20.0896 4.15679 20.7785 4.40657C21.5769 4.69495 21.1943 5.26086 21.3444 5.4877C21.4108 5.58785 23.3138 5.99448 23.6989 6.13566C26.2367 7.06355 26.7324 8.32931 28.5863 9.78812C29.8681 10.7969 30.969 10.4699 32.4009 10.8729C35.4677 11.7344 36.8098 14.9537 35.4997 17.7736C35.0273 18.7907 34.1416 19.1636 33.6508 19.9419C32.8954 21.1401 33.3543 22.0547 31.8437 23.2372C28.3464 25.975 24.9684 21.6589 28.4226 19.3989C29.4498 18.7268 30.7242 18.9247 31.7883 18.115C33.8771 16.5259 33.0148 13.0882 30.135 13.478C28.2861 13.7277 27.7756 15.9721 26.9157 17.3187C26.2318 18.3901 23.7764 21.0327 23.6054 22.0233C23.5586 22.2972 23.9277 22.985 24.0015 23.3349C24.6276 26.3104 22.5893 29.07 22.315 32.1119C22.2399 32.9396 22.732 34.4564 21.3825 33.8675C21.134 33.52 21.6273 30.2682 21.7811 29.6576C22.2645 27.7318 23.3741 26.1717 23.1589 24.0408C23.0764 23.2203 22.5585 22.5615 22.6902 21.741C22.8636 20.6574 25.4592 17.8918 26.1776 16.7166C27.1556 15.1154 27.6944 12.7757 30.0144 12.5163C33.8304 12.0904 35.3422 16.6888 32.3173 18.8764C31.3196 19.598 30.5533 19.5944 29.5052 19.9793C26.5319 21.0701 28.3697 24.5379 31.1597 22.5675C32.4858 21.6311 32.0971 20.5319 32.7897 19.4604C33.1255 18.9416 33.8328 18.5036 34.2252 17.9727C35.7174 15.9516 35.0384 12.9434 32.6457 11.9625C31.0219 11.2964 29.6466 11.8273 28.0364 10.5712C26.292 9.21014 25.5564 7.84062 23.2068 6.98271C19.9715 5.80143 18.4954 6.70398 15.484 6.95255C12.7186 7.1806 11.4122 5.36945 9.17702 4.33417C6.56296 3.12151 2.55515 2.36978 1.30655 5.71093C0.631198 7.51725 1.18476 8.32207 1.61162 9.94256C1.70265 10.2889 1.74325 11.4677 1.95114 11.5015C2.75812 11.23 3.37811 12.0469 3.80128 12.6213L4.35485 11.5968L5.21472 10.9332C1.72234 10.3516 0.936274 4.65754 5.15321 4.64789C6.5851 4.64427 10.3604 6.21892 11.6152 7.00564C13.3657 8.10367 12.7543 10.7872 12.7174 12.5585C12.6731 14.6762 12.7444 16.2544 13.5194 18.29C13.8343 19.1153 15.2023 21.3319 15.2785 21.8785C15.3265 22.2224 14.9427 22.8173 14.8455 23.2142C14.2538 25.6263 15.4618 27.2227 15.9822 29.3897C16.2048 30.3152 16.5739 32.6826 16.4054 33.5526C16.35 33.8362 16.1618 33.9991 15.8616 33.9834C15.1654 33.9218 15.4717 32.3991 15.4237 31.8682C15.185 29.2582 13.6584 26.7171 13.699 24.2712C13.7113 23.534 14.2624 22.4263 14.1923 21.8628C14.1222 21.2993 13.1012 19.7524 12.8207 19.0972C11.9325 17.0291 11.609 14.9899 11.7345 12.7407L8.89901 13.1594L8.81413 13.2789C9.59035 17.6626 3.97473 17.4067 1.89702 14.8499C0.701316 13.379 1.07651 12.2979 0.755443 10.6605C0.353185 8.61045 -0.501766 7.6186 0.39501 5.29705C2.11598 0.83978 7.63811 2.32634 10.8758 4.11336C11.8071 4.62738 13.1467 5.78815 14.1628 5.95708C15.9502 6.25512 17.9037 5.18725 19.7304 5.38152H19.7292ZM4.81984 5.64818C3.35597 5.84848 2.91927 7.23852 3.46914 8.48134C4.13711 9.99083 6.11396 10.1296 7.34656 11.0732C7.62826 11.2892 8.41679 12.2122 8.49429 12.2388C9.01095 12.4137 11.4097 11.9335 11.748 11.4798C11.764 10.3106 12.1601 8.99778 11.3593 7.9818C9.17948 7.218 7.1891 5.78212 4.82107 5.64698L4.81984 5.64818ZM4.7448 12.7637C4.58489 12.8626 4.43973 13.8219 3.68442 13.7121C3.30676 13.6578 2.69292 12.7504 2.32634 12.4994C1.63869 12.0276 2.11967 13.4056 2.24146 13.6686C3.28954 15.9286 8.32453 16.7986 7.90997 13.6578C7.78572 12.7178 6.91355 11.6499 5.95404 11.4159C6.01308 11.9335 5.89622 12.4994 5.34388 12.6888C5.15198 12.754 4.84691 12.6997 4.74603 12.7637H4.7448Z" fill="#BDBDBD"/>
<path d="M24.651 12.6237C22.0788 12.6647 19.5213 12.2714 17.1484 11.2952C17.5961 12.8167 17.2591 14.3938 17.4079 15.9262C17.5752 17.6408 18.3662 19.4423 18.4991 21.2511C18.563 22.1234 18.6208 24.8154 18.2801 25.4984C17.7647 26.5325 15.3868 26.3285 16.0314 25.3741C16.2467 25.0555 17.0315 25.2221 17.3759 25.1557C17.4313 25.1219 17.6404 24.0601 17.6429 23.8984C17.6835 20.8118 16.6551 18.4758 16.4103 15.6982C16.2946 14.3757 16.7486 12.5416 15.9699 11.4243C15.4372 10.6605 14.1099 10.1079 13.6941 9.43095C13.4259 8.99295 13.7876 8.69491 14.2255 8.77938C14.5048 8.83367 15.0485 9.38752 15.3868 9.58178C17.0524 10.5423 20.9237 11.545 22.8612 11.662C23.7604 11.7163 28.0524 11.3736 28.3279 12.2195C28.3943 13.122 27.7092 12.76 27.2159 12.8131C22.4786 13.3271 20.2213 19.6257 20.2102 23.6631C20.2102 23.9382 20.3529 24.8842 20.5251 25.0543C20.829 25.3548 22.0247 24.8746 21.9484 25.7083C21.8807 26.4552 20.2409 26.1898 19.7944 25.6492C19.2076 24.9385 19.2888 22.7823 19.3614 21.8544C19.5496 19.4387 21.1869 15.5136 22.9854 13.8255C23.4848 13.3561 24.1516 13.0858 24.6498 12.6237H24.651Z" fill="#BDBDBD"/>
<path d="M14.6438 11.7923L15.1235 11.8925C15.3659 12.2388 14.9895 13.7591 14.9341 14.2526C14.8849 14.6894 15.0805 15.6342 14.7594 15.8912C14.4383 16.1482 14.1247 16.0119 14.0041 15.6451C13.8294 15.1178 14.1554 11.9456 14.6426 11.7923H14.6438Z" fill="#BDBDBD"/>
<path d="M6.65645 29.0531C7.80787 28.7261 8.20397 30.5083 7.09069 30.7026C6.01185 30.8908 5.75598 29.3077 6.65645 29.0531Z" fill="#BDBDBD"/>
<path d="M1.98559 18.6785C3.17022 18.5772 3.13946 20.579 1.86011 20.3232C0.960877 20.1434 0.971948 18.7654 1.98559 18.6785Z" fill="#BDBDBD"/>
<path d="M27.4459 26.7593C28.3599 26.6181 28.7794 28.3183 27.6526 28.4281C26.4212 28.5475 26.4766 26.9077 27.4459 26.7593Z" fill="#BDBDBD"/>
<path d="M1.92777 25.8085C2.73598 24.994 4.06453 26.4552 2.94756 27.1092C2.07785 27.6184 1.25365 26.4878 1.92777 25.8085Z" fill="#BDBDBD"/>
<path d="M8.50167 18.5591C9.7884 18.1886 10.0664 19.9986 8.91008 20.1772C8.00469 20.3159 7.67378 18.798 8.50167 18.5591Z" fill="#BDBDBD"/>
<path d="M30.8325 4.26539C29.8914 3.39421 31.6432 2.10915 32.2152 3.33508C32.6211 4.20627 31.3664 4.7589 30.8325 4.26539Z" fill="#BDBDBD"/>
<path d="M24.373 2.02469C25.7631 1.74234 25.7581 3.98425 24.2463 3.54624C23.5746 3.35197 23.6325 2.17431 24.373 2.02469Z" fill="#BDBDBD"/>
<path d="M32.3689 27.1225C33.8094 26.8293 33.7295 29.0929 32.2705 28.6163C31.573 28.3883 31.637 27.2709 32.3689 27.1225Z" fill="#BDBDBD"/>
<path d="M27.1962 32.0841C27.8432 32.8636 26.6709 33.8144 26.0349 33.2244C25.2378 32.4835 26.4778 31.2178 27.1962 32.0841Z" fill="#BDBDBD"/>
<path d="M30.8915 7.33263C31.8154 7.19387 32.2115 8.77214 31.0982 8.88073C29.9185 8.99657 29.98 7.47019 30.8915 7.33263Z" fill="#BDBDBD"/>
<path d="M10.2263 25.6721C11.2879 25.4827 11.5918 27.0417 10.54 27.1997C9.48824 27.3578 9.33079 25.8326 10.2263 25.6721Z" fill="#BDBDBD"/>
<path d="M24.1282 17.1184C24.202 17.1884 24.2291 17.3078 24.2512 17.4055C24.2451 17.706 23.3015 18.7497 23.1121 18.7823C21.7294 19.0224 23.3963 16.4161 24.1282 17.1184Z" fill="#BDBDBD"/>
<path d="M7.52247 21.9425C8.09449 22.5047 7.28874 23.7657 6.44856 23.055C5.56777 22.3105 6.8545 21.2861 7.52247 21.9425Z" fill="#BDBDBD"/>
<path d="M12.9339 32.1988C13.4358 32.6875 12.6817 33.7891 11.9854 33.1906C11.2658 32.5716 12.3397 31.6208 12.9339 32.1988Z" fill="#BDBDBD"/>
<path d="M24.4874 14.9344C24.6633 14.874 24.8798 14.9018 25.0631 14.932C25.5589 15.0949 25.0053 16.2086 24.5834 16.2472C23.7665 16.2954 23.9978 15.0997 24.4862 14.9332L24.4874 14.9344Z" fill="#BDBDBD"/>
<path d="M14.5946 2.39512C15.0436 1.95712 16.056 2.45907 15.7362 3.09014C15.3154 3.91909 13.9143 3.05876 14.5946 2.39512Z" fill="#BDBDBD"/>
<path d="M15.1408 16.9796C15.73 16.8348 16.1064 18.2997 15.4631 18.5229C14.8185 18.6809 14.5072 17.1353 15.1408 16.9796Z" fill="#BDBDBD"/>
<path d="M29.6577 20.1265C30.9998 19.7211 30.6787 21.7808 29.2555 21.0773C29.066 20.8215 29.3612 20.2158 29.6577 20.1265Z" fill="#BDBDBD"/>
</svg>
