<svg width="36" height="36" viewBox="0 0 36 36" fill="none" xmlns="http://www.w3.org/2000/svg">
<g clip-path="url(#clip0_26269_7371)">
<path d="M26.8731 13.7996C25.867 13.6031 25.1441 13.0358 24.4415 12.3381C24.3725 13.8599 24.2518 15.2815 23.5454 16.6486C23.0346 17.6353 21.8533 18.9167 21.7395 20.0036C21.6733 20.6322 22.0518 21.4378 22.1043 22.119C22.26 24.1321 21.072 26.0899 20.9338 28.1458C20.8968 28.6937 21.0817 31.2128 20.7742 31.4162C20.6857 31.4746 20.5271 31.5174 20.422 31.493C20.2663 31.4347 20.1924 31.3228 20.1612 31.1642C20.0581 30.6212 20.1204 28.969 20.1593 28.3463C20.1924 27.8277 20.2984 27.1553 20.3986 26.6396C20.6701 25.2365 21.4067 23.9171 21.325 22.4595L20.7917 23.2389C20.5125 23.6408 19.5716 24.2586 19.1901 23.7614L19.1318 23.5211C19.2047 23.1883 19.8246 23.1669 20.1242 22.912C20.3442 22.7251 20.9182 21.7667 20.9902 21.4875C21.0836 21.1236 20.9007 20.6224 20.9377 20.1729C21.0817 18.4088 22.7037 17.1458 23.2233 15.5511C23.811 13.751 23.2545 11.7679 24.3987 10.2072L25.1197 9.51929C23.0783 8.87905 21.0778 9.98051 19.0442 10.107C16.669 10.2549 15.193 9.44924 13.1029 9.32469C12.9132 9.31301 11.297 9.32955 11.3058 9.56697C13.063 11.0207 12.3537 13.3734 12.9083 15.3574C13.389 17.0758 14.9945 18.3008 15.1852 19.989C15.229 20.3743 15.1268 20.7431 15.1638 21.0817C15.2572 21.9312 15.9607 23.055 16.7605 23.3956C16.6379 24.354 15.9208 23.8548 15.4859 23.3878C15.2737 23.1591 15.1356 22.8468 14.905 22.6561C14.9147 24.6002 15.9373 26.3127 16.0706 28.2519C16.1125 28.862 16.1709 30.5375 16.0687 31.0698C15.9996 31.4298 15.6123 31.5183 15.3885 31.2683C15.2037 31.062 15.335 28.5137 15.2805 27.9717C15.1239 26.3944 14.2608 24.8347 14.1265 23.2876C14.0244 22.1151 14.3036 21.4057 14.4077 20.3588C14.5294 19.1259 13.4357 18.1315 12.8791 17.14C12.0433 15.6484 11.7679 14.0477 11.7893 12.343C11.0781 12.9784 10.2743 13.6965 9.26046 13.7052C9.35581 16.5406 5.28275 16.814 3.65099 15.1726C3.51574 15.1492 2.79765 15.9957 2.02701 15.732C1.63197 15.5968 1.80517 14.6617 1.76819 14.3377C1.67089 13.4746 0.604457 12.3313 0.281414 11.3486C-0.874536 7.82916 1.67478 5.01226 5.29345 5.65056C6.76077 5.90938 8.96953 7.16264 10.1839 7.18793C11.5393 7.21615 13.0465 5.74008 14.3241 5.18935C16.7342 4.14919 20.0454 4.31557 22.3855 5.49001C23.9336 6.26648 24.6391 7.56352 26.5598 7.01376C28.1371 6.56228 29.4195 5.66905 31.204 5.52796C35.21 5.21173 37.0753 8.81191 35.391 12.2447C35.064 12.9112 34.345 13.5972 34.2671 14.3319C34.1893 15.0665 34.5678 15.9811 33.3846 15.7009C33.0324 15.6172 32.791 15.3166 32.4661 15.1842C31.2945 16.1816 29.7494 16.5552 28.2967 15.9237C27.4657 15.5627 26.6571 14.7542 26.8712 13.7996H26.8731ZM33.3914 14.868C33.3895 13.2469 34.6923 12.3975 35.0738 10.8572C35.7305 8.20377 34.1825 6.12345 31.3987 6.30638C29.653 6.42119 28.2461 7.39908 26.6581 7.79315C24.5106 8.32637 23.738 7.05755 22.0722 6.19059C19.8966 5.05896 16.7352 4.89841 14.5109 5.95901C13.2907 6.54087 11.9557 7.84278 10.574 7.95662C8.85179 8.09868 6.71211 6.57201 4.83224 6.40271C1.60472 6.11275 0.0313474 8.57352 1.18243 11.513C1.55899 12.4734 2.36368 13.135 2.53591 14.1489C2.56607 14.3241 2.44736 14.9624 2.69062 14.867C3.38049 14.5965 2.94749 14.0166 3.05647 13.3832C3.11485 13.0407 3.35616 12.6943 3.50698 12.3848C1.39066 11.3787 1.44418 8.05198 3.79208 7.40492C5.92883 6.81624 7.93131 8.81288 9.99314 8.93256C10.7443 8.97635 11.4858 8.60952 12.2408 8.556C14.4253 8.40324 16.5601 9.49108 19.0442 9.32664C20.7888 9.21085 22.3933 8.40616 24.1954 8.5453C25.686 8.66012 25.6997 9.11841 27.3557 8.58909C28.9885 8.06657 30.9783 6.76078 32.7113 7.52265C34.6271 8.36432 34.4909 11.5763 32.5167 12.2438C32.5429 12.4948 32.7706 12.6096 32.8854 12.8947C32.9574 13.0728 33.0693 13.498 33.0742 13.679C33.0907 14.217 32.6451 14.4739 33.3904 14.8699L33.3914 14.868ZM8.98412 13.0066C9.65842 13.0854 11.6736 11.7796 11.5831 11.1442C11.5539 10.937 10.9097 10.2928 10.7142 10.1547C9.99996 9.65357 8.91796 9.55724 8.0977 9.26825C6.80358 8.81288 4.76802 7.46816 3.43011 8.40324C2.21286 9.25463 2.76748 11.3943 4.15404 11.8166C5.71088 10.9204 8.12786 11.3457 8.98509 13.0056L8.98412 13.0066ZM25.1557 10.5244C24.966 10.7035 24.5593 11.1948 24.6799 11.4595C24.8716 11.8818 26.4362 13.0377 26.9276 13.0183C27.2662 12.7896 27.4929 12.381 27.8539 12.1046C28.6324 11.5072 29.6472 11.2737 30.6173 11.3671C31.566 11.4585 31.8774 12.1153 32.7609 11.1734C33.8808 9.97953 33.1559 7.96149 31.4278 8.0909C30.5074 8.15998 25.7746 9.93964 25.1557 10.5254V10.5244ZM5.44329 12.1688C4.36713 12.3294 3.24135 13.5505 4.1482 14.581C4.51698 15.0003 5.74201 15.4489 6.29469 15.4596C7.47496 15.4839 9.12132 14.5547 8.23295 13.2207C7.654 12.3498 6.43772 12.0209 5.44329 12.1688ZM29.6706 12.1688C28.5166 12.3255 26.914 13.424 27.8919 14.6763C29.3933 16.6 33.5772 14.6393 31.8394 12.7721C31.2926 12.1854 30.4324 12.0657 29.6706 12.1688Z" fill="#BDBDBD"/>
<path d="M15.3681 12.4539C17.0865 12.2165 17.9904 14.7055 16.3314 15.4683C13.9611 16.5591 13.0572 12.7731 15.3681 12.4539ZM15.3633 13.2343C14.3854 13.4581 14.5537 14.9906 15.6192 14.9371C16.8588 14.8748 16.7187 12.9249 15.3633 13.2343Z" fill="#BDBDBD"/>
<path d="M18.9654 15.086C21.4573 14.6247 21.5536 17.9924 19.4986 18.1568C17.6041 18.3086 17.1663 15.4197 18.9654 15.086ZM19.159 15.7632C18.221 15.9675 18.402 17.644 19.6017 17.3794C20.6477 17.1488 20.3033 15.5141 19.159 15.7632Z" fill="#BDBDBD"/>
<path d="M19.4509 11.1929C21.8222 10.7025 21.9905 14.327 19.7555 14.2277C17.968 14.148 17.8746 11.5198 19.4509 11.1929ZM20.42 13.281C21.1985 12.4315 19.7779 11.2347 19.1814 12.2846C18.6706 13.1817 19.8333 13.9212 20.42 13.281Z" fill="#BDBDBD"/>
</g>
<defs>
<clipPath id="clip0_26269_7371">
<rect width="36" height="36" fill="white"/>
</clipPath>
</defs>
</svg>
