<svg width="48" height="48" viewBox="0 0 48 48" fill="none" xmlns="http://www.w3.org/2000/svg">
<g clip-path="url(#clip0_26279_7573)">
<path d="M43.5 0C45.8728 0.411562 47.5669 2.13937 48 4.5V43.5C47.5725 45.8559 45.8634 47.5856 43.5 48H4.5C2.14031 47.5763 0.42375 45.8587 0 43.5V4.5C0.34875 2.28469 2.22656 0.272813 4.5 0H43.5ZM22.5938 2.8125H4.73438C4.695 2.8125 4.095 3.06 4.00125 3.11063C3.30656 3.48094 2.94 4.1625 2.8125 4.92188L2.80875 42.8953C2.82375 43.7062 3.34687 44.5594 4.05937 44.9259C4.14094 44.9681 4.69875 45.1875 4.73531 45.1875H22.5947V2.8125H22.5938ZM25.4062 45.1875H43.2656C43.3022 45.1875 43.86 44.9672 43.9416 44.9259C44.5903 44.5922 45.1097 43.8066 45.1884 43.0791L45.1922 5.10562C45.1772 4.29469 44.6541 3.44156 43.9416 3.075C43.86 3.03281 43.3022 2.81344 43.2656 2.81344H25.4062V45.1884V45.1875Z" fill="#FFC0BC"/>
<path d="M17.7902 27.1136C18.6968 26.9805 19.3202 27.6986 19.4056 28.548C19.5359 29.8493 19.5696 33.3752 19.3981 34.6324C19.1656 36.3368 16.9099 36.3668 16.5912 34.7364C16.7918 32.733 16.3259 30.2139 16.6015 28.2733C16.6868 27.6733 17.1912 27.2008 17.7893 27.1136H17.7902Z" fill="#FFC0BC"/>
<path d="M29.7897 27.115C30.5922 26.9988 31.314 27.5528 31.4059 28.36C31.6347 30.3588 31.24 32.7785 31.3993 34.8231C30.9259 36.4291 28.7875 36.28 28.5925 34.5485C28.4453 33.236 28.4481 29.7747 28.6028 28.465C28.6787 27.8256 29.1269 27.2116 29.7887 27.116L29.7897 27.115Z" fill="#FFC0BC"/>
</g>
<defs>
<clipPath id="clip0_26279_7573">
<rect width="48" height="48" fill="white"/>
</clipPath>
</defs>
</svg>
