<svg width="48" height="48" viewBox="0 0 48 48" fill="none" xmlns="http://www.w3.org/2000/svg">
<path d="M10 12C10 9.87827 10.8429 7.84344 12.3431 6.34315C13.8434 4.84285 15.8783 4 18 4H30C32.1217 4 34.1566 4.84285 35.6569 6.34315C37.1571 7.84344 38 9.87827 38 12V40C38 41.0609 37.5786 42.0783 36.8284 42.8284C36.0783 43.5786 35.0609 44 34 44H14C12.9391 44 11.9217 43.5786 11.1716 42.8284C10.4214 42.0783 10 41.0609 10 40V12Z" stroke="#FFC0BC" stroke-width="4" stroke-linecap="round" stroke-linejoin="round"/>
<path d="M10 20H38" stroke="#FFC0BC" stroke-width="4" stroke-linecap="round" stroke-linejoin="round"/>
<path d="M30 14V26" stroke="#FFC0BC" stroke-width="4" stroke-linecap="round" stroke-linejoin="round"/>
</svg>
