<svg width="48" height="48" viewBox="0 0 48 48" fill="none" xmlns="http://www.w3.org/2000/svg">
<g clip-path="url(#clip0_26277_7555)">
<path d="M10.7188 14.2762C10.5745 14.4617 12.2648 17.0179 12.6771 17.0179C12.9451 17.0179 13.5017 16.6262 13.8934 16.5232C16.3671 15.8429 18.882 15.5749 21.4176 15.4718C22.675 15.4306 27.1071 15.2657 28.0347 15.5543C28.2615 15.6161 29.1273 16.2964 29.2922 16.5232C30.8795 18.3578 29.622 20.6254 27.8904 21.7798C27.7461 21.8829 27.5812 21.7592 27.6637 22.1715C27.7667 22.2539 29.8694 21.821 30.3229 21.821C33.5181 21.821 35.8681 22.5013 38.5892 24.0267C40.8361 25.2842 45.2888 27.7167 47.1441 29.2009C48.4428 30.2522 48.2366 30.85 47.7007 32.3343C46.9379 34.4575 44.2993 37.4672 41.8462 36.9106C40.6094 36.6426 37.4142 34.7461 36.1361 34.0246C34.2602 32.9733 32.24 31.8395 30.6321 30.4171C30.3641 30.3553 26.4886 31.7983 25.9939 32.0663C25.4992 32.3343 25.9527 33.0558 26.097 33.4268C26.7154 34.9935 27.7873 36.5396 28.447 38.1062C28.8387 38.4567 31.065 38.3742 31.6834 38.4567C33.5387 38.7041 33.9304 40.6212 34.0128 42.2085H46.9585C48.5871 42.5177 48.484 44.4142 46.9585 44.6203C44.8353 44.9089 41.6607 44.5585 39.3931 44.6203C28.0966 44.8265 15.8105 45.3831 4.57575 44.8059C3.95732 44.7646 2.69986 44.7234 2.1845 44.6203C0.947649 44.3936 0.968263 43.0536 1.87529 42.4352L7.09068 42.3321C7.66788 41.2808 7.87402 38.8071 9.25517 38.4979C9.8736 38.3536 11.028 38.6628 11.4609 38.2918L13.6048 33.5711C11.9556 33.097 10.4302 32.1281 9.23456 30.9119C4.74066 26.3768 -0.969472 12.3179 0.329223 6.03054C0.494136 5.18536 1.52485 3.78359 2.41126 3.65991C3.75118 3.45377 8.51306 3.24762 9.585 3.65991C11.9556 4.58755 13.2749 8.42179 13.2956 10.7512C13.3162 12.4209 12.2855 13.7609 10.7188 14.2762ZM9.33763 11.885C11.4609 11.5345 10.3065 8.31872 9.62623 7.04064C9.0078 5.88624 8.67797 5.9687 7.44112 5.70071L9.31701 11.885H9.33763ZM31.2918 24.0474C27.9935 24.171 25.0457 25.7377 21.8917 26.5623C20.6548 26.8921 17.4596 27.8816 16.4495 27.1395C15.8929 26.7272 14.8004 24.1917 14.2026 24.0886C12.8833 24.3772 11.2341 25.4285 9.95606 24.5421C8.67798 23.6557 8.40999 22.0272 8.94596 20.6666C9.2964 19.8008 10.5951 19.1412 10.3271 18.1723C10.1622 17.5951 9.02842 16.4819 8.67797 15.8635C7.09068 13.1837 6.74024 10.9779 5.64769 8.25687C5.02926 6.69019 4.51391 5.88624 2.65863 6.19545C2.80293 7.43231 2.69986 8.85469 2.82354 10.0503C3.44197 15.678 6.63717 23.6557 10.121 28.129C15.5219 35.0553 22.9636 30.3141 29.622 28.4382L30.0137 28.129C30.0343 26.5829 31.2918 25.4903 31.3124 24.0061L31.2918 24.0474ZM11.399 22.3364C14.6767 22.2127 17.7688 20.8109 20.964 20.3368C22.6956 20.0894 24.4478 20.0482 26.2 19.9039C26.9215 19.8214 27.9316 18.0692 26.9215 17.8837C26.0145 17.7188 23.6851 17.8425 22.6338 17.8837C20.3662 17.9662 17.6452 18.1517 15.4807 18.7907C13.6254 19.3473 11.7701 20.275 11.399 22.3364ZM27.1895 22.0065L17.068 23.6351L18.1399 24.7276C19.3767 24.2329 20.8404 24.1504 22.2009 23.8206C23.4584 23.4908 25.4373 22.9136 26.6123 22.4188C26.8185 22.3364 27.1277 22.3158 27.1689 22.0272L27.1895 22.0065ZM45.33 31.118L34.8992 24.8101C33.9304 24.4596 32.6935 26.5004 32.5286 27.2632C32.3019 28.3351 32.5904 28.6443 33.3532 29.2627C34.3839 30.1079 40.9392 33.9009 42.0318 34.1277C43.1243 34.3545 43.7015 33.9628 44.3818 33.1176C44.6498 32.7672 45.5362 31.4685 45.3094 31.0974L45.33 31.118ZM14.1407 38.4567H25.8084L23.2934 33.1176C20.9228 33.6123 18.6965 34.4988 16.2228 34.3545L14.1407 38.4361V38.4567ZM30.7558 40.7036H10.6363L10.2859 40.8479L10.0385 42.2291C17.1298 42.0436 24.2417 42.7444 31.3124 42.2291L30.7764 40.7036H30.7558Z" fill="#FFC0BC"/>
</g>
<defs>
<clipPath id="clip0_26277_7555">
<rect width="48" height="48" fill="white"/>
</clipPath>
</defs>
</svg>
