<svg width="41" height="41" viewBox="0 0 41 41" fill="none" xmlns="http://www.w3.org/2000/svg">
<path d="M31.971 23.5565C34.4782 21.0998 37.0191 18.155 37.0191 14.3017C37.0191 11.8472 36.044 9.49316 34.3084 7.75755C32.5728 6.02193 30.2188 5.04688 27.7643 5.04688C24.8027 5.04688 22.7162 5.88822 20.1922 8.41226C17.6681 5.88822 15.5816 5.04688 12.62 5.04688C10.1655 5.04688 7.81152 6.02193 6.0759 7.75755C4.34029 9.49316 3.36523 11.8472 3.36523 14.3017C3.36523 18.1719 5.88927 21.1166 8.41331 23.5565L20.1922 35.3353L31.971 23.5565Z" stroke="#3E3F43" stroke-width="2.69231" stroke-linecap="round" stroke-linejoin="round"/>
<path d="M20.1915 8.41211L15.2107 13.3929C14.8689 13.7323 14.5975 14.136 14.4123 14.5807C14.2272 15.0255 14.1318 15.5025 14.1318 15.9842C14.1318 16.466 14.2272 16.943 14.4123 17.3877C14.5975 17.8325 14.8689 18.2362 15.2107 18.5756C16.5905 19.9554 18.7949 20.0059 20.2588 18.6934L23.742 15.4962C24.6151 14.704 25.7518 14.2652 26.9307 14.2652C28.1096 14.2652 29.2463 14.704 30.1194 15.4962L35.1002 19.9722" stroke="#3E3F43" stroke-width="2.69231" stroke-linecap="round" stroke-linejoin="round"/>
<path d="M30.2882 25.2404L26.9229 21.875" stroke="#3E3F43" stroke-width="2.69231" stroke-linecap="round" stroke-linejoin="round"/>
<path d="M25.2404 30.2873L21.875 26.9219" stroke="#3E3F43" stroke-width="2.69231" stroke-linecap="round" stroke-linejoin="round"/>
</svg>
