<svg width="24" height="25" viewBox="0 0 24 25" fill="none" xmlns="http://www.w3.org/2000/svg">
<path d="M4 22.5884H18C18.5304 22.5884 19.0391 22.3777 19.4142 22.0026C19.7893 21.6275 20 21.1188 20 20.5884V7.58838L15 2.58838H6C5.46957 2.58838 4.96086 2.79909 4.58579 3.17417C4.21071 3.54924 4 4.05795 4 4.58838V6.58838" stroke="#BDBDBD" stroke-width="2" stroke-linecap="round" stroke-linejoin="round"/>
<path d="M14 2.58838V6.58838C14 7.11881 14.2107 7.62752 14.5858 8.00259C14.9609 8.37767 15.4696 8.58838 16 8.58838H20" stroke="#BDBDBD" stroke-width="2" stroke-linecap="round" stroke-linejoin="round"/>
<path d="M10.29 11.2884C9.94839 10.9473 9.51296 10.7157 9.03921 10.6231C8.56546 10.5305 8.07486 10.5811 7.62998 10.7684C7.33998 10.8884 7.06998 11.0684 6.84998 11.2984L6.49998 11.6384L6.14998 11.2984C5.81035 10.9576 5.37721 10.7254 4.90545 10.631C4.43369 10.5367 3.94454 10.5845 3.49998 10.7684C3.19998 10.8884 2.93998 11.0684 2.70998 11.2984C1.75998 12.2384 1.70998 13.8284 2.90998 15.0384L6.49998 18.5884L10.1 15.0384C11.3 13.8284 11.24 12.2384 10.29 11.2984V11.2884Z" stroke="#BDBDBD" stroke-width="2" stroke-linecap="round" stroke-linejoin="round"/>
</svg>
