<svg width="20" height="21" viewBox="0 0 20 21" fill="none" xmlns="http://www.w3.org/2000/svg">
<mask id="mask0_14136_160" style="mask-type:luminance" maskUnits="userSpaceOnUse" x="0" y="1" width="20" height="19">
<path d="M20 1.5H0V19.5H20V1.5Z" fill="white"/>
</mask>
<g mask="url(#mask0_14136_160)">
<path d="M10.3688 1.63975C10.1604 1.45342 9.84446 1.45342 9.63266 1.63975L0.188213 10.0772C-0.0409541 10.2812 -0.0652595 10.6397 0.139601 10.8718C0.344463 11.1038 0.695157 11.1284 0.924324 10.921L2.22293 9.76084V16.6866C2.22293 18.2405 3.46599 19.4991 5.00071 19.4991H15.0007C16.5354 19.4991 17.7785 18.2405 17.7785 16.6866V9.76084L19.0771 10.921C19.3063 11.1249 19.657 11.1038 19.8618 10.8718C20.0667 10.6397 20.0424 10.2847 19.8132 10.0772L10.3688 1.63975ZM3.33405 16.6866V8.76592L10.0007 2.81045L16.6674 8.76592V16.6866C16.6674 17.6183 15.9209 18.3741 15.0007 18.3741H12.7785V12.7491C12.7785 12.1269 12.282 11.6241 11.6674 11.6241H8.33405C7.71946 11.6241 7.22294 12.1269 7.22294 12.7491V18.3741H5.00071C4.08057 18.3741 3.33405 17.6183 3.33405 16.6866ZM8.33405 18.3741V12.7491H11.6674V18.3741H8.33405Z" fill="white"/>
</g>
</svg>
