<svg width="24" height="25" viewBox="0 0 24 25" fill="none" xmlns="http://www.w3.org/2000/svg">
<path d="M11 2.58838V4.58838" stroke="#BDBDBD" stroke-width="2" stroke-linecap="round" stroke-linejoin="round"/>
<path d="M5 2.58838V4.58838" stroke="#BDBDBD" stroke-width="2" stroke-linecap="round" stroke-linejoin="round"/>
<path d="M5 3.58838H4C3.46957 3.58838 2.96086 3.79909 2.58579 4.17417C2.21071 4.54924 2 5.05795 2 5.58838V9.58838C2 11.1797 2.63214 12.7058 3.75736 13.831C4.88258 14.9562 6.4087 15.5884 8 15.5884C9.5913 15.5884 11.1174 14.9562 12.2426 13.831C13.3679 12.7058 14 11.1797 14 9.58838V5.58838C14 5.05795 13.7893 4.54924 13.4142 4.17417C13.0391 3.79909 12.5304 3.58838 12 3.58838H11" stroke="#BDBDBD" stroke-width="2" stroke-linecap="round" stroke-linejoin="round"/>
<path d="M8 15.5884C8 17.1797 8.63214 18.7058 9.75736 19.831C10.8826 20.9562 12.4087 21.5884 14 21.5884C15.5913 21.5884 17.1174 20.9562 18.2426 19.831C19.3679 18.7058 20 17.1797 20 15.5884V12.5884" stroke="#BDBDBD" stroke-width="2" stroke-linecap="round" stroke-linejoin="round"/>
<path d="M20 12.5884C21.1046 12.5884 22 11.6929 22 10.5884C22 9.48381 21.1046 8.58838 20 8.58838C18.8954 8.58838 18 9.48381 18 10.5884C18 11.6929 18.8954 12.5884 20 12.5884Z" stroke="#BDBDBD" stroke-width="2" stroke-linecap="round" stroke-linejoin="round"/>
</svg>
