<svg width="30" height="30" viewBox="0 0 30 30" fill="none" xmlns="http://www.w3.org/2000/svg">
<path d="M4 25V26H6V25H4ZM14 25V26H16V25H14ZM6 25V24H4V25H6ZM14 24V25H16V24H14ZM10 20C11.0609 20 12.0783 20.4214 12.8284 21.1716C13.5786 21.9217 14 22.9391 14 24H16C16 22.4087 15.3679 20.8826 14.2426 19.7574C13.1174 18.6321 11.5913 18 10 18V20ZM6 24C6 22.9391 6.42143 21.9217 7.17157 21.1716C7.92172 20.4214 8.93913 20 10 20V18C8.4087 18 6.88258 18.6321 5.75736 19.7574C4.63214 20.8826 4 22.4087 4 24H6ZM10 8C8.93913 8 7.92172 8.42143 7.17157 9.17157C6.42143 9.92172 6 10.9391 6 12H8C8 11.4696 8.21071 10.9609 8.58579 10.5858C8.96086 10.2107 9.46957 10 10 10V8ZM14 12C14 10.9391 13.5786 9.92172 12.8284 9.17157C12.0783 8.42143 11.0609 8 10 8V10C10.5304 10 11.0391 10.2107 11.4142 10.5858C11.7893 10.9609 12 11.4696 12 12H14ZM10 16C11.0609 16 12.0783 15.5786 12.8284 14.8284C13.5786 14.0783 14 13.0609 14 12H12C12 12.5304 11.7893 13.0391 11.4142 13.4142C11.0391 13.7893 10.5304 14 10 14V16ZM10 14C9.46957 14 8.96086 13.7893 8.58579 13.4142C8.21071 13.0391 8 12.5304 8 12H6C6 13.0609 6.42143 14.0783 7.17157 14.8284C7.92172 15.5786 8.93913 16 10 16V14ZM3 6H27V4H3V6ZM28 7V23H30V7H28ZM27 24H3V26H27V24ZM2 23V7H0V23H2ZM3 24C2.73478 24 2.48043 23.8946 2.29289 23.7071C2.10536 23.5196 2 23.2652 2 23H0C0 23.7956 0.31607 24.5587 0.87868 25.1213C1.44129 25.6839 2.20435 26 3 26V24ZM28 23C28 23.2652 27.8946 23.5196 27.7071 23.7071C27.5196 23.8946 27.2652 24 27 24V26C27.7956 26 28.5587 25.6839 29.1213 25.1213C29.6839 24.5587 30 23.7956 30 23H28ZM27 6C27.2652 6 27.5196 6.10536 27.7071 6.29289C27.8946 6.48043 28 6.73478 28 7H30C30 6.20435 29.6839 5.44129 29.1213 4.87868C28.5587 4.31607 27.7956 4 27 4V6ZM3 4C2.20435 4 1.44129 4.31607 0.87868 4.87868C0.31607 5.44129 0 6.20435 0 7H2C2 6.73478 2.10536 6.48043 2.29289 6.29289C2.48043 6.10536 2.73478 6 3 6V4ZM18 12H24V10H18V12ZM18 18H24V16H18V18Z" fill="#3E3F43"/>
</svg>
