<svg width="24" height="24" viewBox="0 0 24 24" fill="none" xmlns="http://www.w3.org/2000/svg">
<path d="M11.6325 6.69111C8.89971 6.69111 6.69541 8.89541 6.69541 11.6282C6.69541 14.361 8.89971 16.5653 11.6325 16.5653C14.3653 16.5653 16.5696 14.361 16.5696 11.6282C16.5696 8.89541 14.3653 6.69111 11.6325 6.69111ZM11.6325 14.838C9.8665 14.838 8.42275 13.3985 8.42275 11.6282C8.42275 9.85791 9.86221 8.41846 11.6325 8.41846C13.4028 8.41846 14.8423 9.85791 14.8423 11.6282C14.8423 13.3985 13.3985 14.838 11.6325 14.838ZM17.9231 6.48916C17.9231 7.12939 17.4075 7.64072 16.7716 7.64072C16.1313 7.64072 15.62 7.1251 15.62 6.48916C15.62 5.85322 16.1356 5.3376 16.7716 5.3376C17.4075 5.3376 17.9231 5.85322 17.9231 6.48916ZM21.1931 7.65791C21.12 6.11533 20.7677 4.74893 19.6376 3.62314C18.5118 2.49736 17.1454 2.14502 15.6028 2.06768C14.013 1.97744 9.24775 1.97744 7.65791 2.06768C6.11963 2.14072 4.75322 2.49307 3.62314 3.61885C2.49307 4.74463 2.14502 6.11103 2.06768 7.65361C1.97744 9.24346 1.97744 14.0087 2.06768 15.5985C2.14072 17.1411 2.49307 18.5075 3.62314 19.6333C4.75322 20.7591 6.11533 21.1114 7.65791 21.1888C9.24775 21.279 14.013 21.279 15.6028 21.1888C17.1454 21.1157 18.5118 20.7634 19.6376 19.6333C20.7634 18.5075 21.1157 17.1411 21.1931 15.5985C21.2833 14.0087 21.2833 9.24775 21.1931 7.65791ZM19.1392 17.3044C18.804 18.1466 18.1552 18.7954 17.3087 19.1349C16.0411 19.6376 13.0333 19.5216 11.6325 19.5216C10.2317 19.5216 7.21963 19.6333 5.95635 19.1349C5.11416 18.7997 4.46533 18.1509 4.12588 17.3044C3.62314 16.0368 3.73916 13.029 3.73916 11.6282C3.73916 10.2274 3.62744 7.21533 4.12588 5.95205C4.46104 5.10986 5.10986 4.46103 5.95635 4.12158C7.22393 3.61885 10.2317 3.73486 11.6325 3.73486C13.0333 3.73486 16.0454 3.62314 17.3087 4.12158C18.1509 4.45674 18.7997 5.10557 19.1392 5.95205C19.6419 7.21963 19.5259 10.2274 19.5259 11.6282C19.5259 13.029 19.6419 16.0411 19.1392 17.3044Z" fill="#BDBDBD"/>
</svg>
