<svg width="24" height="24" viewBox="0 0 24 24" fill="none" xmlns="http://www.w3.org/2000/svg">
<path fill-rule="evenodd" clip-rule="evenodd" d="M11.9923 1.7998C6.01798 1.7998 1.2 5.65415 1.2 10.3334C1.2 13.3706 3.20428 16.0302 6.2107 17.5488L5.19315 21.3493C5.17396 21.4062 5.17101 21.4673 5.18462 21.5259C5.19824 21.5844 5.22788 21.638 5.27023 21.6807C5.33199 21.7351 5.41145 21.7653 5.49379 21.7655C5.56206 21.76 5.62683 21.733 5.6788 21.6884L10.0574 18.736C10.7037 18.8252 11.3552 18.8715 12.0077 18.8747C17.9743 18.8747 22.8 15.0203 22.8 10.3334C22.8 5.64644 17.9589 1.7998 11.9923 1.7998ZM4.97689 8.98428H3.79745C3.65126 8.98852 3.50689 8.95108 3.38118 8.87635C3.32536 8.84138 3.27738 8.79523 3.24024 8.74084C3.20309 8.68645 3.17759 8.62497 3.16533 8.56026C3.16158 8.51923 3.16158 8.47802 3.16533 8.43699C3.16167 8.36022 3.17657 8.28366 3.20878 8.21388C3.24098 8.14409 3.28954 8.08314 3.35034 8.03612C3.48473 7.93879 3.64694 7.88737 3.81287 7.8896H7.36661C7.51396 7.88442 7.65932 7.92482 7.78289 8.00525C7.84002 8.03867 7.88901 8.08441 7.92634 8.13906C7.96367 8.19372 7.98839 8.25597 7.99873 8.32134C8.0025 8.35979 8.0025 8.39854 7.99873 8.43699C8.00237 8.51486 7.9875 8.59247 7.95534 8.66349C7.92318 8.73451 7.87465 8.79684 7.81372 8.84548C7.6826 8.9427 7.52196 8.99175 7.3589 8.98428H6.21801V13.0391C6.22264 13.1255 6.20927 13.2119 6.17875 13.2928C6.14823 13.3738 6.10122 13.4475 6.0407 13.5093C5.98267 13.5684 5.91292 13.6148 5.83591 13.6453C5.75891 13.6758 5.67636 13.6899 5.59359 13.6866C5.44882 13.6907 5.30711 13.6445 5.19274 13.5556C5.08385 13.4688 5.00994 13.3456 4.9846 13.2087C4.97699 13.1524 4.97699 13.0954 4.9846 13.0391L4.97689 8.98428ZM8.5627 7.88191C8.45267 7.95358 8.37305 8.06343 8.33914 8.19028L6.70488 12.6228C6.69621 12.6467 6.68572 12.6711 6.67511 12.6958C6.64797 12.759 6.62008 12.824 6.62008 12.885C6.60684 12.9615 6.60684 13.0397 6.62008 13.1162C6.61599 13.1598 6.61599 13.2037 6.62008 13.2473C6.64266 13.3751 6.71121 13.4902 6.8128 13.571C6.91708 13.6493 7.04476 13.6901 7.17511 13.6866C7.29545 13.7018 7.41732 13.6747 7.51993 13.61C7.62254 13.5454 7.69956 13.4472 7.73786 13.3321L8.06163 12.3839H10.089L10.4128 13.3321C10.452 13.4449 10.5281 13.5413 10.6288 13.6056C10.7295 13.67 10.8489 13.6985 10.9678 13.6866C11.0451 13.6885 11.122 13.6744 11.1936 13.6452C11.2653 13.6161 11.3301 13.5724 11.3841 13.5171C11.4398 13.4666 11.4839 13.4046 11.5132 13.3354C11.5425 13.2661 11.5563 13.1913 11.5537 13.1162C11.5563 13.0674 11.5563 13.0186 11.5537 12.9698C11.5269 12.8523 11.4935 12.7365 11.4535 12.6228L9.91173 8.26735C9.87488 8.113 9.78131 7.97817 9.64963 7.88963C9.52537 7.81899 9.38391 7.78429 9.24107 7.78941H8.94814C8.81352 7.78341 8.67993 7.81546 8.5627 7.88191ZM8.37768 11.5128L9.11002 9.20017L9.83464 11.5128H8.37768ZM11.7302 8.43707C11.7224 8.26407 11.7833 8.09502 11.8998 7.96684C11.959 7.90713 12.0301 7.86046 12.1084 7.82992C12.1867 7.79938 12.2706 7.78557 12.3546 7.78946C12.499 7.78778 12.6399 7.83388 12.7555 7.92054C12.8625 8.01097 12.9337 8.13675 12.9559 8.27512C12.9635 8.32881 12.9635 8.38337 12.9559 8.43707V12.4919H15.0758C15.2228 12.49 15.3672 12.53 15.4921 12.6074C15.5482 12.6421 15.5964 12.6881 15.6336 12.7426C15.6708 12.797 15.6961 12.8587 15.7079 12.9235V13.0392C15.7116 13.116 15.6967 13.1924 15.6645 13.2622C15.6323 13.332 15.5837 13.393 15.5229 13.4401C15.3885 13.5374 15.2263 13.5887 15.0604 13.5865H12.4548C12.2889 13.5972 12.1239 13.554 11.9846 13.4632C11.86 13.37 11.7769 13.2316 11.7533 13.0778C11.7477 12.9931 11.7477 12.908 11.7533 12.8233L11.7302 8.43707ZM16.0165 7.9669C15.9029 8.09674 15.8423 8.26463 15.8469 8.43713L15.8007 13.0007C15.7931 13.0569 15.7931 13.1141 15.8007 13.1703C15.826 13.3073 15.8999 13.4304 16.0088 13.5172C16.1208 13.6049 16.2597 13.6512 16.402 13.6483C16.4871 13.6518 16.572 13.6379 16.6516 13.6074C16.7311 13.5769 16.8036 13.5304 16.8645 13.4709C16.9781 13.3411 17.0387 13.1732 17.0341 13.0007V11.7134L17.7202 10.9964L19.154 13.309C19.2134 13.4175 19.298 13.51 19.4007 13.5788C19.4956 13.6287 19.6019 13.6527 19.709 13.6483C19.8702 13.6505 20.0275 13.5989 20.1561 13.5018C20.2245 13.4436 20.2778 13.3698 20.3113 13.2865C20.3449 13.2033 20.3578 13.1131 20.3489 13.0238V12.9853C20.3063 12.8557 20.2439 12.7334 20.1638 12.6229V12.5459L18.6221 10.1562L19.9018 8.75312C19.9582 8.68942 20.0073 8.61969 20.0482 8.54506C20.0884 8.47458 20.1096 8.39488 20.1099 8.31376C20.1061 8.29597 20.1061 8.27763 20.1099 8.25984C20.113 8.24458 20.113 8.2288 20.1099 8.21354C20.0989 8.15132 20.0755 8.09196 20.0411 8.03899C20.0066 7.98601 19.9619 7.94047 19.9095 7.90517C19.7982 7.82914 19.6665 7.78879 19.5317 7.78952C19.4396 7.78772 19.3488 7.81182 19.2696 7.85897C19.1856 7.92594 19.1058 7.99795 19.0307 8.07474L17.0803 10.3257V8.43713C17.0841 8.38323 17.0841 8.32907 17.0803 8.27518C17.0554 8.13596 16.9816 8.01024 16.8722 7.92061C16.746 7.82869 16.592 7.78307 16.4361 7.7915C16.2803 7.79992 16.1321 7.86192 16.0165 7.9669Z" fill="white"/>
</svg>
