<svg width="41" height="41" viewBox="0 0 41 41" fill="none" xmlns="http://www.w3.org/2000/svg">
<path d="M26.0818 8.41211C28.4443 8.41211 29.6273 8.41211 30.4754 8.97918C30.843 9.22477 31.1586 9.5404 31.4042 9.90802C31.9713 10.7561 31.9713 11.939 31.9713 14.3015V30.2871C31.9713 33.4607 31.9713 35.0458 30.9852 36.0318C29.9992 37.0179 28.4141 37.0179 25.2405 37.0179H15.1443C11.9708 37.0179 10.3857 37.0179 9.39963 36.0318C8.41357 35.0458 8.41357 33.4607 8.41357 30.2871V14.3015C8.41357 11.939 8.41357 10.7561 8.98064 9.90802C9.22624 9.5404 9.54187 9.22477 9.90949 8.97918C10.7576 8.41211 11.9405 8.41211 14.303 8.41211" stroke="#3E3F43" stroke-width="2.69231"/>
<path d="M15.1445 8.41226C15.1445 7.5197 15.4991 6.66371 16.1302 6.03257C16.7614 5.40144 17.6174 5.04688 18.5099 5.04688H21.8753C22.7679 5.04688 23.6239 5.40144 24.255 6.03257C24.8861 6.66371 25.2407 7.5197 25.2407 8.41226C25.2407 9.30482 24.8861 10.1608 24.255 10.7919C23.6239 11.4231 22.7679 11.7776 21.8753 11.7776H18.5099C17.6174 11.7776 16.7614 11.4231 16.1302 10.7919C15.4991 10.1608 15.1445 9.30482 15.1445 8.41226Z" stroke="#3E3F43" stroke-width="2.69231"/>
<path d="M15.1445 20.1914H25.2407M15.1445 26.9222H21.8753" stroke="#3E3F43" stroke-width="2.69231" stroke-linecap="round"/>
</svg>
