<svg width="85" height="85" viewBox="0 0 85 85" fill="none" xmlns="http://www.w3.org/2000/svg">
<g opacity="0.05">
<path d="M41.45 85C35.7015 85 30.3754 83.3227 24.7367 81.5458C22.1022 80.7166 19.3795 79.8566 16.6305 79.198C16.5399 79.1838 16.4635 79.179 16.3848 79.179C15.6593 79.179 14.6786 79.6055 13.6406 80.058C12.5286 80.5437 11.3784 81.0435 10.4955 81.0435C9.80106 81.0435 9.37392 80.7261 9.15677 80.0461C8.58407 78.2598 9.62686 77.7646 11.0682 77.0776L11.2447 76.9947C12.8507 76.2247 14.5879 75.514 16.3919 75.514C16.6234 75.514 16.8525 75.5258 17.0768 75.5495C19.9999 76.175 22.9637 77.1297 25.8272 78.0513C30.8383 79.6647 36.0213 81.3349 41.3164 81.3349C42.8102 81.3349 44.2825 81.1999 45.6928 80.9369C50.0787 80.1125 58.3161 77.4424 62.0745 74.3223C65.1074 71.8063 67.99 68.6932 70.7795 65.682C72.9558 63.3318 75.2037 60.9035 77.4825 58.8068L77.4921 58.7973L77.5016 58.7855C78.313 57.7928 78.4537 56.3547 77.8596 55.1204C77.3418 54.0448 76.3825 53.4004 75.2896 53.4004C75.0867 53.4004 74.8767 53.4217 74.6644 53.4667C74.0177 53.6018 73.4736 53.9714 72.9487 54.3267C72.8699 54.3789 72.7935 54.431 72.7172 54.4831C71.5933 55.2318 60.972 63.808 60.5854 64.623C60.4566 64.8955 60.3993 65.2129 60.3373 65.5494C60.2776 65.8739 60.218 66.208 60.0891 66.5112C58.8769 69.3684 56.2067 70.8823 51.9257 71.1382C49.506 71.2827 45.478 71.4367 41.4285 71.4367C38.1164 71.4367 35.4009 71.3301 33.5754 71.1287C31.979 70.9534 31.2631 69.9939 31.2631 69.1244C31.2631 68.3141 31.905 67.4234 33.3391 67.2646C34.6874 67.1154 36.1907 67.0419 37.9374 67.0419C39.8512 67.0419 41.8581 67.1296 43.7957 67.2149C45.7524 67.3002 47.7784 67.3902 49.7327 67.3902C51.5248 67.3902 53.0735 67.3144 54.4718 67.1604C55.5743 66.9329 56.3403 66.2625 56.6529 65.2698C57.0371 64.0521 56.6505 62.5619 55.6912 61.5597C55.1448 60.9888 54.238 60.56 53.3837 60.4676C52.4125 60.3633 51.3363 60.3136 50.0954 60.3136C48.6494 60.3136 47.1389 60.3823 45.6785 60.4486C44.2157 60.5149 42.7028 60.5836 41.2496 60.5836C39.9013 60.5836 38.7416 60.5244 37.7012 60.4012C35.7898 60.1738 34.1719 59.1432 32.4586 58.051C30.8884 57.0513 29.2658 56.0183 27.3258 55.5658C25.9584 55.246 24.6126 55.0849 23.3288 55.0849C18.079 55.0849 14.1226 57.7336 9.93469 60.5363C8.44805 61.5313 6.90891 62.5619 5.26717 63.5048C5.1049 63.538 4.94502 63.5546 4.78991 63.5546C4.16471 63.5546 3.64212 63.2868 3.31521 62.7988C2.93818 62.2373 2.89761 61.4697 3.20305 60.7471C3.48224 60.1833 9.80822 56.0681 11.1278 55.291C15.6903 52.5973 19.6372 51.3416 23.5435 51.3416C26.6743 51.3416 29.7239 52.1614 32.8666 53.8482C33.4704 54.1728 34.0431 54.5566 34.5943 54.9261C35.8375 55.7577 37.1213 56.6177 38.806 56.812C39.4837 56.8902 40.3189 56.9281 41.357 56.9281C42.5596 56.9281 43.8864 56.8783 45.2895 56.8262C46.7857 56.7717 48.332 56.7125 49.8258 56.7125C52.3361 56.7125 55.875 56.857 57.6408 58.1174C58.1538 58.4822 58.5571 58.9916 58.9461 59.482C59.1704 59.7639 59.4019 60.0577 59.6548 60.323L59.7837 60.4605L59.9292 60.342C61.2202 59.2901 62.5255 58.1458 63.7854 57.0418C65.6324 55.4237 67.5438 53.751 69.4719 52.3011C71.8295 50.529 73.8697 49.669 75.7048 49.669C77.2582 49.669 78.6757 50.3134 79.9189 51.5833C83.9612 55.7127 81.2147 60.1525 79.2174 62.4316C75.7358 66.4023 69.9539 72.3914 65.6371 76.156C60.416 80.7119 51.971 83.5311 46.3275 84.5617C44.7454 84.8507 43.1037 84.9976 41.4452 84.9976L41.45 85Z" fill="url(#paint0_linear_26302_8186)"/>
<path d="M63.9214 17.2639C61.2369 17.2639 59.168 17.1692 58.5189 17.0152C57.8412 16.8541 57.2829 16.3731 57.0299 15.7264C56.7961 15.1317 56.8653 14.4944 57.216 13.9803C57.3043 13.85 57.9844 13.324 58.1562 13.2506H63.1865L63.2223 13.0919C63.3153 12.6702 63.1125 12.4783 62.9359 12.3077C62.9001 12.2721 62.8619 12.2366 62.8238 12.1963C61.0102 10.2513 57.3091 7.98163 54.7486 6.83497C50.5321 4.9444 46.1128 3.98726 41.6147 3.98726C34.9117 3.98726 28.5833 6.1337 23.3144 10.1944C22.6511 10.7061 21.6966 11.6751 20.7707 12.6109C19.6492 13.7481 18.4894 14.9232 17.9215 15.2146C17.5516 15.4018 17.1746 15.4989 16.7952 15.4989C16.139 15.4989 15.5472 15.2099 15.1701 14.7076C14.786 14.1959 14.6857 13.5396 14.8886 12.8644C15.1272 12.0708 17.5779 9.64477 18.7734 8.58103C24.9968 3.04671 33.1792 0 41.8103 0C51.1788 0 60.1607 3.68401 66.458 10.1091L66.8064 10.4645V4.87569C66.8064 4.32131 67.8253 3.55134 68.83 3.55134C69.3168 3.55134 69.9778 3.73376 70.3548 4.60087C70.8965 5.85414 70.8607 12.5162 70.7056 14.3451C70.5576 16.0746 70.2068 16.9322 68.6152 17.1218C67.885 17.2094 65.9999 17.2663 63.9262 17.2663L63.9214 17.2639Z" fill="url(#paint1_linear_26302_8186)"/>
<path d="M42.5 11.8883L50.5011 16.475V25.6459L42.5 30.2326L34.4988 25.6459V16.475L42.5 11.8883ZM42.5 8.05981L31.1581 14.5607V27.5626L42.5 34.0635L53.8419 27.5626V14.5607L42.5 8.05981Z" fill="url(#paint2_linear_26302_8186)"/>
<path d="M32.8547 28.9627L40.8558 33.5494V42.7203L32.8547 47.307L24.8536 42.7203V33.5494L32.8547 28.9627ZM32.8547 25.1318L21.5128 31.6328V44.6346L32.8547 51.1355L44.1966 44.6346V31.6328L32.8547 25.1318Z" fill="url(#paint3_linear_26302_8186)"/>
<path d="M52.1452 28.9627L60.1464 33.5494V42.7203L52.1452 47.307L44.1441 42.7203V33.5494L52.1452 28.9627ZM52.1452 25.1318L40.8033 31.6328V44.6346L52.1452 51.1355L63.4871 44.6346V31.6328L52.1452 25.1318Z" fill="url(#paint4_linear_26302_8186)"/>
</g>
<defs>
<linearGradient id="paint0_linear_26302_8186" x1="42.5" y1="0" x2="42.5" y2="85" gradientUnits="userSpaceOnUse">
<stop/>
<stop offset="1" stop-opacity="0.3"/>
</linearGradient>
<linearGradient id="paint1_linear_26302_8186" x1="42.5" y1="0" x2="42.5" y2="85" gradientUnits="userSpaceOnUse">
<stop/>
<stop offset="1" stop-opacity="0.3"/>
</linearGradient>
<linearGradient id="paint2_linear_26302_8186" x1="42.5" y1="0" x2="42.5" y2="85" gradientUnits="userSpaceOnUse">
<stop/>
<stop offset="1" stop-opacity="0.3"/>
</linearGradient>
<linearGradient id="paint3_linear_26302_8186" x1="42.5" y1="0" x2="42.5" y2="85" gradientUnits="userSpaceOnUse">
<stop/>
<stop offset="1" stop-opacity="0.3"/>
</linearGradient>
<linearGradient id="paint4_linear_26302_8186" x1="42.5" y1="0" x2="42.5" y2="85" gradientUnits="userSpaceOnUse">
<stop/>
<stop offset="1" stop-opacity="0.3"/>
</linearGradient>
</defs>
</svg>
