<svg width="85" height="85" viewBox="0 0 85 85" fill="none" xmlns="http://www.w3.org/2000/svg">
<g opacity="0.05">
<path d="M2.03046 77.9839C1.29941 77.9839 0.390164 77.3996 0.2371 75.7549C-0.795507 64.6419 1.57584 54.7827 6.74344 48.7052C10.5586 44.2172 15.8016 41.7374 22.3308 41.3303C25.3144 41.1439 29.0839 41.0427 32.947 41.0427C36.8101 41.0427 40.7464 41.1485 43.7894 41.3418C48.5869 41.6477 53.0143 43.2948 57.2955 44.8889C58.8696 45.4755 60.4984 46.0828 62.1342 46.6188L62.2301 46.651L62.3101 46.5889C62.3718 46.5428 62.406 46.4761 62.4106 46.4002C62.4174 46.2484 62.2918 46.138 62.1821 46.0391C62.1753 46.0322 62.1661 46.0253 62.1593 46.0184V38.6619L61.9811 38.6481C58.6845 38.3812 56.2515 36.5755 55.6301 33.9347C54.9859 31.195 56.4297 28.3656 59.4019 26.5483C61.5996 25.2049 63.9618 24.4941 66.2326 24.4941C70.1392 24.4941 73.2987 26.5253 75.1286 30.2173C77.6416 35.2827 81.0204 50.3591 80.5018 56.1882C79.9512 62.3807 74.9321 65.5206 65.5838 65.5206C63.5551 65.5206 61.3049 65.3734 58.7028 65.0721C57.8941 64.9778 57.0762 64.8213 56.2858 64.6695C55.1641 64.4556 54.0035 64.2325 52.8361 64.1796L52.6625 64.1727L50.563 77.257C50.129 77.7102 49.6012 77.9609 49.0735 77.9609C48.0957 77.9609 47.3487 77.142 47.2893 76.0102C47.8033 73.8272 48.0637 71.398 48.315 69.0494C48.5778 66.5926 48.8496 64.053 49.4139 61.8332C49.6629 60.8533 50.3323 60.3012 51.2986 60.2805C51.3603 60.2805 51.422 60.2805 51.486 60.2805C52.9595 60.2805 54.8831 60.6669 56.7404 61.0396C58.4149 61.3754 60.1443 61.7228 61.611 61.8102C62.7601 61.8769 64.012 61.939 65.3782 61.939C71.7863 61.939 75.5466 60.5036 76.5518 57.6719C77.7969 54.1685 76.0995 46.7683 75.1857 42.791L75.0623 42.2481C74.9915 41.933 74.9138 41.5879 74.8339 41.2176C73.8835 36.8998 72.1153 28.8624 67.5371 28.124C67.3223 28.0895 67.0756 28.0711 66.806 28.0711C64.2451 28.0711 59.3493 29.6699 59.0363 32.2853C58.9587 32.9317 59.1597 33.5643 59.5983 34.0658C60.0735 34.6041 60.7772 34.9261 61.4831 34.9261C61.611 34.9261 61.7389 34.9146 61.8646 34.8939C62.1524 34.8456 62.3695 34.6869 62.5774 34.5328C62.7441 34.4086 62.9018 34.2935 63.0822 34.2498C63.3678 34.1808 63.6351 34.1463 63.8795 34.1463C65.3668 34.1463 65.794 35.3908 65.8899 36.4352C66.1686 39.4302 66.2189 46.4646 65.8877 49.2895C65.7483 50.4787 65.0104 51.0814 63.6945 51.0814C63.377 51.0814 63.032 51.0446 62.671 50.971C60.864 50.6006 58.6731 49.6161 56.3543 48.574C54.3622 47.6792 52.3015 46.7522 50.4808 46.2392C45.5919 44.8636 38.2083 44.5738 32.8739 44.5738C28.9742 44.5738 25.4697 44.7233 23.2172 44.8475C7.05871 45.74 4.299 58.293 3.73015 70.4526C3.69359 71.2531 3.73015 72.1341 3.76442 72.983C3.81011 74.0848 3.85808 75.2258 3.74614 76.2034C3.6045 77.4249 2.75694 77.9816 2.02817 77.9816L2.03046 77.9839Z" fill="url(#paint0_linear_26302_8188)"/>
<path d="M31.7156 37.5416C22.2508 37.5416 17.5241 30.0839 17.1381 23.153C16.7497 16.1922 20.6631 8.20768 30.1782 7.12652C30.9138 7.04371 31.6448 7 32.3507 7C36.6799 7 40.3763 8.58033 43.0378 11.5708C45.4183 14.2438 46.805 17.8576 46.9398 21.7452C47.0768 25.6466 45.9323 29.3432 43.7186 32.1588C41.2239 35.3287 37.5321 37.1736 33.0452 37.4933C32.5975 37.5255 32.1497 37.5416 31.7156 37.5416ZM32.2091 10.5517C31.6814 10.5517 31.1377 10.5839 30.5917 10.646C25.3235 11.2556 20.2016 15.2582 20.6311 22.824C20.9464 28.3748 24.7981 33.9945 31.5512 33.9945C32.4718 33.9945 33.4359 33.891 34.416 33.6839C41.3952 32.2163 43.979 26.3045 43.4444 21.0965C42.9235 16.0173 39.1861 10.5517 32.2091 10.5517Z" fill="url(#paint1_linear_26302_8188)"/>
<path d="M16.5692 77.9977C15.8404 77.9977 14.9746 77.4203 14.689 76.1275C14.2139 73.9836 14.0265 71.5659 13.8415 69.2288C13.661 66.9239 13.4737 64.543 13.0168 62.383C12.9048 61.7504 13.3823 60.6508 13.974 60.4737C14.3212 60.3702 14.6342 60.3173 14.9061 60.3173C16.062 60.3173 16.4413 61.242 16.7337 62.9489C17.1769 65.5322 18.3854 73.5143 18.1432 76.2195C18.0245 77.533 17.2203 78 16.5669 78L16.5692 77.9977Z" fill="url(#paint2_linear_26302_8188)"/>
<path d="M71.8023 18.6834C71.3728 18.6834 70.9707 18.5109 70.6692 18.2004C70.3059 17.8277 70.1232 17.2917 70.1369 16.6499C70.1552 15.8333 71.4413 10.2274 71.7954 9.42226C72.0582 8.82877 72.7024 8.42851 73.3992 8.42851C73.8515 8.42851 74.2559 8.60104 74.5392 8.91158C74.8476 9.25203 75.0303 9.94904 75.0075 10.3884C74.9709 11.1061 73.6139 16.903 73.3192 17.6C73.0337 18.2763 72.4671 18.6788 71.8023 18.6788V18.6834Z" fill="url(#paint3_linear_26302_8188)"/>
<path d="M64.0555 20.5973C63.3176 20.5973 62.6779 19.8543 62.205 19.2056C61.6202 18.4051 59.1072 14.3496 58.9998 13.7906C58.9016 13.2776 59.0066 12.8015 59.2968 12.4449C59.5846 12.093 60.0233 11.8928 60.4984 11.8928C61.0559 11.8928 61.5927 12.1666 62.0085 12.6657C62.4677 13.2155 65.1977 17.7564 65.3302 18.1866C65.5358 18.8583 65.4582 19.829 64.9761 20.2201C64.6677 20.4708 64.3593 20.5973 64.0577 20.5973H64.0555Z" fill="url(#paint4_linear_26302_8188)"/>
<path d="M78.1144 23.4796C77.5113 23.4796 76.9836 23.1507 76.7369 22.6193C76.4696 22.0442 76.593 21.3587 77.0681 20.7859C77.4177 20.365 82.7315 16.666 83.1815 16.528C83.2455 16.5188 83.3186 16.5119 83.3917 16.5119C83.9674 16.5119 84.5248 16.9007 84.8127 17.5034C85.1097 18.1221 85.0503 18.7869 84.6573 19.2884C84.1913 19.8796 82.9645 20.5996 81.7765 21.2943C80.6 21.9844 79.3846 22.6952 78.745 23.3669C78.5302 23.4428 78.3178 23.4796 78.1099 23.4796H78.1144Z" fill="url(#paint5_linear_26302_8188)"/>
</g>
<defs>
<linearGradient id="paint0_linear_26302_8188" x1="42.5" y1="7" x2="42.5" y2="78" gradientUnits="userSpaceOnUse">
<stop/>
<stop offset="1" stop-opacity="0.3"/>
</linearGradient>
<linearGradient id="paint1_linear_26302_8188" x1="42.5" y1="7" x2="42.5" y2="78" gradientUnits="userSpaceOnUse">
<stop/>
<stop offset="1" stop-opacity="0.3"/>
</linearGradient>
<linearGradient id="paint2_linear_26302_8188" x1="42.5" y1="7" x2="42.5" y2="78" gradientUnits="userSpaceOnUse">
<stop/>
<stop offset="1" stop-opacity="0.3"/>
</linearGradient>
<linearGradient id="paint3_linear_26302_8188" x1="42.5" y1="7" x2="42.5" y2="78" gradientUnits="userSpaceOnUse">
<stop/>
<stop offset="1" stop-opacity="0.3"/>
</linearGradient>
<linearGradient id="paint4_linear_26302_8188" x1="42.5" y1="7" x2="42.5" y2="78" gradientUnits="userSpaceOnUse">
<stop/>
<stop offset="1" stop-opacity="0.3"/>
</linearGradient>
<linearGradient id="paint5_linear_26302_8188" x1="42.5" y1="7" x2="42.5" y2="78" gradientUnits="userSpaceOnUse">
<stop/>
<stop offset="1" stop-opacity="0.3"/>
</linearGradient>
</defs>
</svg>
