<svg width="85" height="85" viewBox="0 0 85 85" fill="none" xmlns="http://www.w3.org/2000/svg">
<g opacity="0.05">
<path d="M48.5797 21.7812H36.6942C35.6297 21.7812 34.7687 22.6349 34.7687 23.6905V33.6817H24.6931C23.6286 33.6817 22.7676 34.5354 22.7676 35.591V47.3742C22.7676 48.4298 23.6286 49.2835 24.6931 49.2835H34.7687V59.2747C34.7687 60.3303 35.6297 61.184 36.6942 61.184H48.5797C49.6442 61.184 50.5052 60.3303 50.5052 59.2747V49.2835H60.5808C61.6453 49.2835 62.5063 48.4298 62.5063 47.3742V35.591C62.5063 34.5354 61.6453 33.6817 60.5808 33.6817H50.5052V23.6905C50.5052 22.6349 49.6442 21.7812 48.5797 21.7812ZM58.6581 37.5003V45.4649H48.5825C47.518 45.4649 46.657 46.3186 46.657 47.3742V57.3654H38.6224V47.3742C38.6224 46.3186 37.7614 45.4649 36.6969 45.4649H26.6213V37.5003H36.6969C37.7614 37.5003 38.6224 36.6466 38.6224 35.591V25.5998H46.657V35.591C46.657 36.6466 47.518 37.5003 48.5825 37.5003H58.6581Z" fill="url(#paint0_linear_26302_8185)"/>
<path d="M42.3908 80.9973C41.8516 80.9045 41.3235 80.7245 40.8036 80.449C35.1208 77.4296 25.4907 69.4132 20.402 64.7599C19.6896 64.108 19.0405 63.4916 18.4133 62.8779C17.4891 61.9778 16.5676 61.0367 15.6709 60.0739L15.2666 59.6375V66.5356C15.2666 67.4602 14.5074 68.213 13.5749 68.213C12.6424 68.213 11.8833 67.4602 11.8833 66.5356V54.6978C11.8833 53.7732 12.6424 53.0203 13.5749 53.0203H25.5128C26.4452 53.0203 27.2044 53.7732 27.2044 54.6978C27.2044 55.6225 26.4452 56.3753 25.5128 56.3753H18.3005L18.6554 56.7626C19.4806 57.6654 20.3553 58.5846 21.2575 59.4956C26.9348 65.2345 34.0095 70.9952 40.6634 75.2966C40.9219 75.463 41.1475 75.6266 41.3675 75.7821C41.6949 76.0167 41.9754 76.2185 42.2835 76.3795L42.3193 76.3986L42.3743 76.4067H42.7016L42.7346 76.3876C43.0619 76.2158 43.3425 76.014 43.6698 75.7821C43.8871 75.6266 44.1127 75.4657 44.3712 75.2993C48.1039 72.8881 61.0292 64.0562 70.6647 51.722C74.9118 46.2859 77.8275 41.0053 79.3348 36.0247C81.0842 30.2449 80.9357 24.8416 78.8892 19.9701C75.8745 12.7883 69.0529 8.32869 61.087 8.32869C56.2596 8.32869 51.5587 10.0553 47.8536 13.192C47.4272 13.552 46.9321 14.0839 46.404 14.6485C45.1799 15.9605 43.7964 17.447 42.6081 17.6298H42.3935C41.241 17.447 39.7969 15.8978 38.6334 14.6513C38.108 14.0866 37.6101 13.552 37.1838 13.192C33.4759 10.0553 28.775 8.32869 23.9476 8.32869C15.9817 8.32869 9.16011 12.7883 6.14539 19.9701C2.75384 28.0547 4.54726 37.3939 11.4789 47.7343C12.1171 48.6835 11.8282 49.9954 10.838 50.6582L10.794 50.6882C10.4172 50.9474 9.97981 51.0837 9.5287 51.0837C8.81903 51.0837 8.16713 50.7401 7.78478 50.1618C1.81861 41.1744 -3.78997 27.8883 3.34798 15.625C7.58399 8.34506 15.2803 4 23.9394 4C30.805 4 37.4698 6.80669 42.2202 11.7027L42.289 11.7736H42.7374L42.8061 11.7027C47.5592 6.80942 54.2213 4 61.087 4C69.746 4 77.4424 8.34506 81.6784 15.625C91.0663 31.7587 79.024 51.5829 64.6243 64.7599C59.5411 69.4104 49.9138 77.4269 44.2227 80.4518C43.7111 80.7245 43.1857 80.9045 42.6191 81H42.3908V80.9973Z" fill="url(#paint1_linear_26302_8185)"/>
</g>
<defs>
<linearGradient id="paint0_linear_26302_8185" x1="42.5" y1="4" x2="42.5" y2="81" gradientUnits="userSpaceOnUse">
<stop/>
<stop offset="1" stop-opacity="0.3"/>
</linearGradient>
<linearGradient id="paint1_linear_26302_8185" x1="42.5" y1="4" x2="42.5" y2="81" gradientUnits="userSpaceOnUse">
<stop/>
<stop offset="1" stop-opacity="0.3"/>
</linearGradient>
</defs>
</svg>
