<svg width="28" height="19" viewBox="0 0 28 19" fill="none" xmlns="http://www.w3.org/2000/svg">
<path d="M20.8506 12.6647C21.0913 14.1086 21.072 16.6594 18.5116 18.161C18.3768 18.238 18.4635 18.4401 18.6078 18.4113C25.5095 16.7556 28.994 8.8048 27.7523 4.92563C27.1459 1.97054 24.4314 -0.214503 21.2453 0.0165149C18.1939 0.237907 15.7298 2.73097 15.5565 5.79195C15.3736 8.91068 17.5009 11.5674 20.3982 12.193C20.6389 12.2412 20.8218 12.4337 20.8603 12.6743L20.8506 12.6647Z" fill="#ECD5BC"/>
<path d="M5.31483 12.6647C5.55547 14.1086 5.53622 16.6594 2.97578 18.161C2.84102 18.238 2.92765 18.4401 3.07203 18.4113C9.96405 16.7653 13.4486 8.81442 12.2068 4.92563C11.6004 1.97054 8.88596 -0.214503 5.69985 0.0165149C2.6485 0.237907 0.184318 2.73097 0.0110554 5.79195C-0.171833 8.91068 1.95545 11.5674 4.85279 12.193C5.09343 12.2412 5.27632 12.4337 5.31483 12.6743L5.31483 12.6647Z" fill="#ECD5BC"/>
</svg>
