<svg width="28" height="19" viewBox="0 0 28 19" fill="none" xmlns="http://www.w3.org/2000/svg">
<path d="M7.14937 5.74935C6.90872 4.3055 6.92798 1.75468 9.48842 0.25307C9.62318 0.176064 9.53654 -0.026076 9.39216 0.00280115C2.49052 1.65842 -0.993989 9.60927 0.247728 13.4884C0.854148 16.4435 3.5686 18.6286 6.75471 18.3975C9.80606 18.1762 12.2702 15.6831 12.4435 12.6221C12.6264 9.50338 10.4991 6.84669 7.60178 6.22101C7.36113 6.17289 7.17824 5.98037 7.13974 5.73973L7.14937 5.74935Z" fill="#ECD5BC"/>
<path d="M22.6852 5.74935C22.4445 4.3055 22.4638 1.75468 25.0242 0.25307C25.159 0.176064 25.0724 -0.026076 24.928 0.00280115C18.036 1.6488 14.5514 9.59964 15.7932 13.4884C16.3996 16.4435 19.114 18.6286 22.3001 18.3975C25.3515 18.1762 27.8157 15.6831 27.9889 12.6221C28.1718 9.50338 26.0445 6.84669 23.1472 6.22101C22.9066 6.17289 22.7237 5.98037 22.6852 5.73973V5.74935Z" fill="#ECD5BC"/>
</svg>
