<svg width="41" height="41" viewBox="0 0 41 41" fill="none" xmlns="http://www.w3.org/2000/svg">
<path d="M14.8075 33.6513V26.7523L18.0047 27.0888C18.9354 27.0371 19.8162 26.6512 20.4852 26.002C21.1542 25.3528 21.5664 24.4839 21.646 23.5551V13.9638C21.6572 11.5396 20.7049 9.21029 18.9986 7.48825C17.2923 5.76621 14.9719 4.7925 12.5477 4.78135C10.1235 4.77019 7.79418 5.72249 6.07214 7.42876C4.35009 9.13502 3.37639 11.4555 3.36523 13.8797C3.36523 18.5912 4.46908 19.0186 5.04793 21.5359C5.43913 23.0562 5.45587 24.6486 5.09672 26.1768L3.36523 33.6513" stroke="#3E3F43" stroke-width="2.69231" stroke-linecap="round" stroke-linejoin="round"/>
<path d="M33.3169 29.951C35.6825 27.5851 37.0118 24.3768 37.0128 21.0312C37.0137 17.6856 35.6862 14.4765 33.3219 12.1094" stroke="#3E3F43" stroke-width="2.69231" stroke-linecap="round" stroke-linejoin="round"/>
<path d="M28.6051 25.2386C29.1556 24.6882 29.5915 24.0341 29.8877 23.3141C30.1838 22.5941 30.3343 21.8226 30.3304 21.0441C30.3265 20.2656 30.1683 19.4956 29.8649 18.7787C29.5615 18.0617 29.119 17.412 28.563 16.8672" stroke="#3E3F43" stroke-width="2.69231" stroke-linecap="round" stroke-linejoin="round"/>
</svg>
