<svg width="24" height="24" viewBox="0 0 24 24" fill="none" xmlns="http://www.w3.org/2000/svg">
<path fill-rule="evenodd" clip-rule="evenodd" d="M6.19213 2H12.6571C13.3143 2 13.8492 2.53493 13.8492 3.19213V9.70297C13.8492 10.3602 13.3143 10.8951 12.6571 10.8951H6.19213C5.53493 10.8951 5 10.3602 5 9.70297V3.19213C5 2.53493 5.53493 2 6.19213 2Z" fill="white"/>
<path fill-rule="evenodd" clip-rule="evenodd" d="M14.2161 10.8188H18.4038C18.8317 10.8188 19.168 11.1704 19.168 11.583V15.8013C19.168 16.2293 18.8164 16.5655 18.4038 16.5655H14.2161C13.727 16.5655 13.3755 16.5349 13.3755 17.3144V21.1659C13.3755 21.548 13.0545 21.8689 12.6724 21.8689H8.83621C8.45412 21.8689 8.13316 21.548 8.13316 21.1659V17.3144C8.13316 16.9323 8.45412 16.6114 8.83621 16.6114H12.6724C13.2685 16.6114 13.4519 16.3974 13.4519 15.8013V11.583C13.4519 11.1551 13.8034 10.8188 14.2161 10.8188Z" fill="white"/>
</svg>
