<svg width="24" height="24" viewBox="0 0 24 24" fill="none" xmlns="http://www.w3.org/2000/svg">
<path d="M12 2C6.47581 2 2 6.47581 2 12C2 17.5242 6.47581 22 12 22C17.5242 22 22 17.5242 22 12C22 6.47581 17.5242 2 12 2ZM16.6371 8.80242C16.4879 10.3831 15.8347 14.2218 15.504 15.9919C15.3629 16.7419 15.0887 16.9919 14.8226 17.0161C14.2419 17.0685 13.8024 16.6331 13.2379 16.2621C12.3589 15.6855 11.8589 15.3266 11.0081 14.7621C10.0202 14.1129 10.6613 13.754 11.2218 13.1694C11.371 13.0161 13.9274 10.6895 13.9758 10.4798C13.9839 10.4516 13.9879 10.3548 13.9274 10.3024C13.8669 10.25 13.7823 10.2702 13.7218 10.2823C13.6331 10.3011 12.2272 11.2298 9.50403 13.0685C9.10618 13.3427 8.74462 13.4758 8.41935 13.4677C8.06048 13.4597 7.375 13.2661 6.8629 13.1008C6.2379 12.8992 5.7379 12.7903 5.78226 12.4435C5.80376 12.2634 6.05242 12.0793 6.52823 11.8911C9.4422 10.6223 11.3858 9.78495 12.3589 9.37903C15.1371 8.22581 15.7137 8.02419 16.0887 8.01613C16.1734 8.01613 16.3548 8.03629 16.4758 8.13306C16.5548 8.20247 16.6051 8.29877 16.6169 8.40323C16.6387 8.5351 16.6455 8.66902 16.6371 8.80242Z" fill="white"/>
</svg>
