<svg width="50" height="50" viewBox="0 0 50 50" fill="none" xmlns="http://www.w3.org/2000/svg">
<path d="M10 29.1042C8.17916 30.925 8.17916 33.8851 10 35.7059L11.2853 36.9912L0 48.2765L1.72347 50L13.0088 38.7147L14.2941 40C15.1801 40.8861 16.3486 41.3729 17.5949 41.3729C18.8413 41.3729 20.0195 40.8861 20.8958 40L42.7264 18.1694L31.8306 7.27361L10 29.1042ZM27.926 20.3505C27.6923 19.9805 27.4197 19.6008 27.0594 19.2308C26.446 18.5979 25.7059 18.0915 24.8686 17.6826L31.8403 10.7108L34.703 13.5735L27.926 20.3505ZM19.1723 38.2765C18.3252 39.1237 16.8549 39.1237 16.0078 38.2765L11.7235 33.9922C10.8471 33.1159 10.8471 31.704 11.7235 30.8277L23.0088 19.5424C23.9435 19.8637 24.7225 20.3213 25.3067 20.925C25.9396 21.5871 26.2415 22.259 26.5823 23.0477C26.9815 23.963 27.4391 25.0049 28.4713 26.076C28.9484 26.5725 29.4839 27.001 30.0779 27.371L19.1723 38.2765ZM31.85 25.6086C31.2269 25.2775 30.6816 24.8783 30.2142 24.4012C29.6592 23.8267 29.3476 23.2619 29.0652 22.668L36.4168 15.3165L39.2795 18.1792L31.85 25.6086Z" fill="#BA653C"/>
<path d="M50 10.3992L39.6008 0L37.8773 1.72347L42.2201 6.06621L38.2376 10.0389L39.9611 11.7624L43.9338 7.77994L48.2765 12.1227L50 10.3992Z" fill="#BA653C"/>
</svg>
