<svg width="50" height="50" viewBox="0 0 50 50" fill="none" xmlns="http://www.w3.org/2000/svg">
<path d="M18.0814 25.3505C7.77799 25.3505 0 28.9706 0 33.7718V41.5786C0 46.3799 7.76839 50 18.0814 50C28.3945 50 36.1629 46.3799 36.1629 41.5786V33.7718C36.1629 28.9706 28.3945 25.3505 18.0814 25.3505ZM9.08392 28.9034L23.8813 39.3509C22.1145 39.6389 20.1748 39.8118 18.0718 39.8118C8.83426 39.8118 2.39101 36.6334 2.39101 33.791C2.39101 32.005 4.91646 30.0941 9.07432 28.913L9.08392 28.9034ZM18.0814 47.609C8.84386 47.609 2.40061 44.4306 2.40061 41.5882V38.0833C5.4638 40.5896 11.1965 42.2028 18.0814 42.2028C24.9664 42.2028 30.6991 40.58 33.7622 38.0833V41.5882C33.7622 44.4402 27.319 47.609 18.0814 47.609ZM27.0693 38.6595L12.2719 28.212C14.0388 27.9239 15.9785 27.7511 18.0814 27.7511C27.319 27.7511 33.7622 30.9295 33.7622 33.7718C33.7622 35.5579 31.2368 37.4688 27.0789 38.6499L27.0693 38.6595Z" fill="#BA653C"/>
<path d="M31.9378 0C21.9704 0 13.8563 8.11408 13.8563 18.0814C13.8563 19.685 14.0676 21.2694 14.4805 22.7962L16.7947 22.1721C16.4394 20.8469 16.257 19.4738 16.257 18.091C16.257 9.44882 23.286 2.41022 31.9378 2.41022C36.1532 2.41022 39.975 4.09065 42.7885 6.79854L25.1392 22.537L26.7332 24.3326L44.373 8.6038C46.3895 11.2445 47.5994 14.5285 47.5994 18.091C47.5994 24.0926 44.1041 29.6428 38.6883 32.2355L39.7254 34.396C45.967 31.4 50 25.0048 50 18.091C50.0096 8.11408 41.9051 0 31.9378 0Z" fill="#BA653C"/>
</svg>
