<svg width="24" height="24" viewBox="0 0 24 24" fill="none" xmlns="http://www.w3.org/2000/svg">
<path d="M21.5826 6.84766C21.3519 5.92187 20.6745 5.19531 19.814 4.94922C18.2541 4.5 12 4.5 12 4.5C12 4.5 5.74588 4.5 4.18601 4.94922C3.32552 5.19531 2.64811 5.92187 2.41743 6.84766C2 8.52344 2 12.0156 2 12.0156C2 12.0156 2 15.5078 2.41743 17.1836C2.64811 18.1094 3.32552 18.8047 4.18601 19.0508C5.74588 19.5 12 19.5 12 19.5C12 19.5 18.2541 19.5 19.814 19.0508C20.6745 18.8047 21.3519 18.1055 21.5826 17.1836C22 15.5078 22 12.0156 22 12.0156C22 12.0156 22 8.52344 21.5826 6.84766ZM9.95679 15.1875V8.84375L15.182 12.0156L9.95679 15.1875Z" fill="#BDBDBD"/>
</svg>
