<svg width="84" height="97" viewBox="0 0 84 97" fill="none" xmlns="http://www.w3.org/2000/svg">
<path fill-rule="evenodd" clip-rule="evenodd" d="M53.6289 47.7512C54.8172 48.4642 56.0056 49.0414 57.0921 49.6356V58.769C57.0921 58.769 57.16 58.8369 57.16 58.8708C55.1228 59.2953 53.6119 61.0438 53.6119 63.1659C53.6119 65.6105 55.5982 67.5968 57.9919 67.5968C60.3855 67.5968 62.3888 65.6105 62.3888 63.1659C62.3888 61.2815 61.1834 59.6178 59.4179 59.0576C59.4858 58.9727 59.4858 58.8708 59.4858 58.769V50.756C75.7493 58.3106 84.0001 58.769 84.0001 96.114H0C0 58.769 8.59003 58.2597 25.5836 50.1958V53.9646C20.0322 54.6776 15.6862 59.3801 15.6862 65.1352V75.5079C15.6862 76.17 16.2125 76.6793 16.8746 76.6793H20.7792C21.4243 76.6793 21.9506 76.17 21.9506 75.5079C21.9506 74.8458 21.4243 74.3365 20.7792 74.3365H18.046V65.1352C18.046 60.178 22.0864 56.1716 27.0605 56.1716C32.0347 56.1716 36.0072 60.178 36.0072 65.1352V74.3365H33.5116C32.8496 74.3365 32.3233 74.8628 32.3233 75.5079C32.3233 76.153 32.8496 76.6793 33.5116 76.6793H37.1786C37.8407 76.6793 38.3669 76.17 38.3669 75.5079V65.1352C38.3669 59.1934 33.7323 54.389 27.9433 53.9137V49.0584C28.7582 48.6 29.624 48.1417 30.4728 47.6493C33.97 50.043 37.9255 51.4012 42.1188 51.4012C46.312 51.4012 50.1487 50.077 53.6119 47.7512H53.6289ZM59.7235 22.4052C59.1972 22.0147 58.7388 22.1845 58.4332 22.7956C58.4332 22.7956 60.1309 13.7132 58.8237 9.82553C56.0056 -0.139714 32.4591 -2.9069 32.4591 3.28955C22.392 6.14162 24.2594 15.6655 25.7024 22.9145C25.7024 22.9145 24.9894 21.9977 24.0557 22.8805C22.9862 24.0349 24.1745 26.853 24.582 28.1772C24.8706 29.2128 25.1761 29.9258 25.4478 30.4181C25.4308 30.52 25.4308 30.6388 25.4308 30.7746C25.4308 31.7423 25.8552 32.5402 26.3815 32.5402H26.4154C28.7412 41.4699 35.7865 48.9226 42.1018 48.9226C47.9247 48.9226 55.1228 41.4699 57.4316 32.5402C57.9409 32.4723 58.3314 31.7083 58.3314 30.7746V30.5539C58.637 30.0277 58.9765 29.2977 59.2821 28.1602C59.6216 26.9719 61.0307 23.288 59.7235 22.3882V22.4052Z" fill="url(#paint0_linear_26102_793)"/>
<defs>
<linearGradient id="paint0_linear_26102_793" x1="42" y1="0" x2="42" y2="92.1481" gradientUnits="userSpaceOnUse">
<stop stop-color="#BA653C"/>
<stop offset="1" stop-color="#BA653C" stop-opacity="0"/>
</linearGradient>
</defs>
</svg>
