<svg width="105" height="24" viewBox="0 0 105 24" fill="none" xmlns="http://www.w3.org/2000/svg">
<path d="M10.655 9.91043C10.6476 9.892 10.6403 9.87357 10.6329 9.85514C10.6329 9.84409 10.6145 9.80723 10.5813 9.74826C10.5408 9.69298 10.5113 9.66718 10.4892 9.67087C10.4781 9.67087 10.467 9.68561 10.4523 9.71509C10.4376 9.74458 10.4191 9.77406 10.4007 9.80355C10.3896 9.82197 10.3749 9.8404 10.3565 9.8662C10.3344 9.892 10.3233 9.91043 10.3196 9.92886C10.3086 9.95097 10.2975 9.97677 10.2791 10.0063C10.2606 10.0357 10.2459 10.0579 10.2385 10.0763C10.2312 10.1058 10.2201 10.1316 10.2091 10.1537C10.198 10.1758 10.1869 10.2016 10.1759 10.2311C10.1759 10.2384 10.1685 10.2495 10.1575 10.2753C10.1464 10.2974 10.1427 10.3232 10.1427 10.349C10.1427 10.3638 10.1427 10.3822 10.139 10.4006C10.1353 10.419 10.1353 10.4375 10.1353 10.4522L10.1464 10.5628C10.1464 10.5628 10.1464 10.5886 10.1538 10.6033C10.1575 10.6181 10.1648 10.6254 10.1759 10.6254C10.2275 10.6181 10.2828 10.5959 10.3417 10.5554C10.3749 10.5296 10.4007 10.5075 10.4228 10.4891C10.4486 10.4596 10.4744 10.4338 10.4965 10.408C10.5186 10.3822 10.5444 10.349 10.5702 10.3122C10.5739 10.3048 10.585 10.2974 10.6034 10.279C10.6181 10.2642 10.6292 10.2495 10.6329 10.2384C10.6329 10.2348 10.6329 10.22 10.6476 10.2053C10.6587 10.1868 10.6624 10.1758 10.6624 10.1721L10.6808 10.1058C10.6882 10.0763 10.6955 10.0579 10.6919 10.0431C10.6919 10.0321 10.6919 10.0099 10.6882 9.98414C10.6882 9.98045 10.6808 9.95466 10.6661 9.91411L10.655 9.91043Z" fill="#BDBDBD"/>
<path d="M13.1354 4.51106H8.72376C8.74219 4.51474 8.76062 4.51106 8.78273 4.51474C8.9191 4.54054 9.05546 4.59951 9.18815 4.68796C9.28397 4.75062 9.3798 4.87224 9.47562 5.04915C9.50511 5.11918 9.53459 5.18552 9.56039 5.25186C9.58987 5.3182 9.61936 5.38454 9.64516 5.45456C9.67096 5.50248 9.68938 5.5467 9.70044 5.58356C9.70781 5.62042 9.72255 5.65727 9.7373 5.69781C9.75204 5.73835 9.7631 5.79364 9.77047 5.86735C9.77784 5.94106 9.78152 5.99266 9.78521 6.02214C9.78889 6.07374 9.79258 6.12165 9.78889 6.1622C9.78889 6.20642 9.78889 6.25065 9.79258 6.30225L9.79995 6.39807C9.81469 6.44967 9.81101 6.53075 9.78889 6.64501C9.76678 6.75926 9.75204 6.84034 9.74467 6.89563C9.74467 6.91774 9.74467 6.98408 9.74467 7.09465C9.74467 7.20521 9.74467 7.27524 9.74467 7.30841C9.75204 7.38212 9.74467 7.44109 9.72624 7.49269C9.70781 7.5406 9.70044 7.58114 9.70413 7.61431C9.70781 7.65485 9.70413 7.71382 9.69676 7.78754C9.6857 7.86125 9.67464 7.92759 9.65621 7.98287C9.65621 7.99393 9.65621 8.03447 9.64147 8.1045C9.63041 8.17452 9.62673 8.21506 9.62673 8.22612C9.6083 8.2814 9.60093 8.333 9.6083 8.3846C9.61199 8.4362 9.6083 8.48411 9.58987 8.52834C9.57145 8.58362 9.55302 8.6389 9.5309 8.69419C9.50879 8.74947 9.49405 8.80475 9.48668 8.85635C9.47931 8.90058 9.47562 8.95218 9.47562 9.01483C9.47562 9.07749 9.46825 9.14383 9.44982 9.20648C9.44982 9.2286 9.44982 9.2544 9.44245 9.28757C9.43508 9.32074 9.43139 9.34285 9.43139 9.35391C9.43139 9.37602 9.43139 9.39076 9.43139 9.40919C9.42771 9.42393 9.42771 9.44236 9.43139 9.46447C9.43139 9.50501 9.43139 9.57873 9.41665 9.68561C9.40928 9.70772 9.40559 9.72984 9.40559 9.75195L9.41297 9.8146C9.41297 9.8146 9.13286 11.4178 8.80116 13.327C9.62304 12.9953 11.1268 12.3871 11.1562 12.3687C11.1673 12.354 11.4843 12.225 11.7681 12.1144C11.9486 12.0223 12.2619 11.8822 12.6415 11.7864C12.6636 11.7753 12.6858 11.7643 12.7005 11.7606C12.7189 11.7569 12.7337 11.7643 12.7484 11.7643C13.0691 11.6942 13.4229 11.6279 13.7656 11.7053C13.8283 11.72 13.902 11.7348 13.9831 11.7606C14.0642 11.7864 14.1305 11.7974 14.1858 11.8011C14.23 11.8011 14.2742 11.8122 14.3148 11.8306C14.359 11.849 14.4032 11.8675 14.4585 11.8896C14.4917 11.9006 14.5285 11.9228 14.5691 11.9486C14.6096 11.9744 14.6575 12.0075 14.7091 12.0407C14.7349 12.0591 14.7571 12.0702 14.7829 12.0849V9.54187C14.7718 9.57135 14.7644 9.60453 14.7534 9.63401C14.7349 9.69298 14.7202 9.75932 14.7165 9.82935C14.7091 9.86989 14.6944 9.92517 14.6723 10.0026C14.6502 10.0763 14.6281 10.1316 14.6023 10.1721L14.5728 10.2384C14.5543 10.2827 14.5359 10.3343 14.5175 10.3896C14.4991 10.4448 14.4769 10.4927 14.4511 10.5259C14.4401 10.537 14.429 10.5517 14.4217 10.5701C14.4106 10.5886 14.4032 10.6033 14.3922 10.6144C14.3774 10.6291 14.3553 10.6402 14.3332 10.6512C14.3111 10.6623 14.2964 10.6733 14.2853 10.6844C14.2632 10.6918 14.2411 10.6991 14.2226 10.7065C14.2042 10.7139 14.171 10.7249 14.1268 10.736C14.0715 10.7434 14.0236 10.7507 13.9905 10.7618C13.9573 10.7729 13.9131 10.7839 13.8651 10.7876C13.7509 10.7876 13.6993 10.7544 13.7067 10.677C13.703 10.6365 13.7067 10.6033 13.714 10.5812C13.7251 10.5591 13.7325 10.5296 13.7398 10.4964C13.7472 10.467 13.7546 10.4412 13.7583 10.4154C13.7583 10.3896 13.7693 10.3638 13.7767 10.3416C13.7841 10.3011 13.7914 10.2642 13.7914 10.2311C13.7914 10.1942 13.8025 10.1574 13.8135 10.1094C13.8172 10.0505 13.8246 9.99151 13.8357 9.93254C13.843 9.87357 13.8504 9.81829 13.8578 9.75563C13.8651 9.71141 13.8688 9.67087 13.8651 9.63401C13.8099 9.66718 13.7656 9.69666 13.7325 9.72246C13.6993 9.74826 13.6624 9.77038 13.6293 9.78512C13.5924 9.82566 13.5482 9.86252 13.4966 9.88831C13.445 9.91411 13.3897 9.94728 13.3381 9.98045C13.327 9.98783 13.3049 9.9952 13.2718 10.0099C13.2386 10.021 13.2128 10.0357 13.1981 10.0468C13.1465 10.0615 13.1133 10.0726 13.0949 10.0689C13.0764 10.0689 13.058 10.0763 13.0359 10.0873C12.9806 10.1205 12.9364 10.1389 12.9032 10.1426C12.8516 10.161 12.8148 10.1721 12.789 10.1758C12.7632 10.1795 12.73 10.1868 12.6821 10.1905L12.4093 10.2237C12.4093 10.2237 12.3577 10.2237 12.3098 10.2274C12.2619 10.2274 12.214 10.2274 12.1661 10.22C12.0518 10.22 11.9486 10.1758 11.8602 10.0947C11.8233 10.0652 11.7938 10.0394 11.7754 10.0063C11.7681 9.99151 11.7607 9.97308 11.7533 9.95097C11.7459 9.92886 11.7423 9.91043 11.7386 9.89569C11.7386 9.88463 11.7386 9.86989 11.7496 9.84409C11.7607 9.82197 11.7681 9.81092 11.7791 9.80723C11.7938 9.77775 11.8123 9.75563 11.8344 9.73721C11.8565 9.71878 11.8749 9.70404 11.8897 9.68929C11.9155 9.67087 11.9523 9.65612 11.9929 9.65244C12.0334 9.64875 12.0703 9.64875 12.0924 9.65612C12.1034 9.65981 12.1292 9.65981 12.1661 9.65612C12.2029 9.65612 12.2287 9.65612 12.2472 9.64875C12.2693 9.64875 12.2951 9.64138 12.3283 9.63032C12.3577 9.62295 12.3799 9.6119 12.3909 9.60821C12.4425 9.5861 12.4904 9.56398 12.5346 9.54187C12.5789 9.51976 12.6305 9.49027 12.6784 9.45342C12.7005 9.43499 12.7337 9.41288 12.7742 9.38708C12.8184 9.36496 12.8664 9.33916 12.9143 9.30968C12.9622 9.28388 13.0138 9.2544 13.0617 9.2286C13.1096 9.2028 13.1501 9.177 13.1833 9.1512C13.2165 9.13646 13.2497 9.12171 13.2828 9.10329C13.316 9.08486 13.3528 9.07012 13.3897 9.05537C13.4413 9.03326 13.4929 9.01115 13.5519 8.99272C13.6108 8.97061 13.6624 8.94849 13.7067 8.92269C13.7325 8.90795 13.7693 8.88584 13.8172 8.85267C13.8615 8.8195 13.902 8.77896 13.9315 8.73473C13.9573 8.69787 13.972 8.6647 13.9794 8.63522C13.9868 8.60573 13.9941 8.56519 14.0052 8.51359C14.0347 8.41408 14.0457 8.30352 14.0347 8.18558C14.0347 8.18189 14.0347 8.15978 14.0273 8.12661C14.0273 8.09344 14.0199 8.05658 14.0126 8.01973C14.0052 7.98287 14.0015 7.9497 13.9978 7.91653C13.9978 7.88336 13.9941 7.86125 13.9905 7.85388C13.972 7.79859 13.9647 7.75437 13.961 7.72488C13.961 7.6954 13.9573 7.67328 13.9536 7.65854C13.9389 7.64011 13.9315 7.61431 13.9241 7.58114C13.9167 7.54797 13.9094 7.52217 13.8946 7.50375C13.8873 7.49269 13.8799 7.47795 13.8688 7.45952C13.8578 7.44109 13.8504 7.41529 13.8467 7.38949C13.8393 7.36369 13.8393 7.3379 13.8393 7.31578C13.8393 7.28998 13.8504 7.26787 13.8725 7.24944C13.9167 7.21259 13.9573 7.19047 13.9941 7.1831C14.0347 7.17573 14.0642 7.16836 14.0863 7.16099C14.1194 7.14993 14.1674 7.14625 14.2226 7.14993C14.2779 7.14993 14.3222 7.14993 14.3516 7.14993C14.3811 7.14993 14.4032 7.14993 14.4254 7.16099C14.4475 7.17204 14.4622 7.1831 14.4769 7.19047C14.5212 7.22364 14.5543 7.26418 14.5838 7.31578C14.5949 7.33052 14.6096 7.35632 14.6244 7.39318C14.6391 7.43372 14.6502 7.45583 14.6575 7.46689C14.6575 7.47058 14.6612 7.489 14.6686 7.5148C14.676 7.5406 14.6833 7.57377 14.687 7.61063C14.6981 7.63274 14.7128 7.66591 14.7239 7.72119C14.7349 7.77279 14.746 7.83176 14.7571 7.89442C14.7571 7.90916 14.7571 7.92022 14.7644 7.93496V6.15482C14.7865 5.25554 14.0421 4.51106 13.1354 4.51106ZM11.2816 9.96571C11.2742 10.0026 11.2668 10.0468 11.2631 10.0873C11.2594 10.1316 11.2484 10.1721 11.2263 10.2126C11.2152 10.2569 11.1968 10.2937 11.1747 10.3232C11.1562 10.3527 11.1304 10.3896 11.1083 10.4375L11.0014 10.5886C10.9462 10.666 10.8467 10.7507 10.7066 10.8429C10.6845 10.8576 10.6476 10.876 10.596 10.9092C10.5444 10.9387 10.5039 10.9608 10.4781 10.9682C10.4007 10.9903 10.3344 11.0014 10.2828 11.0087C10.2312 11.0161 10.1943 11.0235 10.1722 11.0308C10.0764 11.053 9.9916 11.053 9.9142 11.0308C9.87735 11.0124 9.84786 10.9903 9.82206 10.9645C9.79627 10.9387 9.77784 10.9129 9.7631 10.8871C9.74835 10.8613 9.74098 10.8245 9.73361 10.7729C9.72993 10.7213 9.72255 10.677 9.71887 10.6328C9.71887 10.6181 9.71887 10.5517 9.72624 10.4375C9.71887 10.4117 9.72255 10.3748 9.7373 10.3232C9.75204 10.2716 9.76678 10.2348 9.78152 10.2053C9.79995 10.15 9.81469 10.0984 9.82575 10.0505C9.83681 10.0026 9.85155 9.96571 9.86629 9.93623C9.89946 9.88463 9.92895 9.8404 9.94737 9.79986C9.9658 9.76301 9.9916 9.72246 10.0211 9.67455C10.0358 9.65244 10.0506 9.63032 10.0616 9.60821C10.0764 9.5861 10.0985 9.55293 10.1353 9.5087C10.1501 9.49764 10.1685 9.47922 10.1869 9.45342C10.2054 9.4313 10.2201 9.41288 10.2275 9.40182C10.2385 9.38339 10.2496 9.36496 10.268 9.34653C10.2828 9.32811 10.2975 9.30599 10.3122 9.27651C10.3565 9.21754 10.3823 9.16226 10.3823 9.11434C10.386 9.09223 10.397 9.07012 10.4118 9.05169C10.4265 9.02957 10.4412 9.01483 10.4523 9.00378C10.4634 8.99272 10.4781 8.98535 10.5002 8.98535C10.5223 8.98535 10.5408 8.98535 10.5518 8.98535C10.5518 8.99272 10.5518 8.99272 10.5592 8.99272H10.585C10.6292 8.97429 10.6697 8.97798 10.7066 9.00009C10.7324 9.01852 10.7545 9.03695 10.7729 9.05169C10.7914 9.07012 10.8024 9.08117 10.8024 9.09223C10.7951 9.13646 10.7877 9.16963 10.7803 9.19174C10.7729 9.21385 10.7656 9.23965 10.7582 9.26545C10.7656 9.26914 10.7803 9.28019 10.8024 9.29494C10.8282 9.30968 10.854 9.32811 10.8798 9.35022C10.9093 9.37233 10.9351 9.39076 10.9572 9.40919C10.983 9.42762 10.9978 9.43867 11.0051 9.44236C11.0604 9.49027 11.1046 9.54187 11.1341 9.60453L11.1747 9.67087C11.2005 9.69298 11.2226 9.72984 11.241 9.78143C11.2594 9.82935 11.2705 9.8662 11.2742 9.89569C11.2742 9.90674 11.2742 9.9178 11.2742 9.93254C11.2742 9.94728 11.2742 9.95834 11.2705 9.9694L11.2816 9.96571ZM13.3086 8.36617C13.3086 8.36617 13.2976 8.3846 13.2902 8.39197C13.2828 8.39934 13.2718 8.40671 13.2644 8.41777C13.2533 8.42883 13.2423 8.44357 13.2349 8.45831C13.2239 8.47305 13.2054 8.4878 13.1796 8.50254C13.1207 8.55414 13.0506 8.58731 12.9659 8.60942C12.9253 8.6131 12.87 8.6389 12.7926 8.68682C12.7668 8.70156 12.741 8.71262 12.7226 8.72736C12.7042 8.73841 12.6821 8.75316 12.66 8.7679C12.6231 8.78264 12.5899 8.79738 12.5604 8.81581C12.5346 8.83424 12.5089 8.8453 12.4867 8.85267L12.3614 8.90058C12.2951 8.92638 12.2361 8.95586 12.1882 8.99272C12.1403 9.02589 12.0776 9.05169 11.9966 9.0738C11.9634 9.08486 11.9376 9.09223 11.9228 9.0996C11.9081 9.10697 11.886 9.11066 11.8639 9.11434C11.8344 9.11434 11.8086 9.12171 11.7828 9.12909C11.757 9.13277 11.7349 9.13646 11.7201 9.12909C11.7165 9.12909 11.7054 9.12909 11.6943 9.12909C11.6833 9.12909 11.6722 9.12909 11.6685 9.12909C11.6612 9.12909 11.6501 9.12909 11.6354 9.12909C11.6169 9.12909 11.6059 9.12909 11.6022 9.12909C11.5838 9.12909 11.5653 9.12909 11.5469 9.12909C11.5285 9.12909 11.5101 9.12909 11.499 9.12909C11.4658 9.12909 11.429 9.10697 11.3884 9.07012C11.3811 9.06643 11.3774 9.05906 11.37 9.048C11.3626 9.03695 11.3553 9.02957 11.3516 9.02589C11.3258 8.99272 11.3184 8.94849 11.3295 8.89321C11.3405 8.8711 11.3479 8.85267 11.3516 8.84161C11.3553 8.83055 11.37 8.81213 11.3884 8.79001L11.3958 8.77896C11.3958 8.77896 11.4216 8.75316 11.44 8.73473C11.4585 8.7163 11.4769 8.69419 11.499 8.6647C11.5285 8.61679 11.5543 8.57993 11.5764 8.55045C11.5948 8.52097 11.6206 8.49517 11.6538 8.47674C11.6685 8.46568 11.6833 8.45462 11.698 8.45094C11.7128 8.44725 11.7312 8.4362 11.7496 8.42514C11.7754 8.40671 11.8049 8.39197 11.8381 8.37723C11.8712 8.36617 11.9044 8.35143 11.9376 8.33669C11.956 8.32932 11.9708 8.32194 11.9818 8.31089C11.9966 8.29983 12.0113 8.29246 12.026 8.28509C12.0482 8.27772 12.0666 8.27035 12.0813 8.26666C12.0961 8.26297 12.1108 8.2556 12.1256 8.24823C12.1698 8.23349 12.214 8.21506 12.2582 8.20032C12.3025 8.18558 12.3467 8.16715 12.3909 8.15241C12.4241 8.13767 12.4536 8.12661 12.4831 8.11924C12.5125 8.11187 12.5604 8.09712 12.6342 8.07501C12.6784 8.06027 12.7042 8.0529 12.7152 8.0529C12.7226 8.0529 12.7447 8.04921 12.7779 8.03447C12.8111 8.01973 12.8442 8.01973 12.8811 8.03815L12.9364 8.06395C12.9364 8.06395 12.9659 8.06764 13.0027 8.06395C13.0396 8.06027 13.0617 8.06027 13.0654 8.06395C13.0727 8.07501 13.0875 8.08607 13.1096 8.09712C13.1317 8.10818 13.1428 8.11924 13.1501 8.12661C13.1575 8.13767 13.1723 8.14504 13.1907 8.14872C13.2128 8.15241 13.2275 8.16346 13.2386 8.17084C13.257 8.18558 13.2718 8.19663 13.2828 8.20401C13.2939 8.21506 13.3086 8.2298 13.3234 8.2556C13.3381 8.29246 13.3344 8.32932 13.3086 8.36986V8.36617Z" fill="#BDBDBD"/>
<path d="M7.93505 9.77775C7.93505 9.72984 7.93873 9.67824 7.94611 9.62664C7.96085 9.5603 7.96822 9.49396 7.96085 9.42025C7.95348 9.33548 7.95348 9.26177 7.95716 9.19174C7.96085 9.12171 7.96085 9.06275 7.95716 9.01115C7.91294 9.03695 7.87608 9.05906 7.83554 9.08117C7.79868 9.0996 7.75814 9.1254 7.7176 9.1512C7.66232 9.177 7.61072 9.2028 7.56281 9.22491C7.51489 9.24702 7.46698 9.26914 7.42644 9.29494C7.34904 9.32442 7.2827 9.35391 7.22373 9.38339C7.16476 9.41288 7.10948 9.43867 7.0542 9.46816C6.99891 9.49764 6.96206 9.51239 6.93994 9.51239C6.91783 9.51239 6.88466 9.52344 6.84043 9.53819C6.80726 9.55293 6.77778 9.5603 6.75198 9.56398C6.72249 9.56398 6.70038 9.57504 6.67827 9.58978C6.61193 9.61927 6.56401 9.63401 6.53084 9.6377C6.47556 9.65612 6.42028 9.67455 6.36868 9.69666C6.3134 9.71878 6.26548 9.73352 6.22126 9.73721C6.19914 9.73721 6.1586 9.74826 6.09595 9.76669C6.03329 9.78512 5.93747 9.79986 5.80479 9.81829C5.78267 9.81829 5.74582 9.82935 5.6979 9.8404C5.64631 9.85146 5.55417 9.85883 5.42148 9.8662C5.3662 9.8662 5.30355 9.85883 5.23721 9.85514C5.17087 9.85514 5.10821 9.84777 5.04924 9.84409C5.03818 9.84409 5.01976 9.84409 4.99764 9.84409C4.97553 9.84409 4.9571 9.84409 4.94605 9.84409C4.91288 9.84777 4.87602 9.84409 4.83548 9.84409C4.79494 9.83672 4.76545 9.83303 4.73965 9.82197C4.69543 9.81829 4.64014 9.79618 4.5738 9.763C4.50746 9.72984 4.45955 9.70404 4.42269 9.68561C4.34161 9.64138 4.28264 9.6119 4.25316 9.5861C4.22367 9.56398 4.18682 9.50133 4.14259 9.40182C4.1131 9.32074 4.09836 9.25808 4.09836 9.21754C4.09836 9.17331 4.1131 9.12171 4.14259 9.05537C4.15365 9.03326 4.17207 9.01115 4.20524 8.98535C4.23841 8.95955 4.26053 8.93744 4.28264 8.91164C4.34161 8.84161 4.41901 8.80475 4.50746 8.80475C4.52958 8.81213 4.55537 8.82687 4.58486 8.84161C4.61434 8.86004 4.64014 8.8711 4.66594 8.87847C4.72491 8.89321 4.84285 8.88952 5.01976 8.86741C5.13032 8.8453 5.23352 8.81213 5.33303 8.77527C5.42886 8.73841 5.50257 8.70893 5.54311 8.69419C5.60945 8.6647 5.68316 8.63153 5.77162 8.59468C5.85638 8.55782 5.95958 8.51728 6.0812 8.46937C6.12543 8.44357 6.17334 8.41777 6.22494 8.38828C6.27654 8.36249 6.32814 8.34037 6.36868 8.32194C6.41291 8.3072 6.4645 8.28509 6.53084 8.2556C6.5935 8.22612 6.64878 8.20032 6.68932 8.17452C6.75566 8.13398 6.822 8.09712 6.8994 8.05658C6.97311 8.01604 7.04682 7.96444 7.12054 7.90179C7.15371 7.87599 7.18688 7.84282 7.22742 7.80228C7.26796 7.76174 7.30482 7.71751 7.3343 7.6696C7.34167 7.64748 7.36378 7.60326 7.39695 7.53692C7.43012 7.47058 7.46329 7.39686 7.49278 7.31947C7.52595 7.24207 7.55543 7.16836 7.58123 7.10202C7.60703 7.03568 7.62546 6.98408 7.63652 6.95459C7.66232 6.8772 7.6918 6.78137 7.7176 6.66712C7.74708 6.55287 7.7692 6.46441 7.78394 6.39807C7.79131 6.3649 7.795 6.30593 7.79131 6.21379C7.79131 6.12534 7.78763 6.06269 7.78394 6.0332C7.76551 5.97055 7.75446 5.91526 7.75077 5.86366L7.73234 5.6757C7.72129 5.65727 7.70654 5.60936 7.69549 5.53933C7.68443 5.46562 7.67706 5.42139 7.67337 5.39928C7.65863 5.3698 7.64757 5.32188 7.64389 5.25923C7.6402 5.20763 7.64389 5.16709 7.65863 5.1376C7.67337 5.10812 7.68812 5.07864 7.71023 5.04547C7.7176 5.02335 7.73234 5.00124 7.74708 4.97544C7.76183 4.95333 7.77657 4.91647 7.795 4.8575C7.81342 4.80222 7.84291 4.76168 7.88345 4.72851C7.92399 4.69902 7.96822 4.66954 8.01245 4.64005C8.05299 4.61425 8.07879 4.59214 8.08984 4.5774C8.1009 4.55897 8.11933 4.54054 8.1525 4.51474C8.17093 4.50737 8.2041 4.50369 8.22621 4.5H1.65482C0.748172 4.51106 0.00368558 5.25554 0.00368558 6.1622V7.6438C0.0368558 7.63274 0.0810827 7.61431 0.110567 7.60326C0.165851 7.58483 0.202707 7.58114 0.228506 7.58851C0.250619 7.59589 0.287475 7.59589 0.331702 7.58851C0.420156 7.57746 0.497553 7.57746 0.560208 7.58851C0.622863 7.59589 0.707631 7.618 0.810827 7.6438C0.832941 7.63274 0.847683 7.62537 0.85874 7.62906C0.869796 7.63274 0.884539 7.62168 0.906652 7.59957C0.950879 7.57377 0.987735 7.55166 1.02091 7.52954C1.05408 7.51112 1.10199 7.48532 1.16464 7.45583C1.21624 7.41898 1.28258 7.38212 1.36735 7.35264C1.44843 7.32315 1.52214 7.29367 1.58848 7.26418C1.6106 7.25313 1.69537 7.22364 1.84279 7.17941C1.99021 7.13519 2.08972 7.09833 2.14501 7.07253C2.25189 7.02831 2.36246 6.99882 2.47302 6.98777C2.50619 6.98408 2.54305 6.97302 2.5799 6.95828C2.61676 6.94354 2.67204 6.94354 2.73838 6.95828C2.78261 6.96197 2.82684 6.96565 2.86369 6.96565C2.90424 6.96565 2.95215 6.96565 3.00743 6.97302C3.09589 6.97302 3.20645 7.00619 3.33913 7.07622C3.3981 7.12413 3.46813 7.1831 3.54184 7.25681C3.5787 7.29367 3.60818 7.34527 3.63398 7.41161C3.65609 7.47795 3.65609 7.57377 3.63398 7.70277C3.61924 7.79859 3.61924 7.89442 3.62661 7.98656C3.63398 8.0787 3.63398 8.17084 3.61924 8.2556C3.62661 8.31826 3.62661 8.37723 3.61924 8.4362C3.61555 8.49517 3.60818 8.55045 3.60081 8.60573C3.59712 8.66839 3.59344 8.73473 3.59344 8.79738C3.59344 8.86004 3.58607 8.92638 3.56764 8.98903C3.56027 9.03326 3.55658 9.0996 3.5529 9.18805C3.5529 9.28019 3.54553 9.34653 3.53815 9.38708C3.5271 9.49396 3.51604 9.61927 3.50498 9.763C3.49393 9.90674 3.5013 10.0136 3.51973 10.0837C3.51604 10.1463 3.51604 10.2126 3.51973 10.2827C3.5271 10.349 3.51973 10.4117 3.5013 10.467C3.53447 10.4522 3.56764 10.4375 3.60818 10.4227C3.64504 10.408 3.67452 10.3932 3.69663 10.3822C3.75192 10.3564 3.8072 10.3527 3.86617 10.3785C3.92514 10.4043 3.962 10.4559 3.98042 10.537C4.01359 10.6402 3.99885 10.7397 3.93988 10.8429C3.92145 10.8871 3.89934 10.9313 3.87354 10.9682C3.84774 11.0087 3.81826 11.0456 3.77403 11.0824C3.74086 11.1082 3.70401 11.134 3.65609 11.1598C3.60818 11.1856 3.56764 11.2114 3.53815 11.2372C3.48287 11.2667 3.43127 11.2962 3.37599 11.3294C3.32439 11.3625 3.26174 11.4105 3.18802 11.4694C3.1438 11.4952 3.08483 11.5284 3.00375 11.5616C2.92266 11.5984 2.86738 11.6279 2.83421 11.6537C2.77893 11.6795 2.7347 11.7016 2.69784 11.7164C2.6573 11.7311 2.62413 11.7458 2.59096 11.7606C2.56885 11.7753 2.52831 11.7938 2.46934 11.8159C2.41037 11.838 2.3514 11.8638 2.2998 11.8933C2.06024 11.9744 1.88702 12.0407 1.78013 12.096C1.72485 12.1218 1.66588 12.1476 1.59217 12.166C1.52214 12.1844 1.45949 12.2029 1.40421 12.2213C1.31575 12.2545 1.24204 12.2803 1.18307 12.3024C1.1241 12.3245 1.03196 12.3429 0.910338 12.3577C0.855054 12.365 0.792399 12.3613 0.722373 12.3503C0.652347 12.3392 0.597064 12.3134 0.545466 12.2766C0.486496 12.2323 0.442269 12.1918 0.41647 12.166C0.390671 12.1476 0.00737116 10.9461 0 10.935V17.6428C0 18.5531 0.744487 19.2939 1.65114 19.2939H6.40553L7.16108 14.6648C7.02103 14.7127 6.89572 14.7533 6.79252 14.7791C6.68932 14.8049 6.5935 14.838 6.50504 14.8675C6.44976 14.897 6.38711 14.9191 6.30971 14.9376C6.23231 14.956 6.16597 14.9707 6.11069 14.9781L6.01118 14.9892C5.94484 14.9965 5.87481 15.015 5.80479 15.0444C5.73476 15.0739 5.66105 15.0924 5.58365 15.1034C5.55048 15.1071 5.51362 15.1145 5.47677 15.1255C5.43623 15.1366 5.40306 15.1439 5.36989 15.1476L5.30355 15.155C5.21509 15.1882 5.11927 15.2066 5.01607 15.2213C4.90919 15.2324 4.81336 15.2471 4.72491 15.2582L4.49272 15.2877C4.40427 15.2987 4.32318 15.2914 4.25316 15.2693C4.20524 15.2545 4.16839 15.2435 4.1389 15.2361C4.10942 15.2287 4.07993 15.2177 4.04308 15.1992C3.9362 15.1366 3.84406 15.0555 3.76666 14.9486C3.66715 14.8344 3.59344 14.7017 3.54184 14.5506C3.5271 14.499 3.51236 14.4511 3.5013 14.4031C3.49024 14.3589 3.48287 14.3073 3.47919 14.2557L3.46813 14.1304C3.46813 14.1083 3.46813 14.0862 3.46813 14.0604C3.46813 14.0346 3.46813 13.9793 3.46076 13.8945C3.46076 13.8614 3.46076 13.8061 3.47919 13.7176L3.50867 13.4781C3.50867 13.4781 3.52341 13.4486 3.51973 13.4302C3.51604 13.3896 3.51973 13.3564 3.5271 13.3343C3.54553 13.279 3.56027 13.2201 3.57133 13.1537C3.58238 13.0911 3.59712 13.0247 3.61187 12.9584C3.63029 12.9142 3.64135 12.8736 3.64504 12.8368C3.64504 12.7999 3.65609 12.7594 3.67452 12.7152C3.68189 12.693 3.68926 12.6709 3.69295 12.6488C3.69663 12.6267 3.70401 12.6046 3.71138 12.5825C3.72612 12.5161 3.7556 12.4498 3.79246 12.3835C3.81089 12.3392 3.84037 12.3024 3.8846 12.2692C3.92514 12.2397 3.97305 12.2029 4.02834 12.166C4.05045 12.1439 4.08362 12.1218 4.13153 12.107C4.17945 12.0923 4.22367 12.0849 4.25684 12.0923C4.27896 12.0923 4.32318 12.0923 4.38215 12.0997C4.44481 12.107 4.48903 12.1107 4.51115 12.107C4.53326 12.1144 4.57012 12.1144 4.62171 12.107C4.67331 12.0997 4.71017 12.0997 4.73228 12.107C4.7544 12.1144 4.79125 12.1255 4.83548 12.1402C4.88339 12.1549 4.92025 12.1955 4.94605 12.2545C4.96447 12.3355 4.96816 12.4166 4.95342 12.4903V12.5051C4.95342 12.5272 4.95342 12.553 4.94605 12.5862C4.93867 12.6193 4.92762 12.6451 4.92025 12.6672C4.90919 12.6894 4.90182 12.7152 4.89445 12.7483C4.88708 12.7815 4.88339 12.8036 4.88339 12.8147C4.86496 12.8699 4.85759 12.9179 4.85391 12.9621C4.85391 13.0063 4.84285 13.0432 4.82074 13.0763C4.79125 13.1316 4.77651 13.2238 4.78019 13.3491C4.77282 13.4007 4.77282 13.4633 4.77282 13.5297C4.77282 13.5997 4.77282 13.6697 4.76914 13.7434L4.77651 13.8393C4.78019 13.8909 4.79125 13.9314 4.80599 13.9609C4.82074 13.9904 4.82811 14.0198 4.83179 14.053C4.83179 14.0825 4.85022 14.1194 4.87602 14.1599C4.89076 14.1783 4.90182 14.1968 4.91656 14.2115C4.92762 14.2262 4.94236 14.2447 4.95342 14.2631C5.00501 14.3515 5.09347 14.3884 5.21509 14.3737C5.27038 14.3663 5.32197 14.3626 5.3662 14.3626C5.41043 14.3626 5.46203 14.3552 5.51731 14.3368C5.57259 14.3184 5.63893 14.3073 5.71633 14.2963C5.79373 14.2852 5.85638 14.2852 5.90061 14.2889C5.90798 14.2668 5.96695 14.2484 6.07383 14.2373C6.18071 14.2262 6.25811 14.2041 6.3134 14.1783C6.32445 14.1783 6.38342 14.1599 6.48662 14.1341C6.58981 14.1046 6.64878 14.0899 6.65984 14.0899C6.71144 14.0604 6.78515 14.0346 6.88097 14.0088C6.97311 13.983 7.04682 13.9646 7.10579 13.9572C7.16108 13.9425 7.21268 13.9203 7.26059 13.8982C7.27165 13.8945 7.28639 13.8945 7.29744 13.8872L7.94611 9.9178C7.94242 9.8662 7.93874 9.8146 7.93874 9.77038L7.93505 9.77775ZM4.06519 7.49637C4.06151 7.44478 4.05782 7.39686 4.06151 7.35632C4.06151 7.3121 4.08362 7.26418 4.12416 7.20521C4.15365 7.16099 4.17945 7.10939 4.20156 7.05411C4.22367 6.99882 4.26053 6.94722 4.31213 6.89931C4.39321 6.81454 4.49272 6.7224 4.60697 6.61921C4.72123 6.51601 4.84654 6.43124 4.98659 6.36122C5.0603 6.33173 5.14138 6.29488 5.22984 6.25434C5.3146 6.21379 5.392 6.17694 5.45834 6.14745C5.4694 6.14745 5.50257 6.13271 5.55417 6.1106C5.60945 6.08848 5.65736 6.07374 5.70159 6.07006C5.74582 6.06637 5.81216 6.04794 5.90061 6.01477C5.95589 5.98897 6.00749 5.97423 6.06646 5.97792C6.12175 5.9816 6.18071 5.97792 6.23231 5.95949C6.26548 5.95949 6.29865 5.94843 6.33182 5.94106C6.36499 5.93369 6.39816 5.92632 6.43133 5.92263L6.58244 5.90421C6.67458 5.91526 6.76304 5.91526 6.85149 5.91158C6.93994 5.90789 7.03208 5.91158 7.12422 5.93369C7.24953 5.95212 7.35273 6.01109 7.43012 6.11797C7.45592 6.1364 7.47067 6.17325 7.47435 6.22485C7.48172 6.30962 7.47067 6.38702 7.4375 6.46073C7.40433 6.53444 7.36747 6.59709 7.33061 6.65606C7.3085 6.67818 7.29376 6.70398 7.28639 6.72609C7.27533 6.7482 7.26059 6.77032 7.24216 6.79611C7.22005 6.81823 7.19793 6.84034 7.17213 6.85877C7.14634 6.8772 7.10579 6.89194 7.04682 6.89563C7.02471 6.89563 6.99891 6.91037 6.96574 6.9288C6.93257 6.94722 6.89572 6.96197 6.85149 6.96565C6.79621 6.98408 6.74461 6.99514 6.69301 6.99882C6.64141 7.00619 6.58981 7.01725 6.53453 7.03199C6.50136 7.04673 6.46082 7.05411 6.40922 7.05411C6.35762 7.05411 6.32077 7.05411 6.30234 7.05779C6.29128 7.05779 6.26548 7.06516 6.22863 7.07253C6.19177 7.08359 6.16597 7.08728 6.15492 7.09096C6.03329 7.11676 5.95589 7.1315 5.92272 7.13519C5.88955 7.13887 5.86007 7.14256 5.83796 7.14625C5.7495 7.17942 5.66473 7.20153 5.57628 7.21627C5.48783 7.23101 5.39937 7.25681 5.3146 7.2863C5.25932 7.30472 5.21141 7.3121 5.17455 7.31947C5.13401 7.32315 5.09347 7.33789 5.05293 7.36369L4.97184 7.40424C4.91656 7.43372 4.87602 7.45952 4.84285 7.48163C4.81336 7.50743 4.78388 7.52586 4.76545 7.53692C4.7544 7.53692 4.73228 7.54797 4.69911 7.57009C4.66594 7.58851 4.64014 7.60694 4.61803 7.618C4.56275 7.64748 4.5222 7.67697 4.49272 7.71382L4.41532 7.80228C4.39321 7.82439 4.36741 7.84282 4.33424 7.85019C4.30107 7.85756 4.27158 7.85388 4.24947 7.83545C4.22367 7.81702 4.19787 7.78754 4.1647 7.75068C4.13153 7.71014 4.11679 7.68434 4.1131 7.66223C4.1131 7.64011 4.10205 7.61431 4.08731 7.57746C4.07256 7.5406 4.06519 7.5148 4.06151 7.49269L4.06519 7.49637Z" fill="#BDBDBD"/>
<path d="M12.9401 15.9179C13.0027 15.7816 13.0654 15.6415 13.1317 15.4978C13.1317 15.4572 13.1538 15.4167 13.1833 15.3761C13.2128 15.3356 13.2312 15.2951 13.2349 15.2545C13.2349 15.2435 13.246 15.2177 13.2681 15.1697C13.2902 15.1255 13.2976 15.096 13.3013 15.085C13.3307 15.0113 13.3602 14.9449 13.3934 14.886C13.4266 14.8233 13.456 14.7606 13.4855 14.6869C13.4966 14.6648 13.5076 14.6427 13.515 14.6095C13.5224 14.5801 13.5334 14.5469 13.5482 14.5174C13.5482 14.4769 13.5629 14.4216 13.585 14.3552C13.6072 14.2889 13.6293 14.241 13.6551 14.2115C13.6698 14.182 13.6882 14.1267 13.7177 14.042C13.7472 13.9719 13.7619 13.9019 13.7693 13.8356C13.7767 13.7692 13.7877 13.6918 13.8062 13.6107C13.8062 13.5776 13.8135 13.5481 13.8209 13.5186C13.8283 13.4891 13.8357 13.4523 13.8393 13.4117C13.832 13.3712 13.832 13.3196 13.843 13.2643C13.8541 13.209 13.8504 13.1537 13.832 13.0985C13.8246 13.0653 13.8172 13.0321 13.8172 12.9879C13.8172 12.9473 13.7988 12.9031 13.7693 12.8626L13.7103 12.7999L13.7288 12.4682C13.4192 12.3613 13.0543 12.4056 12.7226 12.4977C12.7152 12.4977 12.7042 12.5088 12.7005 12.5088C12.6858 12.5088 12.6636 12.5198 12.6452 12.5309C12.612 12.5346 12.5752 12.5493 12.531 12.5751C12.5199 12.5751 12.4794 12.5935 12.4093 12.623C12.3835 12.6341 12.2361 12.693 12.0555 12.7631C12.026 12.7778 11.9892 12.7962 11.9671 12.811L11.9597 12.7999C11.6538 12.9215 11.2963 13.0616 11.2484 13.0874C11.182 13.1132 9.48668 13.795 8.67216 14.1267C8.31835 16.1796 7.93874 18.3799 7.78394 19.2976H11.429C11.4511 19.2497 11.4695 19.2018 11.4806 19.1502C11.4916 19.0949 11.5064 19.0507 11.5322 19.0212C11.5838 18.9401 11.6206 18.8516 11.6464 18.7521C11.6722 18.6526 11.7091 18.5752 11.757 18.5163C11.757 18.4941 11.7791 18.4425 11.8196 18.3615C11.8602 18.2804 11.9118 18.1882 11.9744 18.0887C12.0002 18.0371 12.0224 17.9855 12.0371 17.9339C12.0518 17.8823 12.0666 17.8307 12.0813 17.7791C12.0961 17.7165 12.1292 17.6538 12.1698 17.5875C12.214 17.5211 12.2509 17.4585 12.2767 17.3958C12.2877 17.3737 12.3098 17.3221 12.3393 17.241C12.3688 17.16 12.402 17.0715 12.4351 16.9794C12.472 16.8872 12.5052 16.8061 12.5383 16.7361C12.5715 16.6661 12.601 16.6256 12.6231 16.6145C12.6378 16.5518 12.6563 16.5039 12.6747 16.4708C12.6931 16.4339 12.7189 16.3934 12.7447 16.3418C12.8111 16.198 12.8774 16.058 12.9364 15.9216L12.9401 15.9179Z" fill="#BDBDBD"/>
<path d="M2.55411 8.27772C2.56148 8.22243 2.56516 8.17084 2.57253 8.11924C2.5799 8.06395 2.58359 7.99761 2.58728 7.91284C2.58359 7.86125 2.57622 7.82071 2.56885 7.79491C2.56148 7.76911 2.55042 7.74699 2.53568 7.72857C2.403 7.74331 2.27769 7.78016 2.15975 7.83913C2.14869 7.83913 2.11921 7.85019 2.06761 7.8723C2.0197 7.89442 1.96441 7.91653 1.90544 7.93864C1.84647 7.96076 1.79119 7.98656 1.74328 8.00498C1.69537 8.0271 1.66588 8.03815 1.65482 8.03815C1.5332 8.08238 1.42263 8.13767 1.32312 8.19663C1.21993 8.2556 1.11304 8.31457 0.995106 8.36986C1.00985 8.4104 1.02459 8.46568 1.03565 8.53202C1.0467 8.59836 1.05408 8.65733 1.06145 8.71262C1.06513 8.76421 1.0725 8.81581 1.07619 8.8711C1.07987 8.92269 1.09093 8.97429 1.10936 9.02589C1.12042 9.04432 1.13147 9.08486 1.13516 9.14014C1.14253 9.19911 1.15359 9.26177 1.17201 9.33179C1.19044 9.39445 1.2015 9.45342 1.21624 9.51607C1.2273 9.57873 1.23467 9.61927 1.23467 9.64138C1.24573 9.65981 1.27152 9.72984 1.30469 9.85514C1.33786 9.97677 1.35629 10.0505 1.35998 10.0689C1.39683 10.2016 1.41895 10.338 1.43369 10.478C1.44475 10.6181 1.45949 10.6881 1.47055 10.6881C1.47792 10.7618 1.48529 10.8281 1.49634 10.8908C1.5074 10.9534 1.52214 11.0087 1.53689 11.0603C1.55163 11.0898 1.559 11.1156 1.559 11.1377C1.559 11.1598 1.56637 11.1783 1.58111 11.1967C1.60323 11.1856 1.65482 11.1598 1.74328 11.1304C1.82805 11.0972 1.9165 11.0677 2.00495 11.0345C2.09341 11.0014 2.16712 10.9756 2.22609 10.9534C2.28506 10.9313 2.3256 10.9129 2.34771 10.8982C2.43617 10.876 2.53936 10.8392 2.6573 10.7802L2.56885 10.5701C2.54305 10.5222 2.51725 10.4264 2.49882 10.2864C2.48039 10.1463 2.46934 10.0505 2.46197 9.99888C2.45828 9.94728 2.45091 9.892 2.43985 9.83672C2.4288 9.78143 2.4288 9.70772 2.44354 9.62295C2.45828 9.53818 2.46565 9.45342 2.46197 9.36865C2.46197 9.28388 2.46197 9.19911 2.48039 9.11434L2.52831 8.90427C2.52831 8.90427 2.52831 8.88215 2.53199 8.86372C2.53568 8.8453 2.53568 8.82318 2.53199 8.7937C2.53199 8.70893 2.53199 8.64259 2.53199 8.59468C2.52831 8.54676 2.53199 8.4878 2.54673 8.4104C2.54673 8.38091 2.54673 8.33669 2.55042 8.28509L2.55411 8.27772Z" fill="#BDBDBD"/>
<path d="M14.7165 14.3294L14.6281 14.4732L14.558 14.51L14.5249 14.6869L14.4769 14.7422L14.4585 14.827L14.4364 14.9154L14.3885 15.0113L14.3258 15.1145L14.3148 15.2435L14.3406 15.2766H14.3885L14.3701 15.3098L14.3258 15.4499H14.3074L14.2669 15.6636L14.2484 15.6747L14.219 15.7115H14.1821L14.0789 15.9511L14.1084 15.9732L14.0273 16.1685L13.9573 16.1354L13.9131 16.2275L13.9352 16.3086L13.8725 16.3823L13.8873 16.397L13.8246 16.5666L13.8172 16.644C13.8172 16.6845 13.7693 16.7287 13.6919 16.773C13.6108 16.8172 13.5703 16.8651 13.5629 16.9167L13.6072 16.9794L13.5556 17.2116L13.456 17.4106C13.456 17.4327 13.4413 17.4659 13.4155 17.5101C13.3897 17.558 13.3713 17.5875 13.3602 17.6096L13.3381 17.6575L13.257 17.6391L13.2349 17.7017L13.316 17.7202V17.7349C13.316 17.7533 13.3049 17.7791 13.2939 17.8123C13.2791 17.8418 13.2644 17.875 13.2533 17.9044L13.1723 18.0703L13.1243 18.0556L13.1723 17.8713H13.1391L13.0138 18.1919L12.9437 18.2656L12.9364 18.3578L12.8774 18.4647L12.8516 18.5863L12.7521 18.7706L12.7816 18.8185L12.8664 18.7742H12.9659L12.9585 18.8553H12.9253C12.9253 18.8553 12.8958 18.8627 12.8737 18.8848C12.8479 18.9032 12.8332 18.918 12.8221 18.929L12.7926 19.0838L12.7484 19.2239V19.2386C12.7484 19.2644 12.741 19.2792 12.7374 19.3013H13.1501C14.0568 19.3013 14.8013 18.5568 14.8013 17.6501V14.2815L14.7792 14.3405H14.7313L14.7165 14.3294ZM12.9143 19.0838L12.8811 19.0986L12.8885 18.988L12.9401 18.9585L12.9143 19.0838ZM12.9622 18.7263H12.8958L12.9364 18.6158L12.9843 18.6342L12.9585 18.7263H12.9622ZM13.0359 18.5126C13.0285 18.5421 13.0138 18.5568 12.9917 18.5568C12.9917 18.5347 12.999 18.5052 13.0064 18.4647C13.0138 18.4241 13.0322 18.402 13.0543 18.4057L13.0838 18.4389C13.0617 18.461 13.0433 18.4831 13.0359 18.5163V18.5126ZM13.1428 18.343H13.0764L13.0617 18.3246L13.1022 18.2619H13.1501L13.1428 18.343ZM13.1538 18.2177H13.1207L13.1428 18.1403L13.1759 18.1588L13.1538 18.2214V18.2177ZM13.6809 16.9978L13.6661 16.9646V16.9499L13.6845 16.9204L13.7214 16.8909L13.7361 16.9241L13.6809 17.0015V16.9978ZM13.6919 16.8725L13.6624 16.8541L13.7325 16.7951L13.7472 16.8283L13.6919 16.8725ZM13.7988 16.7988L13.7693 16.7656L13.8246 16.7066L13.8393 16.7398L13.8025 16.8025L13.7988 16.7988ZM13.9794 16.4192L13.9425 16.4634H13.9094L13.9167 16.4007L13.9683 16.3565H14.0015L13.9794 16.4192ZM13.972 16.2938L13.9425 16.2312L13.961 16.2017L14.0089 16.2201L13.9683 16.2975L13.972 16.2938ZM14.418 15.1292L14.3774 15.2213L14.3443 15.2361L14.3516 15.1439L14.429 15.0223L14.4622 15.0076L14.418 15.1292ZM14.7165 14.5469L14.6833 14.5616L14.6575 14.6685L14.6207 14.7275L14.5986 14.7901H14.5654L14.4806 14.8012L14.5027 14.757L14.5728 14.7127L14.5875 14.5579L14.6244 14.5285H14.6612L14.7055 14.4547H14.7497L14.7239 14.5469H14.7165Z" fill="#BDBDBD"/>
<path d="M55.7628 17.4843H55.3758V19.2497H55.7628V17.4843Z" fill="#BDBDBD"/>
<path d="M57.0233 18.2325L56.4999 17.488H56.1277V19.2534H56.4999V18.5457C56.4999 18.3983 56.4999 18.2325 56.4962 18.1072H56.4999C56.581 18.2288 56.6694 18.3578 56.7579 18.4831L57.0122 18.848L57.2702 18.4868C57.3586 18.3615 57.4471 18.2325 57.5282 18.1108H57.5319C57.5319 18.2398 57.5282 18.4057 57.5282 18.5531V19.2607H57.9152V17.4953H57.5503L57.0269 18.2398L57.0233 18.2325Z" fill="#BDBDBD"/>
<path d="M59.1756 18.2361L58.6523 17.4917H58.28V19.2571H58.6523V18.5494C58.6523 18.402 58.6523 18.2361 58.6486 18.1108H58.6523C58.7334 18.2325 58.8218 18.3615 58.9103 18.4868L59.1646 18.8516L59.4226 18.4905C59.511 18.3651 59.5995 18.2361 59.6806 18.1145H59.6842C59.6842 18.2435 59.6806 18.4094 59.6806 18.5568V19.2644H60.0675V17.499H59.7027L59.1793 18.2435L59.1756 18.2361Z" fill="#BDBDBD"/>
<path d="M61.5786 18.3983C61.5786 18.5826 61.5565 18.7042 61.5012 18.789C61.4423 18.8774 61.3428 18.9364 61.188 18.9364C61.0221 18.9364 60.9189 18.8664 60.8673 18.7816C60.8157 18.6968 60.801 18.5826 60.801 18.3983V17.4953H60.414V18.4131C60.414 18.6637 60.4508 18.8553 60.543 18.9991C60.6683 19.1833 60.8968 19.2865 61.1769 19.2865C61.4607 19.2865 61.6855 19.1833 61.8108 19.0027C61.9103 18.8627 61.9472 18.6674 61.9472 18.402V17.4917H61.5749V18.3983H61.5786Z" fill="#BDBDBD"/>
<path d="M63.5209 18.1477C63.5209 18.3172 63.5209 18.4905 63.5246 18.6563H63.5209C63.4104 18.5052 63.3035 18.3578 63.1892 18.203L62.6622 17.4917H62.2973V19.2571H62.6696V18.601C62.6696 18.4315 62.6696 18.2583 62.6659 18.0924H62.6696C62.7801 18.2435 62.887 18.3909 63.0013 18.5457L63.5283 19.2571H63.8932V17.4917H63.5209V18.1477Z" fill="#BDBDBD"/>
<path d="M64.645 18.5015H65.2495V18.1809L64.645 18.1772V17.8344H65.3453V17.4953H64.258L64.2544 19.2571H65.3711V18.9217L64.645 18.918V18.5015Z" fill="#BDBDBD"/>
<path d="M67.435 18.1772H66.6721V17.4953H66.2851V19.2607H66.6721V18.5163H67.435V19.2607H67.822V17.4953H67.435V18.1772Z" fill="#BDBDBD"/>
<path d="M69.0309 17.4695C68.5075 17.4695 68.1095 17.8639 68.1095 18.3762C68.1095 18.8885 68.5038 19.2865 69.0309 19.2865C69.5542 19.2865 69.9523 18.8922 69.9523 18.3799C69.9523 17.8639 69.5542 17.4695 69.0309 17.4695ZM69.0272 18.9364C68.7213 18.9364 68.4928 18.6895 68.4928 18.3762C68.4928 18.0629 68.7213 17.8197 69.0272 17.8197C69.3331 17.8197 69.5616 18.0666 69.5616 18.3799C69.5616 18.6932 69.3331 18.9364 69.0272 18.9364Z" fill="#BDBDBD"/>
<path d="M70.9326 18.2177C70.7189 18.1477 70.5567 18.133 70.5567 17.9782C70.5567 17.8602 70.6525 17.8123 70.7852 17.8123C70.9216 17.8123 71.139 17.8676 71.327 17.9818V17.5985C71.1722 17.5138 70.9621 17.4732 70.7889 17.4695C70.4166 17.4695 70.1697 17.6723 70.1697 18.004C70.1697 18.3099 70.3872 18.4315 70.6304 18.5126C70.8552 18.5863 71.0211 18.601 71.0211 18.7632C71.0211 18.8959 70.9142 18.9511 70.7741 18.9511C70.6341 18.9511 70.3982 18.8959 70.2103 18.7669V19.1575C70.3761 19.2423 70.5936 19.2865 70.7668 19.2865C71.1464 19.2865 71.4081 19.0801 71.4081 18.7374C71.4081 18.4241 71.1943 18.3025 70.9289 18.214L70.9326 18.2177Z" fill="#BDBDBD"/>
<path d="M72.7312 17.5949C72.5911 17.5211 72.4179 17.5027 72.2078 17.5027H71.6845V19.2681H72.0715V18.6379H72.1931C72.4511 18.6379 72.628 18.6084 72.7644 18.5273C72.9118 18.4389 73.0187 18.2841 73.0187 18.0666C73.0187 17.827 72.886 17.6759 72.7349 17.5949H72.7312ZM72.5174 18.2767C72.4511 18.3135 72.3626 18.3209 72.2115 18.3209H72.0715V17.8418H72.2041C72.3405 17.8418 72.4363 17.8455 72.5064 17.8786C72.5875 17.9155 72.6317 17.9855 72.6317 18.085C72.6317 18.1735 72.5911 18.2398 72.5211 18.2767H72.5174Z" fill="#BDBDBD"/>
<path d="M73.6673 17.5027H73.2803V19.2681H73.6673V17.5027Z" fill="#BDBDBD"/>
<path d="M75.4364 17.5027H73.9069V17.8418H74.4782L74.4745 19.2681H74.8651V17.8418H75.4364V17.5027Z" fill="#BDBDBD"/>
<path d="M76.015 17.5027L75.2963 19.2644H75.6944L75.8381 18.8959H76.5495L76.6895 19.2681H77.1023L76.3873 17.5027H76.0114H76.015ZM75.9598 18.5936L76.0298 18.4057C76.0851 18.2583 76.1514 18.0814 76.1956 17.9487H76.1993C76.2472 18.0814 76.3099 18.2583 76.3615 18.3983L76.4352 18.5973H75.9598V18.5936Z" fill="#BDBDBD"/>
<path d="M77.703 17.5064H77.316V19.2681L78.477 19.2718V18.9327H77.703V17.5064Z" fill="#BDBDBD"/>
<path d="M79.8112 18.0224C79.6232 18.0224 79.4611 18.0961 79.3468 18.2177C79.2178 18.3541 79.1478 18.5457 79.1478 18.7226C79.1478 19.058 79.3873 19.2755 79.7117 19.2755C79.8996 19.2755 80.0618 19.2018 80.1761 19.0801C80.3051 18.9438 80.3751 18.7521 80.3751 18.5752C80.3751 18.2398 80.1355 18.0224 79.8112 18.0224ZM80.0213 18.9511C79.9476 19.0322 79.8444 19.0765 79.7301 19.0765C79.4979 19.0765 79.3689 18.9143 79.3689 18.7079C79.3689 18.5752 79.4205 18.4389 79.5053 18.3467C79.579 18.2656 79.6822 18.2214 79.7964 18.2214C80.0286 18.2214 80.1576 18.3836 80.1576 18.59C80.1576 18.7226 80.106 18.859 80.0213 18.9511Z" fill="#BDBDBD"/>
<path d="M81.0864 17.4511C81.0164 17.5064 80.9611 17.6059 80.9353 17.757L80.8837 18.0482H80.6957L80.6626 18.2435H80.8505L80.6736 19.246H80.8911L81.068 18.2435H81.3665L81.3997 18.0482H81.1011L81.149 17.7902C81.1675 17.6796 81.197 17.6354 81.2301 17.6059C81.267 17.5727 81.3149 17.558 81.3739 17.558C81.4292 17.558 81.4808 17.5691 81.5324 17.5912L81.5655 17.3922C81.5066 17.3737 81.4402 17.359 81.3776 17.359C81.267 17.359 81.1638 17.3848 81.0864 17.4511Z" fill="#BDBDBD"/>
<path d="M83.7068 17.5064H83.2498L82.6343 18.2877L82.627 18.2841V17.5064H82.24V19.2718L82.627 19.2681V18.3909L82.6343 18.3873L83.2904 19.2681H83.7658L83.0434 18.3246L83.7068 17.5064Z" fill="#BDBDBD"/>
<path d="M84.7056 17.4769C84.1823 17.4769 83.7842 17.8713 83.7842 18.3873C83.7842 18.8996 84.1823 19.2939 84.7056 19.2939C85.229 19.2939 85.627 18.8996 85.627 18.3836C85.627 17.8676 85.229 17.4769 84.7056 17.4769ZM84.7056 18.9438C84.3997 18.9438 84.1712 18.6968 84.1712 18.3873C84.1712 18.074 84.3997 17.8307 84.7056 17.827C85.0115 17.827 85.24 18.074 85.24 18.3836C85.24 18.6968 85.0115 18.9401 84.7056 18.9438Z" fill="#BDBDBD"/>
<path d="M87.2266 18.0334C87.2266 17.8307 87.1418 17.6981 87.0128 17.6207C86.8728 17.5322 86.6737 17.5027 86.4637 17.5027H85.9108V19.2681H86.2978V18.5715H86.471L86.917 19.2681H87.3629L86.8654 18.5236C87.0976 18.4462 87.2229 18.2619 87.2229 18.0371L87.2266 18.0334ZM86.7401 18.2361C86.6811 18.2656 86.6 18.2767 86.4968 18.2767H86.3015V17.8381H86.4489C86.5816 17.8381 86.6774 17.8528 86.7401 17.8823C86.8101 17.9192 86.8396 17.9708 86.8396 18.0556C86.8396 18.1403 86.8064 18.1993 86.7401 18.2325V18.2361Z" fill="#BDBDBD"/>
<path d="M87.9305 18.9254V18.5089L88.535 18.5052V18.1845H87.9305V17.8381H88.6345L88.6308 17.499L87.5435 17.5027V19.2644H88.6603V18.9254H87.9305Z" fill="#BDBDBD"/>
<path d="M89.5153 17.499L88.8003 19.2644H89.1983L89.3421 18.8922H90.0534L90.1935 19.2607H90.6062L89.8876 17.4953H89.5116L89.5153 17.499ZM89.46 18.59L89.5301 18.402C89.5853 18.2546 89.648 18.0777 89.6959 17.945H89.6996C89.7475 18.0777 89.8102 18.2546 89.8618 18.3946L89.9355 18.5936H89.46V18.59Z" fill="#BDBDBD"/>
<path d="M92.0436 17.499V18.1551C92.0436 18.3246 92.0436 18.4978 92.051 18.6637H92.0473C91.9367 18.5126 91.8299 18.3651 91.7156 18.2103L91.1849 17.499H90.82V19.2644H91.1922V18.6084C91.1922 18.4389 91.1923 18.2656 91.1886 18.0998H91.1922C91.3028 18.2509 91.4097 18.3983 91.524 18.5531L92.0547 19.2644H92.4195V17.499H92.0436Z" fill="#BDBDBD"/>
<path d="M94.7009 17.4953L94.1776 18.2398L93.6542 17.4953H93.282V19.2607H93.6542V18.5531C93.6542 18.4057 93.6542 18.2398 93.6505 18.1145H93.6542C93.739 18.2361 93.8238 18.3651 93.9122 18.4905L94.1665 18.8516L94.4208 18.4868C94.5093 18.3615 94.5977 18.2325 94.6788 18.1072H94.6825C94.6825 18.2361 94.6788 18.402 94.6788 18.5494V19.2571H95.0658V17.4917H94.6972L94.7009 17.4953Z" fill="#BDBDBD"/>
<path d="M95.8213 18.918V18.5015H96.4258L96.4221 18.1772H95.8213V17.8344L96.5216 17.8307V17.4917L95.4307 17.4953L95.4343 19.2571H96.5474V18.918H95.8213Z" fill="#BDBDBD"/>
<path d="M98.0769 17.6686C97.8926 17.5433 97.6494 17.4917 97.3361 17.4917H96.8422V19.2571H97.3214C97.6899 19.2571 97.9442 19.187 98.1248 19.0396C98.3128 18.8848 98.416 18.6489 98.416 18.3725C98.416 18.0703 98.2944 17.8234 98.0769 17.6723V17.6686ZM97.8595 18.7779C97.7489 18.8738 97.5904 18.918 97.3361 18.918H97.2292V17.8307H97.3324C97.5314 17.8307 97.6973 17.8492 97.8226 17.9376C97.9553 18.0298 98.029 18.1846 98.029 18.3725C98.029 18.5494 97.9627 18.6895 97.8595 18.7779Z" fill="#BDBDBD"/>
<path d="M99.0794 17.4917H98.6924V19.2571H99.0794V17.4917Z" fill="#BDBDBD"/>
<path d="M100.344 18.9327C99.9787 18.9327 99.7539 18.6858 99.7539 18.3688C99.7539 18.0482 99.986 17.8123 100.329 17.8086C100.509 17.8086 100.686 17.875 100.815 17.9634V17.5727C100.675 17.5064 100.502 17.4622 100.325 17.4622C99.7575 17.4622 99.3669 17.8639 99.3669 18.3762C99.3669 18.8885 99.7612 19.2829 100.329 19.2829C100.506 19.2829 100.694 19.246 100.845 19.1649V18.7706C100.697 18.8701 100.528 18.9327 100.344 18.9327Z" fill="#BDBDBD"/>
<path d="M101.527 17.488H101.14V19.2534H101.527V17.488Z" fill="#BDBDBD"/>
<path d="M103.115 17.488V18.144C103.115 18.3135 103.115 18.4868 103.122 18.6526H103.119C103.008 18.5015 102.901 18.3541 102.787 18.1993L102.256 17.488H101.891V19.2534H102.264V18.5973C102.264 18.4278 102.264 18.2546 102.26 18.0887H102.264C102.374 18.2398 102.481 18.3873 102.595 18.5421L103.126 19.2534H103.491V17.488H103.115Z" fill="#BDBDBD"/>
<path d="M104.239 18.9106V18.4941L104.844 18.4905V18.1698H104.239V17.8234H104.939V17.4843L103.852 17.488V19.2497H104.969V18.9106H104.239Z" fill="#BDBDBD"/>
<path d="M35.8128 4.51106H33.2107V6.40913H30.7672L30.7856 5.55776C30.8004 4.71008 30.2181 4.51106 29.5583 4.51106H21.5643V12.2102C21.5643 12.4498 21.767 12.6451 22.0176 12.6451H30.3434L30.4613 10.7655H33.2107V14.0751C33.2107 14.1968 33.3103 14.2926 33.4356 14.2926H36.0376V4.72851C36.0376 4.60688 35.9381 4.51106 35.8128 4.51106ZM27.9256 10.8318H24.8519C24.5459 10.7655 24.3912 10.6181 24.3912 10.3195V6.30962H27.5571C27.804 6.37596 27.9256 6.4939 27.9256 6.72977V10.8318ZM33.2107 9.32811H30.5792L30.6935 7.85019H33.2107V9.32811Z" fill="#BDBDBD"/>
<path d="M35.8201 17.37H25.6037C25.2462 17.37 25.0693 17.2079 25.0693 16.913L25.0619 14.2963H22.2351V18.0187C22.2351 18.8701 22.6884 19.2976 23.5988 19.2976H36.045V17.5912C36.045 17.4695 35.9491 17.3737 35.8238 17.3737L35.8201 17.37Z" fill="#BDBDBD"/>
<path d="M75.8787 5.07864C75.8897 4.76905 75.6133 4.51106 75.2669 4.51106H73.7079V6.30225H71.1538V4.51106H68.9682V9.42025C68.9682 10.0026 69.451 10.3527 70.0297 10.3527H75.8787V5.07864ZM71.5776 9.05537C71.2975 9.05537 71.1574 8.93375 71.1574 8.6905V7.51112H73.7116V9.05537H71.5776Z" fill="#BDBDBD"/>
<path d="M78.0863 12.0038C77.2681 11.5358 76.1551 11.3036 74.7435 11.3036C73.3319 11.3036 72.241 11.5321 71.4339 11.9891C70.6267 12.4461 70.2213 13.0395 70.2213 13.7692C70.2213 14.499 70.6267 15.0924 71.4339 15.5457C72.241 15.999 73.343 16.2238 74.7435 16.2238C76.144 16.2238 77.2681 15.9953 78.0863 15.5346C78.8714 15.0887 79.2657 14.499 79.2657 13.7692C79.2657 13.0395 78.8714 12.4498 78.0863 12.0038ZM76.4352 14.7643C76.0003 15.0113 75.4327 15.1366 74.7398 15.1366C74.0469 15.1366 73.483 15.0113 73.0555 14.7643C72.628 14.5137 72.4142 14.182 72.4142 13.7655C72.4142 13.3491 72.628 13.0137 73.0555 12.7631C73.483 12.5088 74.0469 12.3835 74.7398 12.3835C75.4327 12.3835 76.0003 12.5088 76.4352 12.7631C76.8701 13.0174 77.0912 13.3491 77.0912 13.7655C77.0912 14.182 76.8738 14.5137 76.4352 14.7643Z" fill="#BDBDBD"/>
<path d="M77.2534 10.3527H79.2657V9.1254H80.7473V8.07132H79.2657V4.66954C79.2657 4.58108 79.1883 4.51106 79.0888 4.51106H77.0765V10.1942C77.0765 10.2827 77.1539 10.3527 77.2534 10.3527Z" fill="#BDBDBD"/>
<path d="M87.6836 11.2999C86.2831 11.2999 85.1811 11.5284 84.3739 11.9854C83.5668 12.4424 83.1614 13.0358 83.1614 13.7655C83.1614 14.4953 83.5668 15.0887 84.3739 15.542C85.1811 15.9953 86.2831 16.2201 87.6836 16.2201C89.0841 16.2201 90.2082 15.9916 91.0264 15.5309C91.8114 15.085 92.2058 14.4953 92.2058 13.7655C92.2058 13.0358 91.8114 12.4461 91.0264 12.0002C90.2082 11.5321 89.0952 11.2999 87.6836 11.2999ZM89.3753 14.7643C88.9404 15.0113 88.3728 15.1366 87.6799 15.1366C86.987 15.1366 86.4231 15.0113 85.9956 14.7643C85.5681 14.5137 85.3506 14.182 85.3506 13.7655C85.3506 13.3491 85.5644 13.0137 85.9956 12.7631C86.4231 12.5088 86.987 12.3835 87.6799 12.3835C88.3728 12.3835 88.9404 12.5088 89.3753 12.7631C89.8102 13.0174 90.0313 13.3491 90.0313 13.7655C90.0313 14.182 89.8138 14.5137 89.3753 14.7643Z" fill="#BDBDBD"/>
<path d="M88.2143 10.3527V9.1254H90.035V10.1979C90.035 10.2864 90.1124 10.3564 90.2119 10.3564H92.2242V4.66954C92.2242 4.58108 92.1468 4.51106 92.0473 4.51106H90.035V6.18062H88.2143V5.07864C88.2254 4.76905 87.9489 4.51106 87.6025 4.51106H86.0435V6.30225H83.6663V4.51106H81.5582V9.42025C81.5582 10.0026 82.041 10.3527 82.6159 10.3527H88.2143ZM88.2143 7.22364H90.035V8.07132H88.2143V7.22364ZM83.67 7.51112H86.0472V9.05537H84.0901C83.81 9.05537 83.67 8.93375 83.67 8.6905V7.51112Z" fill="#BDBDBD"/>
<path d="M50.0833 4.51106V6.3907H46.9285L46.9837 5.48773C47.0317 4.69534 46.641 4.51106 45.8044 4.51106H38.5069V6.09217H43.6151C43.921 6.09217 44.0758 6.25802 44.0758 6.58972V7.85019H38.4332V10.8982C38.4332 12.1918 39.0671 12.7852 40.147 12.9584C40.7957 13.0616 41.4075 13.1685 42.292 13.1427C45.0525 13.0653 46.5304 12.0038 46.6926 11.6463V10.8503C45.4505 11.4289 42.7564 11.3294 42.0193 11.1746C41.5586 11.0788 41.2416 10.8281 41.2416 10.5112V9.39813H46.6926L46.8032 7.83545H50.087V9.41288H46.6963V10.8539H50.087V12.8626C50.087 12.9842 50.1865 13.08 50.3118 13.08H52.9138V4.73588C52.9138 4.60688 52.8143 4.51106 52.689 4.51106H50.0833Z" fill="#BDBDBD"/>
<path d="M51.5465 14.2963H39.104L39.0966 16.0027C39.0966 16.1243 39.1961 16.2201 39.3214 16.2201H49.5378C49.8953 16.2201 50.0723 16.3676 50.0723 16.6661L50.0796 19.2976H52.9065V15.5752C52.9065 14.7238 52.4531 14.2963 51.5428 14.2963H51.5465Z" fill="#BDBDBD"/>
<path d="M96.8017 12.7962H98.9615V10.8797C101.762 10.8797 102.78 10.1426 102.78 10.1426V11.7532H100.587V12.7962H102.78V13.08C102.78 13.1685 102.857 13.2385 102.957 13.2385H104.969V4.66954C104.969 4.58108 104.892 4.51106 104.792 4.51106H102.78V8.84161C102.78 9.71878 101.46 9.69298 96.9639 9.69298H93.9122V10.8908H96.8017V12.7962Z" fill="#BDBDBD"/>
<path d="M95.1432 8.55045C95.7734 9.00746 96.6469 9.23597 97.7673 9.23597C98.8877 9.23597 99.7723 9.00746 100.391 8.55045C100.974 8.12661 101.265 7.56272 101.265 6.86614C101.265 6.16957 100.974 5.60936 100.391 5.18183C99.7686 4.73588 98.8951 4.51106 97.7673 4.51106C96.6395 4.51106 95.7734 4.73588 95.1432 5.18552C94.5498 5.61304 94.2513 6.17325 94.2513 6.86983C94.2513 7.5664 94.5498 8.12661 95.1432 8.55414V8.55045ZM96.8349 5.95949C97.0671 5.73098 97.3767 5.62042 97.7673 5.62042C98.158 5.62042 98.4676 5.73467 98.6998 5.95949C98.9283 6.18799 99.0462 6.49021 99.0462 6.86983C99.0462 7.24944 98.932 7.55166 98.6998 7.78016C98.4676 8.00867 98.158 8.12292 97.7673 8.12292C97.3767 8.12292 97.0671 8.00867 96.8349 7.78016C96.6064 7.55166 96.4884 7.24944 96.4884 6.86983C96.4884 6.49021 96.6027 6.18799 96.8349 5.95949Z" fill="#BDBDBD"/>
<path d="M104.799 14.3036H97.2034C96.9381 14.3036 96.8017 14.2004 96.8017 13.994V12.7999H94.6051V14.7606C94.6051 15.3577 94.9442 15.6562 95.626 15.6562H104.965V14.4621C104.965 14.3773 104.888 14.311 104.796 14.311L104.799 14.3036Z" fill="#BDBDBD"/>
<path d="M55.9729 8.81581C55.9729 9.61927 56.2567 10.2679 56.8206 10.7581C57.4213 11.2888 58.2542 11.5505 59.3194 11.5505C60.3845 11.5505 61.2285 11.2851 61.8182 10.7581C62.3747 10.2679 62.6511 9.61927 62.6511 8.81581C62.6511 8.01236 62.3747 7.36369 61.8182 6.86983C61.6634 6.73346 61.4902 6.61552 61.3022 6.51601H63.2519V5.22606H60.5282V4.51106H58.1732V5.22606H55.3795V6.51601H57.3476C57.1596 6.61552 56.9827 6.73346 56.8242 6.86983C56.2603 7.36369 55.9766 8.00867 55.9766 8.81581H55.9729ZM58.3685 7.74331C58.6044 7.47426 58.9213 7.34158 59.3194 7.34158C59.7174 7.34158 60.0344 7.47426 60.2703 7.74331C60.5061 8.01236 60.6241 8.36986 60.6241 8.81581C60.6241 9.26177 60.5061 9.61927 60.2703 9.892C60.0344 10.161 59.7174 10.2937 59.3194 10.2937C58.9213 10.2937 58.6044 10.161 58.3685 9.892C58.1326 9.62295 58.0147 9.26545 58.0147 8.81581C58.0147 8.36617 58.1326 8.00867 58.3685 7.74331Z" fill="#BDBDBD"/>
<path d="M66.5763 4.66954C66.5763 4.58108 66.4989 4.51106 66.3994 4.51106H64.3723V12.1218C64.3723 12.2102 64.4497 12.2803 64.5492 12.2803H66.5763V9.1254H67.9141V8.07132H66.5763V4.66954Z" fill="#BDBDBD"/>
<path d="M58.3464 13.9904L58.339 12.2839H56.2161V14.7533C56.2161 15.3503 56.5552 15.6489 57.237 15.6489H66.5689L66.5763 14.4547C66.5763 14.37 66.4989 14.3036 66.4067 14.3036H58.7444C58.4791 14.3036 58.3427 14.2004 58.3427 13.994L58.3464 13.9904Z" fill="#BDBDBD"/>
</svg>
