<svg width="120" height="121" viewBox="0 0 120 121" fill="none" xmlns="http://www.w3.org/2000/svg">
<g clip-path="url(#clip0_26095_654)">
<path d="M37.2414 0.588379H33.1034V4.72631H37.2414V0.588379Z" fill="black"/>
<path d="M41.3793 0.588379H37.2414V4.72631H41.3793V0.588379Z" fill="black"/>
<path d="M45.5172 0.588379H41.3793V4.72631H45.5172V0.588379Z" fill="black"/>
<path d="M49.6552 0.588379H45.5172V4.72631H49.6552V0.588379Z" fill="black"/>
<path d="M53.7931 0.588379H49.6552V4.72631H53.7931V0.588379Z" fill="black"/>
<path d="M66.2069 0.588379H62.069V4.72631H66.2069V0.588379Z" fill="black"/>
<path d="M70.3448 0.588379H66.2069V4.72631H70.3448V0.588379Z" fill="black"/>
<path d="M74.4828 0.588379H70.3448V4.72631H74.4828V0.588379Z" fill="black"/>
<path d="M78.6207 0.588379H74.4828V4.72631H78.6207V0.588379Z" fill="black"/>
<path d="M37.2414 4.72631H33.1034V8.86424H37.2414V4.72631Z" fill="black"/>
<path d="M41.3793 4.72631H37.2414V8.86424H41.3793V4.72631Z" fill="black"/>
<path d="M49.6552 4.72631H45.5172V8.86424H49.6552V4.72631Z" fill="black"/>
<path d="M70.3448 4.72631H66.2069V8.86424H70.3448V4.72631Z" fill="black"/>
<path d="M74.4828 4.72631H70.3448V8.86424H74.4828V4.72631Z" fill="black"/>
<path d="M86.8966 4.72631H82.7586V8.86424H86.8966V4.72631Z" fill="black"/>
<path d="M37.2414 8.86424H33.1034V13.0022H37.2414V8.86424Z" fill="black"/>
<path d="M45.5172 8.86424H41.3793V13.0022H45.5172V8.86424Z" fill="black"/>
<path d="M49.6552 8.86424H45.5172V13.0022H49.6552V8.86424Z" fill="black"/>
<path d="M53.7931 8.86424H49.6552V13.0022H53.7931V8.86424Z" fill="black"/>
<path d="M66.2069 8.86424H62.069V13.0022H66.2069V8.86424Z" fill="black"/>
<path d="M70.3448 8.86424H66.2069V13.0022H70.3448V8.86424Z" fill="black"/>
<path d="M78.6207 8.86424H74.4828V13.0022H78.6207V8.86424Z" fill="black"/>
<path d="M41.3793 13.0022H37.2414V17.1401H41.3793V13.0022Z" fill="black"/>
<path d="M45.5172 13.0022H41.3793V17.1401H45.5172V13.0022Z" fill="black"/>
<path d="M49.6552 13.0022H45.5172V17.1401H49.6552V13.0022Z" fill="black"/>
<path d="M70.3448 13.0022H66.2069V17.1401H70.3448V13.0022Z" fill="black"/>
<path d="M74.4828 13.0022H70.3448V17.1401H74.4828V13.0022Z" fill="black"/>
<path d="M78.6207 13.0022H74.4828V17.1401H78.6207V13.0022Z" fill="black"/>
<path d="M86.8966 13.0022H82.7586V17.1401H86.8966V13.0022Z" fill="black"/>
<path d="M37.2414 17.1401H33.1034V21.278H37.2414V17.1401Z" fill="black"/>
<path d="M45.5172 17.1401H41.3793V21.278H45.5172V17.1401Z" fill="black"/>
<path d="M49.6552 17.1401H45.5172V21.278H49.6552V17.1401Z" fill="black"/>
<path d="M53.7931 17.1401H49.6552V21.278H53.7931V17.1401Z" fill="black"/>
<path d="M62.069 17.1401H57.931V21.278H62.069V17.1401Z" fill="black"/>
<path d="M66.2069 17.1401H62.069V21.278H66.2069V17.1401Z" fill="black"/>
<path d="M70.3448 17.1401H66.2069V21.278H70.3448V17.1401Z" fill="black"/>
<path d="M74.4828 17.1401H70.3448V21.278H74.4828V17.1401Z" fill="black"/>
<path d="M82.7586 17.1401H78.6207V21.278H82.7586V17.1401Z" fill="black"/>
<path d="M86.8966 17.1401H82.7586V21.278H86.8966V17.1401Z" fill="black"/>
<path d="M41.3793 21.278H37.2414V25.416H41.3793V21.278Z" fill="black"/>
<path d="M66.2069 21.278H62.069V25.416H66.2069V21.278Z" fill="black"/>
<path d="M70.3448 21.278H66.2069V25.416H70.3448V21.278Z" fill="black"/>
<path d="M86.8966 21.278H82.7586V25.416H86.8966V21.278Z" fill="black"/>
<path d="M37.2414 25.416H33.1034V29.5539H37.2414V25.416Z" fill="black"/>
<path d="M45.5172 25.416H41.3793V29.5539H45.5172V25.416Z" fill="black"/>
<path d="M53.7931 25.416H49.6552V29.5539H53.7931V25.416Z" fill="black"/>
<path d="M62.069 25.416H57.931V29.5539H62.069V25.416Z" fill="black"/>
<path d="M70.3448 25.416H66.2069V29.5539H70.3448V25.416Z" fill="black"/>
<path d="M78.6207 25.416H74.4828V29.5539H78.6207V25.416Z" fill="black"/>
<path d="M86.8966 25.416H82.7586V29.5539H86.8966V25.416Z" fill="black"/>
<path d="M53.7931 29.5539H49.6552V33.6918H53.7931V29.5539Z" fill="black"/>
<path d="M57.931 29.5539H53.7931V33.6918H57.931V29.5539Z" fill="black"/>
<path d="M66.2069 29.5539H62.069V33.6918H66.2069V29.5539Z" fill="black"/>
<path d="M70.3448 29.5539H66.2069V33.6918H70.3448V29.5539Z" fill="black"/>
<path d="M74.4828 29.5539H70.3448V33.6918H74.4828V29.5539Z" fill="black"/>
<path d="M78.6207 29.5539H74.4828V33.6918H78.6207V29.5539Z" fill="black"/>
<path d="M4.13793 33.6918H0V37.8298H4.13793V33.6918Z" fill="black"/>
<path d="M16.5517 33.6918H12.4138V37.8298H16.5517V33.6918Z" fill="black"/>
<path d="M20.6897 33.6918H16.5517V37.8298H20.6897V33.6918Z" fill="black"/>
<path d="M24.8276 33.6918H20.6897V37.8298H24.8276V33.6918Z" fill="black"/>
<path d="M28.9655 33.6918H24.8276V37.8298H28.9655V33.6918Z" fill="black"/>
<path d="M33.1034 33.6918H28.9655V37.8298H33.1034V33.6918Z" fill="black"/>
<path d="M37.2414 33.6918H33.1034V37.8298H37.2414V33.6918Z" fill="black"/>
<path d="M41.3793 33.6918H37.2414V37.8298H41.3793V33.6918Z" fill="black"/>
<path d="M45.5172 33.6918H41.3793V37.8298H45.5172V33.6918Z" fill="black"/>
<path d="M49.6552 33.6918H45.5172V37.8298H49.6552V33.6918Z" fill="black"/>
<path d="M57.931 33.6918H53.7931V37.8298H57.931V33.6918Z" fill="black"/>
<path d="M74.4828 33.6918H70.3448V37.8298H74.4828V33.6918Z" fill="black"/>
<path d="M82.7586 33.6918H78.6207V37.8298H82.7586V33.6918Z" fill="black"/>
<path d="M86.8966 33.6918H82.7586V37.8298H86.8966V33.6918Z" fill="black"/>
<path d="M91.0345 33.6918H86.8966V37.8298H91.0345V33.6918Z" fill="black"/>
<path d="M103.448 33.6918H99.3103V37.8298H103.448V33.6918Z" fill="black"/>
<path d="M111.724 33.6918H107.586V37.8298H111.724V33.6918Z" fill="black"/>
<path d="M115.862 33.6918H111.724V37.8298H115.862V33.6918Z" fill="black"/>
<path d="M120 33.6918H115.862V37.8298H120V33.6918Z" fill="black"/>
<path d="M4.13793 37.8298H0V41.9677H4.13793V37.8298Z" fill="black"/>
<path d="M8.27586 37.8298H4.13793V41.9677H8.27586V37.8298Z" fill="black"/>
<path d="M20.6897 37.8298H16.5517V41.9677H20.6897V37.8298Z" fill="black"/>
<path d="M24.8276 37.8298H20.6897V41.9677H24.8276V37.8298Z" fill="black"/>
<path d="M33.1034 37.8298H28.9655V41.9677H33.1034V37.8298Z" fill="black"/>
<path d="M37.2414 37.8298H33.1034V41.9677H37.2414V37.8298Z" fill="black"/>
<path d="M41.3793 37.8298H37.2414V41.9677H41.3793V37.8298Z" fill="black"/>
<path d="M57.931 37.8298H53.7931V41.9677H57.931V37.8298Z" fill="black"/>
<path d="M70.3448 37.8298H66.2069V41.9677H70.3448V37.8298Z" fill="black"/>
<path d="M91.0345 37.8298H86.8966V41.9677H91.0345V37.8298Z" fill="black"/>
<path d="M103.448 37.8298H99.3103V41.9677H103.448V37.8298Z" fill="black"/>
<path d="M107.586 37.8298H103.448V41.9677H107.586V37.8298Z" fill="black"/>
<path d="M111.724 37.8298H107.586V41.9677H111.724V37.8298Z" fill="black"/>
<path d="M120 37.8298H115.862V41.9677H120V37.8298Z" fill="black"/>
<path d="M8.27586 41.9677H4.13793V46.1056H8.27586V41.9677Z" fill="black"/>
<path d="M16.5517 41.9677H12.4138V46.1056H16.5517V41.9677Z" fill="black"/>
<path d="M24.8276 41.9677H20.6897V46.1056H24.8276V41.9677Z" fill="black"/>
<path d="M28.9655 41.9677H24.8276V46.1056H28.9655V41.9677Z" fill="black"/>
<path d="M33.1034 41.9677H28.9655V46.1056H33.1034V41.9677Z" fill="black"/>
<path d="M41.3793 41.9677H37.2414V46.1056H41.3793V41.9677Z" fill="black"/>
<path d="M49.6552 41.9677H45.5172V46.1056H49.6552V41.9677Z" fill="black"/>
<path d="M57.931 41.9677H53.7931V46.1056H57.931V41.9677Z" fill="black"/>
<path d="M66.2069 41.9677H62.069V46.1056H66.2069V41.9677Z" fill="black"/>
<path d="M70.3448 41.9677H66.2069V46.1056H70.3448V41.9677Z" fill="black"/>
<path d="M86.8966 41.9677H82.7586V46.1056H86.8966V41.9677Z" fill="black"/>
<path d="M107.586 41.9677H103.448V46.1056H107.586V41.9677Z" fill="black"/>
<path d="M8.27586 46.1056H4.13793V50.2436H8.27586V46.1056Z" fill="black"/>
<path d="M12.4138 46.1056H8.27586V50.2436H12.4138V46.1056Z" fill="black"/>
<path d="M16.5517 46.1056H12.4138V50.2436H16.5517V46.1056Z" fill="black"/>
<path d="M33.1034 46.1056H28.9655V50.2436H33.1034V46.1056Z" fill="black"/>
<path d="M41.3793 46.1056H37.2414V50.2436H41.3793V46.1056Z" fill="black"/>
<path d="M57.931 46.1056H53.7931V50.2436H57.931V46.1056Z" fill="black"/>
<path d="M70.3448 46.1056H66.2069V50.2436H70.3448V46.1056Z" fill="black"/>
<path d="M78.6207 46.1056H74.4828V50.2436H78.6207V46.1056Z" fill="black"/>
<path d="M82.7586 46.1056H78.6207V50.2436H82.7586V46.1056Z" fill="black"/>
<path d="M86.8966 46.1056H82.7586V50.2436H86.8966V46.1056Z" fill="black"/>
<path d="M103.448 46.1056H99.3103V50.2436H103.448V46.1056Z" fill="black"/>
<path d="M107.586 46.1056H103.448V50.2436H107.586V46.1056Z" fill="black"/>
<path d="M115.862 46.1056H111.724V50.2436H115.862V46.1056Z" fill="black"/>
<path d="M4.13793 50.2436H0V54.3815H4.13793V50.2436Z" fill="black"/>
<path d="M12.4138 50.2436H8.27586V54.3815H12.4138V50.2436Z" fill="black"/>
<path d="M16.5517 50.2436H12.4138V54.3815H16.5517V50.2436Z" fill="black"/>
<path d="M28.9655 50.2436H24.8276V54.3815H28.9655V50.2436Z" fill="black"/>
<path d="M33.1034 50.2436H28.9655V54.3815H33.1034V50.2436Z" fill="black"/>
<path d="M41.3793 50.2436H37.2414V54.3815H41.3793V50.2436Z" fill="black"/>
<path d="M45.5172 50.2436H41.3793V54.3815H45.5172V50.2436Z" fill="black"/>
<path d="M49.6552 50.2436H45.5172V54.3815H49.6552V50.2436Z" fill="black"/>
<path d="M57.931 50.2436H53.7931V54.3815H57.931V50.2436Z" fill="black"/>
<path d="M66.2069 50.2436H62.069V54.3815H66.2069V50.2436Z" fill="black"/>
<path d="M70.3448 50.2436H66.2069V54.3815H70.3448V50.2436Z" fill="black"/>
<path d="M74.4828 50.2436H70.3448V54.3815H74.4828V50.2436Z" fill="black"/>
<path d="M82.7586 50.2436H78.6207V54.3815H82.7586V50.2436Z" fill="black"/>
<path d="M86.8966 50.2436H82.7586V54.3815H86.8966V50.2436Z" fill="black"/>
<path d="M91.0345 50.2436H86.8966V54.3815H91.0345V50.2436Z" fill="black"/>
<path d="M99.3103 50.2436H95.1724V54.3815H99.3103V50.2436Z" fill="black"/>
<path d="M107.586 50.2436H103.448V54.3815H107.586V50.2436Z" fill="black"/>
<path d="M111.724 50.2436H107.586V54.3815H111.724V50.2436Z" fill="black"/>
<path d="M120 50.2436H115.862V54.3815H120V50.2436Z" fill="black"/>
<path d="M12.4138 54.3815H8.27586V58.5194H12.4138V54.3815Z" fill="black"/>
<path d="M16.5517 54.3815H12.4138V58.5194H16.5517V54.3815Z" fill="black"/>
<path d="M20.6897 54.3815H16.5517V58.5194H20.6897V54.3815Z" fill="black"/>
<path d="M24.8276 54.3815H20.6897V58.5194H24.8276V54.3815Z" fill="black"/>
<path d="M45.5172 54.3815H41.3793V58.5194H45.5172V54.3815Z" fill="black"/>
<path d="M57.931 54.3815H53.7931V58.5194H57.931V54.3815Z" fill="black"/>
<path d="M62.069 54.3815H57.931V58.5194H62.069V54.3815Z" fill="black"/>
<path d="M70.3448 54.3815H66.2069V58.5194H70.3448V54.3815Z" fill="black"/>
<path d="M91.0345 54.3815H86.8966V58.5194H91.0345V54.3815Z" fill="black"/>
<path d="M99.3103 54.3815H95.1724V58.5194H99.3103V54.3815Z" fill="black"/>
<path d="M111.724 54.3815H107.586V58.5194H111.724V54.3815Z" fill="black"/>
<path d="M4.13793 58.5194H0V62.6573H4.13793V58.5194Z" fill="black"/>
<path d="M8.27586 58.5194H4.13793V62.6573H8.27586V58.5194Z" fill="black"/>
<path d="M16.5517 58.5194H12.4138V62.6573H16.5517V58.5194Z" fill="black"/>
<path d="M20.6897 58.5194H16.5517V62.6573H20.6897V58.5194Z" fill="black"/>
<path d="M28.9655 58.5194H24.8276V62.6573H28.9655V58.5194Z" fill="black"/>
<path d="M41.3793 58.5194H37.2414V62.6573H41.3793V58.5194Z" fill="black"/>
<path d="M49.6552 58.5194H45.5172V62.6573H49.6552V58.5194Z" fill="black"/>
<path d="M53.7931 58.5194H49.6552V62.6573H53.7931V58.5194Z" fill="black"/>
<path d="M57.931 58.5194H53.7931V62.6573H57.931V58.5194Z" fill="black"/>
<path d="M70.3448 58.5194H66.2069V62.6573H70.3448V58.5194Z" fill="black"/>
<path d="M74.4828 58.5194H70.3448V62.6573H74.4828V58.5194Z" fill="black"/>
<path d="M78.6207 58.5194H74.4828V62.6573H78.6207V58.5194Z" fill="black"/>
<path d="M82.7586 58.5194H78.6207V62.6573H82.7586V58.5194Z" fill="black"/>
<path d="M86.8966 58.5194H82.7586V62.6573H86.8966V58.5194Z" fill="black"/>
<path d="M95.1724 58.5194H91.0345V62.6573H95.1724V58.5194Z" fill="black"/>
<path d="M111.724 58.5194H107.586V62.6573H111.724V58.5194Z" fill="black"/>
<path d="M115.862 58.5194H111.724V62.6573H115.862V58.5194Z" fill="black"/>
<path d="M4.13793 62.6573H0V66.7953H4.13793V62.6573Z" fill="black"/>
<path d="M12.4138 62.6573H8.27586V66.7953H12.4138V62.6573Z" fill="black"/>
<path d="M16.5517 62.6573H12.4138V66.7953H16.5517V62.6573Z" fill="black"/>
<path d="M24.8276 62.6573H20.6897V66.7953H24.8276V62.6573Z" fill="black"/>
<path d="M49.6552 62.6573H45.5172V66.7953H49.6552V62.6573Z" fill="black"/>
<path d="M66.2069 62.6573H62.069V66.7953H66.2069V62.6573Z" fill="black"/>
<path d="M74.4828 62.6573H70.3448V66.7953H74.4828V62.6573Z" fill="black"/>
<path d="M78.6207 62.6573H74.4828V66.7953H78.6207V62.6573Z" fill="black"/>
<path d="M82.7586 62.6573H78.6207V66.7953H82.7586V62.6573Z" fill="black"/>
<path d="M91.0345 62.6573H86.8966V66.7953H91.0345V62.6573Z" fill="black"/>
<path d="M103.448 62.6573H99.3103V66.7953H103.448V62.6573Z" fill="black"/>
<path d="M111.724 62.6573H107.586V66.7953H111.724V62.6573Z" fill="black"/>
<path d="M12.4138 66.7953H8.27586V70.9332H12.4138V66.7953Z" fill="black"/>
<path d="M16.5517 66.7953H12.4138V70.9332H16.5517V66.7953Z" fill="black"/>
<path d="M28.9655 66.7953H24.8276V70.9332H28.9655V66.7953Z" fill="black"/>
<path d="M45.5172 66.7953H41.3793V70.9332H45.5172V66.7953Z" fill="black"/>
<path d="M62.069 66.7953H57.931V70.9332H62.069V66.7953Z" fill="black"/>
<path d="M103.448 66.7953H99.3103V70.9332H103.448V66.7953Z" fill="black"/>
<path d="M111.724 66.7953H107.586V70.9332H111.724V66.7953Z" fill="black"/>
<path d="M4.13793 70.9332H0V75.0711H4.13793V70.9332Z" fill="black"/>
<path d="M12.4138 70.9332H8.27586V75.0711H12.4138V70.9332Z" fill="black"/>
<path d="M20.6897 70.9332H16.5517V75.0711H20.6897V70.9332Z" fill="black"/>
<path d="M24.8276 70.9332H20.6897V75.0711H24.8276V70.9332Z" fill="black"/>
<path d="M37.2414 70.9332H33.1034V75.0711H37.2414V70.9332Z" fill="black"/>
<path d="M45.5172 70.9332H41.3793V75.0711H45.5172V70.9332Z" fill="black"/>
<path d="M57.931 70.9332H53.7931V75.0711H57.931V70.9332Z" fill="black"/>
<path d="M62.069 70.9332H57.931V75.0711H62.069V70.9332Z" fill="black"/>
<path d="M70.3448 70.9332H66.2069V75.0711H70.3448V70.9332Z" fill="black"/>
<path d="M74.4828 70.9332H70.3448V75.0711H74.4828V70.9332Z" fill="black"/>
<path d="M95.1724 70.9332H91.0345V75.0711H95.1724V70.9332Z" fill="black"/>
<path d="M107.586 70.9332H103.448V75.0711H107.586V70.9332Z" fill="black"/>
<path d="M4.13793 75.0711H0V79.2091H4.13793V75.0711Z" fill="black"/>
<path d="M8.27586 75.0711H4.13793V79.2091H8.27586V75.0711Z" fill="black"/>
<path d="M12.4138 75.0711H8.27586V79.2091H12.4138V75.0711Z" fill="black"/>
<path d="M16.5517 75.0711H12.4138V79.2091H16.5517V75.0711Z" fill="black"/>
<path d="M24.8276 75.0711H20.6897V79.2091H24.8276V75.0711Z" fill="black"/>
<path d="M28.9655 75.0711H24.8276V79.2091H28.9655V75.0711Z" fill="black"/>
<path d="M37.2414 75.0711H33.1034V79.2091H37.2414V75.0711Z" fill="black"/>
<path d="M41.3793 75.0711H37.2414V79.2091H41.3793V75.0711Z" fill="black"/>
<path d="M45.5172 75.0711H41.3793V79.2091H45.5172V75.0711Z" fill="black"/>
<path d="M66.2069 75.0711H62.069V79.2091H66.2069V75.0711Z" fill="black"/>
<path d="M70.3448 75.0711H66.2069V79.2091H70.3448V75.0711Z" fill="black"/>
<path d="M78.6207 75.0711H74.4828V79.2091H78.6207V75.0711Z" fill="black"/>
<path d="M82.7586 75.0711H78.6207V79.2091H82.7586V75.0711Z" fill="black"/>
<path d="M86.8966 75.0711H82.7586V79.2091H86.8966V75.0711Z" fill="black"/>
<path d="M95.1724 75.0711H91.0345V79.2091H95.1724V75.0711Z" fill="black"/>
<path d="M99.3103 75.0711H95.1724V79.2091H99.3103V75.0711Z" fill="black"/>
<path d="M4.13793 79.2091H0V83.347H4.13793V79.2091Z" fill="black"/>
<path d="M8.27586 79.2091H4.13793V83.347H8.27586V79.2091Z" fill="black"/>
<path d="M49.6552 79.2091H45.5172V83.347H49.6552V79.2091Z" fill="black"/>
<path d="M53.7931 79.2091H49.6552V83.347H53.7931V79.2091Z" fill="black"/>
<path d="M62.069 79.2091H57.931V83.347H62.069V79.2091Z" fill="black"/>
<path d="M95.1724 79.2091H91.0345V83.347H95.1724V79.2091Z" fill="black"/>
<path d="M99.3103 79.2091H95.1724V83.347H99.3103V79.2091Z" fill="black"/>
<path d="M103.448 79.2091H99.3103V83.347H103.448V79.2091Z" fill="black"/>
<path d="M107.586 79.2091H103.448V83.347H107.586V79.2091Z" fill="black"/>
<path d="M111.724 79.2091H107.586V83.347H111.724V79.2091Z" fill="black"/>
<path d="M115.862 79.2091H111.724V83.347H115.862V79.2091Z" fill="black"/>
<path d="M4.13793 83.347H0V87.4849H4.13793V83.347Z" fill="black"/>
<path d="M8.27586 83.347H4.13793V87.4849H8.27586V83.347Z" fill="black"/>
<path d="M16.5517 83.347H12.4138V87.4849H16.5517V83.347Z" fill="black"/>
<path d="M20.6897 83.347H16.5517V87.4849H20.6897V83.347Z" fill="black"/>
<path d="M28.9655 83.347H24.8276V87.4849H28.9655V83.347Z" fill="black"/>
<path d="M41.3793 83.347H37.2414V87.4849H41.3793V83.347Z" fill="black"/>
<path d="M45.5172 83.347H41.3793V87.4849H45.5172V83.347Z" fill="black"/>
<path d="M49.6552 83.347H45.5172V87.4849H49.6552V83.347Z" fill="black"/>
<path d="M57.931 83.347H53.7931V87.4849H57.931V83.347Z" fill="black"/>
<path d="M62.069 83.347H57.931V87.4849H62.069V83.347Z" fill="black"/>
<path d="M66.2069 83.347H62.069V87.4849H66.2069V83.347Z" fill="black"/>
<path d="M70.3448 83.347H66.2069V87.4849H70.3448V83.347Z" fill="black"/>
<path d="M78.6207 83.347H74.4828V87.4849H78.6207V83.347Z" fill="black"/>
<path d="M82.7586 83.347H78.6207V87.4849H82.7586V83.347Z" fill="black"/>
<path d="M86.8966 83.347H82.7586V87.4849H86.8966V83.347Z" fill="black"/>
<path d="M91.0345 83.347H86.8966V87.4849H91.0345V83.347Z" fill="black"/>
<path d="M95.1724 83.347H91.0345V87.4849H95.1724V83.347Z" fill="black"/>
<path d="M99.3103 83.347H95.1724V87.4849H99.3103V83.347Z" fill="black"/>
<path d="M103.448 83.347H99.3103V87.4849H103.448V83.347Z" fill="black"/>
<path d="M111.724 83.347H107.586V87.4849H111.724V83.347Z" fill="black"/>
<path d="M115.862 83.347H111.724V87.4849H115.862V83.347Z" fill="black"/>
<path d="M120 83.347H115.862V87.4849H120V83.347Z" fill="black"/>
<path d="M37.2414 87.4849H33.1034V91.6229H37.2414V87.4849Z" fill="black"/>
<path d="M49.6552 87.4849H45.5172V91.6229H49.6552V87.4849Z" fill="black"/>
<path d="M62.069 87.4849H57.931V91.6229H62.069V87.4849Z" fill="black"/>
<path d="M66.2069 87.4849H62.069V91.6229H66.2069V87.4849Z" fill="black"/>
<path d="M86.8966 87.4849H82.7586V91.6229H86.8966V87.4849Z" fill="black"/>
<path d="M103.448 87.4849H99.3103V91.6229H103.448V87.4849Z" fill="black"/>
<path d="M111.724 87.4849H107.586V91.6229H111.724V87.4849Z" fill="black"/>
<path d="M120 87.4849H115.862V91.6229H120V87.4849Z" fill="black"/>
<path d="M37.2414 91.6229H33.1034V95.7608H37.2414V91.6229Z" fill="black"/>
<path d="M41.3793 91.6229H37.2414V95.7608H41.3793V91.6229Z" fill="black"/>
<path d="M49.6552 91.6229H45.5172V95.7608H49.6552V91.6229Z" fill="black"/>
<path d="M62.069 91.6229H57.931V95.7608H62.069V91.6229Z" fill="black"/>
<path d="M74.4828 91.6229H70.3448V95.7608H74.4828V91.6229Z" fill="black"/>
<path d="M82.7586 91.6229H78.6207V95.7608H82.7586V91.6229Z" fill="black"/>
<path d="M86.8966 91.6229H82.7586V95.7608H86.8966V91.6229Z" fill="black"/>
<path d="M95.1724 91.6229H91.0345V95.7608H95.1724V91.6229Z" fill="black"/>
<path d="M103.448 91.6229H99.3103V95.7608H103.448V91.6229Z" fill="black"/>
<path d="M107.586 91.6229H103.448V95.7608H107.586V91.6229Z" fill="black"/>
<path d="M37.2414 95.7608H33.1034V99.8987H37.2414V95.7608Z" fill="black"/>
<path d="M45.5172 95.7608H41.3793V99.8987H45.5172V95.7608Z" fill="black"/>
<path d="M53.7931 95.7608H49.6552V99.8987H53.7931V95.7608Z" fill="black"/>
<path d="M62.069 95.7608H57.931V99.8987H62.069V95.7608Z" fill="black"/>
<path d="M74.4828 95.7608H70.3448V99.8987H74.4828V95.7608Z" fill="black"/>
<path d="M78.6207 95.7608H74.4828V99.8987H78.6207V95.7608Z" fill="black"/>
<path d="M82.7586 95.7608H78.6207V99.8987H82.7586V95.7608Z" fill="black"/>
<path d="M86.8966 95.7608H82.7586V99.8987H86.8966V95.7608Z" fill="black"/>
<path d="M103.448 95.7608H99.3103V99.8987H103.448V95.7608Z" fill="black"/>
<path d="M111.724 95.7608H107.586V99.8987H111.724V95.7608Z" fill="black"/>
<path d="M37.2414 99.8987H33.1034V104.037H37.2414V99.8987Z" fill="black"/>
<path d="M41.3793 99.8987H37.2414V104.037H41.3793V99.8987Z" fill="black"/>
<path d="M45.5172 99.8987H41.3793V104.037H45.5172V99.8987Z" fill="black"/>
<path d="M49.6552 99.8987H45.5172V104.037H49.6552V99.8987Z" fill="black"/>
<path d="M57.931 99.8987H53.7931V104.037H57.931V99.8987Z" fill="black"/>
<path d="M62.069 99.8987H57.931V104.037H62.069V99.8987Z" fill="black"/>
<path d="M66.2069 99.8987H62.069V104.037H66.2069V99.8987Z" fill="black"/>
<path d="M78.6207 99.8987H74.4828V104.037H78.6207V99.8987Z" fill="black"/>
<path d="M86.8966 99.8987H82.7586V104.037H86.8966V99.8987Z" fill="black"/>
<path d="M91.0345 99.8987H86.8966V104.037H91.0345V99.8987Z" fill="black"/>
<path d="M95.1724 99.8987H91.0345V104.037H95.1724V99.8987Z" fill="black"/>
<path d="M99.3103 99.8987H95.1724V104.037H99.3103V99.8987Z" fill="black"/>
<path d="M103.448 99.8987H99.3103V104.037H103.448V99.8987Z" fill="black"/>
<path d="M107.586 99.8987H103.448V104.037H107.586V99.8987Z" fill="black"/>
<path d="M115.862 99.8987H111.724V104.037H115.862V99.8987Z" fill="black"/>
<path d="M37.2414 104.037H33.1034V108.175H37.2414V104.037Z" fill="black"/>
<path d="M45.5172 104.037H41.3793V108.175H45.5172V104.037Z" fill="black"/>
<path d="M57.931 104.037H53.7931V108.175H57.931V104.037Z" fill="black"/>
<path d="M66.2069 104.037H62.069V108.175H66.2069V104.037Z" fill="black"/>
<path d="M70.3448 104.037H66.2069V108.175H70.3448V104.037Z" fill="black"/>
<path d="M78.6207 104.037H74.4828V108.175H78.6207V104.037Z" fill="black"/>
<path d="M82.7586 104.037H78.6207V108.175H82.7586V104.037Z" fill="black"/>
<path d="M91.0345 104.037H86.8966V108.175H91.0345V104.037Z" fill="black"/>
<path d="M99.3103 104.037H95.1724V108.175H99.3103V104.037Z" fill="black"/>
<path d="M107.586 104.037H103.448V108.175H107.586V104.037Z" fill="black"/>
<path d="M111.724 104.037H107.586V108.175H111.724V104.037Z" fill="black"/>
<path d="M115.862 104.037H111.724V108.175H115.862V104.037Z" fill="black"/>
<path d="M41.3793 108.175H37.2414V112.313H41.3793V108.175Z" fill="black"/>
<path d="M49.6552 108.175H45.5172V112.313H49.6552V108.175Z" fill="black"/>
<path d="M70.3448 108.175H66.2069V112.313H70.3448V108.175Z" fill="black"/>
<path d="M95.1724 108.175H91.0345V112.313H95.1724V108.175Z" fill="black"/>
<path d="M99.3103 108.175H95.1724V112.313H99.3103V108.175Z" fill="black"/>
<path d="M107.586 108.175H103.448V112.313H107.586V108.175Z" fill="black"/>
<path d="M111.724 108.175H107.586V112.313H111.724V108.175Z" fill="black"/>
<path d="M115.862 108.175H111.724V112.313H115.862V108.175Z" fill="black"/>
<path d="M120 108.175H115.862V112.313H120V108.175Z" fill="black"/>
<path d="M45.5172 112.313H41.3793V116.45H45.5172V112.313Z" fill="black"/>
<path d="M49.6552 112.313H45.5172V116.45H49.6552V112.313Z" fill="black"/>
<path d="M53.7931 112.313H49.6552V116.45H53.7931V112.313Z" fill="black"/>
<path d="M74.4828 112.313H70.3448V116.45H74.4828V112.313Z" fill="black"/>
<path d="M78.6207 112.313H74.4828V116.45H78.6207V112.313Z" fill="black"/>
<path d="M95.1724 112.313H91.0345V116.45H95.1724V112.313Z" fill="black"/>
<path d="M107.586 112.313H103.448V116.45H107.586V112.313Z" fill="black"/>
<path d="M115.862 112.313H111.724V116.45H115.862V112.313Z" fill="black"/>
<path d="M37.2414 116.45H33.1034V120.588H37.2414V116.45Z" fill="black"/>
<path d="M41.3793 116.45H37.2414V120.588H41.3793V116.45Z" fill="black"/>
<path d="M45.5172 116.45H41.3793V120.588H45.5172V116.45Z" fill="black"/>
<path d="M53.7931 116.45H49.6552V120.588H53.7931V116.45Z" fill="black"/>
<path d="M66.2069 116.45H62.069V120.588H66.2069V116.45Z" fill="black"/>
<path d="M74.4828 116.45H70.3448V120.588H74.4828V116.45Z" fill="black"/>
<path d="M82.7586 116.45H78.6207V120.588H82.7586V116.45Z" fill="black"/>
<path d="M91.0345 116.45H86.8966V120.588H91.0345V116.45Z" fill="black"/>
<path d="M95.1724 116.45H91.0345V120.588H95.1724V116.45Z" fill="black"/>
<path d="M99.3103 116.45H95.1724V120.588H99.3103V116.45Z" fill="black"/>
<path d="M103.448 116.45H99.3103V120.588H103.448V116.45Z" fill="black"/>
<path d="M107.586 116.45H103.448V120.588H107.586V116.45Z" fill="black"/>
<path fill-rule="evenodd" clip-rule="evenodd" d="M0 0.588379H28.9655V29.5539H0V0.588379ZM4.13793 4.72631H24.8276V25.416H4.13793V4.72631Z" fill="black"/>
<path d="M20.6897 8.86424H8.27586V21.278H20.6897V8.86424Z" fill="black"/>
<path fill-rule="evenodd" clip-rule="evenodd" d="M91.0345 0.588379H120V29.5539H91.0345V0.588379ZM95.1724 4.72631H115.862V25.416H95.1724V4.72631Z" fill="black"/>
<path d="M111.724 8.86424H99.3103V21.278H111.724V8.86424Z" fill="black"/>
<path fill-rule="evenodd" clip-rule="evenodd" d="M0 91.6229H28.9655V120.588H0V91.6229ZM4.13793 95.7608H24.8276V116.45H4.13793V95.7608Z" fill="black"/>
<path d="M20.6897 99.8987H8.27586V112.313H20.6897V99.8987Z" fill="black"/>
</g>
<defs>
<clipPath id="clip0_26095_654">
<rect width="120" height="120" fill="white" transform="translate(0 0.588379)"/>
</clipPath>
</defs>
</svg>
