<svg width="237" height="226" viewBox="0 0 237 226" fill="none" xmlns="http://www.w3.org/2000/svg">
<circle cx="117.361" cy="79.0833" r="78.7222" stroke="#B2C7DB" stroke-width="0.722222"/>
<circle cx="79.0833" cy="146.251" r="78.7222" stroke="#B2C7DB" stroke-width="0.722222"/>
<circle cx="157.806" cy="146.251" r="78.7222" stroke="#B2C7DB" stroke-width="0.722222"/>
<path d="M116.543 130.986H114.793V116.877H116.543V130.986ZM109.879 121.361C109.879 122.367 109.717 123.333 109.394 124.26C109.077 125.187 108.616 126.007 108.012 126.721C107.407 127.434 106.696 127.971 105.879 128.33L104.949 126.986C105.678 126.663 106.308 126.205 106.84 125.611C107.376 125.012 107.785 124.346 108.066 123.611C108.347 122.872 108.488 122.122 108.488 121.361V120.408H109.879V121.361ZM110.215 121.361C110.215 122.09 110.358 122.812 110.644 123.525C110.931 124.234 111.347 124.872 111.894 125.439C112.441 126.007 113.082 126.447 113.816 126.76L112.871 128.096C112.053 127.747 111.34 127.229 110.73 126.541C110.126 125.854 109.66 125.062 109.332 124.166C109.004 123.265 108.84 122.33 108.84 121.361V120.408H110.215V121.361ZM113.269 120.627H105.387V119.236H113.269V120.627ZM110.207 119.979H108.472V117.182H110.207V119.979ZM123.418 128.51H121.723V125.111H123.418V128.51ZM127.949 128.494H126.246V125.096H127.949V128.494ZM131.223 129.361H118.317V127.932H131.223V129.361ZM129.684 122.377H121.574V124.939H119.84V120.986H127.973V119.244H119.817V117.838H129.684V122.377ZM130.02 125.596H119.84V124.182H130.02V125.596Z" fill="#9BB4DE"/>
<path d="M113.942 36.8262H110.215V35.4121H113.942V36.8262ZM113.989 39.8418H110.215V38.4512H113.989V39.8418ZM110.598 41.0605H103.973V34.2793H110.598V41.0605ZM105.7 39.7012H108.895V35.6699H105.7V39.7012ZM115.184 43.3965H113.45V33.1152H115.184V43.3965ZM115.489 46.959H105.872V45.5371H115.489V46.959ZM107.637 46.2402H105.872V42.4434H107.637V46.2402ZM127.481 36.4746H123.247V35.0527H127.481V36.4746ZM127.481 39.5684H123.247V38.1699H127.481V39.5684ZM128.692 47.209H126.958V43.498H119.067V42.1152H128.692V47.209ZM128.692 41.4355H126.958V33.0996H128.692V41.4355ZM120.786 33.873C121.479 33.873 122.106 34.0189 122.669 34.3105C123.237 34.6022 123.682 35.0111 124.005 35.5371C124.328 36.0579 124.489 36.6465 124.489 37.3027C124.489 37.9694 124.328 38.5658 124.005 39.0918C123.682 39.6126 123.237 40.0215 122.669 40.3184C122.106 40.6152 121.479 40.7637 120.786 40.7637C120.083 40.7637 119.448 40.6152 118.88 40.3184C118.312 40.0215 117.867 39.6126 117.544 39.0918C117.221 38.5658 117.059 37.9694 117.059 37.3027C117.059 36.6465 117.221 36.0579 117.544 35.5371C117.867 35.0111 118.312 34.6022 118.88 34.3105C119.448 34.0189 120.083 33.873 120.786 33.873ZM120.786 35.3496C120.385 35.3496 120.026 35.4303 119.708 35.5918C119.395 35.748 119.151 35.9746 118.974 36.2715C118.796 36.5632 118.708 36.9069 118.708 37.3027C118.708 37.7038 118.796 38.0553 118.974 38.3574C119.151 38.6595 119.395 38.8913 119.708 39.0527C120.026 39.2142 120.385 39.2949 120.786 39.2949C121.166 39.2949 121.513 39.2116 121.825 39.0449C122.138 38.8783 122.382 38.6439 122.559 38.3418C122.737 38.0397 122.825 37.6934 122.825 37.3027C122.825 36.9121 122.737 36.5684 122.559 36.2715C122.382 35.9746 122.138 35.748 121.825 35.5918C121.513 35.4303 121.166 35.3496 120.786 35.3496Z" fill="#9BB4DE"/>
<path d="M40.7249 177.77H38.9828V167.449H40.7249V177.77ZM41.1234 181.293H31.3812V179.871H41.1234V181.293ZM33.1312 180.605H31.3812V176.785H33.1312V180.605ZM33.8968 169.613C33.8968 170.546 33.7406 171.423 33.4281 172.246C33.1156 173.069 32.6572 173.79 32.0531 174.41C31.4541 175.03 30.7328 175.493 29.889 175.801L28.9749 174.441C29.7197 174.176 30.3525 173.796 30.8734 173.301C31.3994 172.801 31.7926 172.233 32.0531 171.598C32.3135 170.957 32.4437 170.296 32.4437 169.613V168.23H33.8968V169.613ZM34.2406 169.613C34.2406 170.275 34.3682 170.908 34.6234 171.512C34.8786 172.111 35.2614 172.645 35.7718 173.113C36.2874 173.577 36.9072 173.931 37.6312 174.176L36.7328 175.559C35.8942 175.262 35.1807 174.822 34.5921 174.238C34.0036 173.655 33.5557 172.967 33.2484 172.176C32.9411 171.384 32.7874 170.53 32.7874 169.613V168.23H34.2406V169.613ZM52.8581 171.215H49.3112V169.84H52.8581V171.215ZM52.7487 174.145H49.2096V172.738H52.7487V174.145ZM54.3034 175.699H52.569V167.449H54.3034V175.699ZM49.8503 168.434C49.8503 169.673 49.5976 170.783 49.0924 171.762C48.5924 172.741 47.8555 173.574 46.8815 174.262C45.9128 174.944 44.7226 175.486 43.3112 175.887L42.6237 174.52C43.8112 174.191 44.8034 173.767 45.6003 173.246C46.4023 172.725 47.0013 172.129 47.3971 171.457C47.793 170.785 47.9909 170.051 47.9909 169.254V168.434H49.8503ZM49.194 169.848H43.3581V168.434H49.194V169.848ZM49.6237 175.855C50.5768 175.855 51.4128 175.97 52.1315 176.199C52.8555 176.428 53.4128 176.754 53.8034 177.176C54.1992 177.592 54.3971 178.087 54.3971 178.66C54.3971 179.233 54.1992 179.733 53.8034 180.16C53.4128 180.587 52.8555 180.913 52.1315 181.137C51.4128 181.366 50.5768 181.48 49.6237 181.48C48.6706 181.48 47.832 181.366 47.1081 181.137C46.3893 180.913 45.832 180.587 45.4362 180.16C45.0404 179.733 44.8424 179.233 44.8424 178.66C44.8424 178.087 45.0404 177.592 45.4362 177.176C45.832 176.754 46.3893 176.428 47.1081 176.199C47.832 175.97 48.6706 175.855 49.6237 175.855ZM49.6237 177.223C48.9987 177.212 48.4544 177.264 47.9909 177.379C47.5325 177.488 47.181 177.652 46.9362 177.871C46.6914 178.09 46.569 178.353 46.569 178.66C46.569 178.967 46.6914 179.228 46.9362 179.441C47.181 179.655 47.5299 179.819 47.9831 179.934C48.4414 180.043 48.9883 180.098 49.6237 180.098C50.2539 180.098 50.7956 180.043 51.2487 179.934C51.7018 179.819 52.0508 179.655 52.2956 179.441C52.5404 179.228 52.6628 178.967 52.6628 178.66C52.6628 178.353 52.5404 178.09 52.2956 177.871C52.0508 177.652 51.7018 177.488 51.2487 177.379C50.7956 177.264 50.2539 177.212 49.6237 177.223Z" fill="#9BB4DE"/>
<path d="M188.82 181.543H187.062V167.434H188.82V181.543ZM185.382 170.23H177.374V168.816H185.382V170.23ZM176.999 176.793C178.635 176.793 180.213 176.764 181.734 176.707C183.26 176.645 184.684 176.535 186.007 176.379L186.109 177.668C184.76 177.887 183.364 178.033 181.921 178.105C180.484 178.173 178.9 178.212 177.171 178.223L176.999 176.793ZM180.421 177.168H178.734V169.895H180.421V177.168ZM184.023 177.168H182.32V169.895H184.023V177.168ZM203.429 177.035H190.523V175.66H203.429V177.035ZM197.789 181.543H196.078V176.316H197.789V181.543ZM193.789 169.723H200.109V167.996H201.851V174.176H192.078V167.996H193.789V169.723ZM200.109 172.777V171.105H193.789V172.777H200.109Z" fill="#9BB4DE"/>
<path d="M159.522 94.9453C159.522 95.8307 159.277 96.651 158.787 97.4062C158.298 98.1562 157.61 98.7839 156.725 99.2891C155.84 99.7891 154.834 100.128 153.709 100.305L153.022 98.8984C153.991 98.7786 154.853 98.5182 155.608 98.1172C156.368 97.7109 156.957 97.2318 157.373 96.6797C157.79 96.1224 157.998 95.5443 157.998 94.9453V94.2188H159.522V94.9453ZM159.819 94.9453C159.819 95.5391 160.03 96.1172 160.452 96.6797C160.873 97.237 161.465 97.7161 162.225 98.1172C162.985 98.5182 163.85 98.7786 164.819 98.8984L164.131 100.305C163.001 100.128 161.993 99.7865 161.108 99.2812C160.228 98.776 159.54 98.1484 159.045 97.3984C158.55 96.6432 158.303 95.8255 158.303 94.9453V94.2188H159.819V94.9453ZM159.725 107.875H158.014V102.625H159.725V107.875ZM165.334 102.961H152.475V101.531H165.334V102.961ZM178.889 106.25H165.983V104.797H178.889V106.25ZM173.241 105.453H171.522V101.414H173.241V105.453ZM177.757 96.4219H167.03V95.0234H177.757V96.4219ZM177.702 102.016H167.085V100.648H177.702V102.016ZM170.811 100.844H169.069V96.1328H170.811V100.844ZM175.694 100.844H173.983V96.1328H175.694V100.844Z" fill="white"/>
<path d="M117.668 182.66H104.777V181.285H117.668V182.66ZM112.082 181.809H110.347V179.629H112.082V181.809ZM116.23 180.246H106.426V178.895H116.23V180.246ZM116.129 175.66H108.168V179.637H106.426V174.301H116.129V175.66ZM115.777 177.895H107.66V176.621H115.777V177.895ZM111.222 183.441C112.259 183.431 113.142 183.517 113.871 183.699C114.6 183.876 115.155 184.139 115.535 184.488C115.92 184.832 116.113 185.249 116.113 185.738C116.113 186.233 115.92 186.652 115.535 186.996C115.155 187.34 114.6 187.598 113.871 187.77C113.147 187.947 112.264 188.035 111.222 188.035C110.176 188.035 109.285 187.947 108.551 187.77C107.816 187.598 107.256 187.34 106.871 186.996C106.491 186.652 106.301 186.233 106.301 185.738C106.301 185.238 106.493 184.819 106.879 184.48C107.264 184.137 107.824 183.876 108.558 183.699C109.293 183.517 110.181 183.431 111.222 183.441ZM111.222 184.73C110.504 184.73 109.91 184.767 109.441 184.84C108.978 184.913 108.629 185.025 108.394 185.176C108.16 185.322 108.043 185.509 108.043 185.738C108.043 185.962 108.157 186.15 108.387 186.301C108.621 186.447 108.975 186.556 109.449 186.629C109.923 186.702 110.514 186.738 111.222 186.738C111.926 186.738 112.509 186.702 112.972 186.629C113.436 186.556 113.785 186.447 114.019 186.301C114.254 186.15 114.371 185.962 114.371 185.738C114.371 185.509 114.254 185.322 114.019 185.176C113.785 185.025 113.436 184.913 112.972 184.84C112.509 184.767 111.926 184.73 111.222 184.73ZM131.176 181.918H118.317V180.512H131.176V181.918ZM124.731 182.848C125.746 182.848 126.621 182.952 127.356 183.16C128.09 183.363 128.65 183.66 129.035 184.051C129.426 184.436 129.621 184.902 129.621 185.449C129.621 185.996 129.426 186.462 129.035 186.848C128.65 187.238 128.09 187.533 127.356 187.73C126.626 187.934 125.751 188.035 124.731 188.035C123.71 188.035 122.83 187.934 122.09 187.73C121.356 187.533 120.791 187.238 120.395 186.848C120.004 186.462 119.809 185.996 119.809 185.449C119.809 184.902 120.007 184.436 120.403 184.051C120.798 183.66 121.363 183.363 122.098 183.16C122.837 182.952 123.715 182.848 124.731 182.848ZM124.731 184.207C124.043 184.207 123.462 184.254 122.988 184.348C122.52 184.436 122.168 184.574 121.934 184.762C121.699 184.949 121.582 185.178 121.582 185.449C121.582 185.715 121.702 185.941 121.942 186.129C122.181 186.311 122.533 186.449 122.996 186.543C123.46 186.632 124.038 186.676 124.731 186.676C125.413 186.676 125.988 186.632 126.457 186.543C126.926 186.449 127.28 186.311 127.52 186.129C127.759 185.941 127.879 185.715 127.879 185.449C127.879 185.178 127.759 184.949 127.52 184.762C127.28 184.574 126.926 184.436 126.457 184.348C125.988 184.254 125.413 184.207 124.731 184.207ZM125.098 175.699C125.098 176.418 124.869 177.074 124.41 177.668C123.957 178.257 123.309 178.743 122.465 179.129C121.626 179.514 120.645 179.767 119.52 179.887L118.934 178.512C119.866 178.418 120.681 178.233 121.379 177.957C122.082 177.676 122.621 177.337 122.996 176.941C123.371 176.546 123.559 176.132 123.559 175.699V175.309H125.098V175.699ZM125.91 175.699C125.91 176.132 126.095 176.546 126.465 176.941C126.84 177.337 127.382 177.676 128.09 177.957C128.798 178.233 129.626 178.418 130.574 178.512L129.957 179.887C128.843 179.767 127.861 179.514 127.012 179.129C126.168 178.743 125.514 178.257 125.051 177.668C124.587 177.074 124.356 176.418 124.356 175.699V175.309H125.91V175.699ZM130.02 176.02H119.481V174.613H130.02V176.02Z" fill="white"/>
<path d="M61.2205 104.609H59.4862V102.305H61.2205V104.609ZM67.4471 107.875H65.7284V93.7656H67.4471V107.875ZM56.5955 103.969C58.2518 103.958 59.7466 103.924 61.0799 103.867C62.4133 103.81 63.6867 103.703 64.9002 103.547L65.0174 104.844C63.6424 105.073 62.2232 105.224 60.7596 105.297C59.3013 105.37 57.7127 105.406 55.994 105.406L55.7518 103.969H56.5955ZM64.6424 96.7734H56.0487V95.3984H64.6424V96.7734ZM60.3377 97.4141C61.0252 97.4141 61.632 97.526 62.158 97.75C62.6893 97.9688 63.1008 98.2786 63.3924 98.6797C63.6893 99.0755 63.8377 99.5339 63.8377 100.055C63.8377 100.576 63.6893 101.034 63.3924 101.43C63.1008 101.82 62.6893 102.128 62.158 102.352C61.632 102.57 61.0252 102.68 60.3377 102.68C59.6607 102.68 59.0591 102.57 58.533 102.352C58.007 102.133 57.5982 101.826 57.3065 101.43C57.0148 101.034 56.869 100.576 56.869 100.055C56.869 99.5339 57.0148 99.0755 57.3065 98.6797C57.5982 98.2786 58.007 97.9688 58.533 97.75C59.0591 97.526 59.6607 97.4141 60.3377 97.4141ZM60.3377 98.7422C59.9836 98.7422 59.6685 98.7943 59.3924 98.8984C59.1164 99.0026 58.9002 99.1536 58.744 99.3516C58.5877 99.5495 58.5096 99.7839 58.5096 100.055C58.5096 100.32 58.5877 100.552 58.744 100.75C58.9002 100.943 59.1164 101.091 59.3924 101.195C59.6685 101.294 59.9836 101.344 60.3377 101.344C60.7023 101.344 61.0226 101.294 61.2987 101.195C61.5799 101.096 61.7961 100.948 61.9471 100.75C62.0982 100.552 62.1737 100.32 62.1737 100.055C62.1737 99.7839 62.0982 99.5495 61.9471 99.3516C61.7961 99.1536 61.5799 99.0026 61.2987 98.8984C61.0226 98.7943 60.7023 98.7422 60.3377 98.7422ZM61.2284 96.1719H59.4862V93.8125H61.2284V96.1719ZM82.0646 102.273H69.2052V100.867H82.0646V102.273ZM76.4865 101.211H74.7443V98.9375H76.4865V101.211ZM80.4943 107.875H78.7521V104.758H70.6271V103.391H80.4943V107.875ZM72.5802 95.5156H78.674V94.1094H80.4005V99.5078H70.8693V94.1094H72.5802V95.5156ZM78.674 98.1328V96.8047H72.5802V98.1328H78.674Z" fill="white"/>
</svg>
