<svg width="90" height="90" viewBox="0 0 90 90" fill="none" xmlns="http://www.w3.org/2000/svg">
<path d="M71.8387 8.87956C81.2722 15.889 87.5892 26.3108 89.439 37.9169C91.2889 49.5229 88.5249 61.3922 81.738 70.987C74.951 80.5817 64.6797 87.1406 53.12 89.2613C41.5604 91.382 29.6298 88.8962 19.879 82.3354C10.1281 75.7746 3.33093 65.6594 0.94059 54.1525C-1.44975 42.6456 0.756459 30.6601 7.08754 20.7586C13.4186 10.8571 23.3721 3.82527 34.82 1.16658C46.2679 -1.4921 58.3017 0.433331 68.3485 6.53122L63.9584 13.7644C55.8006 8.81306 46.0295 7.24966 36.7341 9.40844C27.4388 11.5672 19.3568 17.2769 14.2161 25.3166C9.07543 33.3564 7.28404 43.0883 9.22494 52.4316C11.1658 61.7749 16.685 69.9881 24.6024 75.3154C32.5198 80.6426 42.2071 82.661 51.5933 80.939C60.9794 79.2171 69.3194 73.8914 74.8302 66.1007C80.3411 58.31 82.5854 48.6725 81.0833 39.2487C79.5813 29.8249 74.452 21.3626 66.7923 15.6712L71.8387 8.87956Z" fill="#E9EFF6"/>
</svg>
