<svg width="84" height="97" viewBox="0 0 84 97" fill="none" xmlns="http://www.w3.org/2000/svg">
<path fill-rule="evenodd" clip-rule="evenodd" d="M53.6288 48.1914C54.8172 48.911 56.0055 49.4935 57.092 50.0931V59.3107C57.092 59.3107 57.1599 59.3793 57.1599 59.4135C55.1228 59.8419 53.6119 61.6066 53.6119 63.7482C53.6119 66.2154 55.5981 68.2199 57.9918 68.2199C60.3855 68.2199 62.3887 66.2154 62.3887 63.7482C62.3887 61.8464 61.1834 60.1674 59.4178 59.602C59.4857 59.5163 59.4857 59.4135 59.4857 59.3107V51.2239C75.7493 58.8481 84 59.3107 84 97H0C0 59.3107 8.59002 58.7967 25.5836 50.6585V54.4621C20.0322 55.1817 15.6862 59.9275 15.6862 65.7356V76.2039C15.6862 76.8721 16.2125 77.3861 16.8746 77.3861H20.7792C21.4243 77.3861 21.9506 76.8721 21.9506 76.2039C21.9506 75.5357 21.4243 75.0218 20.7792 75.0218H18.046V65.7356C18.046 60.7328 22.0864 56.6894 27.0605 56.6894C32.0346 56.6894 36.0072 60.7328 36.0072 65.7356V75.0218H33.5116C32.8495 75.0218 32.3233 75.5529 32.3233 76.2039C32.3233 76.855 32.8495 77.3861 33.5116 77.3861H37.1785C37.8406 77.3861 38.3669 76.8721 38.3669 76.2039V65.7356C38.3669 59.7391 33.7323 54.8904 27.9433 54.4107V49.5106C28.7582 49.048 29.624 48.5854 30.4728 48.0886C33.97 50.5043 37.9255 51.875 42.1187 51.875C46.3119 51.875 50.1486 50.5386 53.6119 48.1914H53.6288ZM59.7234 22.6117C59.1971 22.2176 58.7388 22.389 58.4332 23.0058C58.4332 23.0058 60.1309 13.8396 58.8237 9.91611C56.0055 -0.141002 32.4591 -2.93369 32.4591 3.31988C22.392 6.19823 24.2594 15.8099 25.7024 23.1257C25.7024 23.1257 24.9894 22.2005 24.0557 23.0914C22.9861 24.2565 24.1745 27.1006 24.5819 28.437C24.8705 29.4821 25.1761 30.2017 25.4477 30.6985C25.4308 30.8013 25.4308 30.9212 25.4308 31.0583C25.4308 32.0349 25.8552 32.8402 26.3815 32.8402H26.4154C28.7412 41.8521 35.7865 49.3736 42.1017 49.3736C47.9247 49.3736 55.1228 41.8521 57.4316 32.8402C57.9409 32.7716 58.3313 32.0006 58.3313 31.0583V30.8356C58.6369 30.3045 58.9764 29.5677 59.282 28.4198C59.6215 27.2205 61.0306 23.5026 59.7234 22.5946V22.6117Z" fill="url(#paint0_linear_26237_8152)"/>
<defs>
<linearGradient id="paint0_linear_26237_8152" x1="42" y1="0" x2="42" y2="92.9976" gradientUnits="userSpaceOnUse">
<stop stop-color="#385B98"/>
<stop offset="1" stop-color="#385B98" stop-opacity="0"/>
</linearGradient>
</defs>
</svg>
