<svg width="136" height="20" viewBox="0 0 136 20" fill="none" xmlns="http://www.w3.org/2000/svg">
<path d="M13.8049 7.42136C13.7953 7.39749 13.7858 7.37361 13.7762 7.34974C13.7762 7.33541 13.7523 7.28766 13.7093 7.21126C13.6568 7.13963 13.6186 7.10621 13.59 7.11098C13.5756 7.11098 13.5613 7.13008 13.5422 7.16828C13.5231 7.20648 13.4992 7.24469 13.4754 7.28289C13.461 7.30676 13.4419 7.33064 13.4181 7.36406C13.3894 7.39749 13.3751 7.42136 13.3703 7.44524C13.356 7.47389 13.3417 7.50732 13.3178 7.54552C13.2939 7.58372 13.2748 7.61237 13.2653 7.63624C13.2557 7.67445 13.2414 7.70787 13.2271 7.73652C13.2127 7.76517 13.1984 7.7986 13.1841 7.8368C13.1841 7.84635 13.1745 7.86068 13.1602 7.8941C13.1459 7.92275 13.1411 7.95618 13.1411 7.9896C13.1411 8.0087 13.1411 8.03258 13.1363 8.05645C13.1316 8.08033 13.1316 8.10421 13.1316 8.12331L13.1459 8.26656C13.1459 8.26656 13.1459 8.29999 13.1554 8.31909C13.1602 8.33819 13.1698 8.34774 13.1841 8.34774C13.2509 8.33819 13.3226 8.30954 13.399 8.25701C13.4419 8.22358 13.4754 8.19493 13.504 8.17106C13.5374 8.13286 13.5709 8.09943 13.5995 8.06601C13.6282 8.03258 13.6616 7.9896 13.695 7.94185C13.6998 7.9323 13.7141 7.92275 13.738 7.89888C13.7571 7.87978 13.7714 7.86067 13.7762 7.84635C13.7762 7.84157 13.7762 7.82247 13.7953 7.80337C13.8096 7.7795 13.8144 7.76517 13.8144 7.7604L13.8383 7.67445C13.8478 7.63624 13.8574 7.61237 13.8526 7.59327C13.8526 7.57894 13.8526 7.55029 13.8478 7.51687C13.8478 7.51209 13.8383 7.47867 13.8192 7.42614L13.8049 7.42136Z" fill="#BDBDBD"/>
<path d="M17.0185 0.425824H11.3027C11.3266 0.430599 11.3504 0.425824 11.3791 0.430599C11.5558 0.464025 11.7325 0.540427 11.9044 0.65503C12.0285 0.736207 12.1527 0.893785 12.2768 1.12299C12.315 1.21372 12.3532 1.29967 12.3866 1.38562C12.4248 1.47157 12.463 1.55753 12.4965 1.64825C12.5299 1.71033 12.5538 1.76763 12.5681 1.81538C12.5776 1.86313 12.5967 1.91088 12.6158 1.96341C12.6349 2.01594 12.6493 2.08756 12.6588 2.18307C12.6684 2.27857 12.6732 2.34542 12.6779 2.38362C12.6827 2.45047 12.6875 2.51255 12.6827 2.56508C12.6827 2.62238 12.6827 2.67968 12.6875 2.74653L12.697 2.87068C12.7161 2.93753 12.7114 3.04259 12.6827 3.19061C12.654 3.33864 12.6349 3.4437 12.6254 3.51532C12.6254 3.54397 12.6254 3.62993 12.6254 3.77318C12.6254 3.91643 12.6254 4.00716 12.6254 4.05014C12.6349 4.14564 12.6254 4.22204 12.6015 4.28889C12.5776 4.35097 12.5681 4.40349 12.5729 4.44647C12.5776 4.499 12.5729 4.5754 12.5633 4.6709C12.549 4.7664 12.5347 4.85235 12.5108 4.92398C12.5108 4.93831 12.5108 4.99083 12.4917 5.08156C12.4774 5.17229 12.4726 5.22481 12.4726 5.23914C12.4487 5.31076 12.4392 5.37762 12.4487 5.44447C12.4535 5.51132 12.4487 5.5734 12.4248 5.6307C12.401 5.70232 12.3771 5.77395 12.3484 5.84558C12.3198 5.9172 12.3007 5.98883 12.2911 6.05568C12.2816 6.11298 12.2768 6.17984 12.2768 6.26101C12.2768 6.34219 12.2673 6.42814 12.2434 6.50932C12.2434 6.53797 12.2434 6.57139 12.2338 6.61437C12.2243 6.65735 12.2195 6.686 12.2195 6.70032C12.2195 6.72897 12.2195 6.74807 12.2195 6.77195C12.2147 6.79105 12.2147 6.81493 12.2195 6.84358C12.2195 6.8961 12.2195 6.9916 12.2004 7.13008C12.1909 7.15873 12.1861 7.18738 12.1861 7.21603L12.1956 7.29721C12.1956 7.29721 11.8327 9.37439 11.403 11.8479C12.4678 11.4181 14.4161 10.6302 14.4543 10.6064C14.4686 10.5873 14.8793 10.4201 15.2469 10.2769C15.4809 10.1575 15.8868 9.97605 16.3786 9.8519C16.4073 9.83757 16.4359 9.82325 16.455 9.81847C16.4789 9.8137 16.498 9.82325 16.5171 9.82325C16.9326 9.73252 17.391 9.64657 17.835 9.74685C17.9162 9.76595 18.0117 9.78505 18.1168 9.81847C18.2218 9.8519 18.3078 9.86622 18.3794 9.871C18.4367 9.871 18.494 9.88532 18.5465 9.9092C18.6038 9.93307 18.6611 9.95695 18.7328 9.9856C18.7757 9.99993 18.8235 10.0286 18.876 10.062C18.9285 10.0954 18.9906 10.1384 19.0575 10.1814C19.0909 10.2053 19.1196 10.2196 19.153 10.2387V6.94385C19.1387 6.98205 19.1291 7.02503 19.1148 7.06323C19.0909 7.13963 19.0718 7.22559 19.067 7.31631C19.0575 7.36884 19.0384 7.44046 19.0097 7.54074C18.9811 7.63624 18.9524 7.70787 18.919 7.7604L18.8808 7.84635C18.8569 7.90365 18.833 7.9705 18.8092 8.04213C18.7853 8.11376 18.7566 8.17583 18.7232 8.21881C18.7089 8.23313 18.6946 8.25223 18.685 8.27611C18.6707 8.29999 18.6611 8.31909 18.6468 8.33341C18.6277 8.35251 18.5991 8.36684 18.5704 8.38116C18.5418 8.39549 18.5227 8.40981 18.5083 8.42414C18.4797 8.43369 18.451 8.44324 18.4272 8.45279C18.4033 8.46234 18.3603 8.47666 18.303 8.49099C18.2314 8.50054 18.1693 8.51009 18.1263 8.52442C18.0834 8.53874 18.0261 8.55307 17.964 8.55784C17.8159 8.55784 17.7491 8.51487 17.7586 8.41459C17.7539 8.36206 17.7586 8.31909 17.7682 8.29044C17.7825 8.26178 17.7921 8.22358 17.8016 8.18061C17.8112 8.14241 17.8207 8.10898 17.8255 8.07556C17.8255 8.04213 17.8398 8.0087 17.8494 7.98005C17.8589 7.92753 17.8685 7.87978 17.8685 7.8368C17.8685 7.78905 17.8828 7.7413 17.8971 7.67922C17.9019 7.60282 17.9114 7.52642 17.9258 7.45002C17.9353 7.37361 17.9449 7.30199 17.9544 7.22081C17.964 7.16351 17.9687 7.11098 17.964 7.06323C17.8923 7.10621 17.835 7.14441 17.7921 7.17783C17.7491 7.21126 17.7013 7.23991 17.6584 7.25901C17.6106 7.31154 17.5533 7.35929 17.4865 7.39271C17.4196 7.42614 17.348 7.46912 17.2811 7.51209C17.2668 7.52164 17.2382 7.53119 17.1952 7.55029C17.1522 7.56462 17.1188 7.58372 17.0997 7.59804C17.0328 7.61714 16.9899 7.63147 16.966 7.62669C16.9421 7.62669 16.9182 7.63624 16.8896 7.65057C16.8179 7.69355 16.7606 7.71742 16.7177 7.7222C16.6508 7.74607 16.6031 7.7604 16.5696 7.76517C16.5362 7.76995 16.4932 7.7795 16.4312 7.78427L16.0778 7.82725C16.0778 7.82725 16.011 7.82725 15.9489 7.83202C15.8868 7.83202 15.8247 7.83202 15.7626 7.82247C15.6146 7.82247 15.4809 7.76517 15.3663 7.66012C15.3186 7.62192 15.2804 7.58849 15.2565 7.54552C15.2469 7.52642 15.2374 7.50254 15.2278 7.47389C15.2183 7.44524 15.2135 7.42136 15.2087 7.40226C15.2087 7.38794 15.2087 7.36884 15.2231 7.33541C15.2374 7.30676 15.2469 7.29244 15.2613 7.28766C15.2804 7.24946 15.3042 7.22081 15.3329 7.19693C15.3615 7.17306 15.3854 7.15396 15.4045 7.13486C15.4379 7.11098 15.4857 7.09188 15.5382 7.08711C15.5907 7.08233 15.6385 7.08233 15.6671 7.09188C15.6815 7.09666 15.7149 7.09666 15.7626 7.09188C15.8104 7.09188 15.8438 7.09188 15.8677 7.08233C15.8964 7.08233 15.9298 7.07278 15.9728 7.05846C16.011 7.04891 16.0396 7.03458 16.0539 7.02981C16.1208 7.00115 16.1829 6.9725 16.2402 6.94385C16.2975 6.9152 16.3643 6.877 16.4264 6.82925C16.455 6.80537 16.498 6.77672 16.5505 6.7433C16.6078 6.71465 16.6699 6.68122 16.732 6.64302C16.7941 6.6096 16.8609 6.57139 16.923 6.53797C16.9851 6.50454 17.0376 6.47112 17.0806 6.43769C17.1236 6.41859 17.1665 6.39949 17.2095 6.37561C17.2525 6.35174 17.3002 6.33264 17.348 6.31354C17.4148 6.28489 17.4817 6.25624 17.5581 6.23236C17.6345 6.20371 17.7013 6.17506 17.7586 6.14163C17.7921 6.12253 17.8398 6.09388 17.9019 6.05091C17.9592 6.00793 18.0117 5.9554 18.0499 5.8981C18.0834 5.85035 18.1025 5.80738 18.112 5.76918C18.1216 5.73097 18.1311 5.67845 18.1454 5.6116C18.1836 5.48267 18.198 5.33942 18.1836 5.18661C18.1836 5.18184 18.1836 5.15319 18.1741 5.11021C18.1741 5.06723 18.1645 5.01948 18.155 4.97173C18.1454 4.92398 18.1407 4.881 18.1359 4.83803C18.1359 4.79505 18.1311 4.7664 18.1263 4.75685C18.1025 4.68522 18.0929 4.62792 18.0881 4.58972C18.0881 4.55152 18.0834 4.52287 18.0786 4.50377C18.0595 4.4799 18.0499 4.44647 18.0404 4.40349C18.0308 4.36052 18.0213 4.32709 18.0022 4.30322C17.9926 4.28889 17.9831 4.26979 17.9687 4.24591C17.9544 4.22204 17.9449 4.18861 17.9401 4.15519C17.9305 4.12176 17.9305 4.08834 17.9305 4.05969C17.9305 4.02626 17.9449 3.99761 17.9735 3.97373C18.0308 3.92598 18.0834 3.89733 18.1311 3.88778C18.1836 3.87823 18.2218 3.86868 18.2505 3.85913C18.2935 3.84481 18.3555 3.84003 18.4272 3.84481C18.4988 3.84481 18.5561 3.84481 18.5943 3.84481C18.6325 3.84481 18.6611 3.84481 18.6898 3.85913C18.7184 3.87346 18.7375 3.88778 18.7566 3.89733C18.8139 3.94031 18.8569 3.99283 18.8951 4.05969C18.9094 4.07879 18.9285 4.11221 18.9476 4.15996C18.9667 4.21249 18.9811 4.24114 18.9906 4.25546C18.9906 4.26024 18.9954 4.28412 19.0049 4.31754C19.0145 4.35097 19.024 4.39394 19.0288 4.44169C19.0431 4.47034 19.0622 4.51332 19.0766 4.58495C19.0909 4.6518 19.1052 4.7282 19.1196 4.80938C19.1196 4.82848 19.1196 4.8428 19.1291 4.8619V2.55552C19.1578 1.3904 18.1932 0.425824 17.0185 0.425824ZM14.6166 7.49299C14.6071 7.54074 14.5975 7.59804 14.5927 7.65057C14.588 7.70787 14.5736 7.7604 14.545 7.81292C14.5307 7.87023 14.5068 7.91798 14.4781 7.95618C14.4543 7.99438 14.4208 8.04213 14.3922 8.10421L14.2537 8.29999C14.1821 8.40026 14.0532 8.51009 13.8717 8.62947C13.8431 8.64857 13.7953 8.67244 13.7284 8.71542C13.6616 8.75362 13.6091 8.78227 13.5756 8.79182C13.4754 8.82047 13.3894 8.8348 13.3226 8.84435C13.2557 8.8539 13.208 8.86345 13.1793 8.873C13.0552 8.90165 12.9453 8.90165 12.8451 8.873C12.7973 8.84912 12.7591 8.82047 12.7257 8.78705C12.6922 8.75362 12.6684 8.7202 12.6493 8.68677C12.6302 8.65334 12.6206 8.60559 12.6111 8.53874C12.6063 8.47189 12.5967 8.41459 12.592 8.35729C12.592 8.33819 12.592 8.25223 12.6015 8.10421C12.592 8.07078 12.5967 8.02303 12.6158 7.95618C12.6349 7.88933 12.654 7.84157 12.6731 7.80337C12.697 7.73175 12.7161 7.6649 12.7305 7.60282C12.7448 7.54074 12.7639 7.49299 12.783 7.45479C12.826 7.38794 12.8642 7.33064 12.888 7.27811C12.9119 7.23036 12.9453 7.17783 12.9835 7.11576C13.0026 7.08711 13.0217 7.05846 13.0361 7.02981C13.0552 7.00115 13.0838 6.95818 13.1316 6.90088C13.1507 6.88655 13.1745 6.86268 13.1984 6.82925C13.2223 6.8006 13.2414 6.77672 13.2509 6.7624C13.2653 6.73852 13.2796 6.71465 13.3035 6.69077C13.3226 6.6669 13.3417 6.63825 13.3608 6.60005C13.4181 6.52364 13.4515 6.45202 13.4515 6.38994C13.4563 6.36129 13.4706 6.33264 13.4897 6.30876C13.5088 6.28011 13.5279 6.26101 13.5422 6.24669C13.5565 6.23236 13.5756 6.22281 13.6043 6.22281C13.6329 6.22281 13.6568 6.22281 13.6711 6.22281C13.6711 6.23236 13.6711 6.23236 13.6807 6.23236H13.7141C13.7714 6.20849 13.824 6.21326 13.8717 6.24191C13.9051 6.26579 13.9338 6.28966 13.9577 6.30876C13.9815 6.33264 13.9959 6.34696 13.9959 6.36129C13.9863 6.41859 13.9768 6.46157 13.9672 6.49022C13.9577 6.51887 13.9481 6.55229 13.9386 6.58572C13.9481 6.59049 13.9672 6.60482 13.9959 6.62392C14.0293 6.64302 14.0627 6.6669 14.0961 6.69555C14.1343 6.7242 14.1678 6.74807 14.1964 6.77195C14.2298 6.79582 14.2489 6.81015 14.2585 6.81493C14.3301 6.877 14.3874 6.94385 14.4256 7.02503L14.4781 7.11098C14.5116 7.13963 14.5402 7.18738 14.5641 7.25424C14.588 7.31631 14.6023 7.36406 14.6071 7.40226C14.6071 7.41659 14.6071 7.43091 14.6071 7.45002C14.6071 7.46912 14.6071 7.48344 14.6023 7.49777L14.6166 7.49299ZM17.2429 5.42059C17.2429 5.42059 17.2286 5.44447 17.2191 5.45402C17.2095 5.46357 17.1952 5.47312 17.1856 5.48744C17.1713 5.50177 17.157 5.52087 17.1474 5.53997C17.1331 5.55907 17.1092 5.57817 17.0758 5.59727C16.9994 5.66412 16.9087 5.7071 16.7988 5.73575C16.7463 5.74052 16.6747 5.77395 16.5744 5.83603C16.541 5.85513 16.5076 5.86945 16.4837 5.88855C16.4598 5.90288 16.4312 5.92198 16.4025 5.94108C16.3548 5.96018 16.3118 5.97928 16.2736 6.00316C16.2402 6.02703 16.2067 6.04136 16.1781 6.05091L16.0157 6.11298C15.9298 6.14641 15.8534 6.18461 15.7913 6.23236C15.7292 6.27534 15.648 6.30876 15.543 6.33741C15.5 6.35174 15.4666 6.36129 15.4475 6.37084C15.4284 6.38039 15.3997 6.38516 15.3711 6.38994C15.3329 6.38994 15.2995 6.39949 15.266 6.40904C15.2326 6.41382 15.204 6.41859 15.1849 6.40904C15.1801 6.40904 15.1658 6.40904 15.1514 6.40904C15.1371 6.40904 15.1228 6.40904 15.118 6.40904C15.1085 6.40904 15.0941 6.40904 15.075 6.40904C15.0512 6.40904 15.0368 6.40904 15.0321 6.40904C15.0082 6.40904 14.9843 6.40904 14.9604 6.40904C14.9366 6.40904 14.9127 6.40904 14.8984 6.40904C14.8554 6.40904 14.8076 6.38039 14.7551 6.33264C14.7455 6.32786 14.7408 6.31831 14.7312 6.30399C14.7217 6.28966 14.7121 6.28011 14.7073 6.27534C14.6739 6.23236 14.6644 6.17506 14.6787 6.10343C14.693 6.07478 14.7026 6.05091 14.7073 6.03658C14.7121 6.02226 14.7312 5.99838 14.7551 5.96973L14.7646 5.9554C14.7646 5.9554 14.7981 5.92198 14.822 5.8981C14.8458 5.87423 14.8697 5.84558 14.8984 5.80738C14.9366 5.7453 14.97 5.69755 14.9986 5.65935C15.0225 5.62115 15.0559 5.58772 15.0989 5.56385C15.118 5.54952 15.1371 5.53519 15.1562 5.53042C15.1753 5.52564 15.1992 5.51132 15.2231 5.49699C15.2565 5.47312 15.2947 5.45402 15.3377 5.43492C15.3806 5.42059 15.4236 5.40149 15.4666 5.38239C15.4905 5.37284 15.5096 5.36329 15.5239 5.34897C15.543 5.33464 15.5621 5.32509 15.5812 5.31554C15.6098 5.30599 15.6337 5.29644 15.6528 5.29166C15.6719 5.28689 15.691 5.27734 15.7101 5.26779C15.7674 5.24869 15.8247 5.22481 15.882 5.20571C15.9393 5.18661 15.9966 5.16274 16.0539 5.14364C16.0969 5.12454 16.1351 5.11021 16.1733 5.10066C16.2115 5.09111 16.2736 5.07201 16.3691 5.04336C16.4264 5.02426 16.4598 5.01471 16.4741 5.01471C16.4837 5.01471 16.5123 5.00993 16.5553 4.99083C16.5983 4.97173 16.6413 4.97173 16.689 4.99561L16.7606 5.02903C16.7606 5.02903 16.7988 5.03381 16.8466 5.02903C16.8943 5.02426 16.923 5.02426 16.9278 5.02903C16.9373 5.04336 16.9564 5.05768 16.9851 5.07201C17.0137 5.08633 17.0281 5.10066 17.0376 5.11021C17.0472 5.12454 17.0663 5.13409 17.0901 5.13886C17.1188 5.14364 17.1379 5.15796 17.1522 5.16751C17.1761 5.18661 17.1952 5.20094 17.2095 5.21049C17.2238 5.22481 17.2429 5.24391 17.262 5.27734C17.2811 5.32509 17.2764 5.37284 17.2429 5.42537V5.42059Z" fill="#BDBDBD"/>
<path d="M10.2808 7.24946C10.2808 7.18738 10.2856 7.12053 10.2951 7.05368C10.3142 6.96773 10.3238 6.88178 10.3142 6.78627C10.3047 6.67645 10.3047 6.58094 10.3095 6.49022C10.3142 6.39949 10.3142 6.32309 10.3095 6.25624C10.2522 6.28966 10.2044 6.31831 10.1519 6.34696C10.1041 6.37084 10.0516 6.40427 9.99909 6.43769C9.92746 6.47112 9.86061 6.50454 9.79853 6.53319C9.73646 6.56184 9.67438 6.59049 9.62185 6.62392C9.52157 6.66212 9.43562 6.70032 9.35922 6.73852C9.28282 6.77672 9.21119 6.81015 9.13957 6.84835C9.06794 6.88655 9.02019 6.90565 8.99154 6.90565C8.96289 6.90565 8.91991 6.91998 8.86261 6.93908C8.81963 6.95818 8.78143 6.96773 8.74801 6.9725C8.70981 6.9725 8.68116 6.98683 8.6525 7.00593C8.56655 7.04413 8.50448 7.06323 8.4615 7.06801C8.38987 7.09188 8.31825 7.11576 8.2514 7.14441C8.17977 7.17306 8.11769 7.19216 8.06039 7.19693C8.03174 7.19693 7.97921 7.21126 7.89804 7.23514C7.81686 7.25901 7.69271 7.27811 7.5208 7.30199C7.49215 7.30199 7.4444 7.31631 7.38232 7.33064C7.31547 7.34496 7.1961 7.35451 7.02419 7.36406C6.95256 7.36406 6.87139 7.35451 6.78544 7.34974C6.69948 7.34974 6.61831 7.34019 6.5419 7.33541C6.52758 7.33541 6.5037 7.33541 6.47505 7.33541C6.4464 7.33541 6.42253 7.33541 6.4082 7.33541C6.36523 7.34019 6.31747 7.33541 6.26495 7.33541C6.21242 7.32586 6.17422 7.32109 6.1408 7.30676C6.08349 7.30199 6.01187 7.27334 5.92591 7.23036C5.83996 7.18738 5.77789 7.15396 5.73014 7.13008C5.62508 7.07278 5.54868 7.03458 5.51048 7.00115C5.47228 6.9725 5.42453 6.89133 5.36723 6.7624C5.32903 6.65735 5.30993 6.57617 5.30993 6.52364C5.30993 6.46634 5.32903 6.39949 5.36723 6.31354C5.38155 6.28489 5.40543 6.25624 5.4484 6.22281C5.49138 6.18939 5.52003 6.16073 5.54868 6.12731C5.62508 6.03658 5.72536 5.98883 5.83996 5.98883C5.86861 5.99838 5.90204 6.01748 5.94024 6.03658C5.97844 6.06046 6.01187 6.07478 6.04529 6.08433C6.12169 6.10343 6.2745 6.09866 6.5037 6.07001C6.64696 6.04136 6.78066 5.99838 6.90959 5.95063C7.03374 5.90288 7.12924 5.86468 7.18177 5.84558C7.26772 5.80738 7.36322 5.7644 7.47783 5.71665C7.58765 5.6689 7.72136 5.61637 7.87894 5.5543C7.93624 5.52087 7.99831 5.48744 8.06517 5.44924C8.13202 5.41582 8.19887 5.38717 8.2514 5.36329C8.3087 5.34419 8.37555 5.31554 8.4615 5.27734C8.54268 5.23914 8.6143 5.20571 8.66683 5.17229C8.75278 5.11976 8.83873 5.07201 8.93901 5.01948C9.03451 4.96696 9.13002 4.9001 9.22552 4.81893C9.26849 4.7855 9.31147 4.74253 9.364 4.69C9.41652 4.63747 9.46427 4.58017 9.50247 4.5181C9.51202 4.48945 9.54068 4.43214 9.58365 4.34619C9.62663 4.26024 9.6696 4.16474 9.7078 4.06446C9.75078 3.96418 9.78898 3.86868 9.82241 3.78273C9.85583 3.69678 9.87971 3.62993 9.89403 3.59172C9.92746 3.49145 9.96566 3.36729 9.99909 3.21927C10.0373 3.07124 10.0659 2.95663 10.085 2.87068C10.0946 2.82771 10.0994 2.7513 10.0946 2.63193C10.0946 2.51732 10.0898 2.43615 10.085 2.39795C10.0612 2.31677 10.0468 2.24514 10.0421 2.17829L10.0182 1.93476C10.0039 1.91088 9.98476 1.84881 9.97044 1.75808C9.95611 1.66258 9.94656 1.60528 9.94178 1.57663C9.92268 1.53843 9.90836 1.47635 9.90358 1.39517C9.89881 1.32832 9.90358 1.27579 9.92268 1.23759C9.94179 1.19939 9.96089 1.16119 9.98954 1.11822C9.99909 1.08957 10.0182 1.06091 10.0373 1.02749C10.0564 0.998838 10.0755 0.951087 10.0994 0.874685C10.1232 0.803058 10.1614 0.750532 10.214 0.707556C10.2665 0.669355 10.3238 0.631154 10.3811 0.592953C10.4336 0.559528 10.467 0.530877 10.4814 0.511776C10.4957 0.487901 10.5196 0.464025 10.5626 0.430599C10.5864 0.421049 10.6294 0.416274 10.6581 0.411499H2.14403C0.969348 0.425824 0.00477511 1.3904 0.00477511 2.56508V4.48467C0.0477511 4.47034 0.105052 4.44647 0.143253 4.43214C0.21488 4.40827 0.262631 4.40349 0.296057 4.41304C0.324708 4.42259 0.372459 4.42259 0.42976 4.41304C0.544363 4.39872 0.64464 4.39872 0.725817 4.41304C0.806994 4.42259 0.916822 4.45124 1.05052 4.48467C1.07918 4.47034 1.09828 4.46079 1.1126 4.46557C1.12693 4.47034 1.14603 4.45602 1.17468 4.42737C1.23198 4.39394 1.27973 4.36529 1.32271 4.33664C1.36568 4.31277 1.42776 4.27934 1.50894 4.24114C1.57579 4.19339 1.66174 4.14564 1.77157 4.10744C1.87662 4.06924 1.97212 4.03103 2.05807 3.99283C2.08672 3.97851 2.19655 3.94031 2.38756 3.88301C2.57856 3.8257 2.70749 3.77795 2.77912 3.74453C2.91759 3.68723 3.06085 3.64903 3.2041 3.6347C3.24708 3.62993 3.29483 3.6156 3.34258 3.5965C3.39033 3.5774 3.46196 3.5774 3.54791 3.5965C3.60521 3.60127 3.66251 3.60605 3.71026 3.60605C3.76279 3.60605 3.82487 3.60605 3.89649 3.6156C4.01109 3.6156 4.15435 3.65858 4.32625 3.7493C4.40265 3.81138 4.49338 3.88778 4.58888 3.98328C4.63663 4.03103 4.67484 4.09789 4.70826 4.18384C4.73691 4.26979 4.73691 4.39394 4.70826 4.56107C4.68916 4.68522 4.68916 4.80938 4.69871 4.92876C4.70826 5.04813 4.70826 5.16751 4.68916 5.27734C4.69871 5.35852 4.69871 5.43492 4.68916 5.51132C4.68439 5.58772 4.67484 5.65935 4.66529 5.73097C4.66051 5.81215 4.65574 5.8981 4.65574 5.97928C4.65574 6.06046 4.64618 6.14641 4.62231 6.22759C4.61276 6.28489 4.60798 6.37084 4.60321 6.48544C4.60321 6.60482 4.59366 6.69077 4.58411 6.7433C4.56978 6.88178 4.55546 7.04413 4.54113 7.23036C4.52681 7.41659 4.53636 7.55507 4.56023 7.64579C4.55546 7.72697 4.55546 7.81292 4.56023 7.90365C4.56978 7.9896 4.56023 8.07078 4.53636 8.14241C4.57933 8.12331 4.62231 8.10421 4.67484 8.08511C4.72259 8.06601 4.76079 8.0469 4.78944 8.03258C4.86107 7.99915 4.93269 7.99438 5.00909 8.0278C5.0855 8.06123 5.13325 8.12808 5.15712 8.23313C5.2001 8.36684 5.181 8.49577 5.1046 8.62947C5.08072 8.68677 5.05207 8.74407 5.01864 8.79182C4.98522 8.84435 4.94702 8.8921 4.88972 8.93985C4.84674 8.97328 4.79899 9.0067 4.73691 9.04013C4.67484 9.07355 4.62231 9.10698 4.58411 9.14041C4.51248 9.17861 4.44563 9.21681 4.374 9.25978C4.30715 9.30276 4.22598 9.36484 4.13047 9.44124C4.07317 9.47466 3.99677 9.51764 3.89172 9.56062C3.78666 9.60837 3.71504 9.64657 3.67206 9.67999C3.60044 9.71342 3.54313 9.74207 3.49538 9.76117C3.44286 9.78027 3.39988 9.79937 3.3569 9.81847C3.32825 9.83757 3.27573 9.86145 3.19933 9.8901C3.12292 9.91875 3.04652 9.95218 2.97967 9.99038C2.66929 10.0954 2.44486 10.1814 2.30638 10.253C2.23475 10.2864 2.15835 10.3199 2.06285 10.3437C1.97212 10.3676 1.89094 10.3915 1.81932 10.4154C1.70472 10.4583 1.60921 10.4918 1.53281 10.5204C1.45641 10.5491 1.33703 10.5729 1.17945 10.592C1.10783 10.6016 1.02665 10.5968 0.935922 10.5825C0.845195 10.5682 0.773568 10.5347 0.706717 10.487C0.630315 10.4297 0.573014 10.3772 0.539588 10.3437C0.506162 10.3199 0.00955023 8.76317 0 8.74885V17.4396C0 18.619 0.964573 19.5788 2.13925 19.5788H8.29915L9.27804 13.5813C9.09659 13.6433 8.93424 13.6959 8.80053 13.7293C8.66683 13.7627 8.54268 13.8057 8.42807 13.8439C8.35645 13.8821 8.27527 13.9107 8.17499 13.9346C8.07472 13.9585 7.98876 13.9776 7.91714 13.9871L7.78821 14.0015C7.70226 14.011 7.61153 14.0349 7.5208 14.0731C7.43008 14.1113 7.33457 14.1352 7.2343 14.1495C7.19132 14.1543 7.14357 14.1638 7.09582 14.1781C7.04329 14.1925 7.00032 14.202 6.95734 14.2068L6.87139 14.2164C6.75678 14.2593 6.63263 14.2832 6.49893 14.3023C6.36045 14.3166 6.2363 14.3357 6.1217 14.3501L5.82086 14.3883C5.70626 14.4026 5.60121 14.393 5.51048 14.3644C5.4484 14.3453 5.40065 14.331 5.36245 14.3214C5.32425 14.3119 5.28605 14.2975 5.2383 14.2737C5.09982 14.1925 4.98044 14.0874 4.88017 13.9489C4.75124 13.8009 4.65574 13.629 4.58888 13.4332C4.56978 13.3664 4.55068 13.3043 4.53636 13.2422C4.52203 13.1849 4.51248 13.1181 4.50771 13.0512L4.49338 12.8889C4.49338 12.8602 4.49338 12.8316 4.49338 12.7981C4.49338 12.7647 4.49338 12.6931 4.48383 12.5833C4.48383 12.5403 4.48383 12.4687 4.50771 12.3541L4.54591 12.0437C4.54591 12.0437 4.56501 12.0055 4.56023 11.9816C4.55546 11.9291 4.56023 11.8861 4.56978 11.8574C4.59366 11.7858 4.61276 11.7094 4.62708 11.6235C4.64141 11.5423 4.66051 11.4563 4.67961 11.3704C4.70349 11.3131 4.71781 11.2606 4.72259 11.2128C4.72259 11.1651 4.73691 11.1125 4.76079 11.0552C4.77034 11.0266 4.77989 10.9979 4.78466 10.9693C4.78944 10.9406 4.79899 10.912 4.80854 10.8833C4.82764 10.7974 4.86584 10.7114 4.91359 10.6255C4.93747 10.5682 4.97567 10.5204 5.03297 10.4774C5.0855 10.4392 5.14757 10.3915 5.2192 10.3437C5.24785 10.3151 5.29083 10.2864 5.3529 10.2673C5.41498 10.2482 5.47228 10.2387 5.51526 10.2482C5.54391 10.2482 5.60121 10.2482 5.67761 10.2578C5.75879 10.2673 5.81609 10.2721 5.84474 10.2673C5.87339 10.2769 5.92114 10.2769 5.98799 10.2673C6.05484 10.2578 6.10259 10.2578 6.13124 10.2673C6.1599 10.2769 6.20765 10.2912 6.26495 10.3103C6.32702 10.3294 6.37478 10.3819 6.4082 10.4583C6.43208 10.5634 6.43685 10.6684 6.41775 10.7639V10.783C6.41775 10.8117 6.41775 10.8451 6.4082 10.8881C6.39865 10.9311 6.38433 10.9645 6.37478 10.9931C6.36045 11.0218 6.3509 11.0552 6.34135 11.0982C6.3318 11.1412 6.32702 11.1698 6.32702 11.1842C6.30315 11.2558 6.2936 11.3179 6.28882 11.3752C6.28882 11.4325 6.2745 11.4802 6.24585 11.5232C6.20765 11.5948 6.18855 11.7142 6.19332 11.8765C6.18377 11.9434 6.18377 12.0246 6.18377 12.1105C6.18377 12.2013 6.18377 12.292 6.179 12.3875L6.18855 12.5116C6.19332 12.5785 6.20765 12.631 6.22675 12.6692C6.24585 12.7074 6.2554 12.7456 6.26017 12.7886C6.26017 12.8268 6.28405 12.8745 6.31747 12.9271C6.33658 12.9509 6.3509 12.9748 6.37 12.9939C6.38433 13.013 6.40343 13.0369 6.41775 13.0608C6.4846 13.1754 6.59921 13.2231 6.75678 13.204C6.82841 13.1945 6.89526 13.1897 6.95256 13.1897C7.00987 13.1897 7.07672 13.1802 7.14834 13.1563C7.21997 13.1324 7.30592 13.1181 7.4062 13.1037C7.50648 13.0894 7.58765 13.0894 7.64496 13.0942C7.65451 13.0655 7.73091 13.0417 7.86939 13.0273C8.00786 13.013 8.10814 12.9844 8.17977 12.9509C8.19409 12.9509 8.2705 12.9271 8.4042 12.8936C8.5379 12.8554 8.6143 12.8363 8.62863 12.8363C8.69548 12.7981 8.79098 12.7647 8.91514 12.7313C9.03451 12.6979 9.13002 12.674 9.20642 12.6644C9.27804 12.6453 9.3449 12.6167 9.40697 12.588C9.4213 12.5833 9.4404 12.5833 9.45472 12.5737L10.2951 7.43091C10.2904 7.36406 10.2856 7.29721 10.2856 7.23991L10.2808 7.24946ZM5.26695 4.29367C5.26217 4.22681 5.2574 4.16474 5.26217 4.11221C5.26217 4.05491 5.29083 3.99283 5.34335 3.91643C5.38155 3.85913 5.41498 3.79228 5.44363 3.72065C5.47228 3.64903 5.52003 3.58217 5.58688 3.5201C5.69193 3.41027 5.82086 3.29089 5.96889 3.15719C6.11692 3.02349 6.27927 2.91366 6.46073 2.82293C6.55623 2.78473 6.66128 2.73698 6.77589 2.68445C6.88571 2.63193 6.98599 2.58418 7.07194 2.54597C7.08627 2.54597 7.12924 2.52687 7.1961 2.49822C7.26772 2.46957 7.3298 2.45047 7.3871 2.4457C7.4444 2.44092 7.53035 2.41705 7.64496 2.37407C7.71658 2.34064 7.78343 2.32154 7.85984 2.32632C7.93146 2.33109 8.00786 2.32632 8.07472 2.30244C8.11769 2.30244 8.16067 2.28812 8.20364 2.27857C8.24662 2.26902 8.2896 2.25947 8.33257 2.25469L8.52835 2.23082C8.64773 2.24514 8.76233 2.24514 8.87693 2.24037C8.99154 2.23559 9.11092 2.24037 9.23029 2.26902C9.39265 2.29289 9.52635 2.3693 9.62663 2.50777C9.66005 2.53165 9.67915 2.5794 9.68393 2.64625C9.69348 2.75608 9.67915 2.85636 9.63618 2.95186C9.5932 3.04736 9.54545 3.12854 9.4977 3.20494C9.46905 3.23359 9.44995 3.26702 9.4404 3.29567C9.42607 3.32432 9.40697 3.35297 9.3831 3.38639C9.35445 3.41505 9.3258 3.4437 9.29237 3.46757C9.25894 3.49145 9.20642 3.51055 9.13002 3.51532C9.10137 3.51532 9.06794 3.53442 9.02496 3.5583C8.98199 3.58217 8.93424 3.60127 8.87693 3.60605C8.80531 3.62993 8.73846 3.64425 8.6716 3.64903C8.60475 3.65858 8.5379 3.6729 8.46627 3.692C8.4233 3.7111 8.37077 3.72065 8.30392 3.72065C8.23707 3.72065 8.18932 3.72065 8.16544 3.72543C8.15112 3.72543 8.11769 3.73498 8.06994 3.74453C8.02219 3.75885 7.98876 3.76363 7.97444 3.7684C7.81686 3.80183 7.71658 3.82093 7.67361 3.8257C7.63063 3.83048 7.59243 3.83526 7.56378 3.84003C7.44918 3.88301 7.33935 3.91166 7.22475 3.93076C7.11014 3.94986 6.99554 3.98328 6.88571 4.02148C6.81409 4.04536 6.75201 4.05491 6.70426 4.06446C6.65173 4.06924 6.59921 4.08834 6.54668 4.12176L6.44163 4.17429C6.37 4.21249 6.31747 4.24591 6.2745 4.27457C6.2363 4.30799 6.1981 4.33187 6.17422 4.34619C6.1599 4.34619 6.13124 4.36052 6.08827 4.38917C6.04529 4.41304 6.01187 4.43692 5.98322 4.45124C5.91159 4.48945 5.85906 4.52765 5.82086 4.5754L5.72059 4.69C5.69193 4.71865 5.65851 4.74253 5.61553 4.75208C5.57256 4.76163 5.53436 4.75685 5.50571 4.73298C5.47228 4.7091 5.43885 4.6709 5.39588 4.62315C5.3529 4.57062 5.3338 4.5372 5.32903 4.50855C5.32903 4.4799 5.3147 4.44647 5.2956 4.39872C5.2765 4.35097 5.26695 4.31754 5.26217 4.28889L5.26695 4.29367Z" fill="#BDBDBD"/>
<path d="M16.7654 15.2048C16.8466 15.0281 16.9278 14.8467 17.0137 14.6604C17.0137 14.6079 17.0424 14.5554 17.0806 14.5029C17.1188 14.4503 17.1427 14.3978 17.1474 14.3453C17.1474 14.331 17.1618 14.2975 17.1904 14.2355C17.2191 14.1781 17.2286 14.1399 17.2334 14.1256C17.2716 14.0301 17.3098 13.9442 17.3528 13.8678C17.3957 13.7866 17.4339 13.7054 17.4721 13.6099C17.4865 13.5813 17.5008 13.5526 17.5103 13.5096C17.5199 13.4714 17.5342 13.4285 17.5533 13.3903C17.5533 13.3377 17.5724 13.2661 17.6011 13.1801C17.6297 13.0942 17.6584 13.0321 17.6918 12.9939C17.7109 12.9557 17.7348 12.8841 17.773 12.7743C17.8112 12.6835 17.8303 12.5928 17.8398 12.5069C17.8494 12.4209 17.8637 12.3206 17.8876 12.2156C17.8876 12.1726 17.8971 12.1344 17.9067 12.0962C17.9162 12.058 17.9258 12.0102 17.9305 11.9577C17.921 11.9052 17.921 11.8383 17.9353 11.7667C17.9496 11.6951 17.9449 11.6235 17.921 11.5518C17.9114 11.5089 17.9019 11.4659 17.9019 11.4086C17.9019 11.3561 17.878 11.2988 17.8398 11.2462L17.7634 11.1651L17.7873 10.7353C17.3862 10.5968 16.9134 10.6541 16.4837 10.7735C16.4741 10.7735 16.4598 10.7878 16.455 10.7878C16.4359 10.7878 16.4073 10.8021 16.3834 10.8165C16.3404 10.8212 16.2927 10.8403 16.2354 10.8738C16.2211 10.8738 16.1685 10.8976 16.0778 10.9358C16.0444 10.9502 15.8534 11.0266 15.6194 11.1173C15.5812 11.1364 15.5334 11.1603 15.5048 11.1794L15.4952 11.1651C15.0989 11.3226 14.6357 11.5041 14.5736 11.5375C14.4877 11.5709 12.2911 12.4543 11.2358 12.8841C10.7774 15.5438 10.2856 18.3946 10.085 19.5836H14.8076C14.8363 19.5215 14.8602 19.4594 14.8745 19.3926C14.8888 19.3209 14.9079 19.2636 14.9413 19.2254C15.0082 19.1204 15.0559 19.0058 15.0894 18.8769C15.1228 18.7479 15.1705 18.6477 15.2326 18.5713C15.2326 18.5426 15.2613 18.4758 15.3138 18.3707C15.3663 18.2656 15.4332 18.1463 15.5143 18.0173C15.5478 17.9505 15.5764 17.8836 15.5955 17.8168C15.6146 17.7499 15.6337 17.6831 15.6528 17.6162C15.6719 17.5351 15.7149 17.4539 15.7674 17.3679C15.8247 17.282 15.8725 17.2008 15.9059 17.1196C15.9202 17.091 15.9489 17.0241 15.9871 16.9191C16.0253 16.814 16.0683 16.6994 16.1112 16.58C16.159 16.4607 16.202 16.3556 16.2449 16.2649C16.2879 16.1741 16.3261 16.1216 16.3548 16.1073C16.3739 16.0261 16.3977 15.964 16.4216 15.9211C16.4455 15.8733 16.4789 15.8208 16.5123 15.7539C16.5983 15.5677 16.6842 15.3863 16.7606 15.2096L16.7654 15.2048Z" fill="#BDBDBD"/>
<path d="M3.30915 5.30599C3.3187 5.23436 3.32348 5.16751 3.33303 5.10066C3.34258 5.02903 3.34735 4.94308 3.35213 4.83325C3.34735 4.7664 3.3378 4.71388 3.32825 4.68045C3.3187 4.64702 3.30438 4.61837 3.28528 4.5945C3.11337 4.6136 2.95102 4.66135 2.79822 4.73775C2.78389 4.73775 2.74569 4.75208 2.67884 4.78073C2.61676 4.80938 2.54514 4.83803 2.46873 4.86668C2.39233 4.89533 2.3207 4.92876 2.25863 4.95263C2.19655 4.98128 2.15835 4.99561 2.14403 4.99561C1.98645 5.05291 1.84319 5.12454 1.71427 5.20094C1.58056 5.27734 1.44208 5.35374 1.28928 5.42537C1.30838 5.47789 1.32748 5.54952 1.34181 5.63547C1.35613 5.72142 1.36568 5.79783 1.37523 5.86945C1.38001 5.9363 1.38956 6.00316 1.39433 6.07478C1.39911 6.14163 1.41343 6.20849 1.43731 6.27534C1.45163 6.29921 1.46596 6.35174 1.47073 6.42337C1.48028 6.49977 1.49461 6.58094 1.51849 6.67167C1.54236 6.75285 1.55669 6.82925 1.57579 6.91043C1.59011 6.9916 1.59966 7.04413 1.59966 7.07278C1.61399 7.09666 1.64741 7.18738 1.69039 7.34974C1.73337 7.50732 1.75724 7.60282 1.76202 7.62669C1.80977 7.7986 1.83842 7.97528 1.85752 8.15673C1.87184 8.33819 1.89094 8.42891 1.90527 8.42891C1.91482 8.52442 1.92437 8.61037 1.9387 8.69154C1.95302 8.77272 1.97212 8.84435 1.99122 8.9112C2.01032 8.9494 2.01987 8.98283 2.01987 9.01148C2.01987 9.04013 2.02942 9.064 2.04852 9.08788C2.07717 9.07355 2.14403 9.04013 2.25863 9.00193C2.36846 8.95895 2.48306 8.92075 2.59766 8.87777C2.71226 8.8348 2.80777 8.80137 2.88417 8.77272C2.96057 8.74407 3.0131 8.7202 3.04175 8.7011C3.15635 8.67244 3.29005 8.62469 3.44286 8.54829L3.32825 8.27611C3.29483 8.21403 3.2614 8.08988 3.23753 7.90843C3.21365 7.72697 3.19933 7.60282 3.18978 7.53597C3.185 7.46912 3.17545 7.39749 3.16112 7.32586C3.1468 7.25424 3.1468 7.15873 3.1659 7.04891C3.185 6.93908 3.19455 6.82925 3.18978 6.71942C3.18978 6.6096 3.18978 6.49977 3.21365 6.38994L3.27573 6.11776C3.27573 6.11776 3.27573 6.08911 3.2805 6.06523C3.28528 6.04136 3.28528 6.01271 3.2805 5.97451C3.2805 5.86468 3.2805 5.77873 3.2805 5.71665C3.27573 5.65457 3.2805 5.57817 3.2996 5.47789C3.2996 5.43969 3.2996 5.38239 3.30438 5.31554L3.30915 5.30599Z" fill="#BDBDBD"/>
<path d="M19.067 13.1467L18.9524 13.333L18.8617 13.3807L18.8187 13.6099L18.7566 13.6815L18.7328 13.7914L18.7041 13.906L18.642 14.0301L18.5609 14.1638L18.5465 14.331L18.58 14.3739H18.642L18.6182 14.4169L18.5609 14.5984H18.537L18.4845 14.8753L18.4606 14.8896L18.4224 14.9374H18.3746L18.2409 15.2478L18.2791 15.2764L18.1741 15.5295L18.0834 15.4865L18.0261 15.6059L18.0547 15.711L17.9735 15.8065L17.9926 15.8256L17.9114 16.0452L17.9019 16.1455C17.9019 16.198 17.8398 16.2553 17.7395 16.3126C17.6345 16.3699 17.582 16.432 17.5724 16.4989L17.6297 16.58L17.5629 16.8809L17.4339 17.1387C17.4339 17.1674 17.4148 17.2103 17.3814 17.2676C17.348 17.3297 17.3241 17.3679 17.3098 17.3966L17.2811 17.4587L17.1761 17.4348L17.1474 17.516L17.2525 17.5398V17.5589C17.2525 17.5828 17.2382 17.6162 17.2238 17.6592C17.2047 17.6974 17.1856 17.7404 17.1713 17.7786L17.0663 17.9935L17.0042 17.9744L17.0663 17.7356H17.0233L16.8609 18.151L16.7702 18.2465L16.7606 18.3659L16.6842 18.5044L16.6508 18.662L16.5219 18.9007L16.5601 18.9628L16.6699 18.9055H16.7988L16.7893 19.0106H16.7463C16.7463 19.0106 16.7081 19.0201 16.6795 19.0488C16.646 19.0726 16.6269 19.0917 16.6126 19.1061L16.5744 19.3066L16.5171 19.4881V19.5072C16.5171 19.5406 16.5076 19.5597 16.5028 19.5884H17.0376C18.2123 19.5884 19.1769 18.6238 19.1769 17.4491V13.0846L19.1482 13.1611H19.0861L19.067 13.1467ZM16.732 19.3066L16.689 19.3257L16.6986 19.1825L16.7654 19.1443L16.732 19.3066ZM16.7941 18.8434H16.7081L16.7606 18.7002L16.8227 18.7241L16.7893 18.8434H16.7941ZM16.8896 18.5665C16.88 18.6047 16.8609 18.6238 16.8323 18.6238C16.8323 18.5951 16.8418 18.5569 16.8514 18.5044C16.8609 18.4519 16.8848 18.4232 16.9134 18.428L16.9517 18.471C16.923 18.4996 16.8991 18.5283 16.8896 18.5713V18.5665ZM17.0281 18.3468H16.9421L16.923 18.3229L16.9755 18.2418H17.0376L17.0281 18.3468ZM17.0424 18.1845H16.9994L17.0281 18.0842L17.071 18.1081L17.0424 18.1892V18.1845ZM17.7252 16.6039L17.7061 16.5609V16.5418L17.73 16.5036L17.7777 16.4654L17.7968 16.5084L17.7252 16.6087V16.6039ZM17.7395 16.4416L17.7013 16.4177L17.7921 16.3413L17.8112 16.3843L17.7395 16.4416ZM17.878 16.3461L17.8398 16.3031L17.9114 16.2267L17.9305 16.2696L17.8828 16.3508L17.878 16.3461ZM18.112 15.8542L18.0643 15.9115H18.0213L18.0308 15.8303L18.0977 15.773H18.1407L18.112 15.8542ZM18.1025 15.6919L18.0643 15.6107L18.0881 15.5725L18.1502 15.5964L18.0977 15.6966L18.1025 15.6919ZM18.6802 14.1829L18.6277 14.3023L18.5847 14.3214L18.5943 14.202L18.6946 14.0444L18.7375 14.0253L18.6802 14.1829ZM19.067 13.4285L19.024 13.4476L18.9906 13.586L18.9429 13.6624L18.9142 13.7436H18.8712L18.7614 13.7579L18.7901 13.7006L18.8808 13.6433L18.8999 13.4428L18.9476 13.4046H18.9954L19.0527 13.3091H19.11L19.0766 13.4285H19.067Z" fill="#BDBDBD"/>
<path d="M72.2475 17.2342H71.7461V19.5215H72.2475V17.2342Z" fill="#BDBDBD"/>
<path d="M73.8805 18.2036L73.2025 17.239H72.7202V19.5263H73.2025V18.6095C73.2025 18.4184 73.2025 18.2036 73.1977 18.0412H73.2025C73.3075 18.1988 73.4221 18.3659 73.5367 18.5283L73.8662 19.001L74.2005 18.5331C74.3151 18.3707 74.4297 18.2036 74.5347 18.046H74.5395C74.5395 18.2131 74.5347 18.428 74.5347 18.619V19.5358H75.0361V17.2485H74.5634L73.8853 18.2131L73.8805 18.2036Z" fill="#BDBDBD"/>
<path d="M76.6692 18.2083L75.9911 17.2438H75.5089V19.531H75.9911V18.6142C75.9911 18.4232 75.9911 18.2083 75.9864 18.046H75.9911C76.0962 18.2036 76.2108 18.3707 76.3254 18.5331L76.6549 19.0058L76.9891 18.5378C77.1037 18.3755 77.2183 18.2083 77.3234 18.0508H77.3282C77.3282 18.2179 77.3234 18.4328 77.3234 18.6238V19.5406H77.8248V17.2533H77.352L76.674 18.2179L76.6692 18.2083Z" fill="#BDBDBD"/>
<path d="M79.7826 18.4184C79.7826 18.6572 79.7539 18.8148 79.6823 18.9246C79.6059 19.0392 79.477 19.1156 79.2764 19.1156C79.0615 19.1156 78.9278 19.0249 78.861 18.9151C78.7941 18.8052 78.775 18.6572 78.775 18.4184V17.2485H78.2736V18.4376C78.2736 18.7623 78.3214 19.0106 78.4408 19.1968C78.6031 19.4355 78.8992 19.5693 79.2621 19.5693C79.6298 19.5693 79.9211 19.4355 80.0834 19.2016C80.2123 19.0201 80.2601 18.767 80.2601 18.4232V17.2438H79.7778V18.4184H79.7826Z" fill="#BDBDBD"/>
<path d="M82.2991 18.0937C82.2991 18.3134 82.2991 18.5378 82.3038 18.7527H82.2991C82.1558 18.5569 82.0173 18.3659 81.8693 18.1654L81.1865 17.2438H80.7137V19.531H81.196V18.6811C81.196 18.4614 81.196 18.237 81.1912 18.0221H81.196C81.3393 18.2179 81.4777 18.4089 81.6258 18.6095L82.3086 19.531H82.7814V17.2438H82.2991V18.0937Z" fill="#BDBDBD"/>
<path d="M83.7555 18.5522H84.5386V18.1367L83.7555 18.1319V17.6879H84.6627V17.2485H83.2541L83.2493 19.531H84.6962V19.0965L83.7555 19.0917V18.5522Z" fill="#BDBDBD"/>
<path d="M87.3702 18.1319H86.3818V17.2485H85.8804V19.5358H86.3818V18.5713H87.3702V19.5358H87.8716V17.2485H87.3702V18.1319Z" fill="#BDBDBD"/>
<path d="M89.4379 17.2151C88.7598 17.2151 88.2441 17.7261 88.2441 18.3898C88.2441 19.0535 88.755 19.5693 89.4379 19.5693C90.1159 19.5693 90.6316 19.0583 90.6316 18.3946C90.6316 17.7261 90.1159 17.2151 89.4379 17.2151ZM89.4331 19.1156C89.0368 19.1156 88.7407 18.7957 88.7407 18.3898C88.7407 17.9839 89.0368 17.6688 89.4331 17.6688C89.8294 17.6688 90.1255 17.9887 90.1255 18.3946C90.1255 18.8005 89.8294 19.1156 89.4331 19.1156Z" fill="#BDBDBD"/>
<path d="M91.9018 18.1845C91.6249 18.0937 91.4148 18.0746 91.4148 17.8741C91.4148 17.7213 91.5389 17.6592 91.7108 17.6592C91.8875 17.6592 92.1692 17.7308 92.4128 17.8789V17.3822C92.2122 17.2724 91.94 17.2199 91.7156 17.2151C91.2333 17.2151 90.9134 17.4778 90.9134 17.9075C90.9134 18.3038 91.1951 18.4614 91.5103 18.5665C91.8015 18.662 92.0164 18.6811 92.0164 18.8912C92.0164 19.0631 91.8779 19.1347 91.6965 19.1347C91.515 19.1347 91.2094 19.0631 90.9659 18.896V19.4021C91.1808 19.512 91.4625 19.5693 91.6869 19.5693C92.1788 19.5693 92.5178 19.3018 92.5178 18.8578C92.5178 18.4519 92.2409 18.2943 91.897 18.1797L91.9018 18.1845Z" fill="#BDBDBD"/>
<path d="M94.2321 17.3775C94.0506 17.282 93.8262 17.2581 93.554 17.2581H92.8759V19.5454H93.3773V18.7288H93.5349C93.8692 18.7288 94.0984 18.6906 94.275 18.5856C94.4661 18.471 94.6045 18.2704 94.6045 17.9887C94.6045 17.6783 94.4326 17.4825 94.2368 17.3775H94.2321ZM93.9551 18.2609C93.8692 18.3086 93.7546 18.3182 93.5588 18.3182H93.3773V17.6974H93.5492C93.7259 17.6974 93.8501 17.7022 93.9408 17.7452C94.0458 17.7929 94.1031 17.8836 94.1031 18.0126C94.1031 18.1272 94.0506 18.2131 93.9599 18.2609H93.9551Z" fill="#BDBDBD"/>
<path d="M95.445 17.2581H94.9436V19.5454H95.445V17.2581Z" fill="#BDBDBD"/>
<path d="M97.737 17.2581H95.7553V17.6974H96.4955L96.4907 19.5454H96.9969V17.6974H97.737V17.2581Z" fill="#BDBDBD"/>
<path d="M98.4867 17.2581L97.5556 19.5406H98.0713L98.2575 19.0631H99.1791L99.3605 19.5454H99.8954L98.969 17.2581H98.4819H98.4867ZM98.4151 18.6715L98.5058 18.428C98.5774 18.237 98.6634 18.0078 98.7207 17.8359H98.7255C98.7875 18.0078 98.8687 18.237 98.9356 18.4184L99.0311 18.6763H98.4151V18.6715Z" fill="#BDBDBD"/>
<path d="M100.674 17.2629H100.172V19.5454L101.676 19.5502V19.1108H100.674V17.2629Z" fill="#BDBDBD"/>
<path d="M103.405 17.9314C103.162 17.9314 102.951 18.0269 102.803 18.1845C102.636 18.3611 102.546 18.6095 102.546 18.8387C102.546 19.2732 102.856 19.5549 103.276 19.5549C103.52 19.5549 103.73 19.4594 103.878 19.3018C104.045 19.1252 104.136 18.8769 104.136 18.6477C104.136 18.2131 103.825 17.9314 103.405 17.9314ZM103.677 19.1347C103.582 19.2398 103.448 19.2971 103.3 19.2971C102.999 19.2971 102.832 19.087 102.832 18.8196C102.832 18.6477 102.899 18.471 103.009 18.3516C103.104 18.2465 103.238 18.1892 103.386 18.1892C103.687 18.1892 103.854 18.3993 103.854 18.6668C103.854 18.8387 103.787 19.0153 103.677 19.1347Z" fill="#BDBDBD"/>
<path d="M105.057 17.1912C104.967 17.2629 104.895 17.3918 104.861 17.5876L104.795 17.9648H104.551L104.508 18.2179H104.752L104.522 19.5167H104.804L105.033 18.2179H105.42L105.463 17.9648H105.076L105.138 17.6306C105.162 17.4873 105.201 17.43 105.243 17.3918C105.291 17.3488 105.353 17.3297 105.43 17.3297C105.501 17.3297 105.568 17.344 105.635 17.3727L105.678 17.1148C105.602 17.091 105.516 17.0719 105.434 17.0719C105.291 17.0719 105.158 17.1053 105.057 17.1912Z" fill="#BDBDBD"/>
<path d="M108.452 17.2629H107.86L107.063 18.2752L107.053 18.2704V17.2629H106.552V19.5502L107.053 19.5454V18.4089L107.063 18.4041L107.913 19.5454H108.529L107.593 18.3229L108.452 17.2629Z" fill="#BDBDBD"/>
<path d="M109.746 17.2247C109.068 17.2247 108.553 17.7356 108.553 18.4041C108.553 19.0679 109.068 19.5788 109.746 19.5788C110.424 19.5788 110.94 19.0679 110.94 18.3993C110.94 17.7308 110.424 17.2247 109.746 17.2247ZM109.746 19.1252C109.35 19.1252 109.054 18.8052 109.054 18.4041C109.054 17.9982 109.35 17.6831 109.746 17.6783C110.143 17.6783 110.439 17.9982 110.439 18.3993C110.439 18.8052 110.143 19.1204 109.746 19.1252Z" fill="#BDBDBD"/>
<path d="M113.013 17.9457C113.013 17.6831 112.903 17.5112 112.736 17.4109C112.554 17.2963 112.296 17.2581 112.024 17.2581H111.308V19.5454H111.809V18.6429H112.034L112.611 19.5454H113.189L112.545 18.5808C112.845 18.4805 113.008 18.2418 113.008 17.9505L113.013 17.9457ZM112.382 18.2083C112.306 18.2465 112.201 18.2609 112.067 18.2609H111.814V17.6926H112.005C112.177 17.6926 112.301 17.7117 112.382 17.7499C112.473 17.7977 112.511 17.8645 112.511 17.9744C112.511 18.0842 112.468 18.1606 112.382 18.2036V18.2083Z" fill="#BDBDBD"/>
<path d="M113.925 19.1013V18.5617L114.708 18.5569V18.1415H113.925V17.6926H114.837L114.832 17.2533L113.423 17.2581V19.5406H114.87V19.1013H113.925Z" fill="#BDBDBD"/>
<path d="M115.978 17.2533L115.052 19.5406H115.567L115.754 19.0583H116.675L116.857 19.5358H117.391L116.46 17.2485H115.973L115.978 17.2533ZM115.906 18.6668L115.997 18.4232C116.069 18.2322 116.15 18.003 116.212 17.8311H116.217C116.279 18.003 116.36 18.2322 116.427 18.4137L116.522 18.6715H115.906V18.6668Z" fill="#BDBDBD"/>
<path d="M119.254 17.2533V18.1033C119.254 18.3229 119.254 18.5474 119.263 18.7623H119.258C119.115 18.5665 118.977 18.3755 118.829 18.1749L118.141 17.2533H117.668V19.5406H118.151V18.6906C118.151 18.471 118.151 18.2465 118.146 18.0317H118.151C118.294 18.2274 118.432 18.4184 118.58 18.619L119.268 19.5406H119.741V17.2533H119.254Z" fill="#BDBDBD"/>
<path d="M122.697 17.2485L122.018 18.2131L121.34 17.2485H120.858V19.5358H121.34V18.619C121.34 18.428 121.34 18.2131 121.336 18.0508H121.34C121.45 18.2083 121.56 18.3755 121.675 18.5378L122.004 19.0058L122.334 18.5331C122.448 18.3707 122.563 18.2036 122.668 18.0412H122.673C122.673 18.2083 122.668 18.4232 122.668 18.6142V19.531H123.169V17.2438H122.692L122.697 17.2485Z" fill="#BDBDBD"/>
<path d="M124.148 19.0917V18.5522H124.931L124.927 18.1319H124.148V17.6879L125.055 17.6831V17.2438L123.642 17.2485L123.647 19.531H125.089V19.0917H124.148Z" fill="#BDBDBD"/>
<path d="M127.071 17.473C126.832 17.3106 126.517 17.2438 126.111 17.2438H125.471V19.531H126.092C126.569 19.531 126.899 19.4403 127.133 19.2493C127.376 19.0488 127.51 18.7432 127.51 18.385C127.51 17.9935 127.352 17.6735 127.071 17.4778V17.473ZM126.789 18.9103C126.646 19.0344 126.44 19.0917 126.111 19.0917H125.972V17.6831H126.106C126.364 17.6831 126.579 17.707 126.741 17.8216C126.913 17.9409 127.008 18.1415 127.008 18.385C127.008 18.6142 126.923 18.7957 126.789 18.9103Z" fill="#BDBDBD"/>
<path d="M128.369 17.2438H127.868V19.531H128.369V17.2438Z" fill="#BDBDBD"/>
<path d="M130.007 19.1108C129.534 19.1108 129.243 18.7909 129.243 18.3802C129.243 17.9648 129.544 17.6592 129.988 17.6544C130.222 17.6544 130.451 17.7404 130.618 17.855V17.3488C130.437 17.2629 130.213 17.2056 129.983 17.2056C129.248 17.2056 128.742 17.7261 128.742 18.3898C128.742 19.0535 129.253 19.5645 129.988 19.5645C130.217 19.5645 130.461 19.5167 130.657 19.4117V18.9007C130.466 19.0297 130.246 19.1108 130.007 19.1108Z" fill="#BDBDBD"/>
<path d="M131.54 17.239H131.039V19.5263H131.54V17.239Z" fill="#BDBDBD"/>
<path d="M133.598 17.239V18.089C133.598 18.3086 133.598 18.5331 133.608 18.7479H133.603C133.46 18.5522 133.321 18.3611 133.173 18.1606L132.486 17.239H132.013V19.5263H132.495V18.6763C132.495 18.4567 132.495 18.2322 132.49 18.0173H132.495C132.638 18.2131 132.777 18.4041 132.925 18.6047L133.612 19.5263H134.085V17.239H133.598Z" fill="#BDBDBD"/>
<path d="M135.055 19.0822V18.5426L135.838 18.5378V18.1224H135.055V17.6735H135.962V17.2342L134.553 17.239V19.5215H136V19.0822H135.055Z" fill="#BDBDBD"/>
<path d="M46.3998 0.425824H43.0285V2.88501H39.8626L39.8865 1.78196C39.9056 0.68368 39.1512 0.425824 38.2964 0.425824H27.9392V10.401C27.9392 10.7114 28.2018 10.9645 28.5265 10.9645H39.3135L39.4663 8.52919H43.0285V12.8172C43.0285 12.9748 43.1575 13.099 43.3198 13.099H46.6911V0.707556C46.6911 0.549977 46.5621 0.425824 46.3998 0.425824ZM36.181 8.61514H32.1986C31.8023 8.52919 31.6017 8.33819 31.6017 7.9514V2.75608H35.7035C36.0235 2.84203 36.181 2.99484 36.181 3.30044V8.61514ZM43.0285 6.6669H39.6191L39.7671 4.75208H43.0285V6.6669Z" fill="#BDBDBD"/>
<path d="M46.4093 17.0862H33.1727C32.7095 17.0862 32.4803 16.8761 32.4803 16.4941L32.4708 13.1037H28.8083V17.9266C28.8083 19.0297 29.3956 19.5836 30.575 19.5836H46.7006V17.3727C46.7006 17.2151 46.5765 17.091 46.4141 17.091L46.4093 17.0862Z" fill="#BDBDBD"/>
<path d="M98.31 1.16119C98.3243 0.760082 97.9662 0.425824 97.5174 0.425824H95.4975V2.74653H92.1883V0.425824H89.3567V6.78627C89.3567 7.54074 89.9822 7.99438 90.7319 7.99438H98.31V1.16119ZM92.7375 6.31354C92.3746 6.31354 92.1931 6.15596 92.1931 5.8408V4.31277H95.5023V6.31354H92.7375Z" fill="#BDBDBD"/>
<path d="M101.17 10.1336C100.11 9.52719 98.6682 9.22636 96.8393 9.22636C95.0104 9.22636 93.597 9.52242 92.5512 10.1145C91.5055 10.7066 90.9802 11.4754 90.9802 12.4209C90.9802 13.3664 91.5055 14.1352 92.5512 14.7225C93.597 15.3099 95.0247 15.6011 96.8393 15.6011C98.6538 15.6011 100.11 15.3051 101.17 14.7082C102.187 14.1304 102.698 13.3664 102.698 12.4209C102.698 11.4754 102.187 10.7114 101.17 10.1336ZM99.0311 13.7102C98.4676 14.0301 97.7322 14.1925 96.8345 14.1925C95.9368 14.1925 95.2062 14.0301 94.6523 13.7102C94.0984 13.3855 93.8214 12.9557 93.8214 12.4161C93.8214 11.8765 94.0984 11.442 94.6523 11.1173C95.2062 10.7878 95.9368 10.6255 96.8345 10.6255C97.7322 10.6255 98.4676 10.7878 99.0311 11.1173C99.5945 11.4468 99.881 11.8765 99.881 12.4161C99.881 12.9557 99.5993 13.3855 99.0311 13.7102Z" fill="#BDBDBD"/>
<path d="M100.091 7.99438H102.698V6.40427H104.618V5.03858H102.698V0.631154C102.698 0.516552 102.598 0.425824 102.469 0.425824H99.8619V7.78905C99.8619 7.90365 99.9622 7.99438 100.091 7.99438Z" fill="#BDBDBD"/>
<path d="M113.605 9.22158C111.79 9.22158 110.362 9.51764 109.317 10.1098C108.271 10.7019 107.746 11.4707 107.746 12.4161C107.746 13.3616 108.271 14.1304 109.317 14.7177C110.362 15.3051 111.79 15.5964 113.605 15.5964C115.419 15.5964 116.876 15.3003 117.936 14.7034C118.953 14.1256 119.464 13.3616 119.464 12.4161C119.464 11.4707 118.953 10.7066 117.936 10.1289C116.876 9.52241 115.434 9.22158 113.605 9.22158ZM115.796 13.7102C115.233 14.0301 114.498 14.1925 113.6 14.1925C112.702 14.1925 111.972 14.0301 111.418 13.7102C110.864 13.3855 110.582 12.9557 110.582 12.4161C110.582 11.8765 110.859 11.442 111.418 11.1173C111.972 10.7878 112.702 10.6255 113.6 10.6255C114.498 10.6255 115.233 10.7878 115.796 11.1173C116.36 11.4468 116.646 11.8765 116.646 12.4161C116.646 12.9557 116.365 13.3855 115.796 13.7102Z" fill="#BDBDBD"/>
<path d="M114.292 7.99438V6.40427H116.651V7.79382C116.651 7.90843 116.752 7.99915 116.88 7.99915H119.488V0.631154C119.488 0.516552 119.387 0.425824 119.258 0.425824H116.651V2.58895H114.292V1.16119C114.307 0.760082 113.949 0.425824 113.5 0.425824H111.48V2.74653H108.4V0.425824H105.668V6.78627C105.668 7.54074 106.294 7.99438 107.039 7.99438H114.292ZM114.292 3.94031H116.651V5.03858H114.292V3.94031ZM108.405 4.31277H111.485V6.31354H108.949C108.586 6.31354 108.405 6.15596 108.405 5.8408V4.31277Z" fill="#BDBDBD"/>
<path d="M64.889 0.425824V2.86113H60.8015L60.8731 1.69123C60.9352 0.66458 60.4291 0.425824 59.3451 0.425824H49.8904V2.47435H56.5087C56.905 2.47435 57.1056 2.68923 57.1056 3.11899V4.75208H49.7949V8.7011C49.7949 10.3772 50.6162 11.146 52.0153 11.3704C52.8557 11.5041 53.6484 11.6426 54.7944 11.6091C58.371 11.5089 60.2858 10.1336 60.4959 9.67044V8.63902C58.8867 9.38871 55.3961 9.25978 54.4411 9.05923C53.8442 8.93508 53.4335 8.61037 53.4335 8.19971V6.75762H60.4959L60.6392 4.73298H64.8938V6.77672H60.5007V8.64379H64.8938V11.2462C64.8938 11.4038 65.0227 11.528 65.1851 11.528H68.5563V0.717106C68.5563 0.549977 68.4274 0.425824 68.265 0.425824H64.889Z" fill="#BDBDBD"/>
<path d="M66.7847 13.1037H50.6639L50.6544 15.3146C50.6544 15.4722 50.7833 15.5964 50.9457 15.5964H64.1823C64.6455 15.5964 64.8747 15.7874 64.8747 16.1741L64.8842 19.5836H68.5467V14.7607C68.5467 13.6577 67.9594 13.1037 66.7799 13.1037H66.7847Z" fill="#BDBDBD"/>
<path d="M125.418 11.1603H128.217V8.67722C131.846 8.67722 133.164 7.7222 133.164 7.7222V9.80892H130.322V11.1603H133.164V11.528C133.164 11.6426 133.264 11.7333 133.393 11.7333H136V0.631154C136 0.516552 135.9 0.425824 135.771 0.425824H133.164V6.03658C133.164 7.17306 131.454 7.13963 125.628 7.13963H121.675V8.69154H125.418V11.1603Z" fill="#BDBDBD"/>
<path d="M123.27 5.65935C124.086 6.25146 125.218 6.54752 126.669 6.54752C128.121 6.54752 129.267 6.25146 130.069 5.65935C130.824 5.11021 131.201 4.37962 131.201 3.47712C131.201 2.57463 130.824 1.84881 130.069 1.29489C129.262 0.717106 128.131 0.425824 126.669 0.425824C125.208 0.425824 124.086 0.717106 123.27 1.29967C122.501 1.85358 122.114 2.5794 122.114 3.4819C122.114 4.38439 122.501 5.11021 123.27 5.66412V5.65935ZM125.461 2.30244C125.762 2.00639 126.163 1.86313 126.669 1.86313C127.176 1.86313 127.577 2.01116 127.878 2.30244C128.174 2.5985 128.326 2.99006 128.326 3.4819C128.326 3.97373 128.178 4.36529 127.878 4.66135C127.577 4.95741 127.176 5.10543 126.669 5.10543C126.163 5.10543 125.762 4.95741 125.461 4.66135C125.165 4.36529 125.012 3.97373 125.012 3.4819C125.012 2.99006 125.16 2.5985 125.461 2.30244Z" fill="#BDBDBD"/>
<path d="M135.78 13.1133H125.939C125.595 13.1133 125.418 12.9796 125.418 12.7122V11.1651H122.572V13.7054C122.572 14.479 123.012 14.8658 123.895 14.8658H135.995V13.3186C135.995 13.2088 135.895 13.1228 135.776 13.1228L135.78 13.1133Z" fill="#BDBDBD"/>
<path d="M72.5196 6.00316C72.5196 7.04413 72.8873 7.88455 73.6179 8.51964C74.3963 9.20726 75.4754 9.54629 76.8554 9.54629C78.2354 9.54629 79.3289 9.20248 80.093 8.51964C80.814 7.88455 81.1721 7.04413 81.1721 6.00316C81.1721 4.96218 80.814 4.12176 80.093 3.4819C79.8924 3.30522 79.668 3.15241 79.4245 3.02349H81.9505V1.3522H78.4217V0.425824H75.3704V1.3522H71.7508V3.02349H74.3008C74.0572 3.15241 73.828 3.30522 73.6227 3.4819C72.8921 4.12176 72.5244 4.95741 72.5244 6.00316H72.5196ZM75.6235 4.6136C75.9291 4.26502 76.3397 4.09311 76.8554 4.09311C77.3712 4.09311 77.7818 4.26502 78.0874 4.6136C78.393 4.96218 78.5458 5.42537 78.5458 6.00316C78.5458 6.58094 78.393 7.04413 78.0874 7.39749C77.7818 7.74607 77.3712 7.91798 76.8554 7.91798C76.3397 7.91798 75.9291 7.74607 75.6235 7.39749C75.3179 7.04891 75.165 6.58572 75.165 6.00316C75.165 5.42059 75.3179 4.95741 75.6235 4.6136Z" fill="#BDBDBD"/>
<path d="M86.2576 0.631154C86.2576 0.516552 86.1574 0.425824 86.0284 0.425824H83.4021V10.2864C83.4021 10.401 83.5024 10.4918 83.6313 10.4918H86.2576V6.40427H87.991V5.03858H86.2576V0.631154Z" fill="#BDBDBD"/>
<path d="M75.5948 12.7074L75.5853 10.4965H72.8348V13.6959C72.8348 14.4694 73.2741 14.8562 74.1575 14.8562H86.2481L86.2576 13.3091C86.2576 13.1993 86.1574 13.1133 86.038 13.1133H76.1105C75.7667 13.1133 75.59 12.9796 75.59 12.7122L75.5948 12.7074Z" fill="#BDBDBD"/>
</svg>
