<svg width="30" height="70" viewBox="0 0 30 70" fill="none" xmlns="http://www.w3.org/2000/svg">
<path d="M27.12 18.2759C25.26 16.1359 22.57 14.9159 19.74 14.9159H9.79C7.18 14.9159 4.72 15.9359 2.87 17.7759C2.71 17.9359 2.55 18.1059 2.4 18.2759C0.85 20.0559 0 22.3359 0 24.6959V37.9459C0 38.7159 0.32 39.4759 0.87 40.0259C1.42 40.5659 2.13 40.8659 2.87 40.8559C3.63 40.8559 4.34 40.5559 4.87 40.0159C5.41 39.4759 5.71 38.7559 5.71 37.9959V25.1059C5.71 24.6959 6.04 24.3559 6.46 24.3559C6.88 24.3559 7.21 24.6859 7.21 25.1059V65.5959C7.21 67.4959 8.75 69.0359 10.65 69.0359C12.55 69.0359 14.09 67.4959 14.09 65.5959V42.1559C14.09 41.7859 14.37 41.4759 14.73 41.4359C14.75 41.4359 14.77 41.4359 14.8 41.4359C14.97 41.4359 15.14 41.4959 15.27 41.6159C15.42 41.7459 15.5 41.9359 15.5 42.1359V65.5859C15.5 67.4859 17.04 69.0259 18.94 69.0259C20.84 69.0259 22.38 67.4859 22.38 65.5859V25.0659C22.38 24.6759 22.7 24.3659 23.08 24.3659C23.46 24.3659 23.78 24.6859 23.78 25.0659V37.9359C23.78 38.7159 24.1 39.4859 24.67 40.0359C25.22 40.5759 25.94 40.8659 26.7 40.8559C28.25 40.8259 29.5 39.5459 29.5 37.9959V24.6959C29.5 22.3459 28.65 20.0659 27.11 18.2959H27.1L27.12 18.2759Z" fill="#385B98"/>
<path d="M15.8565 12.3431C19.2376 11.736 21.4863 8.50286 20.8792 5.12173C20.2721 1.7406 17.0389 -0.508161 13.6578 0.098982C10.2767 0.706125 8.0279 3.93926 8.63505 7.32039C9.24219 10.7015 12.4753 12.9503 15.8565 12.3431Z" fill="#385B98"/>
</svg>
