<svg width="136" height="20" viewBox="0 0 136 20" fill="none" xmlns="http://www.w3.org/2000/svg">
<path d="M13.8049 7.00987C13.7953 6.98599 13.7858 6.96211 13.7762 6.93824C13.7762 6.92391 13.7523 6.87616 13.7093 6.79976C13.6568 6.72813 13.6186 6.69471 13.59 6.69948C13.5756 6.69948 13.5613 6.71858 13.5422 6.75678C13.5231 6.79499 13.4992 6.83319 13.4754 6.87139C13.461 6.89526 13.4419 6.91914 13.4181 6.95256C13.3894 6.98599 13.3751 7.00987 13.3703 7.03374C13.356 7.06239 13.3417 7.09582 13.3178 7.13402C13.2939 7.17222 13.2748 7.20087 13.2653 7.22475C13.2557 7.26295 13.2414 7.29637 13.2271 7.32502C13.2127 7.35367 13.1984 7.3871 13.1841 7.4253C13.1841 7.43485 13.1745 7.44918 13.1602 7.4826C13.1459 7.51125 13.1411 7.54468 13.1411 7.5781C13.1411 7.5972 13.1411 7.62108 13.1363 7.64496C13.1316 7.66883 13.1316 7.69271 13.1316 7.71181L13.1459 7.85506C13.1459 7.85506 13.1459 7.88849 13.1554 7.90759C13.1602 7.92669 13.1698 7.93624 13.1841 7.93624C13.2509 7.92669 13.3226 7.89804 13.399 7.84551C13.4419 7.81208 13.4754 7.78343 13.504 7.75956C13.5374 7.72136 13.5709 7.68793 13.5995 7.65451C13.6282 7.62108 13.6616 7.5781 13.695 7.53035C13.6998 7.5208 13.7141 7.51125 13.738 7.48738C13.7571 7.46828 13.7714 7.44918 13.7762 7.43485C13.7762 7.43008 13.7762 7.41097 13.7953 7.39187C13.8096 7.368 13.8144 7.35367 13.8144 7.3489L13.8383 7.26295C13.8478 7.22475 13.8574 7.20087 13.8526 7.18177C13.8526 7.16744 13.8526 7.13879 13.8478 7.10537C13.8478 7.10059 13.8383 7.06717 13.8192 7.01464L13.8049 7.00987Z" fill="#556677"/>
<path d="M17.0185 0.0143253H11.3027C11.3266 0.0191005 11.3504 0.0143253 11.3791 0.0191005C11.5558 0.0525262 11.7325 0.128928 11.9044 0.243531C12.0285 0.324708 12.1527 0.482286 12.2768 0.711492C12.315 0.802219 12.3532 0.888171 12.3866 0.974123C12.4248 1.06008 12.463 1.14603 12.4965 1.23675C12.5299 1.29883 12.5538 1.35613 12.5681 1.40388C12.5776 1.45163 12.5967 1.49939 12.6158 1.55191C12.6349 1.60444 12.6493 1.67606 12.6588 1.77157C12.6684 1.86707 12.6732 1.93392 12.6779 1.97212C12.6827 2.03897 12.6875 2.10105 12.6827 2.15358C12.6827 2.21088 12.6827 2.26818 12.6875 2.33503L12.697 2.45918C12.7161 2.52603 12.7114 2.63109 12.6827 2.77912C12.654 2.92714 12.6349 3.0322 12.6254 3.10382C12.6254 3.13247 12.6254 3.21843 12.6254 3.36168C12.6254 3.50493 12.6254 3.59566 12.6254 3.63864C12.6349 3.73414 12.6254 3.81054 12.6015 3.87739C12.5776 3.93947 12.5681 3.99199 12.5729 4.03497C12.5776 4.0875 12.5729 4.1639 12.5633 4.2594C12.549 4.3549 12.5347 4.44085 12.5108 4.51248C12.5108 4.52681 12.5108 4.57933 12.4917 4.67006C12.4774 4.76079 12.4726 4.81331 12.4726 4.82764C12.4487 4.89927 12.4392 4.96612 12.4487 5.03297C12.4535 5.09982 12.4487 5.1619 12.4248 5.2192C12.401 5.29082 12.3771 5.36245 12.3484 5.43408C12.3198 5.50571 12.3007 5.57733 12.2911 5.64418C12.2816 5.70148 12.2768 5.76834 12.2768 5.84951C12.2768 5.93069 12.2673 6.01664 12.2434 6.09782C12.2434 6.12647 12.2434 6.1599 12.2338 6.20287C12.2243 6.24585 12.2195 6.2745 12.2195 6.28882C12.2195 6.31747 12.2195 6.33657 12.2195 6.36045C12.2147 6.37955 12.2147 6.40343 12.2195 6.43208C12.2195 6.4846 12.2195 6.58011 12.2004 6.71858C12.1909 6.74723 12.1861 6.77589 12.1861 6.80454L12.1956 6.88571C12.1956 6.88571 11.8327 8.96289 11.403 11.4364C12.4678 11.0066 14.4161 10.2187 14.4543 10.1949C14.4686 10.1758 14.8793 10.0086 15.2469 9.86538C15.4809 9.74601 15.8868 9.56455 16.3786 9.4404C16.4073 9.42607 16.4359 9.41175 16.455 9.40697C16.4789 9.4022 16.498 9.41175 16.5171 9.41175C16.9326 9.32102 17.391 9.23507 17.835 9.33535C17.9162 9.35445 18.0117 9.37355 18.1168 9.40697C18.2218 9.4404 18.3078 9.45472 18.3794 9.4595C18.4367 9.4595 18.494 9.47382 18.5465 9.4977C18.6038 9.52158 18.6611 9.54545 18.7328 9.5741C18.7757 9.58843 18.8235 9.61708 18.876 9.6505C18.9285 9.68393 18.9906 9.72691 19.0575 9.76988C19.0909 9.79376 19.1196 9.80808 19.153 9.82718V6.53235C19.1387 6.57055 19.1291 6.61353 19.1148 6.65173C19.0909 6.72813 19.0718 6.81409 19.067 6.90481C19.0575 6.95734 19.0384 7.02897 19.0097 7.12924C18.9811 7.22475 18.9524 7.29637 18.919 7.3489L18.8808 7.43485C18.8569 7.49215 18.833 7.559 18.8092 7.63063C18.7853 7.70226 18.7566 7.76433 18.7232 7.80731C18.7089 7.82164 18.6946 7.84074 18.685 7.86461C18.6707 7.88849 18.6611 7.90759 18.6468 7.92191C18.6277 7.94101 18.5991 7.95534 18.5704 7.96966C18.5418 7.98399 18.5227 7.99831 18.5083 8.01264C18.4797 8.02219 18.451 8.03174 18.4272 8.04129C18.4033 8.05084 18.3603 8.06517 18.303 8.07949C18.2314 8.08904 18.1693 8.09859 18.1263 8.11292C18.0834 8.12724 18.0261 8.14157 17.964 8.14634C17.8159 8.14634 17.7491 8.10337 17.7586 8.00309C17.7539 7.95056 17.7586 7.90759 17.7682 7.87894C17.7825 7.85029 17.7921 7.81208 17.8016 7.76911C17.8112 7.73091 17.8207 7.69748 17.8255 7.66406C17.8255 7.63063 17.8398 7.5972 17.8494 7.56855C17.8589 7.51603 17.8685 7.46828 17.8685 7.4253C17.8685 7.37755 17.8828 7.3298 17.8971 7.26772C17.9019 7.19132 17.9114 7.11492 17.9258 7.03852C17.9353 6.96211 17.9449 6.89049 17.9544 6.80931C17.964 6.75201 17.9687 6.69948 17.964 6.65173C17.8923 6.69471 17.835 6.73291 17.7921 6.76633C17.7491 6.79976 17.7013 6.82841 17.6584 6.84751C17.6106 6.90004 17.5533 6.94779 17.4865 6.98121C17.4196 7.01464 17.348 7.05762 17.2811 7.10059C17.2668 7.11014 17.2382 7.11969 17.1952 7.13879C17.1522 7.15312 17.1188 7.17222 17.0997 7.18654C17.0328 7.20565 16.9899 7.21997 16.966 7.2152C16.9421 7.2152 16.9182 7.22475 16.8896 7.23907C16.8179 7.28205 16.7606 7.30592 16.7177 7.3107C16.6508 7.33457 16.6031 7.3489 16.5696 7.35367C16.5362 7.35845 16.4932 7.368 16.4312 7.37277L16.0778 7.41575C16.0778 7.41575 16.011 7.41575 15.9489 7.42053C15.8868 7.42053 15.8247 7.42053 15.7626 7.41097C15.6146 7.41097 15.4809 7.35367 15.3663 7.24862C15.3186 7.21042 15.2804 7.17699 15.2565 7.13402C15.2469 7.11492 15.2374 7.09104 15.2278 7.06239C15.2183 7.03374 15.2135 7.00987 15.2087 6.99076C15.2087 6.97644 15.2087 6.95734 15.2231 6.92391C15.2374 6.89526 15.2469 6.88094 15.2613 6.87616C15.2804 6.83796 15.3042 6.80931 15.3329 6.78544C15.3615 6.76156 15.3854 6.74246 15.4045 6.72336C15.4379 6.69948 15.4857 6.68038 15.5382 6.67561C15.5907 6.67083 15.6385 6.67083 15.6671 6.68038C15.6815 6.68516 15.7149 6.68516 15.7626 6.68038C15.8104 6.68038 15.8438 6.68038 15.8677 6.67083C15.8964 6.67083 15.9298 6.66128 15.9728 6.64696C16.011 6.63741 16.0396 6.62308 16.0539 6.61831C16.1208 6.58966 16.1829 6.561 16.2402 6.53235C16.2975 6.5037 16.3643 6.4655 16.4264 6.41775C16.455 6.39388 16.498 6.36523 16.5505 6.3318C16.6078 6.30315 16.6699 6.26972 16.732 6.23152C16.7941 6.1981 16.8609 6.1599 16.923 6.12647C16.9851 6.09304 17.0376 6.05962 17.0806 6.02619C17.1236 6.00709 17.1665 5.98799 17.2095 5.96412C17.2525 5.94024 17.3002 5.92114 17.348 5.90204C17.4148 5.87339 17.4817 5.84474 17.5581 5.82086C17.6345 5.79221 17.7013 5.76356 17.7586 5.73014C17.7921 5.71103 17.8398 5.68238 17.9019 5.63941C17.9592 5.59643 18.0117 5.54391 18.0499 5.4866C18.0834 5.43885 18.1025 5.39588 18.112 5.35768C18.1216 5.31948 18.1311 5.26695 18.1454 5.2001C18.1836 5.07117 18.198 4.92792 18.1836 4.77511C18.1836 4.77034 18.1836 4.74169 18.1741 4.69871C18.1741 4.65574 18.1645 4.60798 18.155 4.56023C18.1454 4.51248 18.1407 4.46951 18.1359 4.42653C18.1359 4.38355 18.1311 4.3549 18.1263 4.34535C18.1025 4.27373 18.0929 4.21642 18.0881 4.17822C18.0881 4.14002 18.0834 4.11137 18.0786 4.09227C18.0595 4.0684 18.0499 4.03497 18.0404 3.99199C18.0308 3.94902 18.0213 3.91559 18.0022 3.89172C17.9926 3.87739 17.9831 3.85829 17.9687 3.83442C17.9544 3.81054 17.9449 3.77711 17.9401 3.74369C17.9305 3.71026 17.9305 3.67684 17.9305 3.64819C17.9305 3.61476 17.9449 3.58611 17.9735 3.56223C18.0308 3.51448 18.0834 3.48583 18.1311 3.47628C18.1836 3.46673 18.2218 3.45718 18.2505 3.44763C18.2935 3.43331 18.3555 3.42853 18.4272 3.43331C18.4988 3.43331 18.5561 3.43331 18.5943 3.43331C18.6325 3.43331 18.6611 3.43331 18.6898 3.44763C18.7184 3.46196 18.7375 3.47628 18.7566 3.48583C18.8139 3.52881 18.8569 3.58133 18.8951 3.64819C18.9094 3.66729 18.9285 3.70071 18.9476 3.74846C18.9667 3.80099 18.9811 3.82964 18.9906 3.84397C18.9906 3.84874 18.9954 3.87262 19.0049 3.90604C19.0145 3.93947 19.024 3.98244 19.0288 4.0302C19.0431 4.05885 19.0622 4.10182 19.0766 4.17345C19.0909 4.2403 19.1052 4.3167 19.1196 4.39788C19.1196 4.41698 19.1196 4.4313 19.1291 4.45041V2.14403C19.1578 0.978898 18.1932 0.0143253 17.0185 0.0143253ZM14.6166 7.08149C14.6071 7.12924 14.5975 7.18654 14.5927 7.23907C14.588 7.29637 14.5736 7.3489 14.545 7.40142C14.5307 7.45873 14.5068 7.50648 14.4781 7.54468C14.4543 7.58288 14.4208 7.63063 14.3922 7.69271L14.2537 7.88849C14.1821 7.98876 14.0532 8.09859 13.8717 8.21797C13.8431 8.23707 13.7953 8.26095 13.7284 8.30392C13.6616 8.34212 13.6091 8.37077 13.5756 8.38032C13.4754 8.40897 13.3894 8.4233 13.3226 8.43285C13.2557 8.4424 13.208 8.45195 13.1793 8.4615C13.0552 8.49015 12.9453 8.49015 12.8451 8.4615C12.7973 8.43763 12.7591 8.40897 12.7257 8.37555C12.6922 8.34212 12.6684 8.3087 12.6493 8.27527C12.6302 8.24184 12.6206 8.19409 12.6111 8.12724C12.6063 8.06039 12.5967 8.00309 12.592 7.94579C12.592 7.92669 12.592 7.84074 12.6015 7.69271C12.592 7.65928 12.5967 7.61153 12.6158 7.54468C12.6349 7.47783 12.654 7.43008 12.6731 7.39187C12.697 7.32025 12.7161 7.2534 12.7305 7.19132C12.7448 7.12924 12.7639 7.08149 12.783 7.04329C12.826 6.97644 12.8642 6.91914 12.888 6.86661C12.9119 6.81886 12.9453 6.76633 12.9835 6.70426C13.0026 6.67561 13.0217 6.64696 13.0361 6.61831C13.0552 6.58966 13.0838 6.54668 13.1316 6.48938C13.1507 6.47505 13.1745 6.45118 13.1984 6.41775C13.2223 6.3891 13.2414 6.36523 13.2509 6.3509C13.2653 6.32702 13.2796 6.30315 13.3035 6.27927C13.3226 6.2554 13.3417 6.22675 13.3608 6.18855C13.4181 6.11214 13.4515 6.04052 13.4515 5.97844C13.4563 5.94979 13.4706 5.92114 13.4897 5.89726C13.5088 5.86861 13.5279 5.84951 13.5422 5.83519C13.5565 5.82086 13.5756 5.81131 13.6043 5.81131C13.6329 5.81131 13.6568 5.81131 13.6711 5.81131C13.6711 5.82086 13.6711 5.82086 13.6807 5.82086H13.7141C13.7714 5.79699 13.824 5.80176 13.8717 5.83041C13.9051 5.85429 13.9338 5.87816 13.9577 5.89726C13.9815 5.92114 13.9959 5.93547 13.9959 5.94979C13.9863 6.00709 13.9768 6.05007 13.9672 6.07872C13.9577 6.10737 13.9481 6.14079 13.9386 6.17422C13.9481 6.179 13.9672 6.19332 13.9959 6.21242C14.0293 6.23152 14.0627 6.2554 14.0961 6.28405C14.1343 6.3127 14.1678 6.33657 14.1964 6.36045C14.2298 6.38433 14.2489 6.39865 14.2585 6.40343C14.3301 6.4655 14.3874 6.53235 14.4256 6.61353L14.4781 6.69948C14.5116 6.72813 14.5402 6.77589 14.5641 6.84274C14.588 6.90481 14.6023 6.95256 14.6071 6.99076C14.6071 7.00509 14.6071 7.01942 14.6071 7.03852C14.6071 7.05762 14.6071 7.07194 14.6023 7.08627L14.6166 7.08149ZM17.2429 5.00909C17.2429 5.00909 17.2286 5.03297 17.2191 5.04252C17.2095 5.05207 17.1952 5.06162 17.1856 5.07595C17.1713 5.09027 17.157 5.10937 17.1474 5.12847C17.1331 5.14757 17.1092 5.16667 17.0758 5.18577C16.9994 5.25262 16.9087 5.2956 16.7988 5.32425C16.7463 5.32903 16.6747 5.36245 16.5744 5.42453C16.541 5.44363 16.5076 5.45795 16.4837 5.47705C16.4598 5.49138 16.4312 5.51048 16.4025 5.52958C16.3548 5.54868 16.3118 5.56778 16.2736 5.59166C16.2402 5.61553 16.2067 5.62986 16.1781 5.63941L16.0157 5.70148C15.9298 5.73491 15.8534 5.77311 15.7913 5.82086C15.7292 5.86384 15.648 5.89726 15.543 5.92591C15.5 5.94024 15.4666 5.94979 15.4475 5.95934C15.4284 5.96889 15.3997 5.97367 15.3711 5.97844C15.3329 5.97844 15.2995 5.98799 15.266 5.99754C15.2326 6.00232 15.204 6.00709 15.1849 5.99754C15.1801 5.99754 15.1658 5.99754 15.1514 5.99754C15.1371 5.99754 15.1228 5.99754 15.118 5.99754C15.1085 5.99754 15.0941 5.99754 15.075 5.99754C15.0512 5.99754 15.0368 5.99754 15.0321 5.99754C15.0082 5.99754 14.9843 5.99754 14.9604 5.99754C14.9366 5.99754 14.9127 5.99754 14.8984 5.99754C14.8554 5.99754 14.8076 5.96889 14.7551 5.92114C14.7455 5.91636 14.7408 5.90681 14.7312 5.89249C14.7217 5.87816 14.7121 5.86861 14.7073 5.86384C14.6739 5.82086 14.6644 5.76356 14.6787 5.69193C14.693 5.66328 14.7026 5.63941 14.7073 5.62508C14.7121 5.61076 14.7312 5.58688 14.7551 5.55823L14.7646 5.54391C14.7646 5.54391 14.7981 5.51048 14.822 5.4866C14.8458 5.46273 14.8697 5.43408 14.8984 5.39588C14.9366 5.3338 14.97 5.28605 14.9986 5.24785C15.0225 5.20965 15.0559 5.17622 15.0989 5.15235C15.118 5.13802 15.1371 5.1237 15.1562 5.11892C15.1753 5.11415 15.1992 5.09982 15.2231 5.0855C15.2565 5.06162 15.2947 5.04252 15.3377 5.02342C15.3806 5.00909 15.4236 4.98999 15.4666 4.97089C15.4905 4.96134 15.5096 4.95179 15.5239 4.93747C15.543 4.92314 15.5621 4.91359 15.5812 4.90404C15.6098 4.89449 15.6337 4.88494 15.6528 4.88017C15.6719 4.87539 15.691 4.86584 15.7101 4.85629C15.7674 4.83719 15.8247 4.81331 15.882 4.79421C15.9393 4.77511 15.9966 4.75124 16.0539 4.73214C16.0969 4.71304 16.1351 4.69871 16.1733 4.68916C16.2115 4.67961 16.2736 4.66051 16.3691 4.63186C16.4264 4.61276 16.4598 4.60321 16.4741 4.60321C16.4837 4.60321 16.5123 4.59843 16.5553 4.57933C16.5983 4.56023 16.6413 4.56023 16.689 4.58411L16.7606 4.61753C16.7606 4.61753 16.7988 4.62231 16.8466 4.61753C16.8943 4.61276 16.923 4.61276 16.9278 4.61753C16.9373 4.63186 16.9564 4.64618 16.9851 4.66051C17.0137 4.67484 17.0281 4.68916 17.0376 4.69871C17.0472 4.71304 17.0663 4.72259 17.0901 4.72736C17.1188 4.73214 17.1379 4.74646 17.1522 4.75601C17.1761 4.77511 17.1952 4.78944 17.2095 4.79899C17.2238 4.81331 17.2429 4.83241 17.262 4.86584C17.2811 4.91359 17.2764 4.96134 17.2429 5.01387V5.00909Z" fill="#556677"/>
<path d="M10.2808 6.83796C10.2808 6.77589 10.2856 6.70903 10.2951 6.64218C10.3142 6.55623 10.3238 6.47028 10.3142 6.37478C10.3047 6.26495 10.3047 6.16945 10.3095 6.07872C10.3142 5.98799 10.3142 5.91159 10.3095 5.84474C10.2522 5.87816 10.2044 5.90681 10.1519 5.93546C10.1041 5.95934 10.0516 5.99277 9.99909 6.02619C9.92746 6.05962 9.86061 6.09304 9.79853 6.12169C9.73646 6.15035 9.67438 6.179 9.62185 6.21242C9.52157 6.25062 9.43562 6.28882 9.35922 6.32702C9.28282 6.36523 9.21119 6.39865 9.13957 6.43685C9.06794 6.47505 9.02019 6.49415 8.99154 6.49415C8.96289 6.49415 8.91991 6.50848 8.86261 6.52758C8.81963 6.54668 8.78143 6.55623 8.74801 6.561C8.70981 6.561 8.68116 6.57533 8.6525 6.59443C8.56655 6.63263 8.50448 6.65173 8.4615 6.65651C8.38987 6.68038 8.31825 6.70426 8.2514 6.73291C8.17977 6.76156 8.11769 6.78066 8.06039 6.78544C8.03174 6.78544 7.97921 6.79976 7.89804 6.82364C7.81686 6.84751 7.69271 6.86661 7.5208 6.89049C7.49215 6.89049 7.4444 6.90481 7.38232 6.91914C7.31547 6.93346 7.1961 6.94301 7.02419 6.95256C6.95256 6.95256 6.87139 6.94301 6.78544 6.93824C6.69948 6.93824 6.61831 6.92869 6.5419 6.92391C6.52758 6.92391 6.5037 6.92391 6.47505 6.92391C6.4464 6.92391 6.42253 6.92391 6.4082 6.92391C6.36523 6.92869 6.31747 6.92391 6.26495 6.92391C6.21242 6.91436 6.17422 6.90959 6.1408 6.89526C6.08349 6.89049 6.01187 6.86184 5.92591 6.81886C5.83996 6.77589 5.77789 6.74246 5.73014 6.71858C5.62508 6.66128 5.54868 6.62308 5.51048 6.58966C5.47228 6.56101 5.42453 6.47983 5.36723 6.3509C5.32903 6.24585 5.30993 6.16467 5.30993 6.11214C5.30993 6.05484 5.32903 5.98799 5.36723 5.90204C5.38155 5.87339 5.40543 5.84474 5.4484 5.81131C5.49138 5.77789 5.52003 5.74924 5.54868 5.71581C5.62508 5.62508 5.72536 5.57733 5.83996 5.57733C5.86861 5.58688 5.90204 5.60598 5.94024 5.62508C5.97844 5.64896 6.01187 5.66328 6.04529 5.67283C6.12169 5.69193 6.2745 5.68716 6.5037 5.65851C6.64696 5.62986 6.78066 5.58688 6.90959 5.53913C7.03374 5.49138 7.12924 5.45318 7.18177 5.43408C7.26772 5.39588 7.36322 5.3529 7.47783 5.30515C7.58765 5.2574 7.72136 5.20487 7.87894 5.1428C7.93624 5.10937 7.99831 5.07595 8.06517 5.03774C8.13202 5.00432 8.19887 4.97567 8.2514 4.95179C8.3087 4.93269 8.37555 4.90404 8.4615 4.86584C8.54268 4.82764 8.6143 4.79421 8.66683 4.76079C8.75278 4.70826 8.83873 4.66051 8.93901 4.60798C9.03451 4.55546 9.13002 4.48861 9.22552 4.40743C9.26849 4.374 9.31147 4.33103 9.364 4.2785C9.41652 4.22597 9.46427 4.16867 9.50247 4.1066C9.51202 4.07795 9.54068 4.02064 9.58365 3.93469C9.62663 3.84874 9.6696 3.75324 9.7078 3.65296C9.75078 3.55268 9.78898 3.45718 9.82241 3.37123C9.85583 3.28528 9.87971 3.21843 9.89403 3.18023C9.92746 3.07995 9.96566 2.95579 9.99909 2.80777C10.0373 2.65974 10.0659 2.54514 10.085 2.45918C10.0946 2.41621 10.0994 2.33981 10.0946 2.22043C10.0946 2.10582 10.0898 2.02465 10.085 1.98645C10.0612 1.90527 10.0468 1.83364 10.0421 1.76679L10.0182 1.52326C10.0039 1.49939 9.98476 1.43731 9.97044 1.34658C9.95611 1.25108 9.94656 1.19378 9.94178 1.16513C9.92268 1.12693 9.90836 1.06485 9.90358 0.983673C9.89881 0.916822 9.90358 0.864295 9.92268 0.826095C9.94179 0.787894 9.96089 0.749693 9.98954 0.706717C9.99909 0.678066 10.0182 0.649415 10.0373 0.61599C10.0564 0.587339 10.0755 0.539588 10.0994 0.463186C10.1232 0.391559 10.1614 0.339033 10.214 0.296057C10.2665 0.257856 10.3238 0.219655 10.3811 0.181454C10.4336 0.148028 10.467 0.119378 10.4814 0.100277C10.4957 0.0764018 10.5196 0.0525262 10.5626 0.0191005C10.5864 0.00955023 10.6294 0.00477511 10.6581 0H2.14403C0.969348 0.0143253 0.00477511 0.978898 0.00477511 2.15358V4.07317C0.0477511 4.05885 0.105052 4.03497 0.143253 4.02065C0.21488 3.99677 0.262631 3.99199 0.296057 4.00154C0.324708 4.01109 0.372459 4.01109 0.42976 4.00154C0.544363 3.98722 0.64464 3.98722 0.725817 4.00154C0.806994 4.01109 0.916822 4.03975 1.05052 4.07317C1.07918 4.05885 1.09828 4.0493 1.1126 4.05407C1.12693 4.05885 1.14603 4.04452 1.17468 4.01587C1.23198 3.98244 1.27973 3.95379 1.32271 3.92514C1.36568 3.90127 1.42776 3.86784 1.50894 3.82964C1.57579 3.78189 1.66174 3.73414 1.77157 3.69594C1.87662 3.65774 1.97212 3.61954 2.05807 3.58133C2.08672 3.56701 2.19655 3.52881 2.38756 3.47151C2.57856 3.41421 2.70749 3.36645 2.77912 3.33303C2.91759 3.27573 3.06085 3.23753 3.2041 3.2232C3.24708 3.21843 3.29483 3.2041 3.34258 3.185C3.39033 3.1659 3.46196 3.1659 3.54791 3.185C3.60521 3.18978 3.66251 3.19455 3.71026 3.19455C3.76279 3.19455 3.82487 3.19455 3.89649 3.2041C4.01109 3.2041 4.15435 3.24708 4.32625 3.3378C4.40265 3.39988 4.49338 3.47628 4.58888 3.57178C4.63663 3.61954 4.67484 3.68639 4.70826 3.77234C4.73691 3.85829 4.73691 3.98244 4.70826 4.14957C4.68916 4.27373 4.68916 4.39788 4.69871 4.51726C4.70826 4.63663 4.70826 4.75601 4.68916 4.86584C4.69871 4.94702 4.69871 5.02342 4.68916 5.09982C4.68439 5.17622 4.67484 5.24785 4.66529 5.31948C4.66051 5.40065 4.65574 5.4866 4.65574 5.56778C4.65574 5.64896 4.64618 5.73491 4.62231 5.81609C4.61276 5.87339 4.60798 5.95934 4.60321 6.07394C4.60321 6.19332 4.59366 6.27927 4.58411 6.3318C4.56978 6.47028 4.55546 6.63263 4.54113 6.81886C4.52681 7.00509 4.53636 7.14357 4.56023 7.2343C4.55546 7.31547 4.55546 7.40142 4.56023 7.49215C4.56978 7.5781 4.56023 7.65928 4.53636 7.73091C4.57933 7.71181 4.62231 7.69271 4.67484 7.67361C4.72259 7.65451 4.76079 7.63541 4.78944 7.62108C4.86107 7.58765 4.93269 7.58288 5.00909 7.6163C5.0855 7.64973 5.13325 7.71658 5.15712 7.82164C5.2001 7.95534 5.181 8.08427 5.1046 8.21797C5.08072 8.27527 5.05207 8.33257 5.01864 8.38032C4.98522 8.43285 4.94702 8.4806 4.88972 8.52835C4.84674 8.56178 4.79899 8.5952 4.73691 8.62863C4.67484 8.66206 4.62231 8.69548 4.58411 8.72891C4.51248 8.76711 4.44563 8.80531 4.374 8.84828C4.30715 8.89126 4.22598 8.95334 4.13047 9.02974C4.07317 9.06316 3.99677 9.10614 3.89172 9.14912C3.78666 9.19687 3.71504 9.23507 3.67206 9.26849C3.60044 9.30192 3.54313 9.33057 3.49538 9.34967C3.44286 9.36877 3.39988 9.38787 3.3569 9.40697C3.32825 9.42607 3.27573 9.44995 3.19933 9.4786C3.12292 9.50725 3.04652 9.54068 2.97967 9.57888C2.66929 9.68393 2.44486 9.76988 2.30638 9.84151C2.23475 9.87493 2.15835 9.90836 2.06285 9.93224C1.97212 9.95611 1.89094 9.97999 1.81932 10.0039C1.70472 10.0468 1.60921 10.0803 1.53281 10.1089C1.45641 10.1376 1.33703 10.1614 1.17945 10.1805C1.10783 10.1901 1.02665 10.1853 0.935922 10.171C0.845195 10.1567 0.773568 10.1232 0.706717 10.0755C0.630315 10.0182 0.573014 9.96566 0.539588 9.93224C0.506162 9.90836 0.00955023 8.35167 0 8.33735V17.0281C0 18.2075 0.964573 19.1673 2.13925 19.1673H8.29915L9.27804 13.1698C9.09659 13.2318 8.93424 13.2844 8.80053 13.3178C8.66683 13.3512 8.54268 13.3942 8.42807 13.4324C8.35645 13.4706 8.27527 13.4992 8.17499 13.5231C8.07472 13.547 7.98876 13.5661 7.91714 13.5756L7.78821 13.59C7.70226 13.5995 7.61153 13.6234 7.5208 13.6616C7.43008 13.6998 7.33457 13.7237 7.2343 13.738C7.19132 13.7428 7.14357 13.7523 7.09582 13.7667C7.04329 13.781 7.00032 13.7905 6.95734 13.7953L6.87139 13.8049C6.75678 13.8478 6.63263 13.8717 6.49893 13.8908C6.36045 13.9051 6.2363 13.9242 6.1217 13.9386L5.82086 13.9768C5.70626 13.9911 5.60121 13.9815 5.51048 13.9529C5.4484 13.9338 5.40065 13.9195 5.36245 13.9099C5.32425 13.9004 5.28605 13.886 5.2383 13.8622C5.09982 13.781 4.98044 13.6759 4.88017 13.5374C4.75124 13.3894 4.65574 13.2175 4.58888 13.0217C4.56978 12.9549 4.55068 12.8928 4.53636 12.8307C4.52203 12.7734 4.51248 12.7066 4.50771 12.6397L4.49338 12.4774C4.49338 12.4487 4.49338 12.4201 4.49338 12.3866C4.49338 12.3532 4.49338 12.2816 4.48383 12.1718C4.48383 12.1288 4.48383 12.0572 4.50771 11.9426L4.54591 11.6322C4.54591 11.6322 4.56501 11.594 4.56023 11.5701C4.55546 11.5176 4.56023 11.4746 4.56978 11.4459C4.59366 11.3743 4.61276 11.2979 4.62708 11.212C4.64141 11.1308 4.66051 11.0448 4.67961 10.9589C4.70349 10.9016 4.71781 10.8491 4.72259 10.8013C4.72259 10.7536 4.73691 10.701 4.76079 10.6437C4.77034 10.6151 4.77989 10.5864 4.78466 10.5578C4.78944 10.5291 4.79899 10.5005 4.80854 10.4718C4.82764 10.3859 4.86584 10.2999 4.91359 10.214C4.93747 10.1567 4.97567 10.1089 5.03297 10.0659C5.0855 10.0277 5.14757 9.97999 5.2192 9.93224C5.24785 9.90358 5.29083 9.87493 5.3529 9.85583C5.41498 9.83673 5.47228 9.82718 5.51526 9.83673C5.54391 9.83673 5.60121 9.83673 5.67761 9.84628C5.75879 9.85583 5.81609 9.86061 5.84474 9.85583C5.87339 9.86538 5.92114 9.86538 5.98799 9.85583C6.05484 9.84628 6.10259 9.84628 6.13124 9.85583C6.1599 9.86538 6.20765 9.87971 6.26495 9.89881C6.32702 9.91791 6.37478 9.97044 6.4082 10.0468C6.43208 10.1519 6.43685 10.2569 6.41775 10.3524V10.3715C6.41775 10.4002 6.41775 10.4336 6.4082 10.4766C6.39865 10.5196 6.38433 10.553 6.37478 10.5817C6.36045 10.6103 6.3509 10.6437 6.34135 10.6867C6.3318 10.7297 6.32702 10.7583 6.32702 10.7727C6.30315 10.8443 6.2936 10.9064 6.28882 10.9637C6.28882 11.021 6.2745 11.0687 6.24585 11.1117C6.20765 11.1833 6.18855 11.3027 6.19332 11.465C6.18377 11.5319 6.18377 11.6131 6.18377 11.699C6.18377 11.7898 6.18377 11.8805 6.179 11.976L6.18855 12.1001C6.19332 12.167 6.20765 12.2195 6.22675 12.2577C6.24585 12.2959 6.2554 12.3341 6.26017 12.3771C6.26017 12.4153 6.28405 12.463 6.31747 12.5156C6.33658 12.5394 6.3509 12.5633 6.37 12.5824C6.38433 12.6015 6.40343 12.6254 6.41775 12.6493C6.4846 12.7639 6.59921 12.8116 6.75678 12.7925C6.82841 12.783 6.89526 12.7782 6.95256 12.7782C7.00987 12.7782 7.07672 12.7687 7.14834 12.7448C7.21997 12.7209 7.30592 12.7066 7.4062 12.6922C7.50648 12.6779 7.58765 12.6779 7.64496 12.6827C7.65451 12.654 7.73091 12.6302 7.86939 12.6158C8.00786 12.6015 8.10814 12.5729 8.17977 12.5394C8.19409 12.5394 8.2705 12.5156 8.4042 12.4821C8.5379 12.4439 8.6143 12.4248 8.62863 12.4248C8.69548 12.3866 8.79098 12.3532 8.91514 12.3198C9.03451 12.2864 9.13002 12.2625 9.20642 12.2529C9.27804 12.2338 9.3449 12.2052 9.40697 12.1765C9.4213 12.1718 9.4404 12.1718 9.45472 12.1622L10.2951 7.01942C10.2904 6.95256 10.2856 6.88571 10.2856 6.82841L10.2808 6.83796ZM5.26695 3.88217C5.26217 3.81532 5.2574 3.75324 5.26217 3.70071C5.26217 3.64341 5.29083 3.58133 5.34335 3.50493C5.38155 3.44763 5.41498 3.38078 5.44363 3.30915C5.47228 3.23753 5.52003 3.17068 5.58688 3.1086C5.69193 2.99877 5.82086 2.87939 5.96889 2.74569C6.11692 2.61199 6.27927 2.50216 6.46073 2.41143C6.55623 2.37323 6.66128 2.32548 6.77589 2.27295C6.88571 2.22043 6.98599 2.17268 7.07194 2.13448C7.08627 2.13448 7.12924 2.11538 7.1961 2.08672C7.26772 2.05807 7.3298 2.03897 7.3871 2.0342C7.4444 2.02942 7.53035 2.00555 7.64496 1.96257C7.71658 1.92915 7.78343 1.91005 7.85984 1.91482C7.93146 1.9196 8.00786 1.91482 8.07472 1.89094C8.11769 1.89094 8.16067 1.87662 8.20364 1.86707C8.24662 1.85752 8.2896 1.84797 8.33257 1.84319L8.52835 1.81932C8.64773 1.83364 8.76233 1.83364 8.87693 1.82887C8.99154 1.82409 9.11092 1.82887 9.23029 1.85752C9.39265 1.88139 9.52635 1.9578 9.62663 2.09627C9.66005 2.12015 9.67915 2.1679 9.68393 2.23475C9.69348 2.34458 9.67915 2.44486 9.63618 2.54036C9.5932 2.63586 9.54545 2.71704 9.4977 2.79344C9.46905 2.82209 9.44995 2.85552 9.4404 2.88417C9.42607 2.91282 9.40697 2.94147 9.3831 2.9749C9.35445 3.00355 9.3258 3.0322 9.29237 3.05607C9.25894 3.07995 9.20642 3.09905 9.13002 3.10382C9.10137 3.10382 9.06794 3.12292 9.02496 3.1468C8.98199 3.17068 8.93424 3.18978 8.87693 3.19455C8.80531 3.21843 8.73846 3.23275 8.6716 3.23753C8.60475 3.24708 8.5379 3.2614 8.46627 3.2805C8.4233 3.2996 8.37077 3.30915 8.30392 3.30915C8.23707 3.30915 8.18932 3.30915 8.16544 3.31393C8.15112 3.31393 8.11769 3.32348 8.06994 3.33303C8.02219 3.34735 7.98876 3.35213 7.97444 3.3569C7.81686 3.39033 7.71658 3.40943 7.67361 3.41421C7.63063 3.41898 7.59243 3.42376 7.56378 3.42853C7.44918 3.47151 7.33935 3.50016 7.22475 3.51926C7.11014 3.53836 6.99554 3.57178 6.88571 3.60999C6.81409 3.63386 6.75201 3.64341 6.70426 3.65296C6.65173 3.65774 6.59921 3.67684 6.54668 3.71026L6.44163 3.76279C6.37 3.80099 6.31747 3.83442 6.2745 3.86307C6.2363 3.89649 6.1981 3.92037 6.17422 3.93469C6.1599 3.93469 6.13124 3.94902 6.08827 3.97767C6.04529 4.00154 6.01187 4.02542 5.98322 4.03975C5.91159 4.07795 5.85906 4.11615 5.82086 4.1639L5.72059 4.2785C5.69193 4.30715 5.65851 4.33103 5.61553 4.34058C5.57256 4.35013 5.53436 4.34535 5.50571 4.32148C5.47228 4.2976 5.43885 4.2594 5.39588 4.21165C5.3529 4.15912 5.3338 4.1257 5.32903 4.09705C5.32903 4.0684 5.3147 4.03497 5.2956 3.98722C5.2765 3.93947 5.26695 3.90604 5.26217 3.87739L5.26695 3.88217Z" fill="#556677"/>
<path d="M16.7654 14.7933C16.8466 14.6166 16.9278 14.4352 17.0137 14.2489C17.0137 14.1964 17.0424 14.1439 17.0806 14.0914C17.1188 14.0388 17.1427 13.9863 17.1474 13.9338C17.1474 13.9195 17.1618 13.886 17.1904 13.824C17.2191 13.7666 17.2286 13.7284 17.2334 13.7141C17.2716 13.6186 17.3098 13.5327 17.3528 13.4563C17.3957 13.3751 17.4339 13.2939 17.4721 13.1984C17.4865 13.1698 17.5008 13.1411 17.5103 13.0981C17.5199 13.0599 17.5342 13.017 17.5533 12.9788C17.5533 12.9262 17.5724 12.8546 17.6011 12.7687C17.6297 12.6827 17.6584 12.6206 17.6918 12.5824C17.7109 12.5442 17.7348 12.4726 17.773 12.3628C17.8112 12.272 17.8303 12.1813 17.8398 12.0954C17.8494 12.0094 17.8637 11.9091 17.8876 11.8041C17.8876 11.7611 17.8971 11.7229 17.9067 11.6847C17.9162 11.6465 17.9258 11.5987 17.9305 11.5462C17.921 11.4937 17.921 11.4268 17.9353 11.3552C17.9496 11.2836 17.9449 11.212 17.921 11.1403C17.9114 11.0974 17.9019 11.0544 17.9019 10.9971C17.9019 10.9446 17.878 10.8873 17.8398 10.8347L17.7634 10.7536L17.7873 10.3238C17.3862 10.1853 16.9134 10.2426 16.4837 10.362C16.4741 10.362 16.4598 10.3763 16.455 10.3763C16.4359 10.3763 16.4073 10.3906 16.3834 10.405C16.3404 10.4097 16.2927 10.4288 16.2354 10.4623C16.2211 10.4623 16.1685 10.4861 16.0778 10.5243C16.0444 10.5387 15.8534 10.6151 15.6194 10.7058C15.5812 10.7249 15.5334 10.7488 15.5048 10.7679L15.4952 10.7536C15.0989 10.9111 14.6357 11.0926 14.5736 11.126C14.4877 11.1594 12.2911 12.0428 11.2358 12.4726C10.7774 15.1323 10.2856 17.9831 10.085 19.1721H14.8076C14.8363 19.11 14.8602 19.0479 14.8745 18.9811C14.8888 18.9094 14.9079 18.8521 14.9413 18.8139C15.0082 18.7089 15.0559 18.5943 15.0894 18.4654C15.1228 18.3364 15.1705 18.2362 15.2326 18.1598C15.2326 18.1311 15.2613 18.0643 15.3138 17.9592C15.3663 17.8541 15.4332 17.7348 15.5143 17.6058C15.5478 17.539 15.5764 17.4721 15.5955 17.4053C15.6146 17.3384 15.6337 17.2716 15.6528 17.2047C15.6719 17.1236 15.7149 17.0424 15.7674 16.9564C15.8247 16.8705 15.8725 16.7893 15.9059 16.7081C15.9202 16.6795 15.9489 16.6126 15.9871 16.5076C16.0253 16.4025 16.0683 16.2879 16.1112 16.1685C16.159 16.0492 16.202 15.9441 16.2449 15.8534C16.2879 15.7626 16.3261 15.7101 16.3548 15.6958C16.3739 15.6146 16.3977 15.5525 16.4216 15.5096C16.4455 15.4618 16.4789 15.4093 16.5123 15.3424C16.5983 15.1562 16.6842 14.9748 16.7606 14.7981L16.7654 14.7933Z" fill="#556677"/>
<path d="M3.30915 4.89449C3.3187 4.82286 3.32348 4.75601 3.33303 4.68916C3.34258 4.61753 3.34735 4.53158 3.35213 4.42175C3.34735 4.3549 3.3378 4.30238 3.32825 4.26895C3.3187 4.23552 3.30438 4.20687 3.28528 4.183C3.11337 4.2021 2.95102 4.24985 2.79822 4.32625C2.78389 4.32625 2.74569 4.34058 2.67884 4.36923C2.61676 4.39788 2.54514 4.42653 2.46873 4.45518C2.39233 4.48383 2.3207 4.51726 2.25863 4.54113C2.19655 4.56978 2.15835 4.58411 2.14403 4.58411C1.98645 4.64141 1.84319 4.71304 1.71427 4.78944C1.58056 4.86584 1.44208 4.94224 1.28928 5.01387C1.30838 5.06639 1.32748 5.13802 1.34181 5.22397C1.35613 5.30993 1.36568 5.38633 1.37523 5.45795C1.38001 5.52481 1.38956 5.59166 1.39433 5.66328C1.39911 5.73014 1.41343 5.79699 1.43731 5.86384C1.45163 5.88771 1.46596 5.94024 1.47073 6.01187C1.48028 6.08827 1.49461 6.16945 1.51849 6.26017C1.54236 6.34135 1.55669 6.41775 1.57579 6.49893C1.59011 6.58011 1.59966 6.63263 1.59966 6.66128C1.61399 6.68516 1.64741 6.77589 1.69039 6.93824C1.73337 7.09582 1.75724 7.19132 1.76202 7.2152C1.80977 7.3871 1.83842 7.56378 1.85752 7.74523C1.87184 7.92669 1.89094 8.01741 1.90527 8.01741C1.91482 8.11292 1.92437 8.19887 1.9387 8.28005C1.95302 8.36122 1.97212 8.43285 1.99122 8.4997C2.01032 8.5379 2.01987 8.57133 2.01987 8.59998C2.01987 8.62863 2.02942 8.6525 2.04852 8.67638C2.07717 8.66205 2.14403 8.62863 2.25863 8.59043C2.36846 8.54745 2.48306 8.50925 2.59766 8.46628C2.71226 8.4233 2.80777 8.38987 2.88417 8.36122C2.96057 8.33257 3.0131 8.3087 3.04175 8.2896C3.15635 8.26095 3.29005 8.21319 3.44286 8.13679L3.32825 7.86461C3.29483 7.80254 3.2614 7.67838 3.23753 7.49693C3.21365 7.31547 3.19933 7.19132 3.18978 7.12447C3.185 7.05762 3.17545 6.98599 3.16112 6.91436C3.1468 6.84274 3.1468 6.74723 3.1659 6.63741C3.185 6.52758 3.19455 6.41775 3.18978 6.30792C3.18978 6.1981 3.18978 6.08827 3.21365 5.97844L3.27573 5.70626C3.27573 5.70626 3.27573 5.67761 3.2805 5.65373C3.28528 5.62986 3.28528 5.60121 3.2805 5.56301C3.2805 5.45318 3.2805 5.36723 3.2805 5.30515C3.27573 5.24307 3.2805 5.16667 3.2996 5.06639C3.2996 5.02819 3.2996 4.97089 3.30438 4.90404L3.30915 4.89449Z" fill="#556677"/>
<path d="M19.067 12.7352L18.9524 12.9215L18.8617 12.9692L18.8187 13.1984L18.7566 13.27L18.7328 13.3799L18.7041 13.4945L18.642 13.6186L18.5609 13.7523L18.5465 13.9195L18.58 13.9624H18.642L18.6182 14.0054L18.5609 14.1869H18.537L18.4845 14.4638L18.4606 14.4781L18.4224 14.5259H18.3746L18.2409 14.8363L18.2791 14.8649L18.1741 15.118L18.0834 15.075L18.0261 15.1944L18.0547 15.2995L17.9735 15.395L17.9926 15.4141L17.9114 15.6337L17.9019 15.734C17.9019 15.7865 17.8398 15.8438 17.7395 15.9011C17.6345 15.9584 17.582 16.0205 17.5724 16.0874L17.6297 16.1685L17.5629 16.4694L17.4339 16.7272C17.4339 16.7559 17.4148 16.7988 17.3814 16.8561C17.348 16.9182 17.3241 16.9564 17.3098 16.9851L17.2811 17.0472L17.1761 17.0233L17.1474 17.1045L17.2525 17.1283V17.1474C17.2525 17.1713 17.2382 17.2047 17.2238 17.2477C17.2047 17.2859 17.1856 17.3289 17.1713 17.3671L17.0663 17.582L17.0042 17.5629L17.0663 17.3241H17.0233L16.8609 17.7395L16.7702 17.835L16.7606 17.9544L16.6842 18.0929L16.6508 18.2505L16.5219 18.4892L16.5601 18.5513L16.6699 18.494H16.7988L16.7893 18.5991H16.7463C16.7463 18.5991 16.7081 18.6086 16.6795 18.6373C16.646 18.6611 16.6269 18.6802 16.6126 18.6946L16.5744 18.8951L16.5171 19.0766V19.0957C16.5171 19.1291 16.5076 19.1482 16.5028 19.1769H17.0376C18.2123 19.1769 19.1769 18.2123 19.1769 17.0376V12.6731L19.1482 12.7496H19.0861L19.067 12.7352ZM16.732 18.8951L16.689 18.9142L16.6986 18.771L16.7654 18.7328L16.732 18.8951ZM16.7941 18.4319H16.7081L16.7606 18.2887L16.8227 18.3126L16.7893 18.4319H16.7941ZM16.8896 18.155C16.88 18.1932 16.8609 18.2123 16.8323 18.2123C16.8323 18.1836 16.8418 18.1454 16.8514 18.0929C16.8609 18.0404 16.8848 18.0117 16.9134 18.0165L16.9517 18.0595C16.923 18.0881 16.8991 18.1168 16.8896 18.1598V18.155ZM17.0281 17.9353H16.9421L16.923 17.9114L16.9755 17.8303H17.0376L17.0281 17.9353ZM17.0424 17.773H16.9994L17.0281 17.6727L17.071 17.6966L17.0424 17.7777V17.773ZM17.7252 16.1924L17.7061 16.1494V16.1303L17.73 16.0921L17.7777 16.0539L17.7968 16.0969L17.7252 16.1972V16.1924ZM17.7395 16.0301L17.7013 16.0062L17.7921 15.9298L17.8112 15.9728L17.7395 16.0301ZM17.878 15.9346L17.8398 15.8916L17.9114 15.8152L17.9305 15.8581L17.8828 15.9393L17.878 15.9346ZM18.112 15.4427L18.0643 15.5H18.0213L18.0308 15.4188L18.0977 15.3615H18.1407L18.112 15.4427ZM18.1025 15.2804L18.0643 15.1992L18.0881 15.161L18.1502 15.1849L18.0977 15.2851L18.1025 15.2804ZM18.6802 13.7714L18.6277 13.8908L18.5847 13.9099L18.5943 13.7905L18.6946 13.6329L18.7375 13.6138L18.6802 13.7714ZM19.067 13.017L19.024 13.0361L18.9906 13.1745L18.9429 13.2509L18.9142 13.3321H18.8712L18.7614 13.3464L18.7901 13.2891L18.8808 13.2318L18.8999 13.0313L18.9476 12.9931H18.9954L19.0527 12.8976H19.11L19.0766 13.017H19.067Z" fill="#556677"/>
<path d="M72.2475 16.8227H71.7461V19.11H72.2475V16.8227Z" fill="#556677"/>
<path d="M73.8805 17.7921L73.2025 16.8275H72.7202V19.1148H73.2025V18.198C73.2025 18.007 73.2025 17.7921 73.1977 17.6297H73.2025C73.3075 17.7873 73.4221 17.9544 73.5367 18.1168L73.8662 18.5895L74.2005 18.1216C74.3151 17.9592 74.4297 17.7921 74.5347 17.6345H74.5395C74.5395 17.8016 74.5347 18.0165 74.5347 18.2075V19.1243H75.0361V16.837H74.5634L73.8853 17.8016L73.8805 17.7921Z" fill="#556677"/>
<path d="M76.6692 17.7968L75.9911 16.8323H75.5089V19.1196H75.9911V18.2027C75.9911 18.0117 75.9911 17.7968 75.9864 17.6345H75.9911C76.0962 17.7921 76.2108 17.9592 76.3254 18.1216L76.6549 18.5943L76.9891 18.1263C77.1037 17.964 77.2183 17.7968 77.3234 17.6393H77.3282C77.3282 17.8064 77.3234 18.0213 77.3234 18.2123V19.1291H77.8248V16.8418H77.352L76.674 17.8064L76.6692 17.7968Z" fill="#556677"/>
<path d="M79.7826 18.007C79.7826 18.2457 79.7539 18.4033 79.6823 18.5131C79.6059 18.6277 79.477 18.7041 79.2764 18.7041C79.0615 18.7041 78.9278 18.6134 78.861 18.5036C78.7941 18.3937 78.775 18.2457 78.775 18.007V16.837H78.2736V18.0261C78.2736 18.3508 78.3214 18.5991 78.4408 18.7853C78.6031 19.024 78.8992 19.1578 79.2621 19.1578C79.6298 19.1578 79.9211 19.024 80.0834 18.7901C80.2123 18.6086 80.2601 18.3555 80.2601 18.0117V16.8323H79.7778V18.007H79.7826Z" fill="#556677"/>
<path d="M82.2991 17.6822C82.2991 17.9019 82.2991 18.1263 82.3038 18.3412H82.2991C82.1558 18.1454 82.0173 17.9544 81.8693 17.7539L81.1865 16.8323H80.7137V19.1196H81.196V18.2696C81.196 18.0499 81.196 17.8255 81.1912 17.6106H81.196C81.3393 17.8064 81.4777 17.9974 81.6258 18.198L82.3086 19.1196H82.7814V16.8323H82.2991V17.6822Z" fill="#556677"/>
<path d="M83.7555 18.1407H84.5386V17.7252L83.7555 17.7204V17.2764H84.6627V16.837H83.2541L83.2493 19.1196H84.6962V18.685L83.7555 18.6802V18.1407Z" fill="#556677"/>
<path d="M87.3702 17.7204H86.3818V16.837H85.8804V19.1243H86.3818V18.1598H87.3702V19.1243H87.8716V16.837H87.3702V17.7204Z" fill="#556677"/>
<path d="M89.4379 16.8036C88.7598 16.8036 88.2441 17.3146 88.2441 17.9783C88.2441 18.642 88.755 19.1578 89.4379 19.1578C90.1159 19.1578 90.6316 18.6468 90.6316 17.9831C90.6316 17.3146 90.1159 16.8036 89.4379 16.8036ZM89.4331 18.7041C89.0368 18.7041 88.7407 18.3842 88.7407 17.9783C88.7407 17.5724 89.0368 17.2573 89.4331 17.2573C89.8294 17.2573 90.1255 17.5772 90.1255 17.9831C90.1255 18.389 89.8294 18.7041 89.4331 18.7041Z" fill="#556677"/>
<path d="M91.9018 17.773C91.6249 17.6822 91.4148 17.6631 91.4148 17.4626C91.4148 17.3098 91.5389 17.2477 91.7108 17.2477C91.8875 17.2477 92.1692 17.3193 92.4128 17.4674V16.9707C92.2122 16.8609 91.94 16.8084 91.7156 16.8036C91.2333 16.8036 90.9134 17.0663 90.9134 17.496C90.9134 17.8923 91.1951 18.0499 91.5103 18.155C91.8015 18.2505 92.0164 18.2696 92.0164 18.4797C92.0164 18.6516 91.8779 18.7232 91.6965 18.7232C91.515 18.7232 91.2094 18.6516 90.9659 18.4845V18.9906C91.1808 19.1005 91.4625 19.1578 91.6869 19.1578C92.1788 19.1578 92.5178 18.8903 92.5178 18.4463C92.5178 18.0404 92.2409 17.8828 91.897 17.7682L91.9018 17.773Z" fill="#556677"/>
<path d="M94.2321 16.966C94.0506 16.8705 93.8262 16.8466 93.554 16.8466H92.8759V19.1339H93.3773V18.3173H93.5349C93.8692 18.3173 94.0984 18.2791 94.275 18.1741C94.4661 18.0595 94.6045 17.8589 94.6045 17.5772C94.6045 17.2668 94.4326 17.071 94.2368 16.966H94.2321ZM93.9551 17.8494C93.8692 17.8971 93.7546 17.9067 93.5588 17.9067H93.3773V17.2859H93.5492C93.7259 17.2859 93.8501 17.2907 93.9408 17.3337C94.0458 17.3814 94.1031 17.4721 94.1031 17.6011C94.1031 17.7157 94.0506 17.8016 93.9599 17.8494H93.9551Z" fill="#556677"/>
<path d="M95.445 16.8466H94.9436V19.1339H95.445V16.8466Z" fill="#556677"/>
<path d="M97.737 16.8466H95.7553V17.2859H96.4955L96.4907 19.1339H96.9969V17.2859H97.737V16.8466Z" fill="#556677"/>
<path d="M98.4867 16.8466L97.5556 19.1291H98.0713L98.2575 18.6516H99.1791L99.3605 19.1339H99.8954L98.969 16.8466H98.4819H98.4867ZM98.4151 18.26L98.5058 18.0165C98.5774 17.8255 98.6634 17.5963 98.7207 17.4244H98.7255C98.7875 17.5963 98.8687 17.8255 98.9356 18.007L99.0311 18.2648H98.4151V18.26Z" fill="#556677"/>
<path d="M100.674 16.8514H100.172V19.1339L101.676 19.1387V18.6993H100.674V16.8514Z" fill="#556677"/>
<path d="M103.405 17.5199C103.162 17.5199 102.951 17.6154 102.803 17.773C102.636 17.9496 102.546 18.198 102.546 18.4272C102.546 18.8617 102.856 19.1434 103.276 19.1434C103.52 19.1434 103.73 19.0479 103.878 18.8903C104.045 18.7137 104.136 18.4654 104.136 18.2362C104.136 17.8016 103.825 17.5199 103.405 17.5199ZM103.677 18.7232C103.582 18.8283 103.448 18.8856 103.3 18.8856C102.999 18.8856 102.832 18.6755 102.832 18.4081C102.832 18.2362 102.899 18.0595 103.009 17.9401C103.104 17.835 103.238 17.7777 103.386 17.7777C103.687 17.7777 103.854 17.9878 103.854 18.2553C103.854 18.4272 103.787 18.6038 103.677 18.7232Z" fill="#556677"/>
<path d="M105.057 16.7797C104.967 16.8514 104.895 16.9803 104.861 17.1761L104.795 17.5533H104.551L104.508 17.8064H104.752L104.522 19.1052H104.804L105.033 17.8064H105.42L105.463 17.5533H105.076L105.138 17.2191C105.162 17.0758 105.201 17.0185 105.243 16.9803C105.291 16.9373 105.353 16.9182 105.43 16.9182C105.501 16.9182 105.568 16.9326 105.635 16.9612L105.678 16.7033C105.602 16.6795 105.516 16.6604 105.434 16.6604C105.291 16.6604 105.158 16.6938 105.057 16.7797Z" fill="#556677"/>
<path d="M108.452 16.8514H107.86L107.063 17.8637L107.053 17.8589V16.8514H106.552V19.1387L107.053 19.1339V17.9974L107.063 17.9926L107.913 19.1339H108.529L107.593 17.9114L108.452 16.8514Z" fill="#556677"/>
<path d="M109.746 16.8132C109.068 16.8132 108.553 17.3241 108.553 17.9926C108.553 18.6564 109.068 19.1673 109.746 19.1673C110.424 19.1673 110.94 18.6564 110.94 17.9878C110.94 17.3193 110.424 16.8132 109.746 16.8132ZM109.746 18.7137C109.35 18.7137 109.054 18.3937 109.054 17.9926C109.054 17.5867 109.35 17.2716 109.746 17.2668C110.143 17.2668 110.439 17.5867 110.439 17.9878C110.439 18.3937 110.143 18.7089 109.746 18.7137Z" fill="#556677"/>
<path d="M113.013 17.5342C113.013 17.2716 112.903 17.0997 112.736 16.9994C112.554 16.8848 112.296 16.8466 112.024 16.8466H111.308V19.1339H111.809V18.2314H112.034L112.611 19.1339H113.189L112.545 18.1693C112.845 18.069 113.008 17.8303 113.008 17.539L113.013 17.5342ZM112.382 17.7968C112.306 17.835 112.201 17.8494 112.067 17.8494H111.814V17.2811H112.005C112.177 17.2811 112.301 17.3002 112.382 17.3384C112.473 17.3862 112.511 17.453 112.511 17.5629C112.511 17.6727 112.468 17.7491 112.382 17.7921V17.7968Z" fill="#556677"/>
<path d="M113.925 18.6898V18.1502L114.708 18.1454V17.73H113.925V17.2811H114.837L114.832 16.8418L113.423 16.8466V19.1291H114.87V18.6898H113.925Z" fill="#556677"/>
<path d="M115.978 16.8418L115.052 19.1291H115.567L115.754 18.6468H116.675L116.857 19.1243H117.391L116.46 16.837H115.973L115.978 16.8418ZM115.906 18.2553L115.997 18.0117C116.069 17.8207 116.15 17.5915 116.212 17.4196H116.217C116.279 17.5915 116.36 17.8207 116.427 18.0022L116.522 18.26H115.906V18.2553Z" fill="#556677"/>
<path d="M119.254 16.8418V17.6918C119.254 17.9114 119.254 18.1359 119.263 18.3508H119.258C119.115 18.155 118.977 17.964 118.829 17.7634L118.141 16.8418H117.668V19.1291H118.151V18.2791C118.151 18.0595 118.151 17.835 118.146 17.6202H118.151C118.294 17.8159 118.432 18.0069 118.58 18.2075L119.268 19.1291H119.741V16.8418H119.254Z" fill="#556677"/>
<path d="M122.697 16.837L122.018 17.8016L121.34 16.837H120.858V19.1243H121.34V18.2075C121.34 18.0165 121.34 17.8016 121.336 17.6393H121.34C121.45 17.7968 121.56 17.964 121.675 18.1263L122.004 18.5943L122.334 18.1216C122.448 17.9592 122.563 17.7921 122.668 17.6297H122.673C122.673 17.7968 122.668 18.0117 122.668 18.2027V19.1196H123.169V16.8323H122.692L122.697 16.837Z" fill="#556677"/>
<path d="M124.148 18.6802V18.1407H124.931L124.927 17.7204H124.148V17.2764L125.055 17.2716V16.8323L123.642 16.837L123.647 19.1196H125.089V18.6802H124.148Z" fill="#556677"/>
<path d="M127.071 17.0615C126.832 16.8991 126.517 16.8323 126.111 16.8323H125.471V19.1196H126.092C126.569 19.1196 126.899 19.0288 127.133 18.8378C127.376 18.6373 127.51 18.3317 127.51 17.9735C127.51 17.582 127.352 17.262 127.071 17.0663V17.0615ZM126.789 18.4988C126.646 18.6229 126.44 18.6802 126.111 18.6802H125.972V17.2716H126.106C126.364 17.2716 126.579 17.2955 126.741 17.4101C126.913 17.5294 127.008 17.73 127.008 17.9735C127.008 18.2027 126.923 18.3842 126.789 18.4988Z" fill="#556677"/>
<path d="M128.369 16.8323H127.868V19.1196H128.369V16.8323Z" fill="#556677"/>
<path d="M130.007 18.6993C129.534 18.6993 129.243 18.3794 129.243 17.9687C129.243 17.5533 129.544 17.2477 129.988 17.2429C130.222 17.2429 130.451 17.3289 130.618 17.4435V16.9373C130.437 16.8514 130.213 16.7941 129.983 16.7941C129.248 16.7941 128.742 17.3146 128.742 17.9783C128.742 18.642 129.253 19.153 129.988 19.153C130.217 19.153 130.461 19.1052 130.657 19.0002V18.4892C130.466 18.6182 130.246 18.6993 130.007 18.6993Z" fill="#556677"/>
<path d="M131.54 16.8275H131.039V19.1148H131.54V16.8275Z" fill="#556677"/>
<path d="M133.598 16.8275V17.6775C133.598 17.8971 133.598 18.1216 133.608 18.3364H133.603C133.46 18.1407 133.321 17.9496 133.173 17.7491L132.486 16.8275H132.013V19.1148H132.495V18.2648C132.495 18.0452 132.495 17.8207 132.49 17.6058H132.495C132.638 17.8016 132.777 17.9926 132.925 18.1932L133.612 19.1148H134.085V16.8275H133.598Z" fill="#556677"/>
<path d="M135.055 18.6707V18.1311L135.838 18.1263V17.7109H135.055V17.262H135.962V16.8227L134.553 16.8275V19.11H136V18.6707H135.055Z" fill="#556677"/>
<path d="M46.3998 0.0143253H43.0285V2.47351H39.8626L39.8865 1.37046C39.9056 0.272181 39.1512 0.0143253 38.2964 0.0143253H27.9392V9.98954C27.9392 10.2999 28.2018 10.553 28.5265 10.553H39.3135L39.4663 8.11769H43.0285V12.4057C43.0285 12.5633 43.1575 12.6875 43.3198 12.6875H46.6911V0.296057C46.6911 0.138478 46.5621 0.0143253 46.3998 0.0143253ZM36.181 8.20364H32.1986C31.8023 8.11769 31.6017 7.92669 31.6017 7.5399V2.34458H35.7035C36.0235 2.43053 36.181 2.58334 36.181 2.88894V8.20364ZM43.0285 6.2554H39.6191L39.7671 4.34058H43.0285V6.2554Z" fill="#556677"/>
<path d="M46.4093 16.6747H33.1727C32.7095 16.6747 32.4803 16.4646 32.4803 16.0826L32.4708 12.6922H28.8083V17.5151C28.8083 18.6182 29.3956 19.1721 30.575 19.1721H46.7006V16.9612C46.7006 16.8036 46.5765 16.6795 46.4141 16.6795L46.4093 16.6747Z" fill="#556677"/>
<path d="M98.31 0.749693C98.3243 0.348583 97.9662 0.0143253 97.5174 0.0143253H95.4975V2.33503H92.1883V0.0143253H89.3567V6.37478C89.3567 7.12924 89.9822 7.58288 90.7319 7.58288H98.31V0.749693ZM92.7375 5.90204C92.3746 5.90204 92.1931 5.74446 92.1931 5.4293V3.90127H95.5023V5.90204H92.7375Z" fill="#556677"/>
<path d="M101.17 9.72213C100.11 9.11569 98.6682 8.81486 96.8393 8.81486C95.0104 8.81486 93.597 9.11092 92.5512 9.70303C91.5055 10.2951 90.9802 11.0639 90.9802 12.0094C90.9802 12.9549 91.5055 13.7237 92.5512 14.311C93.597 14.8984 95.0247 15.1896 96.8393 15.1896C98.6538 15.1896 100.11 14.8936 101.17 14.2967C102.187 13.7189 102.698 12.9549 102.698 12.0094C102.698 11.0639 102.187 10.2999 101.17 9.72213ZM99.0311 13.2987C98.4676 13.6186 97.7322 13.781 96.8345 13.781C95.9368 13.781 95.2062 13.6186 94.6523 13.2987C94.0984 12.974 93.8214 12.5442 93.8214 12.0046C93.8214 11.465 94.0984 11.0305 94.6523 10.7058C95.2062 10.3763 95.9368 10.214 96.8345 10.214C97.7322 10.214 98.4676 10.3763 99.0311 10.7058C99.5945 11.0353 99.881 11.465 99.881 12.0046C99.881 12.5442 99.5993 12.974 99.0311 13.2987Z" fill="#556677"/>
<path d="M100.091 7.58288H102.698V5.99277H104.618V4.62708H102.698V0.219655C102.698 0.105052 102.598 0.0143253 102.469 0.0143253H99.8619V7.37755C99.8619 7.49215 99.9622 7.58288 100.091 7.58288Z" fill="#556677"/>
<path d="M113.605 8.81008C111.79 8.81008 110.362 9.10614 109.317 9.69825C108.271 10.2904 107.746 11.0592 107.746 12.0046C107.746 12.9501 108.271 13.7189 109.317 14.3062C110.362 14.8936 111.79 15.1849 113.605 15.1849C115.419 15.1849 116.876 14.8888 117.936 14.2919C118.953 13.7141 119.464 12.9501 119.464 12.0046C119.464 11.0592 118.953 10.2951 117.936 9.71735C116.876 9.11092 115.434 8.81008 113.605 8.81008ZM115.796 13.2987C115.233 13.6186 114.498 13.781 113.6 13.781C112.702 13.781 111.972 13.6186 111.418 13.2987C110.864 12.974 110.582 12.5442 110.582 12.0046C110.582 11.465 110.859 11.0305 111.418 10.7058C111.972 10.3763 112.702 10.214 113.6 10.214C114.498 10.214 115.233 10.3763 115.796 10.7058C116.36 11.0353 116.646 11.465 116.646 12.0046C116.646 12.5442 116.365 12.974 115.796 13.2987Z" fill="#556677"/>
<path d="M114.292 7.58288V5.99277H116.651V7.38232C116.651 7.49693 116.752 7.58765 116.88 7.58765H119.488V0.219655C119.488 0.105052 119.387 0.0143253 119.258 0.0143253H116.651V2.17745H114.292V0.749693C114.307 0.348583 113.949 0.0143253 113.5 0.0143253H111.48V2.33503H108.4V0.0143253H105.668V6.37478C105.668 7.12924 106.294 7.58288 107.039 7.58288H114.292ZM114.292 3.52881H116.651V4.62708H114.292V3.52881ZM108.405 3.90127H111.485V5.90204H108.949C108.586 5.90204 108.405 5.74446 108.405 5.4293V3.90127Z" fill="#556677"/>
<path d="M64.889 0.0143253V2.44963H60.8015L60.8731 1.27973C60.9352 0.253081 60.4291 0.0143253 59.3451 0.0143253H49.8904V2.06285H56.5087C56.905 2.06285 57.1056 2.27773 57.1056 2.70749V4.34058H49.7949V8.2896C49.7949 9.96566 50.6162 10.7345 52.0153 10.9589C52.8557 11.0926 53.6484 11.2311 54.7944 11.1976C58.371 11.0974 60.2858 9.72213 60.4959 9.25894V8.22752C58.8867 8.97721 55.3961 8.84828 54.4411 8.64773C53.8442 8.52358 53.4335 8.19887 53.4335 7.78821V6.34612H60.4959L60.6392 4.32148H64.8938V6.36523H60.5007V8.23229H64.8938V10.8347C64.8938 10.9923 65.0227 11.1165 65.1851 11.1165H68.5563V0.305607C68.5563 0.138478 68.4274 0.0143253 68.265 0.0143253H64.889Z" fill="#556677"/>
<path d="M66.7847 12.6922H50.6639L50.6544 14.9031C50.6544 15.0607 50.7833 15.1849 50.9457 15.1849H64.1823C64.6455 15.1849 64.8747 15.3759 64.8747 15.7626L64.8842 19.1721H68.5467V14.3492C68.5467 13.2462 67.9594 12.6922 66.7799 12.6922H66.7847Z" fill="#556677"/>
<path d="M125.418 10.7488H128.217V8.26572C131.846 8.26572 133.164 7.3107 133.164 7.3107V9.39742H130.322V10.7488H133.164V11.1165C133.164 11.2311 133.264 11.3218 133.393 11.3218H136V0.219655C136 0.105052 135.9 0.0143253 135.771 0.0143253H133.164V5.62508C133.164 6.76156 131.454 6.72813 125.628 6.72813H121.675V8.28005H125.418V10.7488Z" fill="#556677"/>
<path d="M123.27 5.24785C124.086 5.83996 125.218 6.13602 126.669 6.13602C128.121 6.13602 129.267 5.83996 130.069 5.24785C130.824 4.69871 131.201 3.96812 131.201 3.06562C131.201 2.16313 130.824 1.43731 130.069 0.883396C129.262 0.305607 128.131 0.0143253 126.669 0.0143253C125.208 0.0143253 124.086 0.305607 123.27 0.888171C122.501 1.44208 122.114 2.1679 122.114 3.0704C122.114 3.97289 122.501 4.69871 123.27 5.25262V5.24785ZM125.461 1.89094C125.762 1.59489 126.163 1.45163 126.669 1.45163C127.176 1.45163 127.577 1.59966 127.878 1.89094C128.174 2.187 128.326 2.57856 128.326 3.0704C128.326 3.56223 128.178 3.95379 127.878 4.24985C127.577 4.54591 127.176 4.69394 126.669 4.69394C126.163 4.69394 125.762 4.54591 125.461 4.24985C125.165 3.95379 125.012 3.56223 125.012 3.0704C125.012 2.57856 125.16 2.187 125.461 1.89094Z" fill="#556677"/>
<path d="M135.78 12.7018H125.939C125.595 12.7018 125.418 12.5681 125.418 12.3007V10.7536H122.572V13.2939C122.572 14.0675 123.012 14.4543 123.895 14.4543H135.995V12.9071C135.995 12.7973 135.895 12.7114 135.776 12.7114L135.78 12.7018Z" fill="#556677"/>
<path d="M72.5196 5.59166C72.5196 6.63263 72.8873 7.47305 73.6179 8.10814C74.3963 8.79576 75.4754 9.13479 76.8554 9.13479C78.2354 9.13479 79.3289 8.79098 80.093 8.10814C80.814 7.47305 81.1721 6.63263 81.1721 5.59166C81.1721 4.55068 80.814 3.71026 80.093 3.0704C79.8924 2.89372 79.668 2.74091 79.4245 2.61199H81.9505V0.940697H78.4217V0.0143253H75.3704V0.940697H71.7508V2.61199H74.3008C74.0572 2.74091 73.828 2.89372 73.6227 3.0704C72.8921 3.71026 72.5244 4.54591 72.5244 5.59166H72.5196ZM75.6235 4.2021C75.9291 3.85352 76.3397 3.68161 76.8554 3.68161C77.3712 3.68161 77.7818 3.85352 78.0874 4.2021C78.393 4.55068 78.5458 5.01387 78.5458 5.59166C78.5458 6.16945 78.393 6.63263 78.0874 6.98599C77.7818 7.33457 77.3712 7.50648 76.8554 7.50648C76.3397 7.50648 75.9291 7.33457 75.6235 6.98599C75.3179 6.63741 75.165 6.17422 75.165 5.59166C75.165 5.00909 75.3179 4.54591 75.6235 4.2021Z" fill="#556677"/>
<path d="M86.2576 0.219655C86.2576 0.105052 86.1574 0.0143253 86.0284 0.0143253H83.4021V9.87493C83.4021 9.98954 83.5024 10.0803 83.6313 10.0803H86.2576V5.99277H87.991V4.62708H86.2576V0.219655Z" fill="#556677"/>
<path d="M75.5948 12.2959L75.5853 10.085H72.8348V13.2844C72.8348 14.0579 73.2741 14.4447 74.1575 14.4447H86.2481L86.2576 12.8976C86.2576 12.7878 86.1574 12.7018 86.038 12.7018H76.1105C75.7667 12.7018 75.59 12.5681 75.59 12.3007L75.5948 12.2959Z" fill="#556677"/>
</svg>
