<svg width="240" height="201" viewBox="0 0 240 201" fill="none" xmlns="http://www.w3.org/2000/svg">
<path d="M230.158 166.469C217.566 147.722 200.643 150.403 186.692 143.551C172.763 136.699 149.788 124.06 149.788 124.06C149.788 124.06 149.087 104.717 149.3 100.249C149.512 95.7802 155.266 86.3324 155.266 86.3324C155.266 86.3324 156.838 88.4816 158.961 86.3324C161.084 84.1832 166.435 75.2461 165.65 67.7347C164.864 60.2232 160.745 62.3724 160.745 62.3724C160.745 62.3724 160.469 59.9892 160.384 58.2869C160.108 51.4138 161.084 40.136 161.53 32.9863C161.976 25.8366 148.599 0.727539 119.997 0.727539C91.3951 0.727539 78.0391 25.8792 78.4638 33.0076C78.8885 40.1573 79.8864 51.4351 79.6104 58.3081C79.5467 60.0104 79.2494 62.3937 79.2494 62.3937C79.2494 62.3937 75.1301 60.2445 74.3444 67.756C73.5588 75.2674 78.8885 84.2045 81.0331 86.3537C83.1777 88.5028 84.7277 86.3537 84.7277 86.3537C84.7277 86.3537 90.4821 95.8015 90.6944 100.27C90.9068 104.739 90.206 124.081 90.206 124.081C90.206 124.081 67.2311 136.721 53.3018 143.573C39.3724 150.424 22.4279 147.743 9.83628 166.49C0.70576 180.066 -0.377161 191.62 0.0899816 200.728H239.904C240.392 191.62 239.288 180.066 230.158 166.469Z" fill="url(#paint0_linear_26213_8263)"/>
<defs>
<linearGradient id="paint0_linear_26213_8263" x1="120" y1="0.727539" x2="120" y2="200.728" gradientUnits="userSpaceOnUse">
<stop stop-color="#BDBDBD"/>
<stop offset="1" stop-color="#F5F5F5"/>
</linearGradient>
</defs>
</svg>
